<svg xmlns="http://www.w3.org/2000/svg" xmlns:xlink="http://www.w3.org/1999/xlink" width="1030" height="455.56" viewBox="0 0 1030 455.56">
  <defs>
    <linearGradient id="linear-gradient" x1="0.5" x2="0.5" y2="1" gradientUnits="objectBoundingBox">
      <stop offset="0" stop-color="#eed"/>
      <stop offset="1" stop-color="#fbf4ec"/>
    </linearGradient>
    <linearGradient id="linear-gradient-2" x1="0.5" x2="0.5" y2="1" gradientUnits="objectBoundingBox">
      <stop offset="0" stop-color="#eed"/>
      <stop offset="1" stop-color="#fff9f2"/>
    </linearGradient>
    <clipPath id="clip-path">
      <path id="Path_611005" data-name="Path 611005" d="M0,0H1030V454.56H0Z" fill="url(#linear-gradient)"/>
    </clipPath>
    <clipPath id="clip-path-2">
      <path id="Path_877090" data-name="Path 877090" d="M148.441,233.981c.024-.119.033-.239.049-.36-.784-2.834-4.821-2.786-7.09-3.979a4.854,4.854,0,0,1-1.187-.881c-.045-.045-.091-.09-.133-.137a5.372,5.372,0,0,1-1.316-2.879c-.69-4.563,1.654-8.677,3.668-12.685a1.346,1.346,0,0,0-.238-.309,2.855,2.855,0,0,0-2.009-.486,12.592,12.592,0,0,1-7.263-2.408,21.483,21.483,0,0,1-2.819-2.495c-.5-.514-1.424-2.308-2.191-2.371a.379.379,0,0,0-.189.058c-.9,3.633-.976,7.031-3.153,10.286a11.657,11.657,0,0,1-2.953,3.131,4.307,4.307,0,0,1-2.358,1.183,5.539,5.539,0,0,1-.786.071c-.107.015-.208.045-.318.055a.559.559,0,0,1-.324-.066c-1.636-.071-3.326-.46-4.585.505A4.353,4.353,0,0,0,112,222.049c-2.133,5.1-.634,11.745,2.062,16.336a17.361,17.361,0,0,0,9.585,7.831c3.736,1.045,7.634.162,11.188-1.137,1.559-.57,3.04-1.135,4.462-1.792,4.281-1.977,7.974-4.178,9.1-9.059C148.406,234.146,148.425,234.064,148.441,233.981Z" transform="translate(-110.983 -204.989)" fill="none"/>
    </clipPath>
  </defs>
  <g id="Group_1107488" data-name="Group 1107488" transform="translate(-285 -3234.99)">
    <g id="Group_1102780" data-name="Group 1102780" transform="translate(0 -193.85)">
      <g id="Group_1073695" data-name="Group 1073695" transform="translate(1600 4330.9) rotate(180)">
        <path id="Path_608309" data-name="Path 608309" d="M0,0H1030V454.56H0Z" transform="translate(285 446.5)" fill="url(#linear-gradient-2)"/>
      </g>
      <g id="Group_1102776" data-name="Group 1102776" transform="translate(283.52 3428.982)">
        <g id="Group_1102736" data-name="Group 1102736" transform="translate(38.519 39.07)">
          <path id="Path_877066" data-name="Path 877066" d="M276.6,343.861c-30.577-35.614-80.526-53.262-126.544-44.714-12.936,2.4-25.674,6.8-36.458,14.376S94.088,332.038,90.634,344.8c-4.676,17.277,1.31,37.007,14.782,48.72,9.6,8.345,22.072,12.485,34.4,15.528a263.463,263.463,0,0,0,74.521,7.425c14.757-.644,29.73-2.608,43.147-8.819,12.388-5.734,24-16.231,30.231-28.586C294.114,366.374,284.8,353.4,276.6,343.861Z" transform="translate(-45.689 -75.662)" fill="#f1ebff"/>
          <path id="Path_877067" data-name="Path 877067" d="M369.649,323.576c5.629-8.988,12.424-17.466,21.229-23.336s19.851-8.908,30.141-6.49,19.359,10.961,20.77,21.487c1.044,7.79-1.962,15.521-5.338,22.612-7.928,16.655-18.728,32.631-34.365,42.317-12.44,7.705-38.817,15.643-45.934-2.857C349.614,360.31,360.91,337.529,369.649,323.576Z" transform="translate(-83.301 -75.08)" fill="#f1ebff"/>
          <path id="Path_877068" data-name="Path 877068" d="M173.12,39.564a594.213,594.213,0,0,1,59.476.623c25.659,1.346,51.483,3.463,76.2,10.525,27.762,7.932,55.484,22.825,72.366,47.069,16.637,23.892,26.847,60.765,15.548,88.818-7.688,19.086-24.6,32.654-41.414,44.422s-34.706,23.116-46.16,40.186c-2.172,3.237-4.124,6.694-6.977,9.344s-6.893,4.4-10.639,3.372c-2.871-.792-5.084-3.047-7.062-5.285-7.019-7.937-13.035-16.881-21.221-23.594-15.39-12.621-36.2-15.693-55.888-18.3q-33.286-4.4-66.572-8.811c-17.517-2.314-38.214-5.052-54.43-12.2C60.369,204.3,42.356,177.579,39.095,149.26c-3.914-33.988,12.272-75.945,44.344-90.373C111.617,46.21,142.133,41.055,173.12,39.564Z" transform="translate(-38.519 -39.07)" fill="#c5fdff"/>
        </g>
        <g id="Group_1102737" data-name="Group 1102737" transform="translate(155.328 261.06)">
          <path id="Path_877069" data-name="Path 877069" d="M283.913,423.678h-15.8a4.412,4.412,0,0,1-4.4-4.424v-106.5a4.413,4.413,0,0,0-4.4-4.425H196.672" transform="translate(-177.763 -299.257)" fill="none" stroke="#7a5ce0" stroke-linecap="round" stroke-linejoin="round" stroke-width="1"/>
          <path id="Path_877070" data-name="Path 877070" d="M289.422,407.922h-15.8a4.413,4.413,0,0,1-4.4-4.425V302.182a4.412,4.412,0,0,0-4.4-4.425H202.181" transform="translate(-178.544 -297.757)" fill="none" stroke="#7a5ce0" stroke-linecap="round" stroke-linejoin="round" stroke-width="1"/>
          <path id="Path_877071" data-name="Path 877071" d="M280.357,392.244h-20.8a3.686,3.686,0,0,1-3.675-3.7V316.529a4.412,4.412,0,0,0-4.4-4.424H174.637" transform="translate(-174.637 -299.792)" fill="none" stroke="#7a5ce0" stroke-linecap="round" stroke-linejoin="round" stroke-width="1"/>
        </g>
        <g id="Group_1102750" data-name="Group 1102750" transform="translate(50.669 157.914)">
          <path id="Path_877072" data-name="Path 877072" d="M215.354,432.168l15.357-110.7a.307.307,0,0,1,.609-.021l16.742,110.72" transform="translate(-75.755 -197.935)" fill="none" stroke="#000" stroke-linecap="round" stroke-linejoin="round" stroke-width="2"/>
          <path id="Path_877073" data-name="Path 877073" d="M119.285,437.6l17.394-72.222L163.147,437.6" transform="translate(-62.127 -204.203)" fill="none" stroke="#000" stroke-linecap="round" stroke-linejoin="round" stroke-width="2"/>
          <g id="Group_1102746" data-name="Group 1102746" transform="translate(12.775)">
            <g id="Group_1102745" data-name="Group 1102745">
              <g id="Group_1102738" data-name="Group 1102738" transform="translate(4.595 54.042)">
                <path id="Path_877074" data-name="Path 877074" d="M74.244,329.555c-.171-.472-.354-.937-.51-1.419Q73.967,328.858,74.244,329.555Z" transform="translate(-73.035 -252.963)" fill="#7a5ce0"/>
                <path id="Path_877075" data-name="Path 877075" d="M79.583,278.292c2.018,4.764,4.264,9.422,6.478,14.094a127.341,127.341,0,0,0,7.694,14.435,115.907,115.907,0,0,0,22.379,25.255c9.224,7.891,19.829,14,30.686,19.309.089.044.18.084.269.127-2.253.087-4.509.1-6.757.027a91.549,91.549,0,0,1-13.4-1.511,54.455,54.455,0,0,0,12.107,1.944,90.872,90.872,0,0,0,20.48-1.6c6.672-1.314,13.393-3.445,19.084-7.275a25.948,25.948,0,0,0,6.743-6.407,20.664,20.664,0,0,0,2.368-4.392c-.041-.167-.067-.338-.112-.5-3.288-12.062-13.77-13.633-23.156-18.991a67.706,67.706,0,0,1-24.288-23.628c-5.486-9.077-8.708-19.248-13.094-28.858-4.092-8.966-9.4-13.59-18.774-16.883-6.95-2.443-14.629-4.117-21.607-1.757-6.222,2.106-10.819,7.119-13.769,13.118C73.412,262.905,76.492,270.992,79.583,278.292Z" transform="translate(-72.919 -240.536)" fill="#7a5ce0"/>
              </g>
              <path id="Path_877076" data-name="Path 877076" d="M195.164,304.329c.049-4.721-.086-9.014,1.129-13.713,1.61-6.222,6.385-9.621,12.338-11.539a6.237,6.237,0,0,1,4.035-.245,5.758,5.758,0,0,1,3.017,3.515c1.873,4.806.9,10.2-.1,15.261q-3.358,17-6.715,34a2.315,2.315,0,0,1-.9,1.7,2.225,2.225,0,0,1-1.491.053,64.508,64.508,0,0,1-14.588-4.788C193.843,329.492,195.153,305.386,195.164,304.329Z" transform="translate(-85.201 -191.892)" fill="#dacafc"/>
              <path id="Path_877077" data-name="Path 877077" d="M207.678,386.12a77.616,77.616,0,0,0,9.184-2.816c.006,16.465,2.307,44.226,2.232,48.965-4.622.525-8.238,2.24-12.913,2.291-3.666-5.708-5.161-21.861-7.232-28.105-.479-1.443-2.568-8.652-4.9-16.857C198.622,388.568,203.165,387.4,207.678,386.12Z" transform="translate(-85.507 -206.746)" fill="#dacafc"/>
              <path id="Path_877078" data-name="Path 877078" d="M198.841,345.759c5.328,1.234,10.8,1.8,16.2,2.6,2.846.422,8.664,2.049,11.348.05,3.395-2.527-2.166-4-4.682-5.418-4.333-2.435-8.727-4.754-13.1-7.123-4.034-2.188-9.215-6.852-13.33-2.339-2.646,2.9-2.949,7.532-3.251,11.254A35.564,35.564,0,0,1,198.841,345.759Z" transform="translate(-85.221 -199.416)"/>
              <path id="Path_877079" data-name="Path 877079" d="M99.455,324.084c2.464-7.819,13.614-9.611,20.5-9.057,14.324,1.154,28.691,1.507,42.935,2.679,11.6.953,24.234,3.476,32.213,12.777,6.522,7.6,7.573,18.06,9.42,27.586,3.419,17.637,4.375,34.174,3.977,52.044a1.558,1.558,0,0,1-1.744,1.829l-20.434,2.75a1.373,1.373,0,0,1-1.854-1.243c-1.064-3.679-15.113-59.964-14.122-60.121-11.763,1.875-21.064,1.331-32.935.373-8.39-.678-16.926-2.134-24.245-6.311C106.089,343.351,96.605,333.13,99.455,324.084Z" transform="translate(-72.015 -197.048)" fill="#1c1c1b"/>
              <path id="Path_877080" data-name="Path 877080" d="M94.374,307.711c.845,1.274.779,2.434,1.2,3.127,2.156-.029,4.315.005,6.47.038,5.646.087,11.345.168,16.9-1.006a114.13,114.13,0,0,0,14.292-4.143c7.186-2.537,13.925-4.326,13.4-13.174-.664-11.4-2.036-25.77,1.166-36.892,1.292-4.489,1.994-7.835,3.929-12.084a10.5,10.5,0,0,0,1.14-3.653,9.206,9.206,0,0,0-.347-2.72c-3.575-14.594-15.713-14.77-28.59-15.915a23.236,23.236,0,0,0-5.988-.015,22.243,22.243,0,0,0-7.391,2.417C99.268,230.5,98.5,241.933,95.107,253.747c-1.7,5.9-4.357,11.486-6.059,17.385A43.352,43.352,0,0,0,94.374,307.711Z" transform="translate(-70.349 -183.734)" fill="#ff6363"/>
              <path id="Path_877081" data-name="Path 877081" d="M223.826,439.334a26.6,26.6,0,0,0,4.942,1.694c3.838,1.162,7.814,1.817,11.6,3.16,1.986.7,3.881,3.2,1.721,4.968a6.433,6.433,0,0,1-3.417,1.1c-9.6,1.116-19.312.573-28.963.029a2.2,2.2,0,0,1-1.475-.453,2.142,2.142,0,0,1-.434-.781,77.775,77.775,0,0,1-2.722-9.7c1.294-.317,2.663.226,3.963.324,1.686.128,3.531.263,5.069-.59a24.525,24.525,0,0,0,5.648-4.31,1.626,1.626,0,0,1,.519-.407c.672-.274,1.331.457,1.558,1.15.443,1.349.466,2.859,1.736,3.663Q223.694,439.261,223.826,439.334Z" transform="translate(-87.072 -213.982)"/>
              <path id="Path_877082" data-name="Path 877082" d="M187.4,298.373c-.115-1.6.008-3.09,1.5-3.653,2.055-.777,2.75.322,4.064-1.82,2.531-4.125,4.328-9.279,6.04-13.8,2.064-5.449,5.956-12.56,5.751-18.415a1.565,1.565,0,0,0-.214-.873,1.549,1.549,0,0,0-.911-.494,29.3,29.3,0,0,0-9.352-.514c-20.637,1.334-32.158,23.827-41.919,39.231-1.473,2.323-10.048,13.5-12.3,13.324,7.887.627,13.961,4.643,21.255,6.858,4.478,1.36,9.4,5.375,13.592,5.95,1.354.186,6.879-10.022,7.685-11.359,2.113-3.5,5.095-7.5,5.03-11.749C187.611,300.224,187.469,299.28,187.4,298.373Z" transform="translate(-77.849 -189.066)" fill="#1c1c1b"/>
              <path id="Path_877083" data-name="Path 877083" d="M218.945,299.249a88.677,88.677,0,0,1-1.871,10.256,1.89,1.89,0,0,1-.364.832,1.669,1.669,0,0,1-1.355.384,23.061,23.061,0,0,1-3.02-.551c-6.264-1.207-16.682,3.029-21.5-2.841a8.345,8.345,0,0,1-1.48-4.275c-1.473-10.952,2.008-21.65,1.86-32.652-.079-5.877,2.092-9.422,5.063-14.217,2.849-4.6,6.859-6.162,12-4.41,8.661,2.954,13.615,12.179,13.209,20.946C221.073,281.567,220.127,290.441,218.945,299.249Z" transform="translate(-84.789 -187.989)" fill="#1c1c1b"/>
              <g id="Group_1102740" data-name="Group 1102740" transform="translate(53.539 9.275)">
                <g id="Group_1102739" data-name="Group 1102739">
                  <path id="Path_877084" data-name="Path 877084" d="M129.957,205.295c-.084,1.061,2.125,3.485,2.8,4.25a9.951,9.951,0,0,0,3.824,2.747c3.923,1.555,8.034,1.7,11.108-1.552a17.945,17.945,0,0,0,3.282-5.429c1.267-2.984,3.033-11.212,2.231-14.354-.728-2.852-3.77-.366-6.539-1.323-2.41-.832-4.244-1.578-6.821-1.128a9.538,9.538,0,0,0-5.94,3.415c-.388.5-.74,1.014-1.062,1.525a35.374,35.374,0,0,0-1.97,5.012,33.621,33.621,0,0,0-.795,4.359C130.058,203.643,130.022,204.471,129.957,205.295Z" transform="translate(-129.954 -188.368)" fill="#dacafc"/>
                </g>
              </g>
              <g id="Group_1102742" data-name="Group 1102742" transform="translate(45.004 23.538)">
                <g id="Group_1102741" data-name="Group 1102741">
                  <path id="Path_877085" data-name="Path 877085" d="M126.913,226.616a16.263,16.263,0,0,0,7.867,2.892c.534.044,7.3-.717,6.333-2-2.54-3.371-1.152-6.373.441-10.036.244-.562,2.377-4.021,2.157-4.411a1.346,1.346,0,0,0-.238-.309,2.855,2.855,0,0,0-2.009-.486,12.592,12.592,0,0,1-7.263-2.408,21.483,21.483,0,0,1-2.819-2.495c-.5-.514-1.424-2.308-2.191-2.371a.379.379,0,0,0-.189.058c-.9,3.633-1.343,6.811-3.153,10.286-1.4,2.69-4.861,4.022-5.842,4.2A23.474,23.474,0,0,0,126.913,226.616Z" transform="translate(-120.008 -204.989)" fill="#dacafc"/>
                </g>
              </g>
              <path id="Path_877086" data-name="Path 877086" d="M135.473,198.3c.069-.559.137-1.241.649-1.47s1.081.19,1.638.314c1.779.4,3.421-1.541,4.438-2.772.207-.251.41-.481.615-.694a4.852,4.852,0,0,1,4.34-1.629c1.954.161,3.911.839,5.835.462a5.841,5.841,0,0,0,4.413-4.336c.809-3.444-2-8.029-5.879-7.383-1.046.175-2.178.706-3.1.176a4.385,4.385,0,0,1-1.164-1.341,5.3,5.3,0,0,0-6.151-1.687,18.1,18.1,0,0,1-1.648.75,9.85,9.85,0,0,1-3.444.018,6.257,6.257,0,0,0-3.915.941,3.693,3.693,0,0,0-1.634,3.536,4.011,4.011,0,0,1,.173,1.191c-.179,1.409-2.411,1.465-3.076,2.717-.638,1.2.528,2.679.2,4-.2.786-.9,1.4-.983,2.2-.1,1,.813,1.7,1.207,2.531a10.02,10.02,0,0,1,.931,3.134c.184,2.078-1.068,4.315,1.991,4.055A5.127,5.127,0,0,0,135.473,198.3Z" transform="translate(-75.963 -177.56)" fill="#1d1d1b"/>
              <path id="Path_877087" data-name="Path 877087" d="M176.6,258.5c1.207,1.455,2.2,2.955,5.67,2.725a14.851,14.851,0,0,0,11.225-6.241,8.071,8.071,0,0,0,1.443-3.4c1-7.427-7.314-12.24-12.622-15.245a102.592,102.592,0,0,0-19.3-8c-5.883-1.893-12.029-5.18-18.363-4.672a2.849,2.849,0,0,0-.5.088c.068.824.11,1.65.118,2.476A48.328,48.328,0,0,1,150.13,241.5c.756,3.411,2.442,7.347,2.1,10.866q10.508,1.452,20.867,3.8A5.933,5.933,0,0,1,176.6,258.5Z" transform="translate(-78.429 -184.092)" fill="#ff6363"/>
              <path id="Path_877088" data-name="Path 877088" d="M191.208,245.937c-2.684.3-4.933,2.325-6.236,4.7a25.758,25.758,0,0,0-2.314,7.767c-1.419,7.626-1.882,16.469-4.425,23.78-1.58,4.541-7.728,10.807-4.686,15.988a4.408,4.408,0,0,0,4.5,2.052c3.052-.578,4.474-4.016,5.773-6.852,1.673-3.657,4.156-6.47,6.373-9.682,2.773-4.016,4.781-8.942,6.788-13.378,2.574-5.688,4.855-12.171,2.753-18.051C198.444,248.662,195.006,245.518,191.208,245.937Z" transform="translate(-82.48 -187.255)" fill="#dacafc"/>
              <g id="Group_1102744" data-name="Group 1102744" transform="translate(37.259 23.538)">
                <g id="Group_1102743" data-name="Group 1102743" clip-path="url(#clip-path-2)">
                  <path id="Path_877089" data-name="Path 877089" d="M138.065,215.749a2.566,2.566,0,0,0,.349.153,13.551,13.551,0,0,0,7.024,1.14c.588.252.393.735.1,1.608q-.622,1.834-1.12,3.708l-6.5-6.673Z" transform="translate(-114.804 -206.507)" fill="#081132"/>
                </g>
              </g>
              <path id="Path_877091" data-name="Path 877091" d="M96.143,232.141c-4.435,5.1-6.255,11.969-7.762,18.4q-2.923,12.478-5.846,24.957a29.858,29.858,0,0,0-.974,5.928,43.641,43.641,0,0,0,1.58,10.412c.964,3.979,3.332,3.734,6.857,3.382,5.575-.557,13.159-2.252,16.923-6.822,1.789-2.173,2.363-5.076,2.879-7.849l2.126-11.436c2.9-15.574,5.791-31.64,2.514-47.139A29.369,29.369,0,0,0,96.143,232.141Z" transform="translate(-69.549 -183.861)" fill="#ff6363"/>
              <path id="Path_877092" data-name="Path 877092" d="M118.283,251.84c-6.444,1.687-5.866,9.978-6.45,15.09a150.952,150.952,0,0,1-4.285,22.374" transform="translate(-73.236 -188.097)" fill="none" stroke="#1d1d1b" stroke-linecap="round" stroke-linejoin="round" stroke-width="1"/>
              <path id="Path_877093" data-name="Path 877093" d="M198.469,273.087c-2.465,10.686-8.11,26.917-8.216,37.886" transform="translate(-84.969 -191.111)" fill="none" stroke="#081132" stroke-linecap="round" stroke-linejoin="round" stroke-width="0.5"/>
              <path id="Path_877094" data-name="Path 877094" d="M146.194,208.976a2.869,2.869,0,0,0,2.159,1.872,2.594,2.594,0,0,0,2.471-1.214" transform="translate(-78.719 -182.017)" fill="#fff"/>
              <path id="Path_877095" data-name="Path 877095" d="M76.648,313.845c17.846-4.073,32.972-7.049,49.033.548,10.459,4.947,17.518,14.16,19.5,23.965s-1.2,16.674-9.8,20.994" transform="translate(-68.853 -196.305)" fill="none" stroke="#634ab5" stroke-linecap="round" stroke-linejoin="round" stroke-width="4"/>
              <path id="Path_877096" data-name="Path 877096" d="M185.563,359.206c-.488-3.717-.6-8.325-1.085-12.042" transform="translate(-84.149 -201.62)" fill="none" stroke="#081132" stroke-linecap="round" stroke-linejoin="round" stroke-width="0.5"/>
              <path id="Path_877097" data-name="Path 877097" d="M184.981,321.288c-11.489-1.757-18.882-.218-33.673-.218" transform="translate(-79.444 -197.83)" fill="none" stroke="#081132" stroke-linecap="round" stroke-linejoin="round" stroke-width="0.5"/>
              <path id="Path_877098" data-name="Path 877098" d="M132.872,200.7a3.4,3.4,0,1,0,3.4-3.421A3.412,3.412,0,0,0,132.872,200.7Z" transform="translate(-76.829 -180.357)" fill="#dacafc"/>
              <path id="Path_877099" data-name="Path 877099" d="M147.129,354.2c-.09-.044-.978-.416-1.068-.46-10.857-5.312-21.462-11.418-30.686-19.309A115.908,115.908,0,0,1,93,309.177,127.345,127.345,0,0,1,85.3,294.742c-2.214-4.673-4.461-9.331-6.478-14.094-3.091-7.3-6.171-15.387-6.664-23.5a38.716,38.716,0,0,0-3.393,10.647c-2.618,15.751-.827,35.044,4.092,50.272.155.481.339.947.51,1.419,3.281,9.062,9.9,17.154,22.283,24.213,21.968,12.519,39.387,10.644,43.885,10.791C141.785,354.563,144.875,354.287,147.129,354.2Z" transform="translate(-67.564 -188.85)" fill="#634ab5"/>
            </g>
            <path id="Path_877100" data-name="Path 877100" d="M105.433,287.331c3.457.759,6.847,1.87,10.24,2.9,5.387,1.638,10.843,2.583,16.316,4.047a19.164,19.164,0,0,0,4.742.837c2.766.027,5.437-1.1,8.2-1.159a11.136,11.136,0,0,1,9.321,5.081c3.385,5.2-2.225,3.807-5.756,3.755l-8.26-.121a316.909,316.909,0,0,0-31.914,1.31c-5.9.5-16.181,1.888-21.428-1.63-2.55-1.709-6.752-10.029-4.412-12.517a4.43,4.43,0,0,1,1.637-.965,35.139,35.139,0,0,1,16.76-2.3A41.7,41.7,0,0,1,105.433,287.331Z" transform="translate(-69.584 -192.997)" fill="#dacafc"/>
            <path id="Path_877101" data-name="Path 877101" d="M202,297.752h-.2" transform="translate(-86.608 -194.61)" fill="#dc8b77"/>
            <path id="Path_877102" data-name="Path 877102" d="M71.8,282.451c.182,2.22.541,4.439.893,6.591.449,2.747.9,5.5,1.574,8.2a16.756,16.756,0,0,0,2.916,6.639,10.252,10.252,0,0,0,10.873,3.058c2.961-.982,2.553-2.042,1.291-4.509-2.616-5.115-5.335-10.468-7.583-15.789-2.278-5.393-4.374-10.5-6.24-16.046-.394-1.17-.788-2.34-1.128-3.528a40.885,40.885,0,0,1-1.161-5.393c.236,1.619-.252,3.676-.412,5.305q-.272,2.78-.659,5.548A44.849,44.849,0,0,0,71.8,282.451Z" transform="translate(-68.146 -189.492)" fill="#634ab5"/>
          </g>
          <g id="Group_1102747" data-name="Group 1102747" transform="translate(0 120.043)">
            <path id="Path_877103" data-name="Path 877103" d="M52.678,432.168l16.1-110.7a.324.324,0,0,1,.638-.021l17.551,110.72" transform="translate(-52.678 -317.978)" fill="none" stroke="#000" stroke-linecap="round" stroke-linejoin="round" stroke-width="2"/>
            <rect id="Rectangle_403569" data-name="Rectangle 403569" width="159.483" height="4.914" transform="translate(6.211)" fill="#ae96ff"/>
          </g>
          <path id="Path_877104" data-name="Path 877104" d="M138.225,200.445a1.923,1.923,0,0,0-2.886-1.183" transform="translate(-64.404 -180.596)" fill="none" stroke="#1c1c1b" stroke-linecap="round" stroke-linejoin="round" stroke-width="0.5"/>
          <g id="Group_1102749" data-name="Group 1102749" transform="translate(53.701 81.539)">
            <rect id="Rectangle_403570" data-name="Rectangle 403570" width="74.399" height="3.399" rx="1.525" transform="translate(0 35.325)"/>
            <path id="Path_877105" data-name="Path 877105" d="M191.715,311.3H128.137l5.532-36.511a2.581,2.581,0,0,1,2.52-2.214h58.538a2.477,2.477,0,0,1,2.417,2.894Z" transform="translate(-117.084 -272.578)"/>
            <g id="Group_1102748" data-name="Group 1102748" transform="translate(43.894 18.121)">
              <line id="Line_3241" data-name="Line 3241" x2="2.758" y2="2.305" transform="translate(3.624)" fill="none" stroke="#ff6363" stroke-linecap="round" stroke-linejoin="round" stroke-width="1"/>
              <line id="Line_3242" data-name="Line 3242" x2="2.758" y2="2.305" fill="none" stroke="#ff6363" stroke-linecap="round" stroke-linejoin="round" stroke-width="1"/>
            </g>
          </g>
          <path id="Path_877106" data-name="Path 877106" d="M180.617,257.383a12.567,12.567,0,0,0,2.172,6.991" transform="translate(-70.825 -188.884)" fill="none" stroke="#1d1d1b" stroke-linecap="round" stroke-linejoin="round" stroke-width="1"/>
        </g>
        <g id="Group_1102760" data-name="Group 1102760" transform="translate(225.458 159.83)">
          <g id="Group_1102753" data-name="Group 1102753" transform="translate(70.532 2.071)">
            <g id="Group_1102752" data-name="Group 1102752">
              <g id="Group_1102751" data-name="Group 1102751">
                <path id="Path_877107" data-name="Path 877107" d="M348.161,182.729a13.246,13.246,0,0,0-2.4.962,2.31,2.31,0,0,1,.158.171,2.227,2.227,0,0,1-.432,3.107,2.2,2.2,0,0,1-3.091-.433,2.176,2.176,0,0,1-.13-.217,13.543,13.543,0,0,0-1.607,2.044,2.146,2.146,0,0,1,.236.074,2.216,2.216,0,0,1-1.721,4.085,2.12,2.12,0,0,1-.245-.135,13.43,13.43,0,0,0-.379,2.6,2.155,2.155,0,0,1,.269-.061,2.218,2.218,0,0,1,.542,4.4,2.029,2.029,0,0,1-.314.007,13.367,13.367,0,0,0,.971,2.465,2.1,2.1,0,0,1,.23-.214,2.2,2.2,0,0,1,3.09.433,2.225,2.225,0,0,1-.431,3.106,2.283,2.283,0,0,1-.291.178,13.524,13.524,0,0,0,2.082,1.655,2.226,2.226,0,0,1,.1-.324,2.209,2.209,0,1,1,4.064,1.73,2.277,2.277,0,0,1-.173.318,13.249,13.249,0,0,0,2.64.381,2.158,2.158,0,0,1-.078-.342,2.207,2.207,0,1,1,4.38-.545,2.188,2.188,0,0,1,.009.366,13.229,13.229,0,0,0,2.475-1,2.182,2.182,0,0,1-.237-.257,2.225,2.225,0,0,1,.431-3.106,2.162,2.162,0,0,1,3.273.735,13.515,13.515,0,0,0,1.633-2.1,2.165,2.165,0,0,1-1.485-3.005,2.2,2.2,0,0,1,2.892-1.178,2.255,2.255,0,0,1,.287.158,13.432,13.432,0,0,0,.36-2.625,2.138,2.138,0,0,1-.291.066,2.218,2.218,0,0,1-.541-4.4,2.067,2.067,0,0,1,.291-.007,13.335,13.335,0,0,0-.982-2.435,2.077,2.077,0,0,1-.2.183,2.2,2.2,0,0,1-3.091-.433,2.142,2.142,0,0,1,.656-3.245,13.459,13.459,0,0,0-2.044-1.6,2.1,2.1,0,0,1-.071.231,2.209,2.209,0,1,1-4.064-1.73,2.085,2.085,0,0,1,.118-.215,13.227,13.227,0,0,0-2.556-.362c.016.074.04.144.05.221a2.207,2.207,0,1,1-4.38.545A2.276,2.276,0,0,1,348.161,182.729Zm2.633,3.936a9.039,9.039,0,1,1-7.819,10.081A9,9,0,0,1,350.794,186.666Z" transform="translate(-338.551 -182.206)" fill="#ff6363"/>
              </g>
              <path id="Path_877108" data-name="Path 877108" d="M351.114,206.89a10.905,10.905,0,1,0-9.573-12.053A10.874,10.874,0,0,0,351.114,206.89Zm-5.637-11.533a6.906,6.906,0,0,1,7.646-5.812,6.561,6.561,0,0,1,6.044,7.2,6.909,6.909,0,0,1-7.646,5.813A6.561,6.561,0,0,1,345.477,195.357Z" transform="translate(-338.965 -182.623)" fill="#ff6363"/>
            </g>
          </g>
          <g id="Group_1102756" data-name="Group 1102756" transform="translate(0 22.476)">
            <g id="Group_1102755" data-name="Group 1102755">
              <g id="Group_1102754" data-name="Group 1102754">
                <path id="Path_877109" data-name="Path 877109" d="M264.168,206.416a10.536,10.536,0,0,0-1.954.806,1.745,1.745,0,0,1,.129.145,1.917,1.917,0,0,1-.344,2.62,1.759,1.759,0,0,1-2.522-.373,1.968,1.968,0,0,1-.107-.184,11.264,11.264,0,0,0-1.305,1.721,1.727,1.727,0,0,1,.192.063,1.909,1.909,0,0,1,.963,2.456,1.766,1.766,0,0,1-2.356.987,1.718,1.718,0,0,1-.2-.115,11.7,11.7,0,0,0-.3,2.191,1.7,1.7,0,0,1,.22-.051,1.873,1.873,0,1,1,.2,3.721,11.607,11.607,0,0,0,.8,2.082,1.719,1.719,0,0,1,2.709.194,1.917,1.917,0,0,1-.344,2.62,1.735,1.735,0,0,1-.237.149,11.155,11.155,0,0,0,1.7,1.4,1.833,1.833,0,0,1,.08-.273,1.767,1.767,0,0,1,2.356-.986,1.884,1.884,0,0,1,.822,2.725,10.5,10.5,0,0,0,2.154.328,1.889,1.889,0,0,1-.064-.289,1.8,1.8,0,1,1,3.578-.14,10.481,10.481,0,0,0,2.017-.838,1.818,1.818,0,0,1-.194-.218,1.916,1.916,0,0,1,.344-2.62,1.758,1.758,0,0,1,2.521.373,1.917,1.917,0,0,1,.149.255A11.273,11.273,0,0,0,276.5,223.4a1.887,1.887,0,0,1-.256-.083,1.909,1.909,0,0,1-.963-2.456,1.767,1.767,0,0,1,2.356-.987,1.788,1.788,0,0,1,.233.134,11.657,11.657,0,0,0,.287-2.214,1.667,1.667,0,0,1-.237.055,1.873,1.873,0,0,1-.453-3.716,1.7,1.7,0,0,1,.238-.005,11.684,11.684,0,0,0-.807-2.056,1.8,1.8,0,0,1-.16.154,1.759,1.759,0,0,1-2.522-.373,1.918,1.918,0,0,1,.344-2.621,1.858,1.858,0,0,1,.183-.115,11.14,11.14,0,0,0-1.672-1.358,1.619,1.619,0,0,1-.057.195,1.766,1.766,0,0,1-2.356.986,1.909,1.909,0,0,1-.963-2.456,1.816,1.816,0,0,1,.1-.182,10.535,10.535,0,0,0-2.085-.312c.014.062.033.122.041.186a1.8,1.8,0,1,1-3.572.449A2.028,2.028,0,0,1,264.168,206.416Zm2.157,3.328a7.634,7.634,0,1,1-6.353,8.486A7.451,7.451,0,0,1,266.326,209.744Z" transform="translate(-256.36 -205.985)" fill="#ff6363"/>
              </g>
              <path id="Path_877110" data-name="Path 877110" d="M266.928,225.885a7.809,7.809,0,0,0,8.575-7.112,8.086,8.086,0,0,0-6.89-8.96,7.808,7.808,0,0,0-8.575,7.111A8.089,8.089,0,0,0,266.928,225.885Zm-4.643-8.629a5.531,5.531,0,0,1,6.111-4.8,5.425,5.425,0,0,1,4.859,5.982,5.531,5.531,0,0,1-6.111,4.8A5.426,5.426,0,0,1,262.286,217.257Z" transform="translate(-256.875 -206.52)" fill="#ff6363"/>
            </g>
          </g>
          <g id="Group_1102759" data-name="Group 1102759" transform="translate(22.64)">
            <g id="Group_1102758" data-name="Group 1102758">
              <g id="Group_1102757" data-name="Group 1102757">
                <path id="Path_877111" data-name="Path 877111" d="M299.653,180.715a23.268,23.268,0,0,0-4.22,1.692,3.706,3.706,0,0,1,.277.3,3.916,3.916,0,0,1-.759,5.466,3.869,3.869,0,0,1-5.438-.763,3.638,3.638,0,0,1-.231-.381,23.789,23.789,0,0,0-2.828,3.6,3.749,3.749,0,0,1,2.477,5.246,3.875,3.875,0,0,1-5.089,2.072,3.755,3.755,0,0,1-.432-.239,23.616,23.616,0,0,0-.667,4.572,3.727,3.727,0,0,1,.474-.108,3.9,3.9,0,0,1,.953,7.747,3.835,3.835,0,0,1-.552.012,23.581,23.581,0,0,0,1.708,4.338,3.769,3.769,0,0,1,5.842.386,3.824,3.824,0,0,1-1.27,5.78,23.687,23.687,0,0,0,3.664,2.913,3.8,3.8,0,0,1,5.264-2.641,3.91,3.91,0,0,1,2.062,5.115,3.956,3.956,0,0,1-.305.561,23.208,23.208,0,0,0,4.644.67,3.944,3.944,0,0,1-.136-.6,3.883,3.883,0,1,1,7.707-.959,3.776,3.776,0,0,1,.015.644,23.277,23.277,0,0,0,4.355-1.76,3.894,3.894,0,1,1,6.1-4.626,23.736,23.736,0,0,0,2.873-3.7,3.847,3.847,0,0,1-.551-.172,3.9,3.9,0,0,1,3.027-7.189,3.807,3.807,0,0,1,.5.277,23.6,23.6,0,0,0,.633-4.619,3.719,3.719,0,0,1-.511.117,3.9,3.9,0,0,1-.954-7.747,3.8,3.8,0,0,1,.513-.011,23.593,23.593,0,0,0-1.727-4.284,3.96,3.96,0,0,1-.345.322,3.87,3.87,0,0,1-5.439-.763,3.761,3.761,0,0,1,1.154-5.708,23.678,23.678,0,0,0-3.6-2.821,3.724,3.724,0,0,1-.125.405,3.886,3.886,0,1,1-7.151-3.044,3.831,3.831,0,0,1,.207-.379,23.19,23.19,0,0,0-4.5-.637,3.806,3.806,0,0,1,.088.388,3.887,3.887,0,1,1-7.716.534Zm4.77,8.027a14.8,14.8,0,1,1-12.8,16.5A14.735,14.735,0,0,1,304.422,188.742Z" transform="translate(-282.743 -179.793)" fill="#ff6363"/>
              </g>
              <path id="Path_877112" data-name="Path 877112" d="M305.155,222.3a18.075,18.075,0,1,0-15.867-19.977A18.024,18.024,0,0,0,305.155,222.3Zm-10-19.316a12.081,12.081,0,1,1,10.661,13.42A12.11,12.11,0,0,1,295.152,202.988Z" transform="translate(-283.655 -180.711)" fill="none" stroke="#292929" stroke-linecap="round" stroke-linejoin="round" stroke-width="1"/>
            </g>
          </g>
        </g>
        <g id="Group_1102761" data-name="Group 1102761" transform="translate(188.528 61.126)">
          <path id="Path_877113" data-name="Path 877113" d="M213.325,66.552a5.093,5.093,0,0,1,7.21-.53,5.158,5.158,0,0,1,.528,7.248" transform="translate(-213.325 -64.772)" fill="none" stroke="#000" stroke-linecap="round" stroke-linejoin="round" stroke-width="1"/>
          <ellipse id="Ellipse_11587" data-name="Ellipse 11587" cx="4.881" cy="4.906" rx="4.881" ry="4.906" transform="translate(9.615 17.933)" fill="none" stroke="#000" stroke-linecap="round" stroke-linejoin="round" stroke-width="1"/>
        </g>
        <g id="Group_1102762" data-name="Group 1102762" transform="translate(319.107 86.125)">
          <path id="Path_877114" data-name="Path 877114" d="M375.637,108.893a12.127,12.127,0,0,1,12.608-12.182,11.931,11.931,0,0,1,6.209,2.1A14.208,14.208,0,0,1,405.88,93.92c6.21.3,12.222,4.521,12.724,10.311a13.9,13.9,0,0,1,5.323,24.152,8.534,8.534,0,0,1-.676,7.03,7.148,7.148,0,0,1-3.205,3.027,8.354,8.354,0,0,1-6.79.341l-.157,11.433a.7.7,0,0,1-1.278.392l-5.95-8.633c-5.544,2.281-10.519-1.14-10.89-6.2a9.865,9.865,0,0,1-4.9,1.042,10.02,10.02,0,0,1-9.482-9.239,10.191,10.191,0,0,1-10.006.2,8.987,8.987,0,0,1-4.352-4.842A10.112,10.112,0,0,1,375.637,108.893Z" transform="translate(-365.49 -93.904)" fill="#ae96ff"/>
          <path id="Path_877115" data-name="Path 877115" d="M425.039,127.679a8.2,8.2,0,0,1,7.188,5.093" transform="translate(-373.937 -98.695)" fill="none" stroke="#000" stroke-linecap="round" stroke-linejoin="round" stroke-width="1"/>
          <path id="Path_877116" data-name="Path 877116" d="M383.183,130.579a10.02,10.02,0,0,1,10.465-9.561" transform="translate(-368 -97.748)" fill="none" stroke="#000" stroke-linecap="round" stroke-linejoin="round" stroke-width="1"/>
          <path id="Path_877117" data-name="Path 877117" d="M376.321,111.38a9.959,9.959,0,0,1,5.732,1.338" transform="translate(-367.026 -96.38)" fill="none" stroke="#000" stroke-linecap="round" stroke-linejoin="round" stroke-width="1"/>
          <path id="Path_877118" data-name="Path 877118" d="M389.555,102.4a8.058,8.058,0,0,1,7.639,8.45" transform="translate(-368.903 -95.109)" fill="none" stroke="#000" stroke-linecap="round" stroke-linejoin="round" stroke-width="1"/>
          <path id="Path_877119" data-name="Path 877119" d="M396.471,137.109a7.118,7.118,0,0,1-7.747-6.439" transform="translate(-368.786 -99.119)" fill="none" stroke="#000" stroke-linecap="round" stroke-linejoin="round" stroke-width="1"/>
          <path id="Path_877120" data-name="Path 877120" d="M371.622,124.627a6.44,6.44,0,0,1,3.948-8.183" transform="translate(-366.309 -97.101)" fill="none" stroke="#000" stroke-linecap="round" stroke-linejoin="round" stroke-width="1"/>
          <path id="Path_877121" data-name="Path 877121" d="M427.6,136.962a4.849,4.849,0,0,1-6.115,3.137" transform="translate(-373.433 -100.012)" fill="none" stroke="#000" stroke-linecap="round" stroke-linejoin="round" stroke-width="1"/>
          <path id="Path_877122" data-name="Path 877122" d="M415,107.856a13.441,13.441,0,0,1,10.438-2.009" transform="translate(-372.513 -95.555)" fill="none" stroke="#000" stroke-linecap="round" stroke-linejoin="round" stroke-width="1"/>
          <path id="Path_877123" data-name="Path 877123" d="M429.816,113.113a8.234,8.234,0,0,1,3.319,6.486" transform="translate(-374.615 -96.629)" fill="none" stroke="#000" stroke-linecap="round" stroke-linejoin="round" stroke-width="1"/>
          <path id="Path_877124" data-name="Path 877124" d="M404.811,116.688a6.375,6.375,0,0,1,6.512,2.836,6.451,6.451,0,0,1-.362,7.126" transform="translate(-371.068 -97.12)" fill="none" stroke="#000" stroke-linecap="round" stroke-linejoin="round" stroke-width="1"/>
          <path id="Path_877125" data-name="Path 877125" d="M403.65,130.941a3.6,3.6,0,0,0,.849,5.891" transform="translate(-370.737 -99.158)" fill="none" stroke="#000" stroke-linecap="round" stroke-linejoin="round" stroke-width="1"/>
        </g>
        <g id="Group_1102764" data-name="Group 1102764" transform="translate(229.432 63.622)">
          <g id="Group_1102763" data-name="Group 1102763" transform="translate(3.02)">
            <path id="Path_877126" data-name="Path 877126" d="M329.261,67.68l.371,36.218-7.549.041-.371-36.218Z" transform="translate(-272.625 -67.68)" fill="#7a5ce0"/>
            <path id="Path_877127" data-name="Path 877127" d="M309.709,74.657l.311,30.322-7.549.041L302.16,74.7Z" transform="translate(-269.852 -68.67)" fill="#ff6363"/>
            <path id="Path_877128" data-name="Path 877128" d="M282.591,80.013l.265,25.857,7.549-.041-.265-25.816Z" transform="translate(-267.075 -69.43)" fill="#7a5ce0"/>
            <path id="Path_877129" data-name="Path 877129" d="M272.059,94l.142,13.9-7.549.041-.142-13.9Z" transform="translate(-264.511 -71.414)" fill="#ff6363"/>
          </g>
          <line id="Line_3243" data-name="Line 3243" x1="66.324" y2="0.413" transform="translate(0 36.23)" fill="none" stroke="#101c59" stroke-linecap="round" stroke-linejoin="round" stroke-width="1"/>
          <line id="Line_3244" data-name="Line 3244" y2="8.252" transform="translate(36.754 8.198)" fill="none" stroke="#000" stroke-linecap="round" stroke-linejoin="round" stroke-width="1"/>
          <line id="Line_3245" data-name="Line 3245" y2="10.425" transform="translate(53.849 20.997)" fill="none" stroke="#000" stroke-linecap="round" stroke-linejoin="round" stroke-width="1"/>
          <line id="Line_3246" data-name="Line 3246" y2="3.449" transform="translate(4.128 26.427)" fill="none" stroke="#000" stroke-linecap="round" stroke-linejoin="round" stroke-width="1"/>
          <path id="Path_877130" data-name="Path 877130" d="M284.4,90.869v1.479" transform="translate(-264.311 -70.97)" fill="none" stroke="#000" stroke-linecap="round" stroke-linejoin="round" stroke-width="1"/>
        </g>
        <path id="Path_877131" data-name="Path 877131" d="M158.729,257.311a14.332,14.332,0,0,0-.282-4.032" transform="translate(-17.013 -30.387)" fill="none" stroke="#1d1d1b" stroke-linecap="round" stroke-linejoin="round" stroke-width="1"/>
        <g id="Group_1102765" data-name="Group 1102765" transform="translate(203.652 103.003)">
          <path id="Path_877132" data-name="Path 877132" d="M356.725,146.107l-17.1,17.19H271.7l-21.1,21.566" transform="translate(-233.738 -118.187)" fill="none" stroke="#7a5ce0" stroke-linecap="round" stroke-linejoin="round" stroke-width="1"/>
          <path id="Path_877133" data-name="Path 877133" d="M358.609,154.727l-15.235,15.315H283.323l-23.255,23.377" transform="translate(-235.081 -119.409)" fill="none" stroke="#7a5ce0" stroke-linecap="round" stroke-linejoin="round" stroke-width="1"/>
          <line id="Line_3247" data-name="Line 3247" x1="104.333" transform="translate(2.902 3.126)" fill="none" stroke="#7a5ce0" stroke-linecap="round" stroke-linejoin="round" stroke-width="1"/>
          <path id="Path_877134" data-name="Path 877134" d="M335.536,136.152h-83.7L234.2,153.88" transform="translate(-231.411 -116.774)" fill="none" stroke="#7a5ce0" stroke-linecap="round" stroke-linejoin="round" stroke-width="1"/>
          <path id="Path_877135" data-name="Path 877135" d="M306.729,148.05l-9.327,9.376H254.911l-11.918,11.981" transform="translate(-232.658 -118.462)" fill="none" stroke="#7a5ce0" stroke-linecap="round" stroke-linejoin="round" stroke-width="1"/>
          <line id="Line_3248" data-name="Line 3248" x2="34.407" transform="translate(26.813 29.171)" fill="none" stroke="#7a5ce0" stroke-linecap="round" stroke-linejoin="round" stroke-width="1"/>
          <line id="Line_3249" data-name="Line 3249" x1="60.109" transform="translate(33.446 10.835)" fill="none" stroke="#7a5ce0" stroke-linecap="round" stroke-linejoin="round" stroke-width="1"/>
          <line id="Line_3250" data-name="Line 3250" x2="21.971" transform="translate(81.533 33.338)" fill="none" stroke="#7a5ce0" stroke-linecap="round" stroke-linejoin="round" stroke-width="1"/>
          <path id="Path_877136" data-name="Path 877136" d="M358.334,116.488a2.9,2.9,0,1,1-2.9-2.917A2.91,2.91,0,0,1,358.334,116.488Z" transform="translate(-248.197 -113.571)" fill="#7a5ce0"/>
          <path id="Path_877137" data-name="Path 877137" d="M236.754,116.488a2.9,2.9,0,1,1-2.9-2.917A2.91,2.91,0,0,1,236.754,116.488Z" transform="translate(-230.95 -113.571)" fill="#7a5ce0"/>
          <ellipse id="Ellipse_11588" data-name="Ellipse 11588" cx="2.902" cy="2.917" rx="2.902" ry="2.917" transform="translate(99.773 30.838)" fill="#7a5ce0"/>
          <ellipse id="Ellipse_11589" data-name="Ellipse 11589" cx="2.902" cy="2.917" rx="2.902" ry="2.917" transform="translate(58.318 26.254)" fill="#7a5ce0"/>
          <path id="Path_877138" data-name="Path 877138" d="M318.239,147.082a2.9,2.9,0,1,1-2.9-2.917A2.909,2.909,0,0,1,318.239,147.082Z" transform="translate(-242.509 -117.911)" fill="#7a5ce0"/>
          <ellipse id="Ellipse_11590" data-name="Ellipse 11590" cx="2.902" cy="2.917" rx="2.902" ry="2.917" transform="translate(25.569 25.837)" fill="#7a5ce0"/>
          <path id="Path_877139" data-name="Path 877139" d="M253.99,189.331a2.9,2.9,0,1,1-2.9-2.918A2.909,2.909,0,0,1,253.99,189.331Z" transform="translate(-233.395 -123.904)" fill="#7a5ce0"/>
          <ellipse id="Ellipse_11591" data-name="Ellipse 11591" cx="2.902" cy="2.917" rx="2.902" ry="2.917" transform="translate(22.262 70.998)" fill="#7a5ce0"/>
          <ellipse id="Ellipse_11592" data-name="Ellipse 11592" cx="2.902" cy="2.917" rx="2.902" ry="2.917" transform="translate(8.573 46.257)" fill="#7a5ce0"/>
          <ellipse id="Ellipse_11593" data-name="Ellipse 11593" cx="2.902" cy="2.917" rx="2.902" ry="2.917" transform="translate(81.118 30.838)" fill="#7a5ce0"/>
          <path id="Path_877140" data-name="Path 877140" d="M354.711,135.67a2.9,2.9,0,1,1-2.9-2.917A2.909,2.909,0,0,1,354.711,135.67Z" transform="translate(-247.683 -116.292)" fill="#7a5ce0"/>
          <path id="Path_877141" data-name="Path 877141" d="M377.321,154.245a2.9,2.9,0,1,1-2.9-2.917A2.909,2.909,0,0,1,377.321,154.245Z" transform="translate(-250.89 -118.927)" fill="#7a5ce0"/>
          <path id="Path_877142" data-name="Path 877142" d="M376.449,145.383a2.9,2.9,0,1,1-2.9-2.918A2.909,2.909,0,0,1,376.449,145.383Z" transform="translate(-250.767 -117.67)" fill="#7a5ce0"/>
          <ellipse id="Ellipse_11594" data-name="Ellipse 11594" cx="2.902" cy="2.917" rx="2.902" ry="2.917" transform="translate(90.653 7.918)" fill="#7a5ce0"/>
          <ellipse id="Ellipse_11595" data-name="Ellipse 11595" cx="2.902" cy="2.917" rx="2.902" ry="2.917" transform="translate(30.544 7.918)" fill="#7a5ce0"/>
          <ellipse id="Ellipse_11596" data-name="Ellipse 11596" cx="2.902" cy="2.917" rx="2.902" ry="2.917" transform="translate(1.111 33.338)" fill="#7a5ce0"/>
        </g>
        <g id="Group_1102773" data-name="Group 1102773" transform="translate(49.395 73.206)">
          <g id="Group_1102771" data-name="Group 1102771" transform="translate(0 0)">
            <g id="Group_1102766" data-name="Group 1102766" transform="translate(0 2.593)">
              <path id="Path_877143" data-name="Path 877143" d="M77.583,117.965h0a1.6,1.6,0,0,0,1.6,1.6h30.7a1.6,1.6,0,0,0,1.6-1.6h0a1.6,1.6,0,0,0-1.6-1.6h-30.7A1.6,1.6,0,0,0,77.583,117.965Z" transform="translate(-54.937 -86.763)" fill="#bfa7f2"/>
              <path id="Path_877144" data-name="Path 877144" d="M132.7,116.361h-9.81a1.6,1.6,0,0,0-1.6,1.6h0a1.6,1.6,0,0,0,1.6,1.6h9.81a1.6,1.6,0,0,0,1.594-1.6h0A1.6,1.6,0,0,0,132.7,116.361Z" transform="translate(-61.137 -86.763)" fill="#bfa7f2"/>
              <path id="Path_877145" data-name="Path 877145" d="M118.279,125.561H90.354a1.6,1.6,0,0,0-1.6,1.6h0a1.6,1.6,0,0,0,1.6,1.6h27.925a1.6,1.6,0,0,0,1.6-1.6h0A1.6,1.6,0,0,0,118.279,125.561Z" transform="translate(-56.522 -88.068)" fill="#bfa7f2"/>
              <path id="Path_877146" data-name="Path 877146" d="M128.168,127.164h0a1.6,1.6,0,0,0,1.594,1.6h5.946a1.6,1.6,0,0,0,1.6-1.6h0a1.6,1.6,0,0,0-1.6-1.6h-5.946A1.6,1.6,0,0,0,128.168,127.164Z" transform="translate(-62.112 -88.068)" fill="#bfa7f2"/>
              <path id="Path_877147" data-name="Path 877147" d="M82.693,125.561H79.178a1.6,1.6,0,0,0-1.6,1.6h0a1.6,1.6,0,0,0,1.6,1.6h3.515a1.6,1.6,0,0,0,1.594-1.6h0A1.6,1.6,0,0,0,82.693,125.561Z" transform="translate(-54.937 -88.068)" fill="#bfa7f2"/>
              <path id="Path_877148" data-name="Path 877148" d="M68.763,125.561H54.693a1.6,1.6,0,0,0-1.6,1.6h0a1.6,1.6,0,0,0,1.6,1.6H68.763a.961.961,0,0,0,.959-.965v-1.279A.961.961,0,0,0,68.763,125.561Z" transform="translate(-51.463 -88.068)" fill="#bfa7f2"/>
              <path id="Path_877149" data-name="Path 877149" d="M93.909,135.746h0a1.6,1.6,0,0,0,1.6,1.6H130.25a1.6,1.6,0,0,0,1.6-1.6h0a1.6,1.6,0,0,0-1.6-1.6H95.5A1.6,1.6,0,0,0,93.909,135.746Z" transform="translate(-57.253 -89.285)" fill="#bfa7f2"/>
              <path id="Path_877150" data-name="Path 877150" d="M65.1,135.746h0a1.6,1.6,0,0,0,1.6,1.6H82.9a1.6,1.6,0,0,0,1.594-1.6h0a1.6,1.6,0,0,0-1.594-1.6H66.7A1.6,1.6,0,0,0,65.1,135.746Z" transform="translate(-53.166 -89.285)" fill="#bfa7f2"/>
              <path id="Path_877151" data-name="Path 877151" d="M51.193,144.945h0a1.6,1.6,0,0,0,1.594,1.6h2.138a1.6,1.6,0,0,0,1.594-1.6h0a1.6,1.6,0,0,0-1.594-1.6H52.787A1.6,1.6,0,0,0,51.193,144.945Z" transform="translate(-51.193 -90.59)" fill="#bfa7f2"/>
              <path id="Path_877152" data-name="Path 877152" d="M59.885,144.945h0a1.6,1.6,0,0,0,1.6,1.6H82.373a1.6,1.6,0,0,0,1.6-1.6h0a1.6,1.6,0,0,0-1.6-1.6H61.48A1.6,1.6,0,0,0,59.885,144.945Z" transform="translate(-52.426 -90.59)" fill="#bfa7f2"/>
              <path id="Path_877153" data-name="Path 877153" d="M91.922,144.945h0a1.6,1.6,0,0,0,1.6,1.6h7.68a1.6,1.6,0,0,0,1.594-1.6h0a1.6,1.6,0,0,0-1.594-1.6h-7.68A1.6,1.6,0,0,0,91.922,144.945Z" transform="translate(-56.971 -90.59)" fill="#bfa7f2"/>
              <path id="Path_877154" data-name="Path 877154" d="M110.052,144.945h0a1.6,1.6,0,0,0,1.6,1.6h7.892a1.6,1.6,0,0,0,1.594-1.6h0a1.6,1.6,0,0,0-1.594-1.6h-7.892A1.6,1.6,0,0,0,110.052,144.945Z" transform="translate(-59.543 -90.59)" fill="#bfa7f2"/>
              <path id="Path_877155" data-name="Path 877155" d="M129.424,144.945h0a1.6,1.6,0,0,0,1.594,1.6h4.269a1.6,1.6,0,0,0,1.6-1.6h0a1.6,1.6,0,0,0-1.6-1.6h-4.269A1.6,1.6,0,0,0,129.424,144.945Z" transform="translate(-62.291 -90.59)" fill="#bfa7f2"/>
              <path id="Path_877156" data-name="Path 877156" d="M71.806,154.144h0a1.6,1.6,0,0,0,1.6,1.6h2.99a1.6,1.6,0,0,0,1.6-1.6h0a1.6,1.6,0,0,0-1.6-1.6H73.4A1.6,1.6,0,0,0,71.806,154.144Z" transform="translate(-54.117 -91.895)" fill="#bfa7f2"/>
              <path id="Path_877157" data-name="Path 877157" d="M86.369,154.144h0a1.6,1.6,0,0,0,1.6,1.6h15.011a1.6,1.6,0,0,0,1.6-1.6h0a1.6,1.6,0,0,0-1.6-1.6H87.964A1.6,1.6,0,0,0,86.369,154.144Z" transform="translate(-56.183 -91.895)" fill="#bfa7f2"/>
              <path id="Path_877158" data-name="Path 877158" d="M111.349,154.144h0a1.6,1.6,0,0,0,1.6,1.6h11.728a1.6,1.6,0,0,0,1.6-1.6h0a1.6,1.6,0,0,0-1.6-1.6H112.944A1.6,1.6,0,0,0,111.349,154.144Z" transform="translate(-59.727 -91.895)" fill="#bfa7f2"/>
              <path id="Path_877159" data-name="Path 877159" d="M94.381,91.422h0a1.6,1.6,0,0,0,1.6,1.6h34.745a1.6,1.6,0,0,0,1.6-1.6h0a1.6,1.6,0,0,0-1.6-1.6H95.976A1.6,1.6,0,0,0,94.381,91.422Z" transform="translate(-57.32 -82.998)" fill="#bfa7f2"/>
              <path id="Path_877160" data-name="Path 877160" d="M108.211,81.87h-4.247a1.6,1.6,0,0,0-1.6,1.6h0a1.6,1.6,0,0,0,1.6,1.6h4.247a1.6,1.6,0,0,0,1.6-1.6h0A1.6,1.6,0,0,0,108.211,81.87Z" transform="translate(-58.453 -81.87)" fill="#bfa7f2"/>
              <path id="Path_877161" data-name="Path 877161" d="M94.061,81.87H79.636a1.6,1.6,0,0,0-1.6,1.6h0a1.6,1.6,0,0,0,1.6,1.6H94.061a1.6,1.6,0,0,0,1.6-1.6h0A1.6,1.6,0,0,0,94.061,81.87Z" transform="translate(-55.002 -81.87)" fill="#bfa7f2"/>
              <rect id="Rectangle_403571" data-name="Rectangle 403571" width="21.164" height="3.207" rx="1.604" transform="translate(53.833 0)" fill="#bfa7f2"/>
              <path id="Path_877162" data-name="Path 877162" d="M92.394,100.621h0a1.6,1.6,0,0,0,1.6,1.6h7.679a1.6,1.6,0,0,0,1.6-1.6h0a1.6,1.6,0,0,0-1.6-1.6H93.989A1.6,1.6,0,0,0,92.394,100.621Z" transform="translate(-57.038 -84.303)" fill="#bfa7f2"/>
              <path id="Path_877163" data-name="Path 877163" d="M110.524,100.621h0a1.6,1.6,0,0,0,1.6,1.6h7.891a1.6,1.6,0,0,0,1.6-1.6h0a1.6,1.6,0,0,0-1.6-1.6h-7.891A1.6,1.6,0,0,0,110.524,100.621Z" transform="translate(-59.61 -84.303)" fill="#bfa7f2"/>
              <path id="Path_877164" data-name="Path 877164" d="M128.826,100.621h0a1.6,1.6,0,0,0,1.6,1.6h5.812a1.6,1.6,0,0,0,1.6-1.6h0a1.6,1.6,0,0,0-1.6-1.6h-5.812A1.6,1.6,0,0,0,128.826,100.621Z" transform="translate(-62.206 -84.303)" fill="#bfa7f2"/>
              <path id="Path_877165" data-name="Path 877165" d="M100.914,109.821h0a1.6,1.6,0,0,0,1.6,1.6h8.957a1.6,1.6,0,0,0,1.6-1.6h0a1.6,1.6,0,0,0-1.6-1.6h-8.957A1.6,1.6,0,0,0,100.914,109.821Z" transform="translate(-58.246 -85.608)" fill="#bfa7f2"/>
              <path id="Path_877166" data-name="Path 877166" d="M72.278,109.821h0a1.6,1.6,0,0,0,1.594,1.6h2.991a1.6,1.6,0,0,0,1.6-1.6h0a1.6,1.6,0,0,0-1.6-1.6H73.872A1.6,1.6,0,0,0,72.278,109.821Z" transform="translate(-54.184 -85.608)" fill="#bfa7f2"/>
              <path id="Path_877167" data-name="Path 877167" d="M82.957,109.821h0a1.6,1.6,0,0,0,1.594,1.6h6.614a1.6,1.6,0,0,0,1.6-1.6h0a1.6,1.6,0,0,0-1.6-1.6H84.551A1.6,1.6,0,0,0,82.957,109.821Z" transform="translate(-55.699 -85.608)" fill="#bfa7f2"/>
              <path id="Path_877168" data-name="Path 877168" d="M121.948,109.821h0a1.6,1.6,0,0,0,1.6,1.6h11.728a1.6,1.6,0,0,0,1.6-1.6h0a1.6,1.6,0,0,0-1.6-1.6H123.543A1.6,1.6,0,0,0,121.948,109.821Z" transform="translate(-61.23 -85.608)" fill="#bfa7f2"/>
            </g>
            <g id="Group_1102767" data-name="Group 1102767" transform="translate(13.121)">
              <path id="Path_877169" data-name="Path 877169" d="M70.793,86.713a.75.75,0,0,1-.512-.2l-3.8-3.529,3.768-3.9a.752.752,0,0,1,1.068-.015.761.761,0,0,1,.016,1.074l-2.69,2.786L71.307,85.4a.763.763,0,0,1,.042,1.074A.752.752,0,0,1,70.793,86.713Z" transform="translate(-66.483 -78.848)" fill="#bfa7f2"/>
            </g>
            <g id="Group_1102768" data-name="Group 1102768" transform="translate(17.701)">
              <path id="Path_877170" data-name="Path 877170" d="M76.13,86.713a.753.753,0,0,1-.512-.2l-3.8-3.529,3.769-3.9a.752.752,0,0,1,1.068-.015.762.762,0,0,1,.016,1.074l-2.69,2.786,2.66,2.472a.761.761,0,0,1,.042,1.074A.749.749,0,0,1,76.13,86.713Z" transform="translate(-71.82 -78.848)" fill="#bfa7f2"/>
            </g>
            <g id="Group_1102769" data-name="Group 1102769" transform="translate(72.764 61.127)">
              <path id="Path_877171" data-name="Path 877171" d="M136.741,157.945a.752.752,0,0,1-.555-.245.763.763,0,0,1,.042-1.074l2.661-2.472-2.69-2.786a.762.762,0,0,1,.015-1.074.754.754,0,0,1,1.069.016l3.768,3.9-3.8,3.529A.75.75,0,0,1,136.741,157.945Z" transform="translate(-135.985 -150.08)" fill="#bfa7f2"/>
            </g>
            <g id="Group_1102770" data-name="Group 1102770" transform="translate(68.183 61.127)">
              <path id="Path_877172" data-name="Path 877172" d="M131.4,157.945a.753.753,0,0,1-.556-.245.763.763,0,0,1,.042-1.074l2.661-2.472-2.69-2.786a.763.763,0,0,1,.016-1.074.753.753,0,0,1,1.068.016l3.769,3.9-3.8,3.529A.753.753,0,0,1,131.4,157.945Z" transform="translate(-130.647 -150.08)" fill="#bfa7f2"/>
            </g>
          </g>
          <g id="Group_1102772" data-name="Group 1102772" transform="translate(123.39 24.37)">
            <rect id="Rectangle_403572" data-name="Rectangle 403572" width="10.268" height="43.464" rx="5.134" transform="translate(4.54 8.299)" fill="#ae96ff"/>
            <path id="Path_877173" data-name="Path 877173" d="M222.806,198.856l-.917.5a4.079,4.079,0,0,1-5.544-1.661L203.164,173.2a4.122,4.122,0,0,1,1.651-5.572l.916-.5a4.079,4.079,0,0,1,5.544,1.66l13.181,24.491A4.122,4.122,0,0,1,222.806,198.856Z" transform="translate(-196.072 -115.672)" fill="#ae96ff"/>
            <path id="Path_877174" data-name="Path 877174" d="M222.427,219.046c-2.856-5.665-1.5-12.13,3.034-14.438s10.521.412,13.377,6.077" transform="translate(-198.662 -120.941)" fill="none" stroke="#ae96ff" stroke-linecap="round" stroke-linejoin="round" stroke-width="5"/>
            <ellipse id="Ellipse_11597" data-name="Ellipse 11597" cx="1.651" cy="1.66" rx="1.651" ry="1.66" transform="translate(8.373 45.761)" fill="#1d1d1b"/>
            <path id="Path_877175" data-name="Path 877175" d="M209.689,171.351a1.651,1.651,0,1,1-1.651-1.661A1.655,1.655,0,0,1,209.689,171.351Z" transform="translate(-196.599 -116.105)" fill="#1d1d1b"/>
            <ellipse id="Ellipse_11598" data-name="Ellipse 11598" cx="10.26" cy="10.314" rx="10.26" ry="10.314" transform="translate(0)" fill="none" stroke="#000" stroke-linecap="round" stroke-linejoin="round" stroke-width="1"/>
            <ellipse id="Ellipse_11599" data-name="Ellipse 11599" cx="6.981" cy="7.018" rx="6.981" ry="7.018" transform="translate(3.279 3.296)"/>
            <path id="Path_877176" data-name="Path 877176" d="M222.427,219.046c-2.856-5.665-1.5-12.13,3.034-14.438s10.521.412,13.377,6.077" transform="translate(-198.662 -120.941)" fill="none" stroke="#000" stroke-linecap="round" stroke-linejoin="round" stroke-width="1"/>
          </g>
          <path id="Path_877177" data-name="Path 877177" d="M197.9,113.136V99.841a9.554,9.554,0,0,0-9.529-9.58H141.838" transform="translate(-64.052 -80.467)" fill="none" stroke="#7a5ce0" stroke-linecap="round" stroke-linejoin="round" stroke-width="1"/>
          <path id="Path_877178" data-name="Path 877178" d="M141.838,114.3h20.853a16.318,16.318,0,0,1,11.568,4.816l19.77,19.875" transform="translate(-64.052 -83.877)" fill="none" stroke="#7a5ce0" stroke-linecap="round" stroke-linejoin="round" stroke-width="1"/>
          <path id="Path_877179" data-name="Path 877179" d="M141.838,122.312h16.5a16.316,16.316,0,0,1,11.568,4.817l23.812,23.938" transform="translate(-64.052 -85.014)" fill="none" stroke="#7a5ce0" stroke-linecap="round" stroke-linejoin="round" stroke-width="1"/>
        </g>
        <path id="Path_877180" data-name="Path 877180" d="M198.512,311.3l6.071-36.68a1.754,1.754,0,0,0-1.723-2.045h-26.81" transform="translate(-19.51 -33.125)" fill="none" stroke="#ff6363" stroke-linecap="round" stroke-linejoin="round" stroke-width="1"/>
        <g id="Group_1102774" data-name="Group 1102774" transform="translate(258.469 304.688)">
          <rect id="Rectangle_403573" data-name="Rectangle 403573" width="104.431" height="96.398" fill="#ae96ff"/>
          <line id="Line_3251" data-name="Line 3251" x1="104.431" transform="translate(0 19.009)" fill="none" stroke="#1d1d1b" stroke-linecap="round" stroke-linejoin="round" stroke-width="1"/>
          <line id="Line_3252" data-name="Line 3252" x1="104.431" transform="translate(0 38.018)" fill="none" stroke="#1d1d1b" stroke-linecap="round" stroke-linejoin="round" stroke-width="1"/>
          <line id="Line_3253" data-name="Line 3253" x1="104.431" transform="translate(0 57.027)" fill="none" stroke="#1d1d1b" stroke-linecap="round" stroke-linejoin="round" stroke-width="1"/>
          <line id="Line_3254" data-name="Line 3254" x1="104.431" transform="translate(0 76.035)" fill="none" stroke="#1d1d1b" stroke-linecap="round" stroke-linejoin="round" stroke-width="1"/>
          <rect id="Rectangle_403574" data-name="Rectangle 403574" width="19.769" height="5.616" transform="translate(7.306 82.948)" fill="#7a5ce0"/>
          <rect id="Rectangle_403575" data-name="Rectangle 403575" width="58.447" height="5.616" transform="translate(36.959 82.948)" fill="#7a5ce0"/>
          <rect id="Rectangle_403576" data-name="Rectangle 403576" width="19.769" height="5.616" transform="translate(7.306 64.371)" fill="#7a5ce0"/>
          <rect id="Rectangle_403577" data-name="Rectangle 403577" width="58.447" height="5.616" transform="translate(36.959 64.371)" fill="#7a5ce0"/>
          <rect id="Rectangle_403578" data-name="Rectangle 403578" width="19.769" height="5.616" transform="translate(7.306 45.794)" fill="#7a5ce0"/>
          <rect id="Rectangle_403579" data-name="Rectangle 403579" width="58.447" height="5.616" transform="translate(36.959 45.794)" fill="#7a5ce0"/>
          <rect id="Rectangle_403580" data-name="Rectangle 403580" width="19.769" height="5.616" transform="translate(7.306 27.217)" fill="#7a5ce0"/>
          <rect id="Rectangle_403581" data-name="Rectangle 403581" width="58.447" height="5.616" transform="translate(36.959 27.217)" fill="#7a5ce0"/>
          <rect id="Rectangle_403582" data-name="Rectangle 403582" width="19.769" height="5.616" transform="translate(7.306 8.64)" fill="#7a5ce0"/>
          <rect id="Rectangle_403583" data-name="Rectangle 403583" width="58.447" height="5.616" transform="translate(36.959 8.64)" fill="#7a5ce0"/>
        </g>
        <g id="Group_1102775" data-name="Group 1102775" transform="translate(301.623 131.083)">
          <ellipse id="Ellipse_11600" data-name="Ellipse 11600" cx="2.902" cy="2.917" rx="2.902" ry="2.917" transform="translate(28.077 15.161)" fill="#7a5ce0"/>
          <path id="Path_877181" data-name="Path 877181" d="M408.762,161a2.9,2.9,0,1,1-2.9-2.917A2.909,2.909,0,0,1,408.762,161Z" transform="translate(-353.321 -147.967)" fill="#7a5ce0"/>
          <path id="Path_877182" data-name="Path 877182" d="M401,156.474a2.9,2.9,0,1,1-2.9-2.917A2.91,2.91,0,0,1,401,156.474Z" transform="translate(-352.22 -147.324)" fill="#7a5ce0"/>
          <ellipse id="Ellipse_11601" data-name="Ellipse 11601" cx="2.902" cy="2.917" rx="2.902" ry="2.917" transform="translate(36.981)" fill="#7a5ce0"/>
          <path id="Path_877183" data-name="Path 877183" d="M406.437,159.809l.645,141.918,28.042,28.189V373.01L418.2,390.021" transform="translate(-353.815 -148.211)" fill="none" stroke="#7a5ce0" stroke-linecap="round" stroke-linejoin="round" stroke-width="1"/>
          <path id="Path_877184" data-name="Path 877184" d="M387.63,148.482V291.048L362.812,316" transform="translate(-347.626 -146.604)" fill="none" stroke="#7a5ce0" stroke-linecap="round" stroke-linejoin="round" stroke-width="1"/>
          <line id="Line_3255" data-name="Line 3255" y2="156.913" transform="translate(46.036 8.916)" fill="none" stroke="#7a5ce0" stroke-linecap="round" stroke-linejoin="round" stroke-width="1"/>
          <path id="Path_877185" data-name="Path 877185" d="M376.581,167.36V289.838l-28.042,28.189" transform="translate(-345.602 -149.282)" fill="none" stroke="#7a5ce0" stroke-linecap="round" stroke-linejoin="round" stroke-width="1"/>
          <ellipse id="Ellipse_11602" data-name="Ellipse 11602" cx="2.902" cy="2.917" rx="2.902" ry="2.917" transform="translate(0 165.792)" fill="#7a5ce0"/>
          <path id="Path_877186" data-name="Path 877186" d="M401.584,341.906a2.9,2.9,0,1,1-2.9-2.917A2.91,2.91,0,0,1,401.584,341.906Z" transform="translate(-352.303 -173.629)" fill="#7a5ce0"/>
          <ellipse id="Ellipse_11603" data-name="Ellipse 11603" cx="2.902" cy="2.917" rx="2.902" ry="2.917" transform="translate(60.954 239.667)" fill="#7a5ce0"/>
          <ellipse id="Ellipse_11604" data-name="Ellipse 11604" cx="2.902" cy="2.917" rx="2.902" ry="2.917" transform="translate(12.284 165.792)" fill="#7a5ce0"/>
        </g>
      </g>
      <rect id="Rectangle_403584" data-name="Rectangle 403584" width="400" height="321" rx="20" transform="translate(704.711 3512)" fill="#4b0d6b"/>
      <rect id="Rectangle_403586" data-name="Rectangle 403586" width="354" height="233" rx="36" transform="translate(750.711 3584)" fill="#ffc9dd"/>
      <rect id="Rectangle_403587" data-name="Rectangle 403587" width="295" height="145" rx="36" transform="translate(809.711 3672)" fill="#c5fdff"/>
      <rect id="Rectangle_403585" data-name="Rectangle 403585" width="173" height="321" rx="20" transform="translate(1124.711 3512)" fill="#4b0d6b"/>
      <path id="Path_881775" data-name="Path 881775" d="M11.007,10.231a7.3,7.3,0,0,1-.631,3.129,4.751,4.751,0,0,1-1.805,2.075,4.994,4.994,0,0,1-2.694.73A5.028,5.028,0,0,1,3.2,15.444,4.8,4.8,0,0,1,1.37,13.381,7.087,7.087,0,0,1,.714,10.3V9.7a7.258,7.258,0,0,1,.643-3.142A4.79,4.79,0,0,1,3.175,4.474,5,5,0,0,1,5.86,3.748a5,5,0,0,1,2.685.726,4.79,4.79,0,0,1,1.818,2.083,7.237,7.237,0,0,1,.643,3.134ZM8.483,9.683A5.086,5.086,0,0,0,7.8,6.794,2.218,2.218,0,0,0,5.86,5.807a2.219,2.219,0,0,0-1.934.975,5.028,5.028,0,0,0-.689,2.86v.589A5.15,5.15,0,0,0,3.918,13.1a2.212,2.212,0,0,0,1.959,1.021A2.192,2.192,0,0,0,7.8,13.14a5.12,5.12,0,0,0,.681-2.868Zm7.047-4.873V7.019h1.536v1.76H15.531v4.482a1.07,1.07,0,0,0,.191.714.959.959,0,0,0,.73.216,3.826,3.826,0,0,0,.706-.058V15.95a4.938,4.938,0,0,1-1.453.216,2.29,2.29,0,0,1-2.573-2.548V8.778H11.82V7.019h1.312V4.811ZM23.45,9.268a6.517,6.517,0,0,0-.863-.066,1.757,1.757,0,0,0-1.785.921V16H18.4V7.019h2.266l.066,1.071a2.223,2.223,0,0,1,2-1.237,2.514,2.514,0,0,1,.747.108ZM29.559,16a2.664,2.664,0,0,1-.241-.805,2.9,2.9,0,0,1-2.266.971,3.189,3.189,0,0,1-2.187-.764A2.456,2.456,0,0,1,24,13.477a2.538,2.538,0,0,1,1.058-2.191,5.222,5.222,0,0,1,3.059-.772h1.1V10a1.48,1.48,0,0,0-.32-1,1.257,1.257,0,0,0-1.009-.374,1.429,1.429,0,0,0-.95.291.987.987,0,0,0-.344.8H24.2a2.41,2.41,0,0,1,.481-1.444A3.182,3.182,0,0,1,26.04,7.23a4.961,4.961,0,0,1,1.976-.378,3.92,3.92,0,0,1,2.635.834,2.918,2.918,0,0,1,.975,2.345v3.893a4.294,4.294,0,0,0,.357,1.934V16Zm-1.984-1.668a2.066,2.066,0,0,0,.979-.237,1.554,1.554,0,0,0,.664-.635V11.916h-.9q-1.8,0-1.917,1.245L26.4,13.3a.96.96,0,0,0,.315.739A1.225,1.225,0,0,0,27.575,14.332Zm10.758-.813a.773.773,0,0,0-.436-.693,4.95,4.95,0,0,0-1.4-.452q-3.2-.672-3.2-2.723a2.468,2.468,0,0,1,.992-2,4,4,0,0,1,2.594-.8,4.307,4.307,0,0,1,2.735.805A2.538,2.538,0,0,1,40.641,9.75h-2.4A1.161,1.161,0,0,0,37.91,8.9a1.405,1.405,0,0,0-1.038-.336,1.436,1.436,0,0,0-.938.274.865.865,0,0,0-.332.7.739.739,0,0,0,.378.643,3.885,3.885,0,0,0,1.274.423,10.407,10.407,0,0,1,1.511.4,2.482,2.482,0,0,1,1.9,2.416,2.343,2.343,0,0,1-1.054,1.988,4.548,4.548,0,0,1-2.723.76,4.75,4.75,0,0,1-2-.4,3.363,3.363,0,0,1-1.374-1.1,2.565,2.565,0,0,1-.5-1.515h2.274a1.252,1.252,0,0,0,.473.979,1.877,1.877,0,0,0,1.179.34A1.737,1.737,0,0,0,37.98,14.2.814.814,0,0,0,38.333,13.518ZM49.315,4.811V7.019h1.536v1.76H49.315v4.482a1.07,1.07,0,0,0,.191.714.959.959,0,0,0,.73.216,3.826,3.826,0,0,0,.706-.058V15.95a4.939,4.939,0,0,1-1.453.216,2.29,2.29,0,0,1-2.573-2.548V8.778H45.6V7.019h1.312V4.811Zm7.006,11.355A4.409,4.409,0,0,1,53.1,14.954a4.308,4.308,0,0,1-1.241-3.229v-.232a5.426,5.426,0,0,1,.523-2.42,3.838,3.838,0,0,1,1.482-1.644,4.159,4.159,0,0,1,2.187-.577,3.727,3.727,0,0,1,2.9,1.162,4.722,4.722,0,0,1,1.058,3.3v.979H54.3A2.229,2.229,0,0,0,55,13.7a2.12,2.12,0,0,0,1.482.531,2.589,2.589,0,0,0,2.167-1l1.179,1.32a3.6,3.6,0,0,1-1.461,1.191A4.793,4.793,0,0,1,56.321,16.166Zm-.274-7.379a1.5,1.5,0,0,0-1.158.484,2.5,2.5,0,0,0-.569,1.384h3.337v-.192a1.786,1.786,0,0,0-.432-1.238A1.547,1.547,0,0,0,56.047,8.787Zm.216-5.537h2.615l-2.3,2.573H54.627Zm8.849,10.982a1.573,1.573,0,0,0,1.079-.365,1.28,1.28,0,0,0,.432-.971h2.25a3.077,3.077,0,0,1-.5,1.673,3.286,3.286,0,0,1-1.341,1.179,4.2,4.2,0,0,1-1.88.419,3.9,3.9,0,0,1-3.038-1.224A4.845,4.845,0,0,1,61,11.559V11.4a4.79,4.79,0,0,1,1.1-3.312,3.854,3.854,0,0,1,3.03-1.237,3.778,3.778,0,0,1,2.7.959,3.4,3.4,0,0,1,1.033,2.552h-2.25a1.648,1.648,0,0,0-.432-1.139,1.6,1.6,0,0,0-2.362.173A3.541,3.541,0,0,0,63.4,11.38v.249a3.586,3.586,0,0,0,.423,2A1.463,1.463,0,0,0,65.111,14.232Zm7.338-7.213.075,1.038a3.136,3.136,0,0,1,2.582-1.2,2.606,2.606,0,0,1,2.125.838,3.912,3.912,0,0,1,.714,2.507V16h-2.4V10.256a1.556,1.556,0,0,0-.332-1.108,1.486,1.486,0,0,0-1.1-.344,1.65,1.65,0,0,0-1.519.863V16h-2.4V7.019ZM82.294,16H79.887V7.019h2.407ZM79.746,4.694a1.181,1.181,0,0,1,.361-.888,1.556,1.556,0,0,1,1.963,0,1.175,1.175,0,0,1,.365.888,1.178,1.178,0,0,1-.369.9,1.539,1.539,0,0,1-1.951,0A1.178,1.178,0,0,1,79.746,4.694ZM88,14.232a1.573,1.573,0,0,0,1.079-.365,1.28,1.28,0,0,0,.432-.971h2.25a3.077,3.077,0,0,1-.5,1.673,3.286,3.286,0,0,1-1.341,1.179,4.2,4.2,0,0,1-1.88.419,3.9,3.9,0,0,1-3.038-1.224A4.845,4.845,0,0,1,83.9,11.559V11.4A4.79,4.79,0,0,1,85,8.089a3.854,3.854,0,0,1,3.03-1.237,3.778,3.778,0,0,1,2.7.959,3.4,3.4,0,0,1,1.033,2.552h-2.25a1.648,1.648,0,0,0-.432-1.139,1.6,1.6,0,0,0-2.362.173,3.541,3.541,0,0,0-.427,1.983v.249a3.586,3.586,0,0,0,.423,2A1.463,1.463,0,0,0,88,14.232ZM98.339,16a2.664,2.664,0,0,1-.241-.805,2.9,2.9,0,0,1-2.266.971,3.189,3.189,0,0,1-2.187-.764,2.456,2.456,0,0,1-.867-1.926,2.538,2.538,0,0,1,1.058-2.191,5.222,5.222,0,0,1,3.059-.772H98V10a1.48,1.48,0,0,0-.32-1,1.257,1.257,0,0,0-1.009-.374,1.429,1.429,0,0,0-.95.291.987.987,0,0,0-.344.8h-2.4a2.41,2.41,0,0,1,.481-1.444A3.182,3.182,0,0,1,94.82,7.23,4.961,4.961,0,0,1,96.8,6.853a3.92,3.92,0,0,1,2.635.834,2.918,2.918,0,0,1,.975,2.345v3.893a4.294,4.294,0,0,0,.357,1.934V16Zm-1.984-1.668a2.066,2.066,0,0,0,.979-.237A1.554,1.554,0,0,0,98,13.46V11.916h-.9q-1.8,0-1.917,1.245l-.008.141a.96.96,0,0,0,.315.739A1.225,1.225,0,0,0,96.355,14.332Zm10.758-.813a.773.773,0,0,0-.436-.693,4.95,4.95,0,0,0-1.4-.452q-3.2-.672-3.2-2.723a2.468,2.468,0,0,1,.992-2,4,4,0,0,1,2.594-.8,4.307,4.307,0,0,1,2.735.805,2.538,2.538,0,0,1,1.025,2.092h-2.4a1.161,1.161,0,0,0-.332-.851,1.405,1.405,0,0,0-1.038-.336,1.436,1.436,0,0,0-.938.274.865.865,0,0,0-.332.7.739.739,0,0,0,.378.643,3.885,3.885,0,0,0,1.274.423,10.407,10.407,0,0,1,1.511.4,2.482,2.482,0,0,1,1.9,2.416,2.343,2.343,0,0,1-1.054,1.988,4.548,4.548,0,0,1-2.723.76,4.75,4.75,0,0,1-2-.4,3.363,3.363,0,0,1-1.374-1.1,2.565,2.565,0,0,1-.5-1.515h2.274a1.252,1.252,0,0,0,.473.979,1.877,1.877,0,0,0,1.179.34,1.737,1.737,0,0,0,1.042-.261A.814.814,0,0,0,107.113,13.518Z" transform="translate(1157.355 3588.5)" fill="#fff"/>
      <path id="Path_881771" data-name="Path 881771" d="M3.727,16H1.237V3.914h2.49ZM8.085,7.019,8.16,8.056a3.136,3.136,0,0,1,2.582-1.2,2.606,2.606,0,0,1,2.125.838A3.912,3.912,0,0,1,13.58,10.2V16h-2.4V10.256a1.556,1.556,0,0,0-.332-1.108,1.486,1.486,0,0,0-1.1-.344,1.65,1.65,0,0,0-1.519.863V16h-2.4V7.019ZM18.27,4.811V7.019h1.536v1.76H18.27v4.482a1.07,1.07,0,0,0,.191.714.959.959,0,0,0,.73.216,3.826,3.826,0,0,0,.706-.058V15.95a4.938,4.938,0,0,1-1.453.216,2.29,2.29,0,0,1-2.573-2.548V8.778H14.56V7.019h1.312V4.811Zm7.006,11.355a4.409,4.409,0,0,1-3.217-1.212,4.308,4.308,0,0,1-1.241-3.229v-.232a5.426,5.426,0,0,1,.523-2.42,3.838,3.838,0,0,1,1.482-1.644,4.159,4.159,0,0,1,2.187-.577,3.727,3.727,0,0,1,2.9,1.162,4.722,4.722,0,0,1,1.058,3.3v.979H23.25a2.229,2.229,0,0,0,.7,1.411,2.12,2.12,0,0,0,1.482.531,2.589,2.589,0,0,0,2.167-1l1.179,1.32a3.6,3.6,0,0,1-1.461,1.191A4.793,4.793,0,0,1,25.276,16.166ZM25,8.787a1.5,1.5,0,0,0-1.158.484,2.5,2.5,0,0,0-.569,1.384h3.337v-.192a1.786,1.786,0,0,0-.432-1.238A1.547,1.547,0,0,0,25,8.787ZM32.863,16H30.456V3.25h2.407Zm4.507,0H34.963V7.019H37.37ZM34.822,4.694a1.181,1.181,0,0,1,.361-.888,1.556,1.556,0,0,1,1.963,0,1.175,1.175,0,0,1,.365.888,1.178,1.178,0,0,1-.369.9,1.539,1.539,0,0,1-1.951,0A1.178,1.178,0,0,1,34.822,4.694ZM39,11.443a5.264,5.264,0,0,1,.984-3.329,3.187,3.187,0,0,1,2.652-1.262,2.8,2.8,0,0,1,2.3,1.013l.1-.847h2.175V15.7a3.839,3.839,0,0,1-.535,2.05,3.439,3.439,0,0,1-1.507,1.328,5.3,5.3,0,0,1-2.274.457,4.925,4.925,0,0,1-1.926-.394,3.418,3.418,0,0,1-1.419-1.017l1.063-1.461a2.81,2.81,0,0,0,2.175,1,2.057,2.057,0,0,0,1.486-.51,1.915,1.915,0,0,0,.531-1.448v-.481a2.775,2.775,0,0,1-2.183.938A3.179,3.179,0,0,1,40,14.9a5.262,5.262,0,0,1-1-3.358Zm2.4.179a3.278,3.278,0,0,0,.49,1.916,1.558,1.558,0,0,0,1.345.694,1.666,1.666,0,0,0,1.569-.823V9.626A1.662,1.662,0,0,0,43.247,8.8a1.568,1.568,0,0,0-1.357.707A3.694,3.694,0,0,0,41.4,11.621Zm11.787,4.545a4.409,4.409,0,0,1-3.217-1.212,4.308,4.308,0,0,1-1.241-3.229v-.232a5.426,5.426,0,0,1,.523-2.42A3.838,3.838,0,0,1,50.73,7.429a4.159,4.159,0,0,1,2.187-.577,3.727,3.727,0,0,1,2.9,1.162,4.722,4.722,0,0,1,1.058,3.3v.979H51.158a2.229,2.229,0,0,0,.7,1.411,2.12,2.12,0,0,0,1.482.531,2.589,2.589,0,0,0,2.167-1l1.179,1.32a3.6,3.6,0,0,1-1.461,1.191A4.793,4.793,0,0,1,53.183,16.166Zm-.274-7.379a1.5,1.5,0,0,0-1.158.484,2.5,2.5,0,0,0-.569,1.384H54.52v-.192a1.786,1.786,0,0,0-.432-1.238A1.547,1.547,0,0,0,52.909,8.787Zm7.537-1.768.075,1.038a3.136,3.136,0,0,1,2.582-1.2,2.606,2.606,0,0,1,2.125.838,3.912,3.912,0,0,1,.714,2.507V16h-2.4V10.256a1.556,1.556,0,0,0-.332-1.108,1.486,1.486,0,0,0-1.1-.344,1.65,1.65,0,0,0-1.519.863V16h-2.4V7.019Zm11.048,7.213a1.573,1.573,0,0,0,1.079-.365,1.28,1.28,0,0,0,.432-.971h2.25a3.077,3.077,0,0,1-.5,1.673,3.286,3.286,0,0,1-1.341,1.179,4.2,4.2,0,0,1-1.88.419A3.9,3.9,0,0,1,68.5,14.942a4.845,4.845,0,0,1-1.112-3.383V11.4a4.79,4.79,0,0,1,1.1-3.312,3.854,3.854,0,0,1,3.03-1.237,3.778,3.778,0,0,1,2.7.959,3.4,3.4,0,0,1,1.033,2.552h-2.25a1.648,1.648,0,0,0-.432-1.139,1.6,1.6,0,0,0-2.362.173,3.541,3.541,0,0,0-.427,1.983v.249a3.586,3.586,0,0,0,.423,2A1.463,1.463,0,0,0,71.495,14.232ZM79.156,16H76.749V7.019h2.407ZM76.608,4.694a1.181,1.181,0,0,1,.361-.888,1.556,1.556,0,0,1,1.963,0,1.175,1.175,0,0,1,.365.888,1.178,1.178,0,0,1-.369.9,1.539,1.539,0,0,1-1.951,0A1.178,1.178,0,0,1,76.608,4.694ZM86.336,16a2.664,2.664,0,0,1-.241-.805,2.9,2.9,0,0,1-2.266.971,3.189,3.189,0,0,1-2.187-.764,2.456,2.456,0,0,1-.867-1.926,2.538,2.538,0,0,1,1.058-2.191,5.222,5.222,0,0,1,3.059-.772H86V10a1.48,1.48,0,0,0-.32-1,1.257,1.257,0,0,0-1.009-.374,1.429,1.429,0,0,0-.95.291.987.987,0,0,0-.344.8h-2.4a2.41,2.41,0,0,1,.481-1.444A3.182,3.182,0,0,1,82.817,7.23a4.961,4.961,0,0,1,1.976-.378,3.92,3.92,0,0,1,2.635.834,2.918,2.918,0,0,1,.975,2.345v3.893a4.294,4.294,0,0,0,.357,1.934V16Zm-1.984-1.668a2.066,2.066,0,0,0,.979-.237A1.554,1.554,0,0,0,86,13.46V11.916h-.9q-1.8,0-1.917,1.245l-.008.141a.96.96,0,0,0,.315.739A1.225,1.225,0,0,0,84.353,14.332ZM99.684,16a2.664,2.664,0,0,1-.241-.805,2.9,2.9,0,0,1-2.266.971A3.189,3.189,0,0,1,94.99,15.4a2.456,2.456,0,0,1-.867-1.926,2.538,2.538,0,0,1,1.058-2.191,5.222,5.222,0,0,1,3.059-.772h1.1V10a1.48,1.48,0,0,0-.32-1,1.257,1.257,0,0,0-1.009-.374,1.429,1.429,0,0,0-.95.291.987.987,0,0,0-.344.8h-2.4A2.41,2.41,0,0,1,94.8,8.272,3.182,3.182,0,0,1,96.165,7.23a4.961,4.961,0,0,1,1.976-.378,3.92,3.92,0,0,1,2.635.834,2.918,2.918,0,0,1,.975,2.345v3.893a4.294,4.294,0,0,0,.357,1.934V16ZM97.7,14.332a2.066,2.066,0,0,0,.979-.237,1.554,1.554,0,0,0,.664-.635V11.916h-.9q-1.8,0-1.917,1.245l-.008.141a.96.96,0,0,0,.315.739A1.225,1.225,0,0,0,97.7,14.332Zm10.94-5.063a6.517,6.517,0,0,0-.863-.066,1.757,1.757,0,0,0-1.785.921V16h-2.4V7.019h2.266l.066,1.071a2.223,2.223,0,0,1,2-1.237,2.514,2.514,0,0,1,.747.108Zm4.441-4.458V7.019h1.536v1.76h-1.536v4.482a1.07,1.07,0,0,0,.191.714.959.959,0,0,0,.73.216,3.826,3.826,0,0,0,.706-.058V15.95a4.938,4.938,0,0,1-1.453.216,2.29,2.29,0,0,1-2.573-2.548V8.778h-1.312V7.019h1.312V4.811ZM118.485,16h-2.407V7.019h2.407ZM115.937,4.694a1.181,1.181,0,0,1,.361-.888,1.556,1.556,0,0,1,1.963,0,1.175,1.175,0,0,1,.365.888,1.178,1.178,0,0,1-.369.9,1.539,1.539,0,0,1-1.951,0A1.178,1.178,0,0,1,115.937,4.694ZM121.042,16V8.778h-1.336V7.019h1.336V6.6a3.368,3.368,0,0,1,1.042-2.611,4.191,4.191,0,0,1,2.893-.917,9.6,9.6,0,0,1,2.723.49l-.349,1.984a10.623,10.623,0,0,0-1.262-.311,6.2,6.2,0,0,0-.963-.071q-1.677,0-1.677,1.486v.365h1.768v1.76h-1.768V16Zm7.778,0h-2.407V7.019h2.407Zm5.719-1.768a1.573,1.573,0,0,0,1.079-.365,1.28,1.28,0,0,0,.432-.971h2.25a3.077,3.077,0,0,1-.5,1.673,3.286,3.286,0,0,1-1.341,1.179,4.2,4.2,0,0,1-1.88.419,3.9,3.9,0,0,1-3.038-1.224,4.845,4.845,0,0,1-1.112-3.383V11.4a4.79,4.79,0,0,1,1.1-3.312,3.854,3.854,0,0,1,3.03-1.237,3.778,3.778,0,0,1,2.7.959,3.4,3.4,0,0,1,1.033,2.552h-2.25a1.648,1.648,0,0,0-.432-1.139,1.6,1.6,0,0,0-2.362.173,3.541,3.541,0,0,0-.427,1.983v.249a3.586,3.586,0,0,0,.423,2A1.463,1.463,0,0,0,134.539,14.232ZM142.2,16h-2.407V7.019H142.2ZM139.652,4.694a1.181,1.181,0,0,1,.361-.888,1.556,1.556,0,0,1,1.963,0,1.175,1.175,0,0,1,.365.888,1.178,1.178,0,0,1-.369.9,1.539,1.539,0,0,1-1.951,0A1.178,1.178,0,0,1,139.652,4.694ZM149.381,16a2.664,2.664,0,0,1-.241-.805,2.9,2.9,0,0,1-2.266.971,3.189,3.189,0,0,1-2.187-.764,2.456,2.456,0,0,1-.867-1.926,2.538,2.538,0,0,1,1.058-2.191,5.222,5.222,0,0,1,3.059-.772h1.1V10a1.48,1.48,0,0,0-.32-1,1.257,1.257,0,0,0-1.009-.374,1.429,1.429,0,0,0-.95.291.987.987,0,0,0-.344.8h-2.4a2.41,2.41,0,0,1,.481-1.444,3.182,3.182,0,0,1,1.361-1.042,4.961,4.961,0,0,1,1.976-.378,3.92,3.92,0,0,1,2.635.834,2.918,2.918,0,0,1,.975,2.345v3.893a4.294,4.294,0,0,0,.357,1.934V16ZM147.4,14.332a2.066,2.066,0,0,0,.979-.237,1.554,1.554,0,0,0,.664-.635V11.916h-.9q-1.8,0-1.917,1.245l-.008.141a.96.96,0,0,0,.315.739A1.225,1.225,0,0,0,147.4,14.332ZM155.822,16h-2.407V3.25h2.407Z" transform="translate(827 3542)" fill="#fff"/>
      <path id="Path_881772" data-name="Path 881772" d="M5.4,5.914l1.486,8.741,4.507-8.741h3.237L12.526,18h-2.44l.6-3.445,1.179-5.379L7.23,18H5.562L3.943,8.869l-.78,5.952L2.606,18H.174l2.1-12.086ZM19.748,18a2.423,2.423,0,0,1-.091-.813,3.042,3.042,0,0,1-2.291.979A2.756,2.756,0,0,1,15.41,17.4a2.323,2.323,0,0,1-.726-1.855,2.685,2.685,0,0,1,1.233-2.254,5.6,5.6,0,0,1,3.15-.784l1.1.017.116-.54a1.874,1.874,0,0,0,.025-.523.9.9,0,0,0-.295-.61,1.015,1.015,0,0,0-.668-.228,1.43,1.43,0,0,0-.93.27,1.308,1.308,0,0,0-.49.826l-2.349.008a2.611,2.611,0,0,1,1.183-2.088,4.581,4.581,0,0,1,2.777-.784,3.312,3.312,0,0,1,2.391.909,2.659,2.659,0,0,1,.722,2.254l-.689,4.3-.042.531a2.563,2.563,0,0,0,.141,1L22.047,18Zm-1.8-1.652a2.144,2.144,0,0,0,1.768-.88L20,13.916l-.813-.008a2.273,2.273,0,0,0-1.868.789,1.373,1.373,0,0,0-.257.672.8.8,0,0,0,.187.71A.946.946,0,0,0,17.946,16.348Zm9.463-.108a1.537,1.537,0,0,0,1.079-.353,1.734,1.734,0,0,0,.564-.984l2.2-.008a3.226,3.226,0,0,1-.594,1.7,3.606,3.606,0,0,1-1.428,1.179,4.087,4.087,0,0,1-1.88.4,3.319,3.319,0,0,1-2.59-1.129,4.213,4.213,0,0,1-.921-2.938l.025-.457.008-.091a5.615,5.615,0,0,1,1.478-3.474,4,4,0,0,1,3.1-1.233,3.238,3.238,0,0,1,2.411.992,3.5,3.5,0,0,1,.876,2.528H29.551a1.838,1.838,0,0,0-.315-1.137,1.2,1.2,0,0,0-.946-.448q-1.677-.05-2.034,2.449a8.269,8.269,0,0,0-.091,1.527Q26.247,16.215,27.409,16.24Zm8.317-6.226a3.13,3.13,0,0,1,2.432-1.162,2.277,2.277,0,0,1,1.963.959,3.769,3.769,0,0,1,.469,2.528L39.645,18H37.3l.955-5.693a2.759,2.759,0,0,0,.017-.6.941.941,0,0,0-1.046-.922,2.022,2.022,0,0,0-1.66.814L34.44,18H32.1L34.307,5.25h2.349ZM43.944,18H41.587l1.561-8.981H45.5ZM43.421,6.736a1.169,1.169,0,0,1,.365-.921,1.405,1.405,0,0,1,1.843-.042,1.164,1.164,0,0,1,.407.88,1.2,1.2,0,0,1-.344.9,1.291,1.291,0,0,1-.942.4,1.313,1.313,0,0,1-.917-.315A1.159,1.159,0,0,1,43.421,6.736ZM49.63,9.01l-.2,1.063a3.232,3.232,0,0,1,2.615-1.22,2.155,2.155,0,0,1,1.876.93,3.746,3.746,0,0,1,.44,2.507L53.416,18H51.075l.963-5.736a2.686,2.686,0,0,0,.017-.589.951.951,0,0,0-1.062-.872,2.015,2.015,0,0,0-1.652.855L48.219,18H45.878l1.561-8.981Zm9.886,9.156a3.907,3.907,0,0,1-2.088-.577,3.5,3.5,0,0,1-1.357-1.561,4.349,4.349,0,0,1-.349-2.187l.025-.332a5.806,5.806,0,0,1,.764-2.407,4.613,4.613,0,0,1,1.644-1.689,4.066,4.066,0,0,1,2.225-.56,3.107,3.107,0,0,1,2.627,1.276,4.374,4.374,0,0,1,.677,3.147L63.551,14.3h-5.5a1.927,1.927,0,0,0,.423,1.395,1.616,1.616,0,0,0,1.245.54,2.872,2.872,0,0,0,2.241-1l1.071,1.328a3.331,3.331,0,0,1-1.461,1.191A4.777,4.777,0,0,1,59.517,18.166Zm.747-7.379a1.663,1.663,0,0,0-1.15.407,3.573,3.573,0,0,0-.9,1.469h3.221l.05-.216a2.2,2.2,0,0,0,.008-.631,1.2,1.2,0,0,0-.407-.751A1.275,1.275,0,0,0,60.264,10.787ZM70.914,18H68.556L70.772,5.25h2.349Zm6.25.166a3.907,3.907,0,0,1-2.088-.577,3.5,3.5,0,0,1-1.357-1.561,4.349,4.349,0,0,1-.349-2.187l.025-.332a5.806,5.806,0,0,1,.764-2.407A4.613,4.613,0,0,1,75.8,9.413a4.066,4.066,0,0,1,2.225-.56,3.107,3.107,0,0,1,2.627,1.276,4.374,4.374,0,0,1,.677,3.147L81.2,14.3h-5.5a1.927,1.927,0,0,0,.423,1.395,1.616,1.616,0,0,0,1.245.54,2.872,2.872,0,0,0,2.241-1l1.071,1.328a3.331,3.331,0,0,1-1.461,1.191A4.777,4.777,0,0,1,77.164,18.166Zm.747-7.379a1.663,1.663,0,0,0-1.15.407,3.573,3.573,0,0,0-.9,1.469h3.221l.05-.216a2.2,2.2,0,0,0,.008-.631,1.2,1.2,0,0,0-.407-.751A1.275,1.275,0,0,0,77.911,10.787ZM87.092,18A2.423,2.423,0,0,1,87,17.187a3.042,3.042,0,0,1-2.291.979,2.756,2.756,0,0,1-1.955-.768,2.323,2.323,0,0,1-.726-1.855,2.685,2.685,0,0,1,1.233-2.254,5.6,5.6,0,0,1,3.15-.784l1.1.017.116-.54a1.874,1.874,0,0,0,.025-.523.9.9,0,0,0-.295-.61,1.015,1.015,0,0,0-.668-.228,1.43,1.43,0,0,0-.93.27,1.308,1.308,0,0,0-.49.826l-2.349.008A2.611,2.611,0,0,1,84.1,9.637a4.581,4.581,0,0,1,2.777-.784,3.312,3.312,0,0,1,2.391.909,2.659,2.659,0,0,1,.722,2.254l-.689,4.3-.042.531a2.563,2.563,0,0,0,.141,1L89.391,18Zm-1.8-1.652a2.144,2.144,0,0,0,1.768-.88l.291-1.552-.813-.008a2.273,2.273,0,0,0-1.868.789,1.373,1.373,0,0,0-.257.672.8.8,0,0,0,.187.71A.946.946,0,0,0,85.291,16.348Zm11.679-5.08a4.833,4.833,0,0,0-.789-.083,2.269,2.269,0,0,0-1.984.938L93.16,18H90.819l1.561-8.981,2.2-.008-.216,1.1a2.47,2.47,0,0,1,2.092-1.27,3.415,3.415,0,0,1,.813.116Zm3.652-2.258-.2,1.063a3.232,3.232,0,0,1,2.615-1.22,2.155,2.155,0,0,1,1.876.93,3.746,3.746,0,0,1,.44,2.507L104.407,18h-2.341l.963-5.736a2.686,2.686,0,0,0,.017-.589.951.951,0,0,0-1.062-.872,2.015,2.015,0,0,0-1.652.855L99.211,18H96.87l1.561-8.981ZM108.715,18h-2.357l1.561-8.981h2.357Zm-.523-11.264a1.169,1.169,0,0,1,.365-.921,1.405,1.405,0,0,1,1.843-.042,1.164,1.164,0,0,1,.407.88,1.2,1.2,0,0,1-.344.9,1.291,1.291,0,0,1-.942.4,1.313,1.313,0,0,1-.917-.315A1.159,1.159,0,0,1,108.192,6.736ZM114.4,9.01l-.2,1.063a3.232,3.232,0,0,1,2.615-1.22,2.155,2.155,0,0,1,1.876.93,3.746,3.746,0,0,1,.44,2.507L118.187,18h-2.341l.963-5.736a2.686,2.686,0,0,0,.017-.589.951.951,0,0,0-1.062-.872,2.015,2.015,0,0,0-1.652.855L112.99,18h-2.341l1.561-8.981Zm6.068,4.491a6.214,6.214,0,0,1,1.357-3.383,3.444,3.444,0,0,1,2.793-1.274,2.518,2.518,0,0,1,2.142,1.038l.307-.872,2.15.008-1.469,8.674a4.232,4.232,0,0,1-1.527,2.839,4.751,4.751,0,0,1-3.187,1.013,4.429,4.429,0,0,1-1.776-.4,3.8,3.8,0,0,1-1.395-1.058l1.162-1.428a2.5,2.5,0,0,0,1.959,1.021,2.3,2.3,0,0,0,1.561-.477,2.554,2.554,0,0,0,.88-1.44l.133-.54a2.921,2.921,0,0,1-2.2.946,2.58,2.58,0,0,1-2.083-.975,4.194,4.194,0,0,1-.847-2.494A8.383,8.383,0,0,1,120.469,13.5Zm2.3.985a2.147,2.147,0,0,0,.328,1.251,1.147,1.147,0,0,0,.95.495,2.1,2.1,0,0,0,1.693-.815l.7-3.807a1.377,1.377,0,0,0-1.32-.815,1.836,1.836,0,0,0-1.519.723,3.783,3.783,0,0,0-.78,1.987A8.728,8.728,0,0,0,122.769,14.486Z" transform="translate(860.711 3626.932)" fill="#12263f"/>
      <path id="Path_881773" data-name="Path 881773" d="M.174,18l2.1-12.086,3.47.008a4.752,4.752,0,0,1,2.2.552A4.149,4.149,0,0,1,9.521,7.989a5.188,5.188,0,0,1,.73,2.225,7.343,7.343,0,0,1-.017,1.478l-.058.44a6.9,6.9,0,0,1-2.088,4.262A5.906,5.906,0,0,1,3.91,18ZM4.358,7.931,2.955,16l1.013.008a3.322,3.322,0,0,0,2.694-1.229,6.349,6.349,0,0,0,1.166-3.71l.017-.266a3.348,3.348,0,0,0-.523-2.1,2,2,0,0,0-1.635-.764ZM15.091,18.166A3.907,3.907,0,0,1,13,17.589a3.5,3.5,0,0,1-1.357-1.561,4.349,4.349,0,0,1-.349-2.187l.025-.332a5.806,5.806,0,0,1,.764-2.407,4.613,4.613,0,0,1,1.644-1.689,4.066,4.066,0,0,1,2.225-.56,3.107,3.107,0,0,1,2.627,1.276,4.374,4.374,0,0,1,.677,3.147L19.125,14.3h-5.5a1.927,1.927,0,0,0,.423,1.395,1.616,1.616,0,0,0,1.245.54,2.872,2.872,0,0,0,2.241-1L18.6,16.564a3.331,3.331,0,0,1-1.461,1.191A4.777,4.777,0,0,1,15.091,18.166Zm.747-7.379a1.663,1.663,0,0,0-1.15.407,3.573,3.573,0,0,0-.9,1.469h3.221l.05-.216a2.2,2.2,0,0,0,.008-.631,1.2,1.2,0,0,0-.407-.751A1.275,1.275,0,0,0,15.838,10.787Zm8.251,7.379A3.907,3.907,0,0,1,22,17.589a3.5,3.5,0,0,1-1.357-1.561,4.349,4.349,0,0,1-.349-2.187l.025-.332a5.806,5.806,0,0,1,.764-2.407,4.613,4.613,0,0,1,1.644-1.689,4.066,4.066,0,0,1,2.225-.56,3.107,3.107,0,0,1,2.627,1.276,4.374,4.374,0,0,1,.677,3.147L28.123,14.3h-5.5a1.927,1.927,0,0,0,.423,1.395,1.616,1.616,0,0,0,1.245.54,2.872,2.872,0,0,0,2.241-1L27.6,16.564a3.331,3.331,0,0,1-1.461,1.191A4.777,4.777,0,0,1,24.089,18.166Zm.747-7.379a1.663,1.663,0,0,0-1.15.407,3.573,3.573,0,0,0-.9,1.469h3.221l.05-.216a2.2,2.2,0,0,0,.008-.631,1.2,1.2,0,0,0-.407-.751A1.275,1.275,0,0,0,24.836,10.787Zm12.609,2.748a7.418,7.418,0,0,1-.739,2.507,4.065,4.065,0,0,1-1.4,1.627,3.249,3.249,0,0,1-1.859.506,2.593,2.593,0,0,1-2.059-.971l-.822,4.25H28.223l2.15-12.435,2.158-.008-.158.9a2.868,2.868,0,0,1,2.291-1.062,2.551,2.551,0,0,1,2.05.959,4.167,4.167,0,0,1,.78,2.511A9.7,9.7,0,0,1,37.445,13.534Zm-2.324-.17.05-.8a2.22,2.22,0,0,0-.295-1.28,1.058,1.058,0,0,0-.909-.49,1.932,1.932,0,0,0-1.685.865l-.672,3.708a1.31,1.31,0,0,0,1.32.873,1.689,1.689,0,0,0,1.411-.657A4.5,4.5,0,0,0,35.121,13.364ZM44.849,18H42.492L44.708,5.25h2.349Zm6.25.166a3.907,3.907,0,0,1-2.088-.577,3.5,3.5,0,0,1-1.357-1.561,4.349,4.349,0,0,1-.349-2.187l.025-.332a5.806,5.806,0,0,1,.764-2.407,4.613,4.613,0,0,1,1.644-1.689,4.066,4.066,0,0,1,2.225-.56,3.107,3.107,0,0,1,2.627,1.276,4.374,4.374,0,0,1,.677,3.147L55.134,14.3h-5.5a1.927,1.927,0,0,0,.423,1.395,1.616,1.616,0,0,0,1.245.54,2.872,2.872,0,0,0,2.241-1l1.071,1.328a3.331,3.331,0,0,1-1.461,1.191A4.777,4.777,0,0,1,51.1,18.166Zm.747-7.379a1.663,1.663,0,0,0-1.15.407,3.573,3.573,0,0,0-.9,1.469h3.221l.05-.216a2.2,2.2,0,0,0,.008-.631,1.2,1.2,0,0,0-.407-.751A1.275,1.275,0,0,0,51.847,10.787ZM61.027,18a2.423,2.423,0,0,1-.091-.813,3.042,3.042,0,0,1-2.291.979A2.756,2.756,0,0,1,56.69,17.4a2.323,2.323,0,0,1-.726-1.855A2.685,2.685,0,0,1,57.2,13.289a5.6,5.6,0,0,1,3.15-.784l1.1.017.116-.54a1.874,1.874,0,0,0,.025-.523.9.9,0,0,0-.295-.61,1.015,1.015,0,0,0-.668-.228,1.43,1.43,0,0,0-.93.27,1.308,1.308,0,0,0-.49.826l-2.349.008a2.611,2.611,0,0,1,1.183-2.088,4.581,4.581,0,0,1,2.777-.784,3.312,3.312,0,0,1,2.391.909,2.659,2.659,0,0,1,.722,2.254l-.689,4.3-.042.531a2.563,2.563,0,0,0,.141,1L63.327,18Zm-1.8-1.652a2.144,2.144,0,0,0,1.768-.88l.291-1.552-.813-.008A2.273,2.273,0,0,0,58.6,14.7a1.373,1.373,0,0,0-.257.672.8.8,0,0,0,.187.71A.946.946,0,0,0,59.226,16.348Zm11.679-5.08a4.833,4.833,0,0,0-.789-.083,2.269,2.269,0,0,0-1.984.938L67.1,18H64.754l1.561-8.981,2.2-.008-.216,1.1a2.47,2.47,0,0,1,2.092-1.27,3.415,3.415,0,0,1,.813.116ZM74.558,9.01l-.2,1.063a3.232,3.232,0,0,1,2.615-1.22,2.155,2.155,0,0,1,1.876.93,3.746,3.746,0,0,1,.44,2.507L78.343,18H76l.963-5.736a2.686,2.686,0,0,0,.017-.589.951.951,0,0,0-1.062-.872,2.015,2.015,0,0,0-1.652.855L73.146,18H70.806l1.561-8.981ZM82.651,18H80.293l1.561-8.981h2.357ZM82.128,6.736a1.169,1.169,0,0,1,.365-.921,1.405,1.405,0,0,1,1.843-.042,1.164,1.164,0,0,1,.407.88,1.2,1.2,0,0,1-.344.9,1.291,1.291,0,0,1-.942.4,1.313,1.313,0,0,1-.917-.315A1.159,1.159,0,0,1,82.128,6.736ZM88.337,9.01l-.2,1.063a3.232,3.232,0,0,1,2.615-1.22,2.155,2.155,0,0,1,1.876.93,3.746,3.746,0,0,1,.44,2.507L92.122,18H89.781l.963-5.736a2.686,2.686,0,0,0,.017-.589A.951.951,0,0,0,89.7,10.8a2.015,2.015,0,0,0-1.652.855L86.926,18H84.585l1.561-8.981ZM94.4,13.5a6.214,6.214,0,0,1,1.357-3.383,3.444,3.444,0,0,1,2.793-1.274A2.518,2.518,0,0,1,100.7,9.882L101,9.01l2.15.008-1.469,8.674a4.232,4.232,0,0,1-1.527,2.839,4.751,4.751,0,0,1-3.187,1.013,4.429,4.429,0,0,1-1.776-.4A3.8,3.8,0,0,1,93.8,20.083l1.162-1.428a2.5,2.5,0,0,0,1.959,1.021A2.3,2.3,0,0,0,98.48,19.2a2.554,2.554,0,0,0,.88-1.44l.133-.54a2.921,2.921,0,0,1-2.2.946,2.58,2.58,0,0,1-2.083-.975,4.194,4.194,0,0,1-.847-2.494A8.383,8.383,0,0,1,94.4,13.5Zm2.3.985a2.147,2.147,0,0,0,.328,1.251,1.147,1.147,0,0,0,.95.495,2.1,2.1,0,0,0,1.693-.815l.7-3.807a1.377,1.377,0,0,0-1.32-.815,1.836,1.836,0,0,0-1.519.723,3.783,3.783,0,0,0-.78,1.987A8.728,8.728,0,0,0,96.7,14.486Z" transform="translate(904.5 3729)" fill="#12263f"/>
      <g id="Rectangle_403588" data-name="Rectangle 403588" transform="translate(1019.711 3635)" fill="#d7c9fe" stroke="#fff" stroke-width="3">
        <rect width="190" height="93" rx="20" stroke="none"/>
        <rect x="1.5" y="1.5" width="187" height="90" rx="18.5" fill="none"/>
      </g>
      <path id="Path_881774" data-name="Path 881774" d="M10.907,16H8.417L3.569,8.048V16H1.079V3.914h2.49l4.856,7.969V3.914h2.482Zm4.665-4.258V16h-2.49V3.914H17.8a5.455,5.455,0,0,1,2.395.5,3.67,3.67,0,0,1,1.59,1.415,3.946,3.946,0,0,1,.556,2.088,3.47,3.47,0,0,1-1.216,2.8,5.065,5.065,0,0,1-3.366,1.025Zm0-2.017H17.8A2.187,2.187,0,0,0,19.3,9.26a1.691,1.691,0,0,0,.519-1.328A1.994,1.994,0,0,0,19.3,6.5a1.953,1.953,0,0,0-1.444-.564H15.572ZM26.538,14h5.288v2H24.047V3.914h2.49Z" transform="translate(1101 3674.932)" fill="#12263f"/>
    </g>
  </g>
</svg>
