<svg xmlns="http://www.w3.org/2000/svg" width="107" height="107" viewBox="0 0 107 107">
  <g id="Group_1107493" data-name="Group 1107493" transform="translate(-285 -6549.001)">
    <g id="Grupo_156312" data-name="Grupo 156312" transform="translate(-3.668 2100.564)">
      <path id="Elipse_5845" data-name="Elipse 5845" d="M53.5,0A53.5,53.5,0,1,1,0,53.5,53.5,53.5,0,0,1,53.5,0Z" transform="translate(288.668 4448.437)" fill="#065564"/>
    </g>
    <g id="Group_1102616" data-name="Group 1102616" transform="translate(-101.527 530.787)">
      <path id="Path_873216" data-name="Path 873216" d="M0,0H63.184V63.186H0Z" transform="translate(408.527 6040.213)" fill="none"/>
      <g id="Group_1102860" data-name="Group 1102860" transform="translate(-705.213 5171.966)">
        <path id="Path_877312" data-name="Path 877312" d="M1210.179,929.474h3.872v1.936H1196.6v-1.872h3.665c.027-.376.064-.657.065-.939.006-1.675-.019-3.35.011-5.025a4.617,4.617,0,0,1,2.542-4.255,2.026,2.026,0,0,0,1.145-1.435q2.314-9.251,4.658-18.494c.088-.35.2-.694.283-1.044a2.952,2.952,0,0,0-1.856-3.722q-4.572-1.938-9.147-3.867c-.266-.112-.54-.205-.85-.322l-.812,1.732c-1.1-.457-2.213-.84-3.247-1.372a1.473,1.473,0,0,0-1.844.239c-1.013.833-2.066,1.623-3.15,2.361a1.37,1.37,0,0,1-1.106.149c-3.092-1.269-6.177-2.561-9.224-3.934-.459-.207-.718-.862-1.214-1.5h-11.573V868.453h19.565a1.229,1.229,0,0,1,.05.4c-.461,1.938.586,2.7,2.256,3.294,2.587.928,5.076,2.127,7.627,3.161a1.3,1.3,0,0,1,.92,1.218c.133,1.338.263,2.68.5,4a1.676,1.676,0,0,0,.773,1.057c1.105.563,2.275,1,3.5,1.522l-.684,1.825c1.516.655,2.979,1.293,4.448,1.92,2.019.862,4.032,1.74,6.073,2.549a2.111,2.111,0,0,0,1.375.028,4.933,4.933,0,0,1,6.14,2.313,4.823,4.823,0,0,1-1.714,6.387,2.229,2.229,0,0,0-1.061,1.514q-2.6,10.295-5.2,20.59a2.291,2.291,0,0,0,.043.931,26.361,26.361,0,0,1,.6,3.144C1210.254,925.995,1210.179,927.7,1210.179,929.474Zm-40.32-45.363a2.628,2.628,0,0,1-.063-.365c0-2.168-.029-4.336,0-6.5a4.917,4.917,0,0,1,9.835.017c.024,1.215.052,2.433-.011,3.645-.038.727.138,1.176.886,1.358,1.29.312,2.182.974,2.014,1.908V870.416H1166.9v15.663h9.751l-.59-4.8h-4.327v2.837Zm8.515-.484c.155,1.275.263,2.509.479,3.724a1.4,1.4,0,0,0,.686.89,52.91,52.91,0,0,1,4.858,2.127c2.043,1.2,3.713,1.112,5.327-.653.524-.572,1.464-.864,1.787-1.5.945-1.866,1.678-3.84,2.482-5.778a1.03,1.03,0,0,0,.011-.487c-.175-1.466-.342-2.933-.555-4.393a.971.971,0,0,0-.435-.669c-2.523-1.1-5.057-2.181-7.61-3.21a.934.934,0,0,0-.791.441,11.513,11.513,0,0,0-.039,1.858,4.2,4.2,0,0,1,1.312.019c1.585.623,3.138,1.33,4.717,1.969a.831.831,0,0,1,.626.943c-.1,1.868.3,3.917-.354,5.555-.606,1.526-2.309,2.615-3.529,3.9-.091.095-.173.235-.283.267-.357.1-.787.325-1.079.214-1.561-.6-3.1-1.245-4.614-1.957a1.527,1.527,0,0,1-.723-.986C1180.346,884.151,1180.351,884.116,1178.374,883.628Zm29.812,45.842c0-2.146.082-4.206-.027-6.255a2.856,2.856,0,0,0-2.96-2.588,2.931,2.931,0,0,0-2.882,2.794c-.057,1.012-.017,2.03-.018,3.045,0,1,0,2,0,3Zm2.766-30.973-5.108,20.146,1.868.59L1212.847,899Zm-26.386-16.114c0,.886.042,1.775-.013,2.657a1.277,1.277,0,0,0,.872,1.494c.77.323,1.071-.139,1.475-.549a18.277,18.277,0,0,1,1.319-1.324,2.33,2.33,0,0,0,.893-2.146c-.078-1,.307-2.253-.166-2.951s-1.755-.893-2.692-1.284a1.142,1.142,0,0,0-1.685,1.151C1184.555,880.414,1184.566,881.4,1184.566,882.383Zm-6.933-3.192c.07-1.723.311-3.416-1.416-4.454a2.751,2.751,0,0,0-3.144.089c-1.609,1.092-1.343,2.731-1.264,4.365Zm35.489,17.774a2.951,2.951,0,1,0-2.936-2.94A2.971,2.971,0,0,0,1213.121,896.965Zm-4.083-5.8-10.394-4.408-.766,1.8,10.352,4.4Zm-13.266-7.753-2.293,5.421,1.807.741,2.29-5.4Z" transform="translate(-40.314 0)" fill="#eed"/>
        <path id="Path_877313" data-name="Path 877313" d="M1114.74,1035.835V998.514h19.618v17.666h17.724v19.655Zm35.378-17.6h-15.637v15.643h15.637Zm-33.369-17.76v12.828l2.875-5,4.609,8.016,4.217-4.362,3.932,3.089v-14.575Zm15.637,17.761H1116.75v15.641h15.637Zm-12.762-5.948-2.2,3.849h4.4Zm10.961,3.862-2.062-1.566-1.473,1.566Z" transform="translate(0 -104.444)" fill="#eed"/>
        <path id="Path_877314" data-name="Path 877314" d="M1126.654,918.176h-1.846v-9.761h1.846Z" transform="translate(-8.085 -32.091)" fill="#eed"/>
        <path id="Path_877315" data-name="Path 877315" d="M1265.394,997.037l1.182,1.565c-1.241.938-2.433,1.852-3.646,2.738a.752.752,0,0,1-.617.085c-1.51-.608-3.008-1.248-4.571-1.9l.734-1.815c1.031.431,2.03.8,2.984,1.264a1.335,1.335,0,0,0,1.669-.22C1263.815,998.15,1264.581,997.644,1265.394,997.037Z" transform="translate(-114.837 -103.258)" fill="#eed"/>
        <path id="Path_877316" data-name="Path 877316" d="M1146.659,906.186h-1.849V898.4h1.849Z" transform="translate(-24.147 -24.045)" fill="#eed"/>
        <path id="Path_877317" data-name="Path 877317" d="M1312.729,884.242l.747-1.806c1.293.546,2.544,1.064,3.783,1.612a.656.656,0,0,1,.32.441c.173,1.257.314,2.518.476,3.863l-1.931.248a12.808,12.808,0,0,1-.238-1.951,1.421,1.421,0,0,0-1.147-1.561C1314.09,884.878,1313.475,884.562,1312.729,884.242Z" transform="translate(-158.993 -11.229)" fill="#eed"/>
        <path id="Path_877318" data-name="Path 877318" d="M1366.825,1150.517h-1.843v-1.861h1.843Z" transform="translate(-200.954 -225.014)" fill="#eed"/>
        <path id="Path_877319" data-name="Path 877319" d="M1406.8,993.49v1.85h-1.866v-1.85Z" transform="translate(-233.039 -100.41)" fill="#eed"/>
        <path id="Path_877320" data-name="Path 877320" d="M1236.534,1113.657v1.85h-11.728v-1.85Z" transform="translate(-88.387 -196.908)" fill="#eed"/>
        <path id="Path_877321" data-name="Path 877321" d="M1224.827,1135.533v-1.843h11.7v1.843Z" transform="translate(-88.404 -212.996)" fill="#eed"/>
        <path id="Path_877322" data-name="Path 877322" d="M1230.7,1153.618v1.844h-5.794v-1.844Z" transform="translate(-88.471 -228.999)" fill="#eed"/>
        <path id="Path_877323" data-name="Path 877323" d="M1158.514,1018.268a3.937,3.937,0,1,1-3.943,3.928A3.932,3.932,0,0,1,1158.514,1018.268Zm1.955,3.974a1.964,1.964,0,1,0-1.952,1.927A2,2,0,0,0,1160.469,1022.242Z" transform="translate(-31.986 -120.307)" fill="#eed"/>
        <path id="Path_877324" data-name="Path 877324" d="M1146.522,1108.681v5.819h-2.877v5.875h-5.893v-5.837H1134.8v-5.857Zm-1.97,1.969h-7.779v1.917h2.947v5.839h1.954v-5.874h2.878Z" transform="translate(-16.111 -192.912)" fill="#eed"/>
      </g>
    </g>
  </g>
</svg>
