<svg xmlns="http://www.w3.org/2000/svg" xmlns:xlink="http://www.w3.org/1999/xlink" width="98.579" height="98.578" viewBox="0 0 98.579 98.578">
  <defs>
    <clipPath id="clip-path">
      <rect id="Rectangle_401223" data-name="Rectangle 401223" width="98.579" height="98.578" transform="translate(0)" fill="#bfa9fe"/>
    </clipPath>
    <clipPath id="clip-path-2">
      <rect id="Rectangle_401223-2" data-name="Rectangle 401223" width="88.117" height="88.116" fill="#d7c9fe"/>
    </clipPath>
  </defs>
  <g id="Group_1107086" data-name="Group 1107086" transform="translate(-1099.711 -8828.911)">
    <g id="Group_1102650" data-name="Group 1102650" transform="translate(178.377 8417.905)">
      <g id="Group_1099654" data-name="Group 1099654" transform="translate(921.333 411.006)">
        <g id="Group_1099652" data-name="Group 1099652" transform="translate(0 0)" clip-path="url(#clip-path)">
          <path id="Path_873521" data-name="Path 873521" d="M98.579,76.737a21.9,21.9,0,0,1-21.84,21.84H21.84A21.9,21.9,0,0,1,0,76.737V21.84A21.9,21.9,0,0,1,21.84,0h54.9a21.9,21.9,0,0,1,21.84,21.841Z" transform="translate(0)" fill="#bfa9fe"/>
        </g>
      </g>
      <g id="Group_1099659" data-name="Group 1099659" transform="translate(926.103 416.728)">
        <g id="Group_1099652-2" data-name="Group 1099652" transform="translate(0 0)" clip-path="url(#clip-path-2)">
          <path id="Path_873521-2" data-name="Path 873521" d="M88.117,68.594A19.58,19.58,0,0,1,68.595,88.116H19.523A19.58,19.58,0,0,1,0,68.594V19.522A19.58,19.58,0,0,1,19.523,0H68.595A19.58,19.58,0,0,1,88.117,19.523Z" fill="#d7c9fe"/>
        </g>
      </g>
    </g>
    <g id="Group_1102653" data-name="Group 1102653" transform="translate(1114.652 8844.716)">
      <rect id="Rectangle_401104" data-name="Rectangle 401104" width="68" height="69" transform="translate(0.059 -0.804)" fill="none"/>
      <g id="Group_1103030" data-name="Group 1103030" transform="translate(-603.093 -414.079)">
        <g id="Group_1103028" data-name="Group 1103028" transform="translate(603.151 414.363)">
          <g id="Group_1103027" data-name="Group 1103027">
            <g id="Group_1103026" data-name="Group 1103026">
              <g id="Group_1103015" data-name="Group 1103015" transform="translate(21.813 62.923)">
                <path id="Path_877635" data-name="Path 877635" d="M623.867,464.52h22.656l.859,1.3v.648H623.008v-.648Z" transform="translate(-623.008 -464.52)" fill="#785b68" fill-rule="evenodd"/>
              </g>
              <g id="Group_1103025" data-name="Group 1103025">
                <g id="Group_1103016" data-name="Group 1103016" transform="translate(24.753 53.877)">
                  <rect id="Rectangle_403727" data-name="Rectangle 403727" width="18.492" height="9.046" fill="#785b68"/>
                </g>
                <g id="Group_1103017" data-name="Group 1103017" transform="translate(24.754 53.877)">
                  <path id="Path_877636" data-name="Path 877636" d="M631.347,465.331l-5.662-5.664v-3.381h18.492v9.046Z" transform="translate(-625.685 -456.285)" fill="#5a3445" fill-rule="evenodd"/>
                </g>
                <g id="Group_1103018" data-name="Group 1103018">
                  <rect id="Rectangle_403728" data-name="Rectangle 403728" width="68" height="57.258" rx="2.197" fill="#8b8186"/>
                </g>
                <g id="Group_1103019" data-name="Group 1103019" transform="translate(0.892 0.893)">
                  <path id="Path_877637" data-name="Path 877637" d="M605.484,415.176h63.173a1.609,1.609,0,0,1,1.521,1.676v46.031H603.963V416.852A1.609,1.609,0,0,1,605.484,415.176Z" transform="translate(-603.963 -415.176)" fill="#f4f4f6" fill-rule="evenodd"/>
                </g>
                <g id="Group_1103020" data-name="Group 1103020" transform="translate(3.452 3.937)">
                  <rect id="Rectangle_403729" data-name="Rectangle 403729" width="61.095" height="42.263" fill="#a4dae4"/>
                </g>
                <g id="Group_1103021" data-name="Group 1103021" transform="translate(3.453 3.937)">
                  <rect id="Rectangle_403730" data-name="Rectangle 403730" width="61.095" height="6.572" fill="#14afbe"/>
                </g>
                <g id="Group_1103022" data-name="Group 1103022" transform="translate(12.509 7.223)">
                  <rect id="Rectangle_403731" data-name="Rectangle 403731" width="42.981" height="37.377" fill="#f4f4f6"/>
                </g>
                <g id="Group_1103023" data-name="Group 1103023" transform="translate(0.892 51.993)">
                  <path id="Path_877638" data-name="Path 877638" d="M603.963,454.57h66.216v2.852a1.527,1.527,0,0,1-1.521,1.524H605.484a1.527,1.527,0,0,1-1.521-1.524Z" transform="translate(-603.963 -454.57)" fill="#8b8186" fill-rule="evenodd"/>
                </g>
                <g id="Group_1103024" data-name="Group 1103024" transform="translate(54.052 36.532)">
                  <path id="Path_877639" data-name="Path 877639" d="M658.64,449.013l.474-.494-2-1.921,1.31-1.363-3.035-1.1-2.938-1.065-.067-.064.019.046-.048-.017.068.065,1.182,2.893,1.221,2.988,1.339-1.4,2,1.921.475-.494Z" transform="translate(-652.356 -443.007)" fill="#5a3445" fill-rule="evenodd"/>
                </g>
              </g>
            </g>
          </g>
        </g>
        <text transform="translate(663.403 455.758)" font-size="10" font-family="ArialMT, Arial"/>        <path id="Path_877650" data-name="Path 877650" d="M9.445,0A9.445,9.445,0,1,1,0,9.445,9.445,9.445,0,0,1,9.445,0Z" transform="translate(627.208 431.14)" fill="#ffc9dd"/>
        <g id="Group_1103029" data-name="Group 1103029" transform="translate(618.807 422.163)">
          <path id="Path_877640" data-name="Path 877640" d="M630.551,448.087v5.6c0,.166.053.364-.019.49-.109.191-.283.425-.47.472-.316.077-.509-.146-.522-.482-.008-.183,0-.368,0-.553,0-2.1-.012-4.2.013-6.306,0-.272.128-.684.316-.773a.974.974,0,0,1,.8.235,8.819,8.819,0,1,0-2.869-7.85,7.619,7.619,0,0,0,.326,3.655,6.3,6.3,0,0,1,.292,1.838c.039,1.659.012,3.318.015,4.978,0,.376-.032.74-.518.746s-.532-.35-.532-.731c0-1.7.009-3.394-.005-5.09a2.814,2.814,0,0,0-.153-.857,10.025,10.025,0,0,1-.005-6.565,3,3,0,0,0,.158-.91c.015-1.678.008-3.357.007-5.035,0-.365,0-.749.505-.749.518,0,.546.384.544.779,0,1.118,0,2.235,0,3.483.643-.711,1.185-1.239,1.134-2.233-.1-1.95-.029-3.907-.029-5.862,0-.3-.007-.61.383-.694.405-.086.629.139.63.664.005,1.752,0,3.5,0,5.256v.61c.975-.328,1.106-.5,1.106-1.426q0-1.467,0-2.933c0-.371.029-.747.51-.762.51-.015.565.359.562.764-.007,1.046,0,2.093,0,3.2a3.739,3.739,0,0,0,.884-.312.744.744,0,0,0,.211-.548c.015-1.789,0-3.578.02-5.365a.864.864,0,0,1,.247-.611c.352-.271.76.033.764.558.011,1.124,0,2.25,0,3.374v2.307l1.1-.149v-6.8c0-.129,0-.258,0-.387,0-.343.134-.594.5-.606.392-.013.544.241.544.61,0,1.292,0,2.582,0,3.873v3.29l1.15.17v-.63c0-1.66,0-3.32,0-4.98,0-.364.046-.7.494-.708.476-.009.54.33.537.723-.008,1.64,0,3.281,0,4.922,0,1.015,0,1.015,1.1,1.191v-2.7c0-.185,0-.37,0-.553-.005-.359.113-.633.518-.638s.545.258.549.617c.005.664,0,1.328,0,1.992v1c0,1.014.053,1.09,1.106,1.51v-3.651c0-.719,0-1.438,0-2.158,0-.372.009-.736.524-.718.464.016.494.347.494.706,0,1.918.072,3.839-.032,5.752a2.828,2.828,0,0,0,1.134,2.279v-2.452c0-.387,0-.775,0-1.161,0-.34.132-.586.5-.594.4-.009.544.243.541.61,0,.222,0,.443,0,.664,0,.387.013.775,0,1.161a20.447,20.447,0,0,0,.594,6.057,8.41,8.41,0,0,1-.444,4.889,2.587,2.587,0,0,0-.142.8c-.013,1.585-.007,3.172-.007,4.758,0,.129,0,.258,0,.387,0,.364-.124.63-.533.613s-.514-.287-.513-.646c0-.977,0-1.955,0-2.932v-.633a2.848,2.848,0,0,0-1.134,2.281c.1,1.912.041,3.834.016,5.752a.892.892,0,0,1-.319.67c-.367.213-.678-.089-.679-.623-.005-1.77,0-3.54,0-5.312v-.553c-1.05.416-1.106.494-1.106,1.507q0,1.439,0,2.877c0,.383-.065.735-.546.726s-.527-.363-.525-.744c.005-1.046,0-2.09,0-3.2a6.813,6.813,0,0,1-.7.209c-.344.065-.416.268-.415.593.013,1.806.009,3.613,0,5.421,0,.506-.288.816-.626.633a.917.917,0,0,1-.38-.679c-.033-1.659-.017-3.318-.017-4.978v-.61l-1.148.138v6.794c0,.147,0,.3-.005.443-.005.322-.149.545-.486.55a.5.5,0,0,1-.547-.556c-.007-.977,0-1.955,0-2.932v-4.3l-1.1-.157v2.425c0,1.07-.005,2.14,0,3.208,0,.375-.08.691-.521.684s-.513-.32-.512-.7c.009-1.659,0-3.319,0-4.978,0-1.018,0-1.018-1.1-1.176,0,1.072.02,2.14-.016,3.2a.887.887,0,0,1-.346.654c-.368.206-.7-.1-.7-.618a24.474,24.474,0,0,1,.02-2.929C631.776,448.767,631.3,448.419,630.551,448.087Z" transform="translate(-618.8 -422.511)" fill="#a01f4e"/>
          <path id="Path_877641" data-name="Path 877641" d="M638.4,436.891v-2.344c-1.452.52-2.868,1.017-4.27,1.547-.113.043-.191.323-.193.494-.016,1.308,0,2.617-.013,3.926a1.919,1.919,0,0,1-1.558,2,1.824,1.824,0,0,1-1.93-.787,1.789,1.789,0,0,1-.048-2.08,1.839,1.839,0,0,1,1.887-.885c.163.019.322.068.557.12.013-.213.036-.4.036-.589,0-1.346.013-2.693,0-4.037a.767.767,0,0,1,.606-.848c1.1-.365,2.186-.768,3.273-1.169.355-.13.671-.154.819.259s-.11.606-.465.73c-.9.316-1.8.658-2.706.956-.383.125-.565.31-.407.8a4.617,4.617,0,0,0,.46-.12c1.177-.42,2.349-.859,3.534-1.26.356-.121.509-.3.468-.674a7.283,7.283,0,0,1,0-.885c.007-.335.2-.571.512-.488a.785.785,0,0,1,.5.5,17.027,17.027,0,0,1,.025,1.823c0,1.6.013,3.207-.007,4.811a1.9,1.9,0,0,1-3.7.617,1.8,1.8,0,0,1,.327-1.865,1.872,1.872,0,0,1,1.833-.662C638.08,436.8,638.216,436.846,638.4,436.891Zm.029,1.772a.871.871,0,0,0-.888-.867.858.858,0,0,0-.829.864.84.84,0,0,0,.827.859A.858.858,0,0,0,638.431,438.663Zm-5.568,2a.871.871,0,0,0-.865-.89.869.869,0,1,0,.865.89Z" transform="translate(-617.678 -419.542)" fill="#a01f4e"/>
          <path id="Path_877642" data-name="Path 877642" d="M625.583,437.687q0-3.457,0-6.915a1.164,1.164,0,0,1,.073-.589.718.718,0,0,1,.509-.3c.146,0,.327.193.427.343a.844.844,0,0,1,.045.432q0,7.081,0,14.161c0,.128.036.29-.027.379-.113.161-.29.388-.437.385a.814.814,0,0,1-.541-.332c-.093-.124-.05-.355-.05-.538Q625.582,441.2,625.583,437.687Z" transform="translate(-619.16 -420.086)" fill="#a01f4e"/>
          <path id="Path_877643" data-name="Path 877643" d="M641.763,437.741q0-3.484,0-6.969a1.257,1.257,0,0,1,.045-.544c.081-.154.275-.346.42-.347a.793.793,0,0,1,.516.3c.089.1.072.315.072.477q.006,7.081,0,14.16c0,.163.023.375-.065.48a.784.784,0,0,1-.516.29.638.638,0,0,1-.428-.332,1.229,1.229,0,0,1-.045-.542Q641.76,441.227,641.763,437.741Z" transform="translate(-613.837 -420.086)" fill="#a01f4e"/>
          <path id="Path_877644" data-name="Path 877644" d="M622.351,437.105q0-2.294,0-4.586a1.169,1.169,0,0,1,.06-.538c.086-.154.287-.342.433-.338a.81.81,0,0,1,.509.316.847.847,0,0,1,.066.477q.006,4.725,0,9.448c0,.073,0,.147,0,.221-.012.339-.157.579-.52.587s-.53-.221-.546-.561c-.015-.294-.007-.589-.007-.884Z" transform="translate(-620.221 -419.507)" fill="#a01f4e"/>
          <path id="Path_877645" data-name="Path 877645" d="M644.981,437.109q0-2.348,0-4.7c0-.4.048-.785.55-.78.469,0,.524.379.524.754v9.557c0,.375-.044.748-.521.75-.5,0-.556-.373-.554-.777C644.983,440.313,644.981,438.71,644.981,437.109Z" transform="translate(-612.777 -419.51)" fill="#a01f4e"/>
          <path id="Path_877646" data-name="Path 877646" d="M625,436.889c0,1.233,0,2.468,0,3.7,0,.366-.048.7-.5.7s-.524-.3-.522-.679q.012-3.73,0-7.46c0-.376.085-.691.522-.68s.494.351.493.712C625,434.421,625,435.654,625,436.889Z" transform="translate(-619.683 -419.233)" fill="#a01f4e"/>
          <path id="Path_877647" data-name="Path 877647" d="M644.4,436.939c0,1.216-.005,2.431,0,3.647,0,.364-.041.7-.489.707s-.529-.294-.528-.675q.01-3.73,0-7.459c0-.372.078-.694.52-.684s.5.341.5.708C644.4,434.434,644.4,435.686,644.4,436.939Z" transform="translate(-613.301 -419.233)" fill="#a01f4e"/>
          <path id="Path_877648" data-name="Path 877648" d="M621.771,436.317c0,.533,0,1.067,0,1.6,0,.323-.117.542-.468.553a.481.481,0,0,1-.554-.534q-.006-1.6,0-3.2c0-.349.182-.575.534-.566s.494.258.489.6C621.766,435.287,621.771,435.8,621.771,436.317Z" transform="translate(-620.748 -418.676)" fill="#a01f4e"/>
          <path id="Path_877649" data-name="Path 877649" d="M646.62,436.319c0-.516.005-1.03,0-1.546-.005-.345.128-.6.488-.6.385-.008.54.25.54.618q0,1.545,0,3.09c0,.342-.12.585-.494.594-.405.009-.54-.234-.533-.607C646.627,437.349,646.62,436.834,646.62,436.319Z" transform="translate(-612.238 -418.676)" fill="#a01f4e"/>
        </g>
      </g>
    </g>
  </g>
</svg>
