<svg xmlns="http://www.w3.org/2000/svg" xmlns:xlink="http://www.w3.org/1999/xlink" width="98.579" height="98.578" viewBox="0 0 98.579 98.578">
  <defs>
    <clipPath id="clip-path">
      <rect id="Rectangle_401223" data-name="Rectangle 401223" width="98.579" height="98.578" transform="translate(0)" fill="#bfa9fe"/>
    </clipPath>
    <clipPath id="clip-path-2">
      <rect id="Rectangle_401223-2" data-name="Rectangle 401223" width="88.117" height="88.116" fill="#d7c9fe"/>
    </clipPath>
  </defs>
  <g id="Group_1107088" data-name="Group 1107088" transform="translate(-2333 2871)">
    <g id="Group_1103035" data-name="Group 1103035" transform="translate(1411.667 -3282.006)">
      <g id="Group_1099654" data-name="Group 1099654" transform="translate(921.333 411.006)">
        <g id="Group_1099652" data-name="Group 1099652" transform="translate(0 0)" clip-path="url(#clip-path)">
          <path id="Path_873521" data-name="Path 873521" d="M98.579,76.737a21.9,21.9,0,0,1-21.84,21.84H21.84A21.9,21.9,0,0,1,0,76.737V21.84A21.9,21.9,0,0,1,21.84,0h54.9a21.9,21.9,0,0,1,21.84,21.841Z" transform="translate(0)" fill="#bfa9fe"/>
        </g>
      </g>
      <g id="Group_1099659" data-name="Group 1099659" transform="translate(926.103 416.728)">
        <g id="Group_1099652-2" data-name="Group 1099652" transform="translate(0 0)" clip-path="url(#clip-path-2)">
          <path id="Path_873521-2" data-name="Path 873521" d="M88.117,68.594A19.58,19.58,0,0,1,68.595,88.116H19.523A19.58,19.58,0,0,1,0,68.594V19.522A19.58,19.58,0,0,1,19.523,0H68.595A19.58,19.58,0,0,1,88.117,19.523Z" fill="#d7c9fe"/>
        </g>
      </g>
    </g>
    <g id="Group_1103037" data-name="Group 1103037" transform="translate(2349.313 -2855.284)">
      <rect id="Rectangle_401104" data-name="Rectangle 401104" width="68" height="69" transform="translate(-0.313 -0.716)" fill="none"/>
      <g id="Group_1103076" data-name="Group 1103076" transform="translate(-269.66 -502.349)">
        <g id="Group_1103073" data-name="Group 1103073" transform="translate(269.347 503.586)">
          <g id="Group_1103072" data-name="Group 1103072" transform="translate(0 0)">
            <g id="Group_1103071" data-name="Group 1103071">
              <g id="Group_1103060" data-name="Group 1103060" transform="translate(21.813 60.504)">
                <path id="Path_877658" data-name="Path 877658" d="M337.43,673.388h22.656l.859,1.3v.648H336.57v-.648Z" transform="translate(-336.57 -673.388)" fill="#785b68" fill-rule="evenodd"/>
              </g>
              <g id="Group_1103070" data-name="Group 1103070">
                <g id="Group_1103061" data-name="Group 1103061" transform="translate(24.753 51.458)">
                  <rect id="Rectangle_403740" data-name="Rectangle 403740" width="18.492" height="9.046" fill="#785b68"/>
                </g>
                <g id="Group_1103062" data-name="Group 1103062" transform="translate(24.754 51.458)">
                  <path id="Path_877659" data-name="Path 877659" d="M351.3,654.556l-5.662-5.664V645.51h18.492v9.046Z" transform="translate(-345.636 -645.51)" fill="#5a3445" fill-rule="evenodd"/>
                </g>
                <g id="Group_1103063" data-name="Group 1103063">
                  <rect id="Rectangle_403741" data-name="Rectangle 403741" width="68" height="54.84" rx="2" fill="#8b8186"/>
                </g>
                <g id="Group_1103064" data-name="Group 1103064" transform="translate(0.891 0.892)">
                  <path id="Path_877660" data-name="Path 877660" d="M273.616,506.336h63.173a1.526,1.526,0,0,1,1.522,1.521v41.754H272.094V507.857A1.526,1.526,0,0,1,273.616,506.336Z" transform="translate(-272.094 -506.336)" fill="#f4f4f6" fill-rule="evenodd"/>
                </g>
                <g id="Group_1103065" data-name="Group 1103065" transform="translate(3.452 3.937)">
                  <rect id="Rectangle_403742" data-name="Rectangle 403742" width="61.095" height="37.315" fill="#a4dae4"/>
                </g>
                <g id="Group_1103066" data-name="Group 1103066" transform="translate(3.453 3.937)">
                  <rect id="Rectangle_403743" data-name="Rectangle 403743" width="61.095" height="6.572" fill="#14afbe"/>
                </g>
                <g id="Group_1103067" data-name="Group 1103067" transform="translate(12.509 7.223)">
                  <rect id="Rectangle_403744" data-name="Rectangle 403744" width="42.981" height="31.707" fill="#f4f4f6"/>
                </g>
                <g id="Group_1103069" data-name="Group 1103069" transform="translate(54.052 34.966)">
                  <path id="Path_877662" data-name="Path 877662" d="M442.212,606.563l.474-.494-2-1.921,1.31-1.363-3.034-1.1-2.938-1.065-.067-.064.019.046-.048-.017.068.065,1.182,2.893,1.22,2.988,1.339-1.4,2,1.921.475-.494Z" transform="translate(-435.928 -600.557)" fill="#5a3445" fill-rule="evenodd"/>
                </g>
              </g>
            </g>
          </g>
        </g>
        <text transform="translate(329.599 543.437)" font-size="10" font-family="ArialMT, Arial"/>        <g id="Group_1103074" data-name="Group 1103074" transform="translate(291.451 517.544)">
          <path id="Path_877663" data-name="Path 877663" d="M344.723,542.346v1.825l-5,2.072,5,2.1v1.828l-7.255-3.136v-1.586Z" transform="translate(-337.468 -542.346)" fill="#4b0d6b"/>
        </g>
        <g id="Group_1103075" data-name="Group 1103075" transform="translate(308.227 517.601)">
          <path id="Path_877664" data-name="Path 877664" d="M389.17,542.5l7.255,3.136v1.586l-7.255,3.1v-1.812l5-2.086-5-2.084Z" transform="translate(-389.17 -542.504)" fill="#4b0d6b"/>
        </g>
        <rect id="Rectangle_403745" data-name="Rectangle 403745" width="15.228" height="1.447" transform="translate(300.28 528.024) rotate(-67.894)" fill="#4b0d6b"/>
        <rect id="Rectangle_403746" data-name="Rectangle 403746" width="16.756" height="2.244" rx="1.122" transform="translate(284.621 529.329)" fill="#4b0d6b"/>
        <rect id="Rectangle_403747" data-name="Rectangle 403747" width="19.36" height="2.244" rx="1.122" transform="translate(303.195 529.329)" fill="#4b0d6b"/>
        <rect id="Rectangle_403748" data-name="Rectangle 403748" width="13.432" height="2.244" rx="1.122" transform="translate(285.763 533.903)" fill="#4b0d6b"/>
        <rect id="Rectangle_403749" data-name="Rectangle 403749" width="18.612" height="2.244" rx="1.122" transform="translate(284.735 538.476)" fill="#4b0d6b"/>
        <rect id="Rectangle_403750" data-name="Rectangle 403750" width="13.432" height="2.244" rx="1.122" transform="translate(301.377 533.903)" fill="#4b0d6b"/>
      </g>
    </g>
  </g>
</svg>
