<svg xmlns="http://www.w3.org/2000/svg" xmlns:xlink="http://www.w3.org/1999/xlink" width="98.579" height="98.578" viewBox="0 0 98.579 98.578">
  <defs>
    <clipPath id="clip-path">
      <rect id="Rectangle_401223" data-name="Rectangle 401223" width="98.579" height="98.578" transform="translate(0)" fill="#bfa9fe"/>
    </clipPath>
    <clipPath id="clip-path-2">
      <rect id="Rectangle_401223-2" data-name="Rectangle 401223" width="88.117" height="88.116" fill="#d7c9fe"/>
    </clipPath>
  </defs>
  <g id="Group_1107085" data-name="Group 1107085" transform="translate(-748.711 -8829)">
    <g id="Group_1102649" data-name="Group 1102649" transform="translate(-172.623 8417.994)">
      <g id="Group_1099654" data-name="Group 1099654" transform="translate(921.333 411.006)">
        <g id="Group_1099652" data-name="Group 1099652" transform="translate(0 0)" clip-path="url(#clip-path)">
          <path id="Path_873521" data-name="Path 873521" d="M98.579,76.737a21.9,21.9,0,0,1-21.84,21.84H21.84A21.9,21.9,0,0,1,0,76.737V21.84A21.9,21.9,0,0,1,21.84,0h54.9a21.9,21.9,0,0,1,21.84,21.841Z" transform="translate(0)" fill="#bfa9fe"/>
        </g>
      </g>
      <g id="Group_1099659" data-name="Group 1099659" transform="translate(926.103 416.728)">
        <g id="Group_1099652-2" data-name="Group 1099652" transform="translate(0 0)" clip-path="url(#clip-path-2)">
          <path id="Path_873521-2" data-name="Path 873521" d="M88.117,68.594A19.58,19.58,0,0,1,68.595,88.116H19.523A19.58,19.58,0,0,1,0,68.594V19.522A19.58,19.58,0,0,1,19.523,0H68.595A19.58,19.58,0,0,1,88.117,19.523Z" fill="#d7c9fe"/>
        </g>
      </g>
    </g>
    <g id="Group_1102652" data-name="Group 1102652" transform="translate(764.023 8844.717)">
      <rect id="Rectangle_401104" data-name="Rectangle 401104" width="68" height="69" transform="translate(-0.313 -0.716)" fill="none"/>
      <g id="Group_1103014" data-name="Group 1103014" transform="translate(-603.464 -411.479)">
        <g id="Group_1103012" data-name="Group 1103012" transform="translate(603.151 414.363)">
          <g id="Group_1103011" data-name="Group 1103011">
            <g id="Group_1103010" data-name="Group 1103010">
              <g id="Group_1102999" data-name="Group 1102999" transform="translate(21.813 59.856)">
                <path id="Path_877588" data-name="Path 877588" d="M623.867,464.52h22.656l.859,1.3v.648H623.008v-.648Z" transform="translate(-623.008 -464.52)" fill="#785b68" fill-rule="evenodd"/>
              </g>
              <g id="Group_1103009" data-name="Group 1103009">
                <g id="Group_1103000" data-name="Group 1103000" transform="translate(24.754 50.811)">
                  <rect id="Rectangle_403722" data-name="Rectangle 403722" width="18.492" height="9.046" fill="#785b68"/>
                </g>
                <g id="Group_1103001" data-name="Group 1103001" transform="translate(24.754 50.811)">
                  <path id="Path_877589" data-name="Path 877589" d="M631.347,465.331l-5.662-5.664v-3.381h18.492v9.046Z" transform="translate(-625.685 -456.285)" fill="#5a3445" fill-rule="evenodd"/>
                </g>
                <g id="Group_1103002" data-name="Group 1103002">
                  <rect id="Rectangle_403723" data-name="Rectangle 403723" width="68" height="54.192" rx="2.197" fill="#8b8186"/>
                </g>
                <g id="Group_1103003" data-name="Group 1103003" transform="translate(0.892 0.893)">
                  <path id="Path_877590" data-name="Path 877590" d="M605.484,415.176h63.173a1.525,1.525,0,0,1,1.521,1.52v41.755H603.963V416.7A1.525,1.525,0,0,1,605.484,415.176Z" transform="translate(-603.963 -415.176)" fill="#f4f4f6" fill-rule="evenodd"/>
                </g>
                <g id="Group_1103004" data-name="Group 1103004" transform="translate(3.452 3.937)">
                  <rect id="Rectangle_403724" data-name="Rectangle 403724" width="61.095" height="37.315" fill="#a4dae4"/>
                </g>
                <g id="Group_1103005" data-name="Group 1103005" transform="translate(3.453 3.937)">
                  <rect id="Rectangle_403725" data-name="Rectangle 403725" width="61.095" height="6.572" fill="#14afbe"/>
                </g>
                <g id="Group_1103006" data-name="Group 1103006" transform="translate(12.509 7.223)">
                  <rect id="Rectangle_403726" data-name="Rectangle 403726" width="42.981" height="31.707" fill="#f4f4f6"/>
                </g>
                <g id="Group_1103007" data-name="Group 1103007" transform="translate(0.892 48.927)">
                  <path id="Path_877591" data-name="Path 877591" d="M603.963,454.57h66.216v2.852a1.527,1.527,0,0,1-1.521,1.524H605.484a1.527,1.527,0,0,1-1.521-1.524Z" transform="translate(-603.963 -454.57)" fill="#8b8186" fill-rule="evenodd"/>
                </g>
                <g id="Group_1103008" data-name="Group 1103008" transform="translate(54.052 34.547)">
                  <path id="Path_877592" data-name="Path 877592" d="M658.64,449.013l.474-.494-2-1.921,1.31-1.363-3.034-1.1-2.938-1.065-.067-.064.019.046-.048-.017.068.065,1.182,2.893,1.22,2.988,1.339-1.4,2,1.921.475-.494Z" transform="translate(-652.356 -443.007)" fill="#5a3445" fill-rule="evenodd"/>
                </g>
              </g>
            </g>
          </g>
        </g>
        <text transform="translate(663.403 453.801)" font-size="10" font-family="ArialMT, Arial"/>        <g id="Group_1103013" data-name="Group 1103013" transform="translate(622.915 422.652)">
          <path id="Path_877593" data-name="Path 877593" d="M624.6,430.022v-1.138a.537.537,0,0,0,.46-.634c-.019-.37,0-.741,0-1.112,0-.709.219-.922.945-.922l19.269,0c.723,0,.937.212.937.928v10.516c-.591-.366-1.117-.677-1.628-1.013a.611.611,0,0,0-.766-.033,2.681,2.681,0,0,1-.957-.582.571.571,0,0,0-.334-.682c-.284-.153-.55-.341-.824-.514a2.56,2.56,0,0,0-2.875-.037c-.915.54-1.849,1.049-2.763,1.59a.455.455,0,0,1-.606-.045q-1.743-1.376-3.511-2.719a2.518,2.518,0,0,0-2.94-.221c-1.189.651-2.378,1.3-3.557,1.966-.31.175-.4.165-.4-.226.018-1.481,0-2.963.012-4.443C625.064,430.349,624.971,430.1,624.6,430.022Zm16.961,2.689a2.6,2.6,0,1,0-2.6-2.621A2.6,2.6,0,0,0,641.559,432.711Z" transform="translate(-620.803 -421.485)" fill="#dceaef"/>
          <path id="Path_877594" data-name="Path 877594" d="M643.852,436.7a.611.611,0,0,1,.766.033c.511.336,1.037.647,1.628,1.013V427.225c0-.716-.214-.928-.937-.928l-19.269,0c-.726,0-.942.213-.945.922,0,.37-.015.741,0,1.112a.537.537,0,0,1-.46.634.549.549,0,0,1-.426-.622c.007-.432-.011-.866,0-1.3a1.525,1.525,0,0,1,1.651-1.6q9.806-.007,19.611,0a1.53,1.53,0,0,1,1.65,1.694c.01,1.808,0,3.616,0,5.424q0,6.491,0,12.981a1.718,1.718,0,0,1-.662,1.546,1.6,1.6,0,0,1-.961.276q-9.829,0-19.658,0a1.531,1.531,0,0,1-1.635-1.709c-.009-1.638,0-3.276,0-4.914q0-4.938,0-9.876c0-.335,0-.664.424-.761.373.079.466.326.462.682-.012,1.481.005,2.963-.012,4.443,0,.391.089.4.4.226,1.179-.667,2.368-1.315,3.557-1.966a2.518,2.518,0,0,1,2.94.221q1.766,1.345,3.511,2.719a.455.455,0,0,0,.606.045c.914-.54,1.848-1.049,2.763-1.59a2.56,2.56,0,0,1,2.875.037c.274.174.539.361.824.514a.571.571,0,0,1,.334.682.525.525,0,0,1-.776.078c-.267-.182-.55-.342-.821-.52a1.771,1.771,0,0,0-2-.036c-.8.465-1.6.929-2.411,1.369-.333.18-.282.278-.018.479,1.364,1.035,2.713,2.089,4.072,3.132a3.167,3.167,0,0,1,1.309,2.674c-.007.926.02,1.853-.011,2.778-.013.384.12.457.467.447.9-.025,1.791-.011,2.686-.015.605,0,.848-.238.849-.829,0-2.176,0-4.353.008-6.53a.558.558,0,0,0-.315-.547c-.607-.367-1.193-.769-1.8-1.135C643.816,437.268,643.687,437.045,643.852,436.7Zm-10.452,9.81v0c2.487,0,4.973-.011,7.459.011.422,0,.515-.12.5-.516-.029-.926-.019-1.853-.007-2.779a2.251,2.251,0,0,0-.949-1.908q-4.439-3.417-8.869-6.847a1.77,1.77,0,0,0-2.143-.177c-1.3.734-2.612,1.458-3.933,2.161a.626.626,0,0,0-.37.651c.01,2.825.005,5.652.007,8.477,0,.716.215.93.938.93Q629.716,446.507,633.4,446.505Z" transform="translate(-620.841 -421.561)" fill="#070909"/>
          <path id="Path_877595" data-name="Path 877595" d="M624.759,447.431a1.808,1.808,0,1,1-1.789-1.8A1.808,1.808,0,0,1,624.759,447.431Zm-2.4.637a.818.818,0,0,0,1.133.111.831.831,0,0,0,.241-1.1c-.11-.422-.427-.525-.81-.525a.792.792,0,0,0-.788.532A.757.757,0,0,0,622.355,448.068Z" transform="translate(-621.143 -419.572)" fill="#070909"/>
          <path id="Path_877596" data-name="Path 877596" d="M646.634,445.63a1.809,1.809,0,1,1-1.782,1.854A1.823,1.823,0,0,1,646.634,445.63Zm-.571,2.447a.829.829,0,0,0,1.147.087.8.8,0,0,0,.215-1.08c-.092-.428-.415-.534-.788-.539a.805.805,0,0,0-.816.554A.766.766,0,0,0,646.063,448.078Z" transform="translate(-618.807 -419.572)" fill="#070909"/>
          <path id="Path_877597" data-name="Path 877597" d="M624.759,423.707a1.808,1.808,0,1,1-1.792-1.8A1.81,1.81,0,0,1,624.759,423.707Zm-1.03-.356a.73.73,0,0,0-.813-.538.819.819,0,0,0-.789.549.772.772,0,0,0,.234.993.851.851,0,0,0,1.17.065A.816.816,0,0,0,623.729,423.351Z" transform="translate(-621.143 -421.909)" fill="#070909"/>
          <path id="Path_877598" data-name="Path 877598" d="M644.851,423.725a1.809,1.809,0,1,1,1.787,1.8A1.811,1.811,0,0,1,644.851,423.725Zm1.2.636a.87.87,0,0,0,1.193.046.789.789,0,0,0,.176-1.045c-.073-.415-.4-.525-.739-.549a.824.824,0,0,0-.846.516A.8.8,0,0,0,646.055,424.361Z" transform="translate(-618.807 -421.909)" fill="#070909"/>
          <path id="Path_877599" data-name="Path 877599" d="M647.031,437.211c0,.231.013.464,0,.693-.018.257-.142.449-.423.458a.428.428,0,0,1-.464-.465c-.019-.461-.022-.925,0-1.386a.418.418,0,0,1,.445-.435.424.424,0,0,1,.438.442C647.048,436.747,647.031,436.98,647.031,437.211Z" transform="translate(-618.682 -420.513)" fill="#070909"/>
          <path id="Path_877600" data-name="Path 877600" d="M623.231,437.232a6.319,6.319,0,0,1,0,.692.43.43,0,0,1-.444.439.416.416,0,0,1-.439-.439c-.019-.477-.02-.957,0-1.432a.408.408,0,0,1,.414-.416.426.426,0,0,1,.464.417A5.729,5.729,0,0,1,623.231,437.232Z" transform="translate(-621.026 -420.513)" fill="#070909"/>
          <path id="Path_877601" data-name="Path 877601" d="M633.065,423.109c.216,0,.433-.011.648,0,.276.018.478.146.476.453a.422.422,0,0,1-.447.435c-.461.021-.925.02-1.386,0a.422.422,0,0,1-.453-.43c-.007-.3.19-.441.469-.458C632.6,423.1,632.835,423.11,633.065,423.109Z" transform="translate(-620.083 -421.791)" fill="#070909"/>
          <path id="Path_877602" data-name="Path 877602" d="M636.418,424.007c-.215,0-.432.014-.647,0-.273-.023-.474-.156-.468-.462a.419.419,0,0,1,.453-.426q.694-.025,1.388,0a.417.417,0,0,1,.446.433.426.426,0,0,1-.432.45,6.908,6.908,0,0,1-.739.006Z" transform="translate(-619.748 -421.791)" fill="#070909"/>
          <path id="Path_877603" data-name="Path 877603" d="M647.031,433.812c0,.231.013.464,0,.693-.019.255-.143.448-.424.457a.427.427,0,0,1-.462-.465c-.019-.461-.022-.925,0-1.386a.442.442,0,0,1,.883.008C647.047,433.348,647.031,433.58,647.031,433.812Z" transform="translate(-618.682 -420.848)" fill="#070909"/>
          <path id="Path_877604" data-name="Path 877604" d="M622.336,433.8c0-.215-.011-.432,0-.647.018-.278.148-.477.454-.473a.421.421,0,0,1,.434.448c.02.461.02.925,0,1.386a.422.422,0,0,1-.43.45c-.308.007-.439-.193-.457-.47C622.324,434.261,622.336,434.029,622.336,433.8Z" transform="translate(-621.026 -420.848)" fill="#070909"/>
          <path id="Path_877605" data-name="Path 877605" d="M633.05,447.805c-.231,0-.464.013-.693,0a.429.429,0,0,1-.455-.427.414.414,0,0,1,.424-.455,13.532,13.532,0,0,1,1.431,0,.417.417,0,0,1,.432.448.427.427,0,0,1-.446.435C633.514,447.821,633.282,447.805,633.05,447.805Z" transform="translate(-620.083 -419.447)" fill="#070909"/>
          <path id="Path_877606" data-name="Path 877606" d="M636.467,446.909c.215,0,.432-.013.647,0,.275.021.477.152.474.457a.417.417,0,0,1-.448.431c-.463.018-.925.019-1.387,0a.417.417,0,0,1-.45-.428c0-.307.2-.437.471-.459C636,446.894,636.236,446.909,636.467,446.909Z" transform="translate(-619.748 -419.447)" fill="#070909"/>
          <path id="Path_877607" data-name="Path 877607" d="M626.227,424.007c-.215,0-.432.013-.646,0-.275-.021-.476-.149-.471-.456a.415.415,0,0,1,.446-.432c.461-.018.923-.015,1.384,0a.428.428,0,0,1,.455.43.443.443,0,0,1-.476.459C626.69,424.018,626.458,424.007,626.227,424.007Z" transform="translate(-620.752 -421.791)" fill="#070909"/>
          <path id="Path_877608" data-name="Path 877608" d="M643.218,424.007c-.215,0-.432.011-.646,0a.445.445,0,0,1-.476-.46.43.43,0,0,1,.456-.431c.46-.013.923-.015,1.384,0a.415.415,0,0,1,.446.432c0,.306-.2.436-.472.456C643.68,424.021,643.448,424.007,643.218,424.007Z" transform="translate(-619.079 -421.791)" fill="#070909"/>
          <path id="Path_877609" data-name="Path 877609" d="M622.339,427a6.605,6.605,0,0,1,.005-.692.42.42,0,0,1,.455-.423.406.406,0,0,1,.422.406,14.706,14.706,0,0,1,0,1.476.415.415,0,0,1-.428.405.43.43,0,0,1-.448-.435C622.324,427.49,622.34,427.243,622.339,427Z" transform="translate(-621.026 -421.518)" fill="#070909"/>
          <path id="Path_877610" data-name="Path 877610" d="M647.032,427.047c0,.215.009.432,0,.646a.441.441,0,0,1-.458.476.432.432,0,0,1-.432-.455c-.015-.461-.018-.924,0-1.384a.418.418,0,0,1,.433-.447c.306,0,.438.194.456.472C647.044,426.585,647.032,426.817,647.032,427.047Z" transform="translate(-618.682 -421.517)" fill="#070909"/>
          <path id="Path_877611" data-name="Path 877611" d="M622.336,443.991c0-.215-.009-.431,0-.646a.439.439,0,0,1,.458-.475.433.433,0,0,1,.432.455c.015.461.018.924,0,1.384a.419.419,0,0,1-.433.447c-.306,0-.437-.2-.455-.473C622.324,444.453,622.335,444.221,622.336,443.991Z" transform="translate(-621.026 -419.844)" fill="#070909"/>
          <path id="Path_877612" data-name="Path 877612" d="M646.14,443.983a6.591,6.591,0,0,1,0-.692.431.431,0,0,1,.461-.422.417.417,0,0,1,.416.419c.016.491.023.985,0,1.475a.4.4,0,0,1-.433.4.413.413,0,0,1-.437-.392A6.225,6.225,0,0,1,646.14,443.983Z" transform="translate(-618.681 -419.844)" fill="#070909"/>
          <path id="Path_877613" data-name="Path 877613" d="M626.273,446.909c.215,0,.432-.01.646,0a.445.445,0,0,1,.476.46.428.428,0,0,1-.455.429c-.461.014-.924.016-1.384,0a.415.415,0,0,1-.446-.432c0-.308.2-.436.471-.456C625.811,446.894,626.043,446.909,626.273,446.909Z" transform="translate(-620.752 -419.447)" fill="#070909"/>
          <path id="Path_877614" data-name="Path 877614" d="M643.239,447.805c-.231,0-.462.011-.692,0a.434.434,0,0,1-.45-.435.424.424,0,0,1,.435-.448c.476-.021.955-.024,1.43,0a.411.411,0,0,1,.422.454.429.429,0,0,1-.453.43C643.7,447.818,643.469,447.805,643.239,447.805Z" transform="translate(-619.079 -419.447)" fill="#070909"/>
          <path id="Path_877615" data-name="Path 877615" d="M639.866,423.109c.215,0,.432-.01.646,0,.28.016.48.154.477.454a.423.423,0,0,1-.449.434c-.461.02-.924.019-1.385,0a.43.43,0,0,1-.456-.43c-.005-.3.2-.439.475-.458C639.4,423.1,639.634,423.109,639.866,423.109Z" transform="translate(-619.414 -421.791)" fill="#070909"/>
          <path id="Path_877616" data-name="Path 877616" d="M629.65,424.006c-.231,0-.464.017-.693,0a.436.436,0,0,1-.454-.432.413.413,0,0,1,.427-.451c.477-.021.955-.022,1.431,0a.417.417,0,0,1,.433.447.438.438,0,0,1-.452.435C630.113,424.021,629.881,424.006,629.65,424.006Z" transform="translate(-620.418 -421.791)" fill="#070909"/>
          <path id="Path_877617" data-name="Path 877617" d="M623.233,440.648c0,.215.013.432,0,.646-.022.278-.165.477-.465.468a.423.423,0,0,1-.424-.457c-.014-.461-.015-.925,0-1.386a.424.424,0,0,1,.435-.447.431.431,0,0,1,.447.437c.024.245.005.493.005.739Z" transform="translate(-621.026 -420.179)" fill="#070909"/>
          <path id="Path_877618" data-name="Path 877618" d="M629.635,447.8c-.231,0-.464.017-.693,0a.442.442,0,0,1,0-.883,14.144,14.144,0,0,1,1.431,0,.417.417,0,0,1,.419.461.426.426,0,0,1-.422.414c-.244.023-.492.005-.738.005Z" transform="translate(-620.418 -419.447)" fill="#070909"/>
          <path id="Path_877619" data-name="Path 877619" d="M647.032,440.64c0,.215.011.432,0,.647-.018.28-.155.479-.456.475a.425.425,0,0,1-.433-.45c-.019-.461-.018-.924,0-1.385a.428.428,0,0,1,.431-.454c.3-.005.439.2.457.475C647.044,440.177,647.032,440.409,647.032,440.64Z" transform="translate(-618.682 -420.179)" fill="#070909"/>
          <path id="Path_877620" data-name="Path 877620" d="M623.233,430.447c0,.215.013.432,0,.646-.021.276-.164.48-.459.475a.425.425,0,0,1-.428-.455c-.015-.461-.017-.924,0-1.385a.42.42,0,0,1,.432-.45c.3,0,.438.2.456.477C623.245,429.983,623.233,430.215,623.233,430.447Z" transform="translate(-621.026 -421.183)" fill="#070909"/>
          <path id="Path_877621" data-name="Path 877621" d="M639.868,446.908c.215,0,.432-.012.647,0,.277.02.478.159.474.458a.423.423,0,0,1-.453.431q-.692.023-1.385,0a.425.425,0,0,1-.453-.431c0-.3.2-.438.477-.457C639.405,446.9,639.637,446.908,639.868,446.908Z" transform="translate(-619.414 -419.447)" fill="#070909"/>
          <path id="Path_877622" data-name="Path 877622" d="M647.03,430.427c0,.231.014.462,0,.692a.433.433,0,0,1-.436.449.423.423,0,0,1-.446-.436c-.022-.477-.023-.956,0-1.431a.415.415,0,0,1,.456-.424.432.432,0,0,1,.427.457c.015.23,0,.461,0,.693Z" transform="translate(-618.682 -421.183)" fill="#070909"/>
          <path id="Path_877623" data-name="Path 877623" d="M642.736,435.807c-.165.349-.035.572.28.762.607.366,1.193.768,1.8,1.135a.558.558,0,0,1,.315.547c-.012,2.176-.005,4.353-.008,6.53,0,.591-.244.825-.849.829-.9,0-1.791-.01-2.686.015-.347.01-.48-.063-.467-.447.031-.925,0-1.852.011-2.778a3.167,3.167,0,0,0-1.309-2.674c-1.359-1.043-2.708-2.1-4.072-3.132-.265-.2-.315-.3.018-.479.813-.439,1.613-.9,2.411-1.369a1.771,1.771,0,0,1,2,.036c.27.178.554.337.821.52a.525.525,0,0,0,.776-.078A2.683,2.683,0,0,0,642.736,435.807Z" transform="translate(-619.725 -420.673)" fill="#a4e5ee"/>
          <path id="Path_877624" data-name="Path 877624" d="M640.271,432.6a2.6,2.6,0,1,1,.009-5.2,2.6,2.6,0,1,1-.009,5.2Zm1.735-2.609a1.734,1.734,0,1,0-1.729,1.754A1.754,1.754,0,0,0,642.005,429.986Z" transform="translate(-619.514 -421.368)" fill="#070909"/>
          <path id="Path_877625" data-name="Path 877625" d="M633.32,445.737q-3.683,0-7.366,0c-.723,0-.938-.214-.938-.93,0-2.825,0-5.652-.007-8.477a.626.626,0,0,1,.37-.651c1.32-.7,2.63-1.427,3.933-2.161a1.77,1.77,0,0,1,2.143.177q4.426,3.434,8.869,6.847a2.251,2.251,0,0,1,.949,1.908c-.012.926-.022,1.853.007,2.779.013.4-.08.521-.5.516-2.486-.022-4.972-.011-7.459-.011Z" transform="translate(-620.762 -420.793)" fill="#03bdd6"/>
          <path id="Path_877626" data-name="Path 877626" d="M622.274,447.985a.757.757,0,0,1-.224-.987.792.792,0,0,1,.788-.532c.382,0,.7.1.81.524A1.663,1.663,0,0,1,622.274,447.985Z" transform="translate(-621.062 -419.49)" fill="#a4e5ee"/>
          <path id="Path_877627" data-name="Path 877627" d="M622.246,447.938a1.663,1.663,0,0,0,1.373-.994.832.832,0,0,1-.241,1.105A.818.818,0,0,1,622.246,447.938Z" transform="translate(-621.034 -419.443)" fill="#03bdd6"/>
          <path id="Path_877628" data-name="Path 877628" d="M645.983,448a.766.766,0,0,1-.242-.979.805.805,0,0,1,.816-.554c.372.005.7.111.788.538A1.773,1.773,0,0,1,645.983,448Z" transform="translate(-618.727 -419.49)" fill="#a4e5ee"/>
          <path id="Path_877629" data-name="Path 877629" d="M645.954,447.947a1.772,1.772,0,0,0,1.362-.994.8.8,0,0,1-.215,1.081A.829.829,0,0,1,645.954,447.947Z" transform="translate(-618.699 -419.442)" fill="#03bdd6"/>
          <path id="Path_877630" data-name="Path 877630" d="M622.281,424.274a.772.772,0,0,1-.234-.993.819.819,0,0,1,.789-.549.73.73,0,0,1,.813.538A1.715,1.715,0,0,1,622.281,424.274Z" transform="translate(-621.062 -421.828)" fill="#a4e5ee"/>
          <path id="Path_877631" data-name="Path 877631" d="M622.252,424.226a1.715,1.715,0,0,0,1.368-1,.816.816,0,0,1-.2,1.069A.851.851,0,0,1,622.252,424.226Z" transform="translate(-621.034 -421.78)" fill="#03bdd6"/>
          <path id="Path_877632" data-name="Path 877632" d="M645.975,424.28a.8.8,0,0,1-.216-1.031.824.824,0,0,1,.846-.516c.344.024.667.134.739.548A1.832,1.832,0,0,1,645.975,424.28Z" transform="translate(-618.727 -421.828)" fill="#a4e5ee"/>
          <path id="Path_877633" data-name="Path 877633" d="M645.947,424.231a1.832,1.832,0,0,0,1.369-1,.79.79,0,0,1-.176,1.046A.87.87,0,0,1,645.947,424.231Z" transform="translate(-618.699 -421.779)" fill="#03bdd6"/>
          <path id="Path_877634" data-name="Path 877634" d="M641.928,429.909a1.733,1.733,0,1,1-1.757-1.727A1.757,1.757,0,0,1,641.928,429.909Z" transform="translate(-619.437 -421.291)" fill="#faa313"/>
        </g>
      </g>
    </g>
  </g>
</svg>
