<svg xmlns="http://www.w3.org/2000/svg" xmlns:xlink="http://www.w3.org/1999/xlink" width="98.579" height="98.578" viewBox="0 0 98.579 98.578">
  <defs>
    <clipPath id="clip-path">
      <rect id="Rectangle_401223" data-name="Rectangle 401223" width="98.579" height="98.578" transform="translate(0)" fill="#bfa9fe"/>
    </clipPath>
    <clipPath id="clip-path-2">
      <rect id="Rectangle_401223-2" data-name="Rectangle 401223" width="88.117" height="88.116" fill="#d7c9fe"/>
    </clipPath>
  </defs>
  <g id="Group_1107074" data-name="Group 1107074" transform="translate(7127.415 10066.902)">
    <g id="Group_1102416" data-name="Group 1102416" transform="translate(-8048.748 -10477.908)">
      <g id="Group_1099654" data-name="Group 1099654" transform="translate(921.333 411.006)">
        <g id="Group_1099652" data-name="Group 1099652" transform="translate(0 0)" clip-path="url(#clip-path)">
          <path id="Path_873521" data-name="Path 873521" d="M98.579,76.737a21.9,21.9,0,0,1-21.84,21.84H21.84A21.9,21.9,0,0,1,0,76.737V21.84A21.9,21.9,0,0,1,21.84,0h54.9a21.9,21.9,0,0,1,21.84,21.841Z" transform="translate(0)" fill="#bfa9fe"/>
        </g>
      </g>
      <g id="Group_1099659" data-name="Group 1099659" transform="translate(926.103 416.728)">
        <g id="Group_1099652-2" data-name="Group 1099652" transform="translate(0 0)" clip-path="url(#clip-path-2)">
          <path id="Path_873521-2" data-name="Path 873521" d="M88.117,68.594A19.58,19.58,0,0,1,68.595,88.116H19.523A19.58,19.58,0,0,1,0,68.594V19.522A19.58,19.58,0,0,1,19.523,0H68.595A19.58,19.58,0,0,1,88.117,19.523Z" fill="#d7c9fe"/>
        </g>
      </g>
    </g>
    <g id="Group_1102418" data-name="Group 1102418" transform="translate(-7111.473 -10051.099)">
      <rect id="Rectangle_401104" data-name="Rectangle 401104" width="68" height="69" transform="translate(0.059 -0.804)" fill="none"/>
      <g id="Group_1104000" data-name="Group 1104000" transform="translate(-3657.194 -2375.126)">
        <path id="Path_878314" data-name="Path 878314" d="M3684.557,2386.173a.9.9,0,0,1,.19-.031c.574.66.346,1.449.355,2.2.086,4.937.036,9.875.031,14.81a1.944,1.944,0,0,0,.408,1.4c2.075,3.7,4.246,7.353,6.358,11.036.259.451.654.876.429,1.476a9.985,9.985,0,0,1-5.462,2.037,15.4,15.4,0,0,1-12.085-3.368,2.531,2.531,0,0,1-.535-.523c-.275-.62.229-.919.554-1.265a47.253,47.253,0,0,0,3.468-3.673c.107-.143.241-.266.344-.413a.757.757,0,0,0,0-1.071.733.733,0,0,0-1.065,0,6.57,6.57,0,0,0-1.118,1.157,35.4,35.4,0,0,1-2.914,3.013c-.25.248-.531.509-.947.327a13.17,13.17,0,0,1-3.292-7.107,15.641,15.641,0,0,1,11.477-17.664,12.432,12.432,0,0,1,2.115-.373c.883-.071,1.55-.3,1.437-1.393A.764.764,0,0,1,3684.557,2386.173Z" transform="translate(-8.604 -6.439)" fill="#00d5e4"/>
        <path id="Path_878315" data-name="Path 878315" d="M3945.439,2545.374c-.859,0-1.719-.018-2.577.021a1.437,1.437,0,0,1-1.627-1.346,6.484,6.484,0,0,1-.078-1.173q-.006-15.041,0-30.082a6.934,6.934,0,0,1,.053-1.069c.228-1.451.469-1.647,1.962-1.65.752,0,1.5,0,2.255.006a1.717,1.717,0,0,1,1,1.646c.012.25.022.5.022.751q0,15.248,0,30.5C3946.44,2543.9,3946.514,2544.884,3945.439,2545.374Z" transform="translate(-222.128 -103.688)" fill="#00d5e4"/>
        <path id="Path_878316" data-name="Path 878316" d="M3890.2,2564.2c-.824.006-1.649-.007-2.472.021a1.416,1.416,0,0,1-1.6-1.477,8.339,8.339,0,0,1-.014-.86q0-12.747,0-25.5c0-1.832.284-2.182,2.115-2.08,1.026.056,2.036-.544,3.053-.029a14.387,14.387,0,0,0,.135,2.455c-.015,8.3,0,16.6-.021,24.9C3891.4,2562.644,3891.559,2563.793,3890.2,2564.2Z" transform="translate(-178.937 -122.516)" fill="#a1f4c2"/>
        <path id="Path_878317" data-name="Path 878317" d="M3835.439,2583.969c-.894.007-1.788.031-2.681.014-1.116-.021-1.6-.463-1.6-1.552q-.021-10.731,0-21.463c0-1.11.476-1.614,1.585-1.523,1.135.093,2.254-.432,3.378-.021a19.024,19.024,0,0,1,.323,4.374q-.016,8.8,0,17.606A2.649,2.649,0,0,1,3835.439,2583.969Z" transform="translate(-135.805 -142.287)" fill="#ffb12d"/>
        <path id="Path_878318" data-name="Path 878318" d="M3780.458,2603.619c-.932.008-1.863.021-2.794.022a1.313,1.313,0,0,1-1.5-1.437q-.015-8.176-.005-16.352c0-.686.275-1.312.963-1.346a14.993,14.993,0,0,1,4.041-.066c.165,5.764.04,11.529.072,17.293A1.959,1.959,0,0,1,3780.458,2603.619Z" transform="translate(-92.658 -161.939)" fill="#de646e"/>
        <path id="Path_878319" data-name="Path 878319" d="M3677.645,2386.212c.012,2.087.015,2.116-1.918,2.325a14.122,14.122,0,0,0-7.665,3.292,15.219,15.219,0,0,0-2.818,20.611c.2.294.391.6.586.9a1.634,1.634,0,0,1-1.483,1.663,19.44,19.44,0,0,1-3.766-7.973,17.577,17.577,0,0,1,12.412-20.208A14.5,14.5,0,0,1,3677.645,2386.212Z" transform="translate(-1.691 -6.479)" fill="#00d5e4"/>
        <path id="Path_878320" data-name="Path 878320" d="M3771.093,2383.567a3.626,3.626,0,0,0,1.094-.855c1.17-1.109,2.433-2.138,3.481-3.353a4.077,4.077,0,0,1,3.813-1.392,24.346,24.346,0,0,0,2.687.012c.737-.013,1.219.356,1.239,1.051.02.725-.537,1.051-1.218,1.095a7.856,7.856,0,0,1-1.5,0,4.64,4.64,0,0,0-4.467,1.629c-1.019,1.193-2.212,2.238-3.327,3.348-.361.729-1.128,1.081-1.588,1.719-1.118,1.213-2.374,2.278-3.6,3.372a1.465,1.465,0,0,1-2.112.116c-.528-.534-.464-1.21.229-2,1.065-1.213,2.438-2.1,3.5-3.319C3769.927,2384.537,3770.283,2383.769,3771.093,2383.567Z" transform="translate(-84.09)" fill="#065564"/>
        <path id="Path_878321" data-name="Path 878321" d="M3662.656,2495.316a5.027,5.027,0,0,0,1.482-1.663,56.3,56.3,0,0,0,4.32-4.452c.313-.342.643-.722,1.165-.646a1.091,1.091,0,0,1,.9.687,1.125,1.125,0,0,1-.343,1.257c-1.262,1.311-2.508,2.638-3.754,3.965-.266.284-.507.593-.759.89a2.022,2.022,0,0,1-1.373,1.518c-1.41,1.168-2.512,2.636-3.8,3.921a1.254,1.254,0,0,0-.249,1q-.005,1.61,0,3.22c0,.768-.28,1.43-1.1,1.442-.847.013-1.1-.654-1.055-1.429,0-.035,0-.072,0-.107-.054-4.784-.052-4.782,3.26-8.192C3661.794,2496.271,3662.22,2495.789,3662.656,2495.316Z" transform="translate(0 -86.794)" fill="#065564"/>
        <path id="Path_878322" data-name="Path 878322" d="M3686.949,2521.685l1.372-1.518a16.556,16.556,0,0,0,7.28,3.635,15.366,15.366,0,0,0,10.728-1.7.253.253,0,0,1,.285-.053,3.056,3.056,0,0,1,.892,1.934q-10.318,5.44-19.7-1.491A9.641,9.641,0,0,1,3686.949,2521.685Z" transform="translate(-22.657 -111.607)" fill="#00d5e4"/>
        <path id="Path_878323" data-name="Path 878323" d="M3961.012,2545.389a3,3,0,0,0,.651-2.084q-.03-15.565,0-31.128a3,3,0,0,0-.664-2.08c1.667-.029,1.952.245,1.952,1.893q0,15.747,0,31.494C3962.952,2545.146,3962.669,2545.421,3961.012,2545.389Z" transform="translate(-237.701 -103.703)" fill="#80b5fb"/>
        <path id="Path_878324" data-name="Path 878324" d="M3881.124,2452.023c3.007,0,6.013.011,9.02-.008.809-.005,1.505.157,1.477,1.108-.026.854-.68,1.064-1.448,1.063q-9.127-.012-18.254,0c-.834,0-1.506-.261-1.493-1.137.012-.826.688-1.043,1.465-1.039C3874.967,2452.034,3878.045,2452.023,3881.124,2452.023Z" transform="translate(-166.627 -58.129)" fill="#a01f4e"/>
        <path id="Path_878325" data-name="Path 878325" d="M3881.048,2378.145c2.973,0,5.946.006,8.919,0,.765,0,1.563.051,1.578,1.012.014.978-.75,1.152-1.586,1.151q-8.973-.014-17.945-.009a2.91,2.91,0,0,1-.845-.1,1.032,1.032,0,0,1-.821-1.114,1.021,1.021,0,0,1,1.03-.924c.858-.032,1.719-.015,2.578-.015Q3877.5,2378.143,3881.048,2378.145Z" transform="translate(-166.561 -0.161)" fill="#ffb12d"/>
        <path id="Path_878326" data-name="Path 878326" d="M3668.817,2585.051c3.048,0,6.1.008,9.144-.006.771,0,1.377.143,1.372,1.082,0,.877-.618,1.068-1.311,1.069q-9.252.015-18.5,0a1.124,1.124,0,0,1-1.279-1.147c-.02-.878.606-1.007,1.326-1C3662.649,2585.056,3665.733,2585.051,3668.817,2585.051Z" transform="translate(-0.128 -162.516)" fill="#00d5e4"/>
        <path id="Path_878327" data-name="Path 878327" d="M3789.917,2461.041a1.8,1.8,0,0,0,2.672-.241q1.692-2.87,3.336-5.767c.37-.648.8-1.191,1.608-.751.855.468.633,1.158.236,1.842-1.3,2.229-2.595,4.458-3.869,6.7a1.387,1.387,0,0,1-1.384.8c-.859-.034-1.721,0-2.581-.014a1.045,1.045,0,0,0-1.035.4l-.381-.066c-1.219-.113-2.436.023-3.654,0-.5-.009-1,.009-1.506-.009-1.228-.045-1.952-.561-1.964-1.391-.012-.812.732-1.392,1.943-1.428,1.361-.041,2.724-.051,4.084.009C3788.256,2461.191,3789.083,2461.024,3789.917,2461.041Z" transform="translate(-96.767 -59.783)" fill="#065564"/>
        <path id="Path_878328" data-name="Path 878328" d="M3905.119,2564.966a2.059,2.059,0,0,0,.842-1.856q0-13.213.009-26.425a3.46,3.46,0,0,0-.535-1.552l.764-.087a1.3,1.3,0,0,1,1.071,1.491q-.008,13.474-.009,26.948C3907.259,2564.733,3906.794,2565.029,3905.119,2564.966Z" transform="translate(-193.851 -123.283)" fill="#80e29c"/>
        <path id="Path_878329" data-name="Path 878329" d="M3851.09,2584.55a5.456,5.456,0,0,0,.646-3.383q-.015-9.121,0-18.242a4.81,4.81,0,0,0-.372-2.508c-.315-.556.237-.309.411-.412a1.249,1.249,0,0,1,1.249,1.433q.005,10.8-.006,21.6C3853.01,2584.243,3852.528,2584.581,3851.09,2584.55Z" transform="translate(-151.456 -142.868)" fill="#f1ce6c"/>
        <path id="Path_878330" data-name="Path 878330" d="M3796.122,2604.095a4.578,4.578,0,0,0,.438-2.366c-.019-4.976-.005-9.952-.016-14.928a2.963,2.963,0,0,0-.161-1.471c-.271-.52.277-.29.445-.413a1.237,1.237,0,0,1,1.191,1.391q.025,8.175,0,16.35C3798.013,2603.781,3797.49,2604.126,3796.122,2604.095Z" transform="translate(-108.323 -162.415)" fill="#db4b57"/>
        <path id="Path_878331" data-name="Path 878331" d="M3793.135,2412.728a4.8,4.8,0,0,1,1.646-1.5,17.211,17.211,0,0,1,4.767,12.053,2.068,2.068,0,0,1-1.98.145c-.425-.27-.42-.726-.462-1.144a15.7,15.7,0,0,0-3.581-8.694A1.361,1.361,0,0,1,3793.135,2412.728Z" transform="translate(-105.979 -26.127)" fill="#ffb12d"/>
        <path id="Path_878332" data-name="Path 878332" d="M3663.885,2612.279c-1.465,0-2.93-.008-4.4,0-.734.005-1.288-.2-1.309-1.049s.545-1.1,1.264-1.1q4.556-.014,9.113,0c.7,0,1.211.3,1.218,1.053.007.812-.534,1.1-1.281,1.1Q3666.19,2612.276,3663.885,2612.279Z" transform="translate(-0.082 -182.195)" fill="#065564"/>
        <path id="Path_878333" data-name="Path 878333" d="M3876.2,2479.3c-1.466,0-2.933-.016-4.4.006-.746.012-1.363-.257-1.374-1.015-.011-.785.562-1.156,1.38-1.152,2.932.016,5.865.01,8.8,0,.759,0,1.454.221,1.479,1.048.027.9-.657,1.136-1.485,1.118C3879.13,2479.28,3877.664,2479.3,3876.2,2479.3Z" transform="translate(-166.627 -77.847)" fill="#065564"/>
        <path id="Path_878334" data-name="Path 878334" d="M3876.259,2405.4c-1.465,0-2.931-.014-4.4.006-.779.011-1.436-.245-1.432-1.07s.669-1.094,1.44-1.093q4.4.008,8.792,0c.76,0,1.44.245,1.426,1.09-.013.817-.64,1.091-1.435,1.074C3879.19,2405.383,3877.724,2405.4,3876.259,2405.4Z" transform="translate(-166.632 -19.863)" fill="#065564"/>
        <path id="Path_878335" data-name="Path 878335" d="M3752.851,2390.006a7.821,7.821,0,0,1-1.566,1.539c-.512.021-.852-.333-1.235-.581a15.55,15.55,0,0,0-6.935-2.335,1.722,1.722,0,0,1-1.106-.321q-.008-1.083-.017-2.166A16.5,16.5,0,0,1,3752.851,2390.006Z" transform="translate(-65.848 -6.439)" fill="#ffb12d"/>
        <path id="Path_878336" data-name="Path 878336" d="M3786.063,2498.687a.609.609,0,0,0,.046.184,17.46,17.46,0,0,1-7.284,8.142l-.978-1.822c-.079-.511.353-.663.653-.878a14.45,14.45,0,0,0,4.531-4.921,1.481,1.481,0,0,1,1.677-.823C3785.157,2498.623,3785.628,2498.451,3786.063,2498.687Z" transform="translate(-93.975 -94.642)" fill="#a01f4e"/>
        <path id="Path_878337" data-name="Path 878337" d="M3810.019,2467.077l2.122.029a14.234,14.234,0,0,1-.419,4.1c-.668.794-1.555.29-2.34.4a1,1,0,0,1-.125-1c.3-1.116.244-2.3.632-3.4Z" transform="translate(-118.572 -69.948)" fill="#a01f4e"/>
        <path id="Path_878338" data-name="Path 878338" d="M3742.071,2396.2a14.355,14.355,0,0,1,9.275,3.237,45.611,45.611,0,0,1-3.315,3.2c-.5.53-1.138,1.086-.451,1.819s1.318.327,1.932-.262c1.159-1.114,2.366-2.177,3.553-3.26a15.354,15.354,0,0,1,4.291,10.527l.025.058a1.861,1.861,0,0,1-1.22.325q-6.439.017-12.88,0a1.771,1.771,0,0,1-1.209-.354Z" transform="translate(-65.91 -14.334)" fill="#ffb12d"/>
        <path id="Path_878339" data-name="Path 878339" d="M3742.074,2467.2l15.31.03a25.051,25.051,0,0,1-.662,4.469c-1.433.007-2.866.021-4.3.017-.82,0-1.64.153-1.615,1.129.023.88.768,1.061,1.58,1.038,1.54-.042,3.082-.028,4.622-.015.336,0,.728-.15.99.221a2.761,2.761,0,0,0-3.326,1.674c-1.056,2.126-3.054,3.424-4.89,4.829a1.747,1.747,0,0,1-.2-.058c-1.987-3.472-3.984-6.938-5.954-10.42A17.911,17.911,0,0,1,3742.074,2467.2Z" transform="translate(-65.913 -70.048)" fill="#a01f4e"/>
      </g>
    </g>
  </g>
</svg>
