<svg xmlns="http://www.w3.org/2000/svg" xmlns:xlink="http://www.w3.org/1999/xlink" width="98.579" height="98.578" viewBox="0 0 98.579 98.578">
  <defs>
    <clipPath id="clip-path">
      <rect id="Rectangle_401223" data-name="Rectangle 401223" width="98.579" height="98.578" transform="translate(0)" fill="#bfa9fe"/>
    </clipPath>
    <clipPath id="clip-path-2">
      <rect id="Rectangle_401223-2" data-name="Rectangle 401223" width="88.117" height="88.116" fill="#d7c9fe"/>
    </clipPath>
  </defs>
  <g id="Group_1107071" data-name="Group 1107071" transform="translate(-401.464 -1615.097)">
    <g id="Group_1100172" data-name="Group 1100172" transform="translate(-519.869 1204.092)">
      <g id="Group_1099654" data-name="Group 1099654" transform="translate(921.333 411.006)">
        <g id="Group_1099652" data-name="Group 1099652" transform="translate(0 0)" clip-path="url(#clip-path)">
          <path id="Path_873521" data-name="Path 873521" d="M98.579,76.737a21.9,21.9,0,0,1-21.84,21.84H21.84A21.9,21.9,0,0,1,0,76.737V21.84A21.9,21.9,0,0,1,21.84,0h54.9a21.9,21.9,0,0,1,21.84,21.841Z" transform="translate(0)" fill="#bfa9fe"/>
        </g>
      </g>
      <g id="Group_1099659" data-name="Group 1099659" transform="translate(926.103 416.728)">
        <g id="Group_1099652-2" data-name="Group 1099652" transform="translate(0 0)" clip-path="url(#clip-path-2)">
          <path id="Path_873521-2" data-name="Path 873521" d="M88.117,68.594A19.58,19.58,0,0,1,68.595,88.116H19.523A19.58,19.58,0,0,1,0,68.594V19.522A19.58,19.58,0,0,1,19.523,0H68.595A19.58,19.58,0,0,1,88.117,19.523Z" fill="#d7c9fe"/>
        </g>
      </g>
    </g>
    <g id="Group_1100171" data-name="Group 1100171" transform="translate(417.406 1630.901)">
      <rect id="Rectangle_401104" data-name="Rectangle 401104" width="68" height="69" transform="translate(0.059 -0.804)" fill="none"/>
      <g id="Group_1103997" data-name="Group 1103997" transform="translate(-3696.578 -2419.298)">
        <path id="Path_878212" data-name="Path 878212" d="M3727.1,2500.814c-4.207,0-8.413-.028-12.618.018-1.128.013-1.679-.167-1.668-1.517q.094-12.053,0-24.106c-.009-1.3.463-1.551,1.631-1.536,4.457.056,8.915-.013,13.371.046,1.194.016,1.671-.279,1.634-1.564-.086-2.948-.078-5.9,0-8.85.031-1.209-.3-1.625-1.571-1.6-4.2.079-8.413-.012-12.618.056-1.21.02-1.61-.3-1.589-1.556.074-4.582.059-9.166.007-13.748-.012-1.09.2-1.562,1.428-1.554q11.865.073,23.73,0c1.3-.009,1.573.5,1.537,1.665-.073,2.446.022,4.9-.042,7.344-.028,1.086.21,1.576,1.434,1.54,2.823-.084,5.651-.075,8.474,0,1.158.03,1.5-.348,1.485-1.5-.057-4.771.038-9.543-.061-14.313-.03-1.464.447-1.755,1.81-1.744q11.958.093,23.918,0c1.276-.008,1.733.3,1.723,1.659q-.09,11.865,0,23.73c.008,1.242-.37,1.606-1.6,1.589-4.645-.066-9.292.012-13.936-.052-1.239-.017-1.659.363-1.6,1.6.092,1.816.085,3.643,0,5.459-.053,1.154.327,1.514,1.488,1.5,3.954-.064,7.911.018,11.865-.05,1.2-.021,1.642.273,1.615,1.554-.081,3.828-.071,7.659,0,11.488.021,1.191-.409,1.476-1.523,1.469-5.964-.044-11.928-.054-17.892.007-1.247.013-1.607-.361-1.6-1.594.018-3.127-.041-3.127-3.154-3.127-3.139,0-6.282.1-9.415-.041-1.645-.073-1.954.51-1.923,2.016.1,4.644-.017,9.292.066,13.936.025,1.4-.353,1.841-1.783,1.81C3735.509,2500.755,3731.3,2500.814,3727.1,2500.814Z" transform="translate(-13.301 -13.553)" fill="#335483"/>
        <path id="Path_878213" data-name="Path 878213" d="M3700.382,2514.931c-2.506,0-5.014-.043-7.519.02-1.068.027-1.435-.331-1.4-1.4.068-2,.05-4.011.007-6.015-.02-.942.273-1.338,1.283-1.33q7.614.058,15.228,0c.92-.006,1.2.353,1.182,1.221-.038,2.068-.07,4.138.012,6.2.046,1.162-.488,1.333-1.462,1.313C3705.271,2514.9,3702.826,2514.931,3700.382,2514.931Z" transform="translate(0 -56.123)" fill="#385987"/>
        <path id="Path_878214" data-name="Path 878214" d="M3735.5,2422.667c-.195,1.582.86,4.15-.427,5.247-1.109.944-3.595.3-5.472.307-3.265.02-3.265.006-3.265-3.241,0-2.511.035-5.022-.017-7.532-.021-.978.3-1.329,1.292-1.3q3.294.084,6.59,0c.983-.027,1.343.317,1.313,1.291C3735.459,2419.064,3735.5,2420.7,3735.5,2422.667Z" transform="translate(-21.716)" fill="#385887"/>
        <path id="Path_878215" data-name="Path 878215" d="M3828.222,2593.69c-1.563,0-3.127-.037-4.688.015-.927.031-1.368-.215-1.338-1.246.061-2.124.042-4.251.007-6.376-.013-.807.289-1.1,1.092-1.1q5.064.038,10.127,0c.844-.007,1.065.375,1.055,1.139-.027,2.125-.035,4.251,0,6.376.016.879-.29,1.229-1.194,1.2C3831.6,2593.654,3829.91,2593.69,3828.222,2593.69Z" transform="translate(-81.463 -105.214)" fill="#395987"/>
        <path id="Path_878216" data-name="Path 878216" d="M3773.426,2424.847c1.632,0,3.265.039,4.895-.015.972-.032,1.333.314,1.306,1.3-.056,2.07-.043,4.142-.005,6.213.016.877-.291,1.233-1.193,1.225-3.326-.031-6.653-.026-9.979,0-.809.006-1.119-.316-1.109-1.114.026-2.134.036-4.268-.006-6.4-.017-.886.293-1.243,1.2-1.218C3770.161,2424.879,3771.794,2424.847,3773.426,2424.847Z" transform="translate(-47.277 -5.414)" fill="#365785"/>
        <path id="Path_878217" data-name="Path 878217" d="M3716.449,2560.443c-.559-.429-.319-1.042-.321-1.571-.017-6.966.037-13.932-.048-20.9-.02-1.613.514-2.01,2.04-1.972,3.888.1,7.781.021,11.671.042.693,0,1.327-.145,1.9.745.73,1.141.869-.394,1.346-.585a2.392,2.392,0,0,0,1.865.414c1.383-.008,2.761-.029,4.139,0,1.985.046,2.428.49,2.48,2.447.021.813.031,1.628-.025,2.443a1.988,1.988,0,0,1-.467,1.306,1.338,1.338,0,0,0,.644,1.456c-.322,4.2-.072,8.4-.139,12.606-.044,2.707-.369,3.078-3.013,3.082q-9.51.015-19.02,0c-2.369,0-2.635-.268-2.639-2.557q-.016-9.133,0-18.267c0-2.245.088-2.323,2.348-2.332,3.057-.012,6.115,0,9.172,0-3.2,0-6.4.061-9.6-.029-1.495-.042-1.961.48-1.948,1.955.059,6.591.029,13.182.021,19.773C3716.849,2559.168,3717.085,2559.9,3716.449,2560.443Z" transform="translate(-15.339 -74.688)" fill="#c5fdff"/>
        <path id="Path_878218" data-name="Path 878218" d="M3820.851,2458.8c.241-.717-.206-1.111-.7-1.484a3.612,3.612,0,0,0,.32-2.194c.015-3.763.043-7.527-.012-11.289-.021-1.449.5-2.011,1.974-2q9.69.063,19.38,0c1.412-.009,2.046.424,2.035,1.932-.046,6.4-.036,12.794-.006,19.192.007,1.374-.522,1.9-1.894,1.884-3.261-.047-6.522-.017-9.784-.013,3.256,0,6.514-.061,9.768.027,1.515.041,1.936-.535,1.923-1.98q-.085-9.6,0-19.192c.011-1.392-.471-1.865-1.857-1.855-6.585.046-13.171.029-19.756.011-.727,0-1.526.221-2.13-.434.513-.55,1.181-.3,1.775-.3,6.9-.019,13.8.025,20.7-.041,1.477-.014,2.092.279,2.07,1.938-.092,6.9-.078,13.8-.008,20.695.015,1.468-.374,1.96-1.893,1.922-4.074-.1-8.152-.024-12.228-.044-.7,0-1.331.14-1.9-.741-.752-1.158-.85.459-1.359.585a1.96,1.96,0,0,0-1.542-.407c-1,0-2,.045-3-.014-1.723-.1-2.19-.595-2.234-2.3-.022-.873-.009-1.747,0-2.621A1.8,1.8,0,0,1,3820.851,2458.8Z" transform="translate(-80.166 -15.519)" fill="#00d5e4"/>
        <path id="Path_878219" data-name="Path 878219" d="M3782.026,2490.2c.03,1.867.106,3.735.07,5.6-.019.989.352,1.293,1.307,1.282,2.179-.027,4.358.038,6.537.065a1.45,1.45,0,0,1,.653,1.284q.073,2.911,0,5.822a1.5,1.5,0,0,1-.656,1.287c-3.58.162-3.573.162-3.583,3.892,0,1.121-.052,2.242-.081,3.364a2.288,2.288,0,0,1-1.727.562q-5.424,0-10.847,0a2.356,2.356,0,0,1-1.728-.566c-.028-1.56-.169-3.129-.054-4.678.124-1.655-.311-2.332-2.124-2.222-2.488.151-4.994,0-7.492-.028a1.748,1.748,0,0,1-.677-1.641q-.021-4.283,0-8.567a1.812,1.812,0,0,1,.687-1.643c2.172-.017,4.349-.132,6.513-.016,1.529.081,2.187-.355,1.964-1.941a10.151,10.151,0,0,1,.068-1.853,1.608,1.608,0,0,1,.986-.51c3.07-.11,6.142-.1,9.213-.007A1.283,1.283,0,0,1,3782.026,2490.2Z" transform="translate(-43.714 -45.781)" fill="#ffb12d"/>
        <path id="Path_878220" data-name="Path 878220" d="M3742.7,2469.915v1.421a1.874,1.874,0,0,1,.334,1.281c.117,1.286-.5,1.766-1.749,1.726-1.475-.047-2.954-.01-4.429-.009a4.118,4.118,0,0,1-1.553-.159,2.035,2.035,0,0,0-1.4-.115c-1.9.587-3.85.194-5.774.258-2.127.071-4.258.025-6.387.011-.789-.005-1.636-.06-1.624-1.1.051-3.926-.386-7.862.24-11.776a2.861,2.861,0,0,1,1.82-.292q9.312-.016,18.623,0c2.125,0,2.288.112,2.217,2.236C3742.942,2465.567,3743.419,2467.773,3742.7,2469.915Z" transform="translate(-17.791 -28.043)" fill="#a01f4e"/>
        <path id="Path_878221" data-name="Path 878221" d="M3835.274,2537.4l1.249,0a2.9,2.9,0,0,1,1.978-.329c3.514.153,7.047-.365,10.548.286.868,1.855.388,3.823.421,5.735.085,4.913.29,4.694-4.71,4.683-3.071-.006-6.142.01-9.213-.008a4.235,4.235,0,0,1-2.382-.355,1.957,1.957,0,0,1-.154-2.5q0-.733,0-1.465a2.11,2.11,0,0,1-.41-1.285c-.056-1.1-.061-2.2-.011-3.292.041-.9.238-1.73,1.392-1.786A1.683,1.683,0,0,1,3835.274,2537.4Z" transform="translate(-87.921 -75.319)" fill="#a01f4e"/>
        <path id="Path_878222" data-name="Path 878222" d="M3716.992,2560.969c0-7.4.029-14.8-.042-22.2-.014-1.463.37-1.963,1.887-1.919,3.7.1,7.4.028,11.1.04a2.447,2.447,0,0,1,1.7.292c-.382.851-1.158.511-1.741.516-3.512.033-7.025.063-10.536-.008-1.232-.025-1.614.361-1.6,1.6q.08,9.6,0,19.192c-.007,1.129.327,1.535,1.493,1.528,6.9-.042,13.8-.055,20.7.008,1.407.013,1.649-.57,1.632-1.788-.056-3.888-.031-7.777-.01-11.666,0-.639-.285-1.436.641-1.76.512.26.372.748.373,1.16.01,4.574-.006,9.149.017,13.724,0,.858-.077,1.4-1.18,1.394C3733.28,2561.012,3725.136,2561,3716.992,2560.969Z" transform="translate(-15.882 -75.214)" fill="#f1f7f8"/>
        <path id="Path_878223" data-name="Path 878223" d="M3819.856,2441.974c7.4.008,14.81.059,22.214-.011,1.569-.015,2.02.442,2,2.006q-.121,9.977,0,19.956c.015,1.455-.364,1.971-1.888,1.929-3.825-.1-7.655-.027-11.483-.042a2.3,2.3,0,0,1-1.863-.415,2.813,2.813,0,0,1,2.05-.393c3.577-.018,7.155-.05,10.731.014,1.209.022,1.638-.327,1.627-1.586q-.081-9.507,0-19.015c.01-1.227-.357-1.622-1.6-1.612q-9.7.078-19.391,0c-1.224-.01-1.637.349-1.616,1.6.067,3.953.036,7.907.012,11.86,0,.619.322,1.466-.749,1.624C3819.6,2452.582,3819.686,2447.278,3819.856,2441.974Z" transform="translate(-79.91 -16.09)" fill="#f3f6f9"/>
        <path id="Path_878224" data-name="Path 878224" d="M3847.841,2536.726l-12.384-.044c-.076-.873.544-.814,1.1-.81q6.04.046,12.081.1a76.182,76.182,0,0,1,.023,11.355c-5.605.392-11.218.074-16.827.164-.764.012-1.061-.46-.878-1.075.229-.771-.854-2.175.989-2.224q.059,1.154.12,2.308c2.53.451,5.081.128,7.622.192,2.368.06,4.74.021,7.109.007.528,0,1.278.173,1.254-.689C3847.965,2542.915,3848.377,2539.809,3847.841,2536.726Z" transform="translate(-86.855 -74.606)" fill="#f8f8f9"/>
        <path id="Path_878225" data-name="Path 878225" d="M3719.838,2461.01c-.038,3.739-.043,7.479-.135,11.216-.031,1.25.689,1.215,1.555,1.216,3.99.006,7.98.036,11.971.058-.029.228.082.529-.3.568-4.51-.149-9.02-.237-13.528.048-.706-.241-.389-.844-.393-1.273-.028-3.694.02-7.389-.039-11.082-.017-1.109.257-1.523,1.45-1.514q10.424.079,20.85,0c1.147-.008,1.6.306,1.476,1.477-.272,2.5.471,5.047-.377,7.518a42.739,42.739,0,0,1-.155-7.108c-.012-1.074-.346-1.387-1.405-1.381-6.771.039-13.542.024-20.312.014A.7.7,0,0,0,3719.838,2461.01Z" transform="translate(-17.121 -27.483)" fill="#f7f7f9"/>
        <path id="Path_878226" data-name="Path 878226" d="M3788.971,2551.108l14.3,0c.212.781-.019,1.138-.894,1.132q-6.257-.04-12.516,0C3788.984,2552.25,3788.76,2551.886,3788.971,2551.108Z" transform="translate(-60.714 -84.102)" fill="#fefefe"/>
        <path id="Path_878227" data-name="Path 878227" d="M3770.428,2541.856c-.012-.061-.025-.123-.038-.183-.273-1.345.546-3.12-.377-3.972-1.055-.974-2.866-.23-4.344-.34-.747-.056-1.5-.021-2.25-.028-.216-.3-.48-.6-.169-.99,2.294-.024,4.589-.017,6.882-.086,1.007-.031,1.3.408,1.252,1.335-.07,1.423-.07,2.849-.1,4.274A.535.535,0,0,1,3770.428,2541.856Z" transform="translate(-44.644 -74.847)" fill="#d8c446"/>
        <path id="Path_878228" data-name="Path 878228" d="M3761.556,2501.175q-.005,5.926-.01,11.851c-1.058.282-1.136-.395-1.136-1.157,0-3.188.009-6.377-.006-9.565C3760.4,2501.494,3760.542,2500.911,3761.556,2501.175Z" transform="translate(-42.959 -52.947)" fill="#dfe5ea"/>
        <path id="Path_878229" data-name="Path 878229" d="M3797.186,2489.292l-11.17,0c-.216-.79.036-1.142.9-1.134q4.678.042,9.358,0C3797.141,2488.154,3797.4,2488.5,3797.186,2489.292Z" transform="translate(-58.874 -44.878)" fill="#fefefe"/>
        <path id="Path_878230" data-name="Path 878230" d="M3721.281,2461.543c-.009-.107-.033-.307-.026-.309a5.837,5.837,0,0,1,.9-.1c6.651-.005,13.3.025,19.954-.029,1.306-.011,1.779.377,1.727,1.71-.091,2.318-.025,4.643-.025,6.964a.457.457,0,0,1-.341.112c-.019-2.061-.144-4.127-.022-6.179.1-1.655-.323-2.234-2.117-2.2C3734.649,2461.62,3727.964,2461.547,3721.281,2461.543Z" transform="translate(-18.563 -28.017)" fill="#faf9fa"/>
        <path id="Path_878231" data-name="Path 878231" d="M3820.654,2490.9c.356,1.425-.668,3.377.553,4.209.991.675,2.759.208,4.182.251.248.008.5.032.743.05.562.295.441.621.044.961-1.685.021-3.372,0-5.053.079-1.107.055-1.414-.434-1.359-1.445.074-1.369.064-2.742.09-4.114A.532.532,0,0,1,3820.654,2490.9Z" transform="translate(-79.945 -46.471)" fill="#e0c546"/>
        <path id="Path_878232" data-name="Path 878232" d="M3836.766,2517.873q0-4.2,0-8.393c1.038-.289,1.141.359,1.14,1.127,0,2.044-.007,4.088,0,6.133C3837.914,2517.523,3837.781,2518.134,3836.766,2517.873Z" transform="translate(-90.543 -58.118)" fill="#dde4e9"/>
        <path id="Path_878233" data-name="Path 878233" d="M3833.152,2536.643c-.929-.062-1.1.473-1.089,1.268.017,1.221-.049,2.442-.08,3.664a.608.608,0,0,1-.927-.031,36.389,36.389,0,0,0-.1-3.693c-.218-1.774.482-2.363,2.157-1.983C3833.514,2536.108,3833.464,2536.369,3833.152,2536.643Z" transform="translate(-86.899 -74.537)" fill="#f1cf44"/>
        <path id="Path_878234" data-name="Path 878234" d="M3762.918,2492.468c1.593-.022,3.188-.117,4.777-.042,1.188.055,1.723-.351,1.611-1.544a.376.376,0,0,1,.632.01c.435,1.854-.238,2.544-2.165,2.32a47.589,47.589,0,0,0-4.8-.1C3762.61,2492.927,3762.664,2492.706,3762.918,2492.468Z" transform="translate(-44.399 -46.468)" fill="#ebcb42"/>
        <path id="Path_878235" data-name="Path 878235" d="M3720.161,2496.4c.645-.584,1.438-.346,2.156-.321,3.79.133,7.6-.369,11.373.273C3729.181,2496.591,3724.671,2496.5,3720.161,2496.4Z" transform="translate(-17.883 -49.77)" fill="#fafbfc"/>
        <path id="Path_878236" data-name="Path 878236" d="M3878.084,2547.5q-.012-5.677-.023-11.355c.592.2.38.715.382,1.1q.028,4.556,0,9.111C3878.444,2546.758,3878.608,2547.246,3878.084,2547.5Z" transform="translate(-116.275 -74.777)" fill="#f9f5f6"/>
        <path id="Path_878237" data-name="Path 878237" d="M3782.373,2551.118l.856.009c.216.829-.078,1.22-.953,1.112Q3782.325,2551.678,3782.373,2551.118Z" transform="translate(-56.589 -84.108)" fill="#f7f7f5"/>
        <path id="Path_878238" data-name="Path 878238" d="M3831.148,2551.111l.927.031.009,1.083C3831.174,2552.355,3830.91,2551.944,3831.148,2551.111Z" transform="translate(-86.991 -84.104)" fill="#f8f7f5"/>
        <path id="Path_878239" data-name="Path 878239" d="M3761.95,2536.486l.17.99c-.747.107-1.2-.11-1.079-.969Z" transform="translate(-43.344 -74.991)" fill="#cad4ce"/>
        <path id="Path_878240" data-name="Path 878240" d="M3836.785,2536.7l-.037-.775c.651-.167,1.16-.116,1.138.745Z" transform="translate(-90.532 -74.593)" fill="#dbe0e6"/>
        <path id="Path_878241" data-name="Path 878241" d="M3820.7,2489.3l-.8-.01c-.151-.659-.132-1.2.776-1.143Q3820.684,2488.72,3820.7,2489.3Z" transform="translate(-79.987 -44.864)" fill="#f2f4f2"/>
        <path id="Path_878242" data-name="Path 878242" d="M3780.834,2489.316l-.632-.01q0-.559,0-1.119C3781.125,2488.163,3780.889,2488.79,3780.834,2489.316Z" transform="translate(-55.295 -44.894)" fill="#fdf9f3"/>
        <path id="Path_878243" data-name="Path 878243" d="M3836.716,2504.1q-.021-.48-.043-.96c.765-.125,1,.262.908.953Z" transform="translate(-90.485 -54.197)" fill="#bfcddb"/>
        <path id="Path_878244" data-name="Path 878244" d="M3761.581,2495.369c.02.213.039.427.059.64-.467.068-.964.2-1.071-.506C3760.906,2495.457,3761.244,2495.413,3761.581,2495.369Z" transform="translate(-43.062 -49.369)" fill="#f8f9f9"/>
        <path id="Path_878245" data-name="Path 878245" d="M3695.55,2515.736c-.691-1.606-.167-3.287-.294-4.929-.055-.711.5-.746,1.026-.746q6.357,0,12.715,0c.624,0,1.157.085,1.1.876-.111,1.59.324,3.21-.266,4.772-.074-.079-.148-.158-.224-.236a6.59,6.59,0,0,1-.275-2.95c-.011-.985-.344-1.519-1.411-1.517-3.5.008-6.99,0-10.486,0-.947,0-1.326.444-1.357,1.372a7.111,7.111,0,0,1-.295,3.134C3695.707,2515.586,3695.628,2515.661,3695.55,2515.736Z" transform="translate(-2.319 -58.522)" fill="#e7ecf2"/>
        <path id="Path_878246" data-name="Path 878246" d="M3710.438,2524.046c-2.078.552-4.2.234-6.29.224-2.663-.012-5.34.306-7.993-.192l.106-.109a47.956,47.956,0,0,1,14.085-.012Z" transform="translate(-2.924 -66.863)" fill="#e7ecf2"/>
        <path id="Path_878247" data-name="Path 878247" d="M3730.261,2424.381c0-4.468,0-4.406,4.522-4.455,1.424-.016,1.856.386,1.776,1.794-.117,2.062-.056,4.135-.019,6.2.015.852-.229,1.333-1.162,1.228a1.179,1.179,0,0,0-.188,0C3730.261,2429.393,3730.261,2429.393,3730.261,2424.381Z" transform="translate(-24.176 -2.358)" fill="#f5f8fb"/>
        <path id="Path_878248" data-name="Path 878248" d="M3830.347,2594.55h-.563c-4.541,0-4.681-.189-4.129-4.807.089-.745.365-.949,1.043-.944,2.44.019,4.936-.312,7.3.1,2.33.4.6,2.567.993,3.878.21.7.43,1.858-1.083,1.784C3832.727,2594.5,3831.536,2594.549,3830.347,2594.55Z" transform="translate(-83.478 -107.521)" fill="#f8f9f9"/>
        <path id="Path_878249" data-name="Path 878249" d="M3775.623,2434.348h-.188c-4.547,0-4.515,0-4.41-4.516.024-1.023.255-1.457,1.362-1.422,2.25.072,4.5.056,6.755.006.957-.021,1.277.282,1.323,1.275C3780.683,2434.35,3780.715,2434.348,3775.623,2434.348Z" transform="translate(-49.561 -7.644)" fill="#ffb12d"/>
        <path id="Path_878250" data-name="Path 878250" d="M3849.859,2538.142c.9,1.312.3,2.779.4,4.169.109,1.555.021,3.123.024,4.686,0,.666-.044,1.3-.943,1.293q-7.4-.022-14.806-.064c-.15,0-.3-.2-.448-.31,4.765.005,9.53-.021,14.294.038,1.174.014,1.688-.257,1.63-1.549C3849.886,2543.654,3849.9,2540.9,3849.859,2538.142Z" transform="translate(-88.873 -76.023)" fill="#f9f5f6"/>
        <path id="Path_878251" data-name="Path 878251" d="M3710.272,2516.255l-14.085.012c-.389-5.168-.389-5.168,4.69-5.168,2.694,0,5.389.034,8.082-.016,1.059-.02,1.479.364,1.414,1.42C3710.3,2513.751,3710.3,2515,3710.272,2516.255Z" transform="translate(-2.85 -59.161)" fill="#fcfdfe"/>
        <path id="Path_878252" data-name="Path 878252" d="M3733.927,2426.186q0-.562,0-1.125c.009-2.011.781-2.557,2.776-2.075.671.162.735.571.737,1.093.005,1.313.035,2.627-.009,3.939-.019.571.315,1.43-.514,1.6a8.03,8.03,0,0,1-2.6-.025c-.4-.053-.38-.591-.384-.965C3733.924,2427.812,3733.929,2427,3733.927,2426.186Z" transform="translate(-26.459 -4.162)" fill="#00d5e4"/>
        <path id="Path_878253" data-name="Path 878253" d="M3832.535,2595.184q-.56,0-1.121,0c-2.414,0-2.349,0-2.386-2.456-.018-1.2.306-1.7,1.566-1.616a34.973,34.973,0,0,0,4.292,0c1.389-.081,1.368.812,1.246,1.7s.673,2.317-1.171,2.364C3834.154,2595.2,3833.344,2595.181,3832.535,2595.184Z" transform="translate(-85.721 -109.025)" fill="#f2d147"/>
        <path id="Path_878254" data-name="Path 878254" d="M3777.6,2434.99q-.564,0-1.128,0c-2.574,0-2.564-.036-2.414-2.646.051-.892.35-1.225,1.229-1.191,1.189.045,2.382.009,3.574.01,2.233,0,2.866.894,2.3,3.105-.173.672-.6.713-1.112.717C3779.234,2434.992,3778.419,2434.988,3777.6,2434.99Z" transform="translate(-51.436 -9.354)" fill="#f1cf41"/>
        <path id="Path_878255" data-name="Path 878255" d="M3710.858,2512.81c-.034,3.688-.034,3.688-3.792,3.688-2.375,0-4.755-.087-7.125.031-1.485.074-2.077-.393-1.875-1.884a14.179,14.179,0,0,0,.018-1.874A69.521,69.521,0,0,1,3710.858,2512.81Z" transform="translate(-4.092 -60.042)" fill="#00d5e4"/>
        <path id="Path_878256" data-name="Path 878256" d="M3710.951,2512.576c-4.257-.206-8.515-.132-12.773-.038a1.013,1.013,0,0,1,.976-.417H3710A.931.931,0,0,1,3710.951,2512.576Z" transform="translate(-4.185 -59.808)" fill="#e7ecf2"/>
      </g>
    </g>
  </g>
</svg>
