<svg xmlns="http://www.w3.org/2000/svg" xmlns:xlink="http://www.w3.org/1999/xlink" width="99" height="99" viewBox="0 0 99 99">
  <defs>
    <clipPath id="clip-path">
      <rect id="Rectangle_401223" data-name="Rectangle 401223" width="99" height="99" transform="translate(0)" fill="#a01f4e"/>
    </clipPath>
    <clipPath id="clip-path-2">
      <rect id="Rectangle_401223-2" data-name="Rectangle 401223" width="88.539" height="88.539" fill="#f3f9ff"/>
    </clipPath>
  </defs>
  <g id="Group_1102428" data-name="Group 1102428" transform="translate(-619.921 -5755.871)">
    <g id="Group_1100724" data-name="Group 1100724" transform="translate(619.921 5755.871)">
      <g id="Group_1099654" data-name="Group 1099654" transform="translate(0 0)">
        <g id="Group_1099652" data-name="Group 1099652" clip-path="url(#clip-path)">
          <path id="Path_873521" data-name="Path 873521" d="M99,77.066A22,22,0,0,1,77.066,99H21.934A22,22,0,0,1,0,77.066V21.933A22,22,0,0,1,21.934,0H77.066A22,22,0,0,1,99,21.934Z" transform="translate(0)" fill="#bfa9fe"/>
        </g>
      </g>
      <g id="Group_1099659" data-name="Group 1099659" transform="translate(4.77 5.723)">
        <g id="Group_1099652-2" data-name="Group 1099652" transform="translate(0 0)" clip-path="url(#clip-path-2)">
          <path id="Path_873521-2" data-name="Path 873521" d="M88.539,68.922A19.674,19.674,0,0,1,68.923,88.539H19.616A19.674,19.674,0,0,1,0,68.922V19.616A19.674,19.674,0,0,1,19.616,0H68.923A19.674,19.674,0,0,1,88.539,19.616Z" fill="#f3f9ff"/>
        </g>
      </g>
    </g>
    <g id="Group_1100725" data-name="Group 1100725" transform="translate(636.343 5771.293)">
      <rect id="Rectangle_401104" data-name="Rectangle 401104" width="68" height="69" fill="none"/>
      <g id="Group_1104015" data-name="Group 1104015" transform="translate(-3646.883 -2397.175)">
        <path id="Path_878392" data-name="Path 878392" d="M3772.552,2621.634c.341.391.8.225,1.206.228,2.216.018,4.433-.013,6.649.018a4.5,4.5,0,0,1,4.542,4.5q.053,5.19,0,10.381a4.515,4.515,0,0,1-4.517,4.535c-3.072.034-6.144-.011-9.215.018-2.64.025-5.278.112-7.918.157a1.947,1.947,0,0,1-1.246-.167c.821-.684,1.79-.258,2.719-.4a5.2,5.2,0,0,1-2.369-4.706c.029-3.11.011-6.22.005-9.331a5.688,5.688,0,0,1,.544-2.6,4.2,4.2,0,0,1,3.1-2.388c1.044,0,2.09,0,3.134-.019.37-.008.786.136,1.085-.229a.511.511,0,0,1,.292-.1,6.515,6.515,0,0,0,1.7-.005A.516.516,0,0,1,3772.552,2621.634Z" transform="translate(-91.931 -173.515)" fill="#00d5e4"/>
        <path id="Path_878393" data-name="Path 878393" d="M3785.693,2406.113q-.013,1.921-.026,3.842a4.56,4.56,0,0,1-4.837,4.8c-2.523.018-5.046.019-7.569.027a1.208,1.208,0,0,1-.315.192,3.8,3.8,0,0,1-1.652,0,1.2,1.2,0,0,1-.313-.195l-4.221-.035c-2.553-.829-3.619-2.272-3.635-5q-.027-4.787,0-9.574a4.88,4.88,0,0,1,2.394-4.452c-.838-.16-1.783.293-2.544-.412a10.455,10.455,0,0,1,3.573-.132c4.688.3,9.38.179,14.065.1a4.85,4.85,0,0,1,5.07,5.091c-.1,1.194,0,2.4.009,3.6A1.8,1.8,0,0,1,3785.693,2406.113Z" transform="translate(-92.639)" fill="#ffb12d"/>
        <path id="Path_878394" data-name="Path 878394" d="M3771.377,2479.33a.7.7,0,0,1,.188.041c.461.425.376,1,.387,1.529.028,1.36-.024,2.721.03,4.081.015.378.024.856.593.809.47-.038.466-.471.479-.809.052-1.36,0-2.721.029-4.081.011-.533-.073-1.1.387-1.529a.717.717,0,0,1,.189-.041c0,2.025.027,4.049-.015,6.073-.015.721.222.937.933.924,2.1-.04,4.2-.021,6.307-.012,3.247.013,5.174,1.921,5.181,5.13q.01,4.73,0,9.459a4.709,4.709,0,0,1-4.966,4.992c-2.141.026-4.284.043-6.424-.013-.84-.022-1.054.266-1.032,1.064.051,1.906.016,3.814.016,5.722a.871.871,0,0,1-.169.017c-.487-.406-.395-.978-.407-1.506-.032-1.314.024-2.629-.032-3.943-.016-.375-.023-.852-.588-.806-.468.039-.461.47-.475.806-.054,1.313,0,2.629-.032,3.943-.013.528.08,1.1-.408,1.506a.852.852,0,0,1-.169-.017c0-1.825-.075-3.655.027-5.474.064-1.129-.356-1.4-1.375-1.31-.807.072-1.627,0-2.442-.009a4.718,4.718,0,0,1-4.051-4.768q-.082-5,0-10a4.715,4.715,0,0,1,4.052-4.766,26.313,26.313,0,0,1,2.669-.007c.969.09,1.162-.315,1.136-1.188C3771.338,2483.207,3771.377,2481.268,3771.377,2479.33Z" transform="translate(-93.037 -64.548)" fill="#a01f4e"/>
        <path id="Path_878395" data-name="Path 878395" d="M3665.89,2548.49c-3.268,0-6.536-.032-9.8.01a12.066,12.066,0,0,0-11.687,10.634,12.256,12.256,0,0,0,12.218,13.67h3.3a8.228,8.228,0,0,0-1.544-1.771c-.486-.53-.652-1.1-.118-1.646a1.04,1.04,0,0,1,1.636.091c1.159,1.151,2.311,2.31,3.468,3.463a1.144,1.144,0,0,1,.022,1.828q-1.729,1.737-3.464,3.467a1.063,1.063,0,0,1-1.642.13,1.032,1.032,0,0,1,.089-1.634c.533-.509,1.106-.976,1.662-1.461l-.147-.342c-1.056,0-2.113-.034-3.167.006a14.422,14.422,0,0,1-14.262-11.133c-1.948-8.148,4.042-16.662,12.365-17.418,3.69-.335,7.384-.067,11.074-.172A1.707,1.707,0,0,1,3665.89,2548.49Z" transform="translate(0 -115.795)" fill="#065564"/>
        <path id="Path_878396" data-name="Path 878396" d="M3860.169,2435.213q0-1.069,0-2.137c3.153,0,6.305-.02,9.458.007a14.282,14.282,0,0,1,14.312,13.116,14.448,14.448,0,0,1-11.7,15.325,16.913,16.913,0,0,1-3.836.26c-.68-.026-1.361,0-2.042,0l-.219.361c.523.443,1.072.86,1.564,1.335a1.089,1.089,0,0,1,.079,1.734c-.577.545-1.13.3-1.627-.207-1.149-1.162-2.309-2.314-3.464-3.471a1.086,1.086,0,0,1-.012-1.731c1.18-1.186,2.367-2.365,3.548-3.552a1.017,1.017,0,0,1,1.626-.075,1.039,1.039,0,0,1-.062,1.564c-.518.508-1.105.944-1.854,1.571,9.157,1.452,15.495-3.926,15.825-11.534a12.036,12.036,0,0,0-9.94-12.336,31.421,31.421,0,0,0-5.353-.221C3864.372,2435.189,3862.27,2435.211,3860.169,2435.213Z" transform="translate(-167.115 -29.1)" fill="#a01f4e"/>
        <path id="Path_878397" data-name="Path 878397" d="M3743.947,2520.084q0-1.14,0-2.279c.014-1.322.023-2.643.042-3.965a4.646,4.646,0,0,1,4.539-4.681c1.358-.054,2.721.009,4.083.02a5.331,5.331,0,0,0-3.744,5.747c.118,2.677.118,5.366,0,8.042a5.336,5.336,0,0,0,3.742,5.748,21.919,21.919,0,0,1-4.992-.15,4.49,4.49,0,0,1-3.627-4.516C3743.969,2522.728,3743.96,2521.406,3743.947,2520.084Z" transform="translate(-78.056 -87.389)" fill="#8a0d45"/>
        <path id="Path_878398" data-name="Path 878398" d="M3748.507,2396.035h3.679a13.458,13.458,0,0,0-2.087,1.628,4.738,4.738,0,0,0-1.1,3c.005,3.229.036,6.458-.01,9.685a4.723,4.723,0,0,0,2.834,4.783,2.938,2.938,0,0,1,.462.339c-1.241.007-2.483.052-3.722.012a4.506,4.506,0,0,1-4.458-4.57c-.022-3.374-.014-6.748,0-10.123A4.55,4.55,0,0,1,3748.507,2396.035Z" transform="translate(-78.17 -0.721)" fill="#e49c21"/>
        <path id="Path_878399" data-name="Path 878399" d="M3752.291,2622.917a9.161,9.161,0,0,0-2.3,1.729,4.923,4.923,0,0,0-.987,2.923c.015,3.266.021,6.531,0,9.8a4.623,4.623,0,0,0,2.561,4.479c.131.07.284.129.264.5h-3.531a4.559,4.559,0,0,1-4.187-4.731q-.019-5.008,0-10.014a4.527,4.527,0,0,1,4.577-4.7C3749.884,2622.861,3751.088,2622.908,3752.291,2622.917Z" transform="translate(-78.17 -174.549)" fill="#05a2ad"/>
        <path id="Path_878400" data-name="Path 878400" d="M3785.737,2637.885a5.176,5.176,0,0,1,2.949.778c.665.39,1.154.94.7,1.713-.419.706-1.06.559-1.733.224a4.093,4.093,0,0,0-5.118.748,4.316,4.316,0,0,0-.358,5,3.77,3.77,0,0,0,5.655.964c.6-.508,1.21-.862,1.818-.181.66.739.163,1.368-.417,1.9-3.077,2.83-8.583.99-9.71-3.24A6.248,6.248,0,0,1,3785.737,2637.885Z" transform="translate(-105.142 -186.036)" fill="#f3f0f0"/>
        <path id="Path_878401" data-name="Path 878401" d="M3797.933,2599.756c0-1.94.041-3.881,0-5.819-.017-.8.305-.976,1.031-.978.742,0,.919.3.91.978-.026,1.939,0,3.88,0,5.819A1.977,1.977,0,0,1,3797.933,2599.756Z" transform="translate(-119.424 -151.619)" fill="#636363"/>
        <path id="Path_878402" data-name="Path 878402" d="M3785.184,2410.922a1.367,1.367,0,0,1,1.285,1.012q1.852,4.895,3.688,9.8c.25.662.218,1.275-.493,1.573a1.025,1.025,0,0,1-1.527-.777c-.287-1.548-1.25-1.843-2.594-1.649a2.928,2.928,0,0,1-.93,0,1.863,1.863,0,0,0-2.489,1.633,1.04,1.04,0,0,1-1.52.8c-.715-.286-.773-.9-.519-1.562q1.885-4.945,3.771-9.89A1.3,1.3,0,0,1,3785.184,2410.922Z" transform="translate(-105.644 -12.128)" fill="#454247"/>
        <path id="Path_878403" data-name="Path 878403" d="M3799.865,2479.265c0,2.013-.021,4.026.018,6.038.014.743-.3.912-.97.912s-.985-.17-.97-.912c.04-2.012.017-4.025.019-6.038A6.229,6.229,0,0,1,3799.865,2479.265Z" transform="translate(-119.433 -64.443)" fill="#636363"/>
        <path id="Path_878404" data-name="Path 878404" d="M3784,2530.307c0-1.594.027-3.189-.01-4.783-.023-1,.46-1.424,1.4-1.432.856-.007,1.712-.019,2.567,0a3.463,3.463,0,0,1,3.283,4.863,1.071,1.071,0,0,0,.265,1.324,3.609,3.609,0,0,1,.65,4.022,3.726,3.726,0,0,1-3.449,2.379c-1.122.085-2.255.035-3.382.018a1.188,1.188,0,0,1-1.333-1.377C3784.024,2533.652,3784,2531.979,3784,2530.307Z" transform="translate(-108.743 -98.841)" fill="#96ceb0"/>
        <path id="Path_878405" data-name="Path 878405" d="M3797.97,2427.065c.48,1.26.8,2.211,1.2,3.122.354.8.027.885-.677.891-2.107.017-2.108.04-1.353-1.92C3797.373,2428.56,3797.613,2427.966,3797.97,2427.065Z" transform="translate(-118.467 -24.499)" fill="#ffb12d"/>
        <path id="Path_878406" data-name="Path 878406" d="M3794.409,2557.366c-.42-.164-1.248.37-1.43-.372a5.91,5.91,0,0,1,.027-2.748c.057-.239.389-.2.616-.2.5-.006,1.005-.017,1.507,0a1.8,1.8,0,0,1,1.951,1.706c-.031.99-.774,1.591-2,1.615C3794.887,2557.37,3794.693,2557.366,3794.409,2557.366Z" transform="translate(-115.514 -121.794)" fill="#a01f4e"/>
        <path id="Path_878407" data-name="Path 878407" d="M3793.031,2534.539c-.177-.935.127-1.42,1.221-1.345,1.233.084,1.98.52,2,1.345.025.89-.79,1.332-2.17,1.425C3792.888,2536.045,3792.967,2535.348,3793.031,2534.539Z" transform="translate(-115.633 -105.817)" fill="#a01f4e"/>
      </g>
    </g>
  </g>
</svg>
