<svg xmlns="http://www.w3.org/2000/svg" xmlns:xlink="http://www.w3.org/1999/xlink" width="85" height="85" viewBox="0 0 85 85">
  <defs>
    <clipPath id="clip-path">
      <rect id="Rectangle_404012" data-name="Rectangle 404012" width="69.19" height="69.19" transform="translate(0 0)" fill="#fff" stroke="#707070" stroke-width="1"/>
    </clipPath>
  </defs>
  <g id="Group_1107498" data-name="Group 1107498" transform="translate(-162.34 -3655)">
    <rect id="Rectangle_404011" data-name="Rectangle 404011" width="85" height="85" transform="translate(162.34 3655)" fill="#4b0d6b"/>
    <g id="Mask_Group_1098862" data-name="Mask Group 1098862" transform="translate(170.34 3663)" clip-path="url(#clip-path)">
      <g id="Group_1106994" data-name="Group 1106994" transform="translate(5.725 6.519)">
        <path id="Path_881549" data-name="Path 881549" d="M3350.027,2618.905a1.393,1.393,0,0,0-.313-1.019,1.307,1.307,0,0,0-.979-.311h-.009c-6.813.02-14,.021-21.979,0a1.256,1.256,0,0,0-.967.308,1.312,1.312,0,0,0-.285.97c.029,1.182.051,2.58-.014,3.981a1.786,1.786,0,0,1-.428,1.022c-.468.51-.972,1.008-1.459,1.49-.468.462-.951.941-1.406,1.434a2.13,2.13,0,0,0-.563,1.316c-.018,4.788-.02,9.657-.021,14.365q0,4.132-.007,8.264a1.432,1.432,0,0,0,.323,1.034,1.315,1.315,0,0,0,.973.316h.006c6.958-.017,14.148-.017,21.979,0h.007a1.32,1.32,0,0,0,.984-.323,1.255,1.255,0,0,0,.3-.952c-.011-.547-.007-1.1-.005-1.683,0-.179,0-.36,0-.546.213,0,.42,0,.625-.005.646-.007,1.255-.014,1.86.017a1.312,1.312,0,0,0,1.034-.287,1.469,1.469,0,0,0,.347-1.086C3350.015,2638.292,3350.014,2629.033,3350.027,2618.905Zm-25.015,7.792,2.337-2.3v2.3Zm21.151-3.958c0-1.52-.158-1.677-1.7-1.677h-14.81c-.129,0-.258,0-.389-.008a3.089,3.089,0,0,0-1.939.38v-2.091h20.856v27.438h-2.017V2639.6Q3346.165,2631.172,3346.164,2622.739Zm-17,1.187v-1.05h15.13v27.374h-20.856v-21.69h4.075c1.463,0,1.648-.187,1.65-1.639C3329.163,2625.928,3329.163,2624.937,3329.163,2623.925Z" transform="translate(-3321.597 -2595.929)" fill="#f3f9ff"/>
        <path id="Path_881550" data-name="Path 881550" d="M3521.714,2517.167c0-.825.007-1.65.007-2.475s0-1.662-.005-2.493c-.007-2.049-.014-4.169.022-6.251a2.56,2.56,0,0,0-1.54-2.571,14.346,14.346,0,0,0-2.747-1.011,40.787,40.787,0,0,0-14.339-.642,38.894,38.894,0,0,0-6.169,1.443,2.755,2.755,0,0,0-1.982,2.98c.045,4.025.038,8.119.031,12.078q0,2.244-.006,4.487c0,2.184.4,2.792,2.405,3.611a9.97,9.97,0,0,0,1.36.446,38.33,38.33,0,0,0,9.291,1.106,48.281,48.281,0,0,0,6.8-.5,28.983,28.983,0,0,0,5.133-1.393,2.558,2.558,0,0,0,1.768-2.731C3521.7,2521.225,3521.706,2519.162,3521.714,2517.167Zm-10.072-9.864a37.253,37.253,0,0,1-12.655-.921,9.783,9.783,0,0,1-1.917-.773c-.236-.121-.314-.251-.312-.326s.12-.186.3-.26l.336-.137a14.194,14.194,0,0,1,3.111-1c1.836-.282,3.722-.471,5.546-.654.754-.076,1.508-.151,2.26-.233l.647.041a36.839,36.839,0,0,1,9.3,1.382,4.642,4.642,0,0,1,1.188.69q.119.086.242.172c-.086.067-.17.135-.253.2a3.083,3.083,0,0,1-1.154.7A46.408,46.408,0,0,1,3511.643,2507.3Zm7.406,7.938c-.429.107-.86.222-1.29.336a28.2,28.2,0,0,1-4.187.891,42.737,42.737,0,0,1-13.539-.492.634.634,0,0,0-.075-.011l-.017,0c-3.193-.667-3.193-.667-3.192-3.869q0-2.268.008-4.533a40.438,40.438,0,0,0,23.154.012c.012.16.023.333.024.505q0,.934-.006,1.869c-.008,1.313-.017,2.671.028,4.007A1.106,1.106,0,0,1,3519.049,2515.241Zm.837,8.5a1.351,1.351,0,0,1-.78.775l-.706.2a29.12,29.12,0,0,1-4.754,1.068,42.539,42.539,0,0,1-13.538-.476,1.015,1.015,0,0,0-.123-.018c-.021,0-.041,0-.062-.008-3.176-.672-3.176-.672-3.176-3.883v-4.517a40.421,40.421,0,0,0,23.184.006c0,.467,0,.935,0,1.4C3519.945,2520.074,3519.953,2521.921,3519.886,2523.736Z" transform="translate(-3462.666 -2501.375)" fill="#f3f9ff"/>
        <path id="Path_881551" data-name="Path 881551" d="M3370.219,2509.36c-.674-.307-1.372-.582-2.046-.848-.269-.106-.537-.211-.8-.32-.655-.265-1.089-.44-1.427-.252-.311.174-.409.583-.524,1.245h-14.791c-1.732,0-1.854.125-1.854,1.9v2.374c0,2.611,0,5.31.007,7.965,0,.46-.062.644-.446.831a2.749,2.749,0,0,0-1.485,3.2,2.926,2.926,0,0,0,2.787,2.251h.048a2.986,2.986,0,0,0,2.751-2.126,2.81,2.81,0,0,0-1.455-3.31.752.752,0,0,1-.465-.841c.01-2.113.01-4.26.009-6.338q0-1.767,0-3.534a4.243,4.243,0,0,1,.038-.49h14.9c.009.1.016.188.019.274.028.653.1,1.07.409,1.269s.717.1,1.324-.146l.377-.151c.871-.347,1.772-.705,2.642-1.1.324-.148.8-.547.789-.93C3371.015,2509.869,3370.525,2509.5,3370.219,2509.36Zm-20.565,14.308a1.138,1.138,0,0,1,.8.35,1.088,1.088,0,0,1,.318.795,1.1,1.1,0,0,1-.35.781,1.148,1.148,0,0,1-.824.309,1.118,1.118,0,0,1,.045-2.235Z" transform="translate(-3342.068 -2506.653)" fill="#f3f9ff"/>
        <path id="Path_881552" data-name="Path 881552" d="M3503.561,2659.99h-.05a2.908,2.908,0,0,0-1.255,5.506,1.123,1.123,0,0,1,.418.758c.032,2.428.03,4.9.027,7.289q0,1.056,0,2.113v1.019h-14.912a2.54,2.54,0,0,1-.047-.308c-.046-.68-.13-1.086-.44-1.282s-.7-.093-1.292.142l-.249.1c-.941.375-1.913.764-2.852,1.189-.289.13-.72.5-.731.87s.4.759.7.9c.7.323,1.421.612,2.119.892l.639.257a3.98,3.98,0,0,0,1.253.389.669.669,0,0,0,.309-.07c.32-.159.442-.533.633-1.252h14.836c1.631,0,1.763-.135,1.763-1.8v-1.8q0-4.315,0-8.632v-.029c0-.4,0-.588.356-.764a2.762,2.762,0,0,0,1.579-3.237A2.97,2.97,0,0,0,3503.561,2659.99Zm1.089,2.959a1.083,1.083,0,0,1-1.094,1.068h0a1.137,1.137,0,0,1-.811-.342,1.089,1.089,0,0,1,.014-1.568,1.146,1.146,0,0,1,.8-.325h.024a1.078,1.078,0,0,1,.77.328A1.153,1.153,0,0,1,3504.65,2662.949Z" transform="translate(-3452.26 -2630.441)" fill="#f3f9ff"/>
        <path id="Path_881553" data-name="Path 881553" d="M3351.1,2711.331c2.151.021,4.323.027,6.477.027,1.292,0,2.578,0,3.847,0l1.21,0h.088a1.3,1.3,0,0,0,1.006-.276.8.8,0,0,0,.167-.658c-.052-.43-.843-.764-1.236-.775-1.411-.038-2.845-.033-4.231-.028-.482,0-.966,0-1.449,0h-1.587q-2.136,0-4.272,0h-.111a1.243,1.243,0,0,0-.983.269.8.8,0,0,0-.164.66C3349.915,2710.987,3350.717,2711.328,3351.1,2711.331Z" transform="translate(-3344.586 -2670.819)" fill="#f3f9ff"/>
        <path id="Path_881554" data-name="Path 881554" d="M3362.76,2734.6c-.062,0-.127,0-.182,0q-2.079-.01-4.158,0h-3.038q-2.122,0-4.244,0l-.146,0a1.211,1.211,0,0,0-.953.25.8.8,0,0,0-.173.654c.048.444.846.791,1.226.794,2.17.021,4.36.027,6.531.027l3.635,0,1.366,0h.117a1.288,1.288,0,0,0,.976-.255.834.834,0,0,0,.212-.646C3363.9,2734.564,3363.13,2734.591,3362.76,2734.6Z" transform="translate(-3344.595 -2691.153)" fill="#f3f9ff"/>
        <path id="Path_881555" data-name="Path 881555" d="M3362.766,2759.567h-.135l-1.412,0c-3.316,0-6.746-.01-10.118.022-.393,0-1.187.329-1.24.763a.811.811,0,0,0,.167.66,1.247,1.247,0,0,0,.985.27h.108c1.435,0,2.867,0,4.3,0h1.462l1.468,0c.481,0,.969,0,1.46,0,.943,0,1.9-.006,2.843-.032.394-.01,1.188-.345,1.239-.777a.8.8,0,0,0-.166-.658A1.218,1.218,0,0,0,3362.766,2759.567Z" transform="translate(-3344.589 -2711.464)" fill="#f3f9ff"/>
        <path id="Path_881556" data-name="Path 881556" d="M3351.035,2684.653a1.3,1.3,0,0,0-1.016.28.8.8,0,0,0-.162.662c.057.442.851.772,1.241.776,2.144.021,4.309.027,6.454.027,1.3,0,2.589,0,3.862,0l1.219,0h.087a1.271,1.271,0,0,0,1.006-.278.8.8,0,0,0,.16-.662c-.057-.437-.838-.763-1.239-.773-1.432-.039-2.889-.033-4.3-.028-.493,0-.989,0-1.477,0h-1.551q-2.108,0-4.214,0Z" transform="translate(-3344.584 -2650.504)" fill="#f3f9ff"/>
        <path id="Path_881557" data-name="Path 881557" d="M3512.474,2602.172h-.029a1.609,1.609,0,0,0,0,3.218h.021a1.621,1.621,0,0,0,1.551-1.609A1.574,1.574,0,0,0,3512.474,2602.172Z" transform="translate(-3475.59 -2583.395)" fill="#f3f9ff"/>
        <path id="Path_881558" data-name="Path 881558" d="M3512.473,2552.732a1.617,1.617,0,0,0-1.172.479,1.575,1.575,0,0,0,1.146,2.684h.018a1.5,1.5,0,0,0,1.548-1.569A1.533,1.533,0,0,0,3512.473,2552.732Z" transform="translate(-3475.589 -2543.165)" fill="#f3f9ff"/>
      </g>
    </g>
  </g>
</svg>
