<svg xmlns="http://www.w3.org/2000/svg" xmlns:xlink="http://www.w3.org/1999/xlink" width="85" height="85" viewBox="0 0 85 85">
  <defs>
    <clipPath id="clip-path">
      <rect id="Rectangle_404010" data-name="Rectangle 404010" width="68.541" height="68.541" transform="translate(0 0)" fill="#fff" stroke="#707070" stroke-width="1"/>
    </clipPath>
  </defs>
  <g id="Group_1107495" data-name="Group 1107495" transform="translate(-162.34 -3549)">
    <rect id="Rectangle_404009" data-name="Rectangle 404009" width="85" height="85" transform="translate(162.34 3549)" fill="#4b0d6b"/>
    <g id="Mask_Group_1098861" data-name="Mask Group 1098861" transform="translate(170.34 3557)" clip-path="url(#clip-path)">
      <g id="Group_1106993" data-name="Group 1106993" transform="translate(4.942 4.384)">
        <path id="Path_881532" data-name="Path 881532" d="M3675.356,2209.231h-3.3c-.018.379-.046.725-.047,1.07-.005,1.907.013,3.814-.009,5.721a1.73,1.73,0,0,1-1.959,1.941q-6.461.02-12.923,0a1.713,1.713,0,0,1-1.907-1.9q-.023-7.892,0-15.783a1.7,1.7,0,0,1,1.921-1.869c2.927-.015,5.854-.034,8.779.023a2.435,2.435,0,0,1,1.471.617c1.373,1.272,2.706,2.594,3.972,3.973a2.985,2.985,0,0,1,.624,1.575,20,20,0,0,1,.027,2.515h3.288c-.177-.241-.374-.388-.38-.542-.014-.392-.086-.96.128-1.136a1.44,1.44,0,0,1,1.218-.15,3.624,3.624,0,0,1,1.253.936,3.647,3.647,0,0,0,3.611.872v-18.676c-1.141-.089-2.292-.343-3.255.655a11.692,11.692,0,0,1-1.155.921c-.508.406-1.044.8-1.649.217-.639-.621-.266-1.183.3-1.778h-3.352v5.725c0,.395.012.79-.007,1.184a1.664,1.664,0,0,1-1.78,1.812q-6.608.049-13.217,0a1.672,1.672,0,0,1-1.792-1.9q-.021-7.842,0-15.684a1.726,1.726,0,0,1,1.944-1.96c2.894-.029,5.788-.047,8.68.022a2.8,2.8,0,0,1,1.642.709c1.22,1.1,2.313,2.337,3.52,3.452a2.894,2.894,0,0,1,1.022,2.531c-.054.646-.01,1.3-.01,2.011h3.126c.012-.032.068-.115.049-.139-.415-.528-.719-1.082-.107-1.648s1.147-.159,1.651.243a5.368,5.368,0,0,1,.615.493,3.669,3.669,0,0,0,3.774.993v-18.605c-1.2-.141-2.384-.328-3.366.7a11.251,11.251,0,0,1-1.238.975c-.5.391-1.1.56-1.465,0-.206-.321.005-.914.04-1.383a1.3,1.3,0,0,1,.143-.323h-3.222v2.238c0,1.512.015,3.025-.007,4.537a1.718,1.718,0,0,1-1.942,1.942q-6.461.018-12.922,0a1.73,1.73,0,0,1-1.927-1.966q-.018-7.792,0-15.585a1.756,1.756,0,0,1,2.006-2c2.86-.015,5.722-.041,8.581.026a2.785,2.785,0,0,1,1.649.679c1.245,1.12,2.361,2.381,3.588,3.522a2.813,2.813,0,0,1,.986,2.444c-.053.65-.01,1.307-.01,2.039h3.276c-.153-.214-.34-.355-.343-.5-.006-.417-.086-1,.143-1.21a1.231,1.231,0,0,1,1.2-.092,6.6,6.6,0,0,0,5.814,1.912c.772-.083,1.079.514,1.085,1.231.009,1.15,0,2.3,0,3.453v15.96h4.336c-.18-.243-.377-.388-.38-.536-.005-.417-.07-.953.154-1.217a1.152,1.152,0,0,1,1.123-.128,25.911,25.911,0,0,1,2.882,2.229.932.932,0,0,1-.138,1.531c-.736.605-1.5,1.17-2.248,1.768-.52.418-1.142.813-1.624.18-.278-.366-.145-1.045-.206-1.7h-3.9v1.158q0,8.927,0,17.854c0,1.531-.234,1.758-1.774,1.765a.665.665,0,0,1-.1,0,4.854,4.854,0,0,0-4.524,1.545c-.023.024-.049.044-.074.065-.508.43-1.065.77-1.658.214S3674.766,2209.874,3675.356,2209.231Zm-5.386-24.991h-2.49c-1.767,0-2.1-.343-2.109-2.146,0-.808,0-1.616,0-2.46h-8.137v15.486h12.736Zm-12.723,16.179v15.5h12.716v-10.895c-.944,0-1.825.007-2.707,0-1.486-.014-1.864-.388-1.883-1.873-.011-.9,0-1.8,0-2.728Zm-.02-26.1h12.737v-10.729a1.033,1.033,0,0,0-.238-.088c-.789-.01-1.578-.014-2.366-.021-1.528-.013-1.976-.462-1.988-2.014-.007-.877,0-1.755,0-2.614h-8.144Z" transform="translate(-3655.198 -2156.787)" fill="#f3f9ff"/>
        <path id="Path_881533" data-name="Path 881533" d="M3866.847,2249.574c0,3.384-.044,6.77.021,10.154a2.987,2.987,0,0,1-1.82,3.1,24,24,0,0,1-5.031,1.592,30.158,30.158,0,0,1-12.893-.487,11.989,11.989,0,0,1-1.487-.512c-2.427-.995-2.945-1.772-2.945-4.371,0-6.507.034-13.014-.024-19.52a3.183,3.183,0,0,1,1.995-3.294,23.159,23.159,0,0,1,4.765-1.476,30.34,30.34,0,0,1,12.99.474,14.726,14.726,0,0,1,1.672.581,3.883,3.883,0,0,1,2.8,4.2C3866.73,2243.193,3866.847,2246.386,3866.847,2249.574Zm-22.171-7.936v2.38c0,2.567.151,2.771,2.646,3.555.281.088.569.155.855.227a27.869,27.869,0,0,0,10.171.52,30.981,30.981,0,0,0,5.4-1.393,1.739,1.739,0,0,0,1.074-1.114c.134-1.387.051-2.794.051-4.183A30.562,30.562,0,0,1,3844.676,2241.638Zm20.2,7.177a30.527,30.527,0,0,1-20.2-.007v2.852c0,1.986.117,2.156,1.973,2.854.185.069.371.133.56.189a27.139,27.139,0,0,0,11.91.67,26.668,26.668,0,0,0,4.8-1.373,1.715,1.715,0,0,0,.917-1.212C3864.952,2251.485,3864.874,2250.165,3864.874,2248.815Zm-20.2,7.167v2.633c0,2.254.146,2.457,2.315,3.2q.234.081.471.145a28.422,28.422,0,0,0,12.39.479,23.591,23.591,0,0,0,4.109-1.273,1.466,1.466,0,0,0,.863-.952c.1-1.413.042-2.835.042-4.236A30.334,30.334,0,0,1,3844.676,2255.982Zm20.279-16.959c0-.159.007-.318.011-.478a19.915,19.915,0,0,0-2.764-1.285,27.285,27.285,0,0,0-12.48-.546,19.787,19.787,0,0,0-4.364,1.42c-.9.386-.848.866,0,1.394a4.951,4.951,0,0,0,1.418.664,35.046,35.046,0,0,0,4.8.98,26.031,26.031,0,0,0,11.194-.988A15.865,15.865,0,0,0,3864.954,2239.022Z" transform="translate(-3805.675 -2218.982)" fill="#f3f9ff"/>
        <path id="Path_881534" data-name="Path 881534" d="M3675.035,2297.643c1.442,0,2.884,0,4.326,0,.67,0,1.192.185,1.2.962,0,.762-.508,1.014-1.174,1.015q-4.424.012-8.848,0c-.667,0-1.192-.251-1.2-.995s.5-.987,1.181-.983C3672.02,2297.649,3673.527,2297.643,3675.035,2297.643Z" transform="translate(-3666.542 -2269.846)" fill="#f3f9ff"/>
        <path id="Path_881535" data-name="Path 881535" d="M3674.957,2317.986c-1.475,0-2.949-.006-4.424,0-.676,0-1.2-.206-1.2-.963,0-.742.512-1.013,1.182-1.015q4.425-.01,8.849,0c.659,0,1.185.227,1.195.992s-.5.987-1.173.984C3677.907,2317.982,3676.432,2317.986,3674.957,2317.986Z" transform="translate(-3666.541 -2284.589)" fill="#f3f9ff"/>
        <path id="Path_881536" data-name="Path 881536" d="M3674.878,2336.649c-1.415,0-2.829,0-4.242,0-.7,0-1.3-.181-1.29-1s.612-.981,1.309-.98q4.34.01,8.682,0c.661,0,1.209.168,1.23.947.023.837-.543,1.033-1.249,1.032Q3677.1,2336.646,3674.878,2336.649Z" transform="translate(-3666.554 -2299.569)" fill="#f3f9ff"/>
        <path id="Path_881537" data-name="Path 881537" d="M3672.628,2280.9c-.723,0-1.445.01-2.167-.005-.647-.014-1.178-.345-1.037-1a1.447,1.447,0,0,1,1-.924c1.5-.105,3.016-.052,4.526-.041.652.005,1.094.332,1.076,1.01s-.487.956-1.132.958C3674.136,2280.9,3673.382,2280.9,3672.628,2280.9Z" transform="translate(-3666.598 -2254.81)" fill="#f3f9ff"/>
        <path id="Path_881538" data-name="Path 881538" d="M3674.989,2404.835c-1.441,0-2.884-.009-4.326,0-.693.006-1.309-.131-1.312-.956,0-.865.632-1.029,1.364-1.028q4.277.013,8.554,0c.689,0,1.279.154,1.3.98.022.842-.551,1.007-1.255,1C3677.873,2404.827,3676.431,2404.835,3674.989,2404.835Z" transform="translate(-3666.558 -2354.301)" fill="#f3f9ff"/>
        <path id="Path_881539" data-name="Path 881539" d="M3674.917,2441.93c-1.447,0-2.893,0-4.339,0-.657,0-1.231-.15-1.251-.924-.021-.814.564-1.047,1.259-1.05q4.389-.011,8.776,0c.651,0,1.19.231,1.191,1.005,0,.792-.536.966-1.2.965Q3677.135,2441.926,3674.917,2441.93Z" transform="translate(-3666.539 -2384.076)" fill="#f3f9ff"/>
        <path id="Path_881540" data-name="Path 881540" d="M3674.915,2423.525q-2.121,0-4.241,0c-.677,0-1.313-.139-1.332-.966-.021-.9.651-1.016,1.367-1.016q4.24.005,8.48,0c.7,0,1.389.074,1.372,1s-.71.98-1.406.981Q3677.036,2423.527,3674.915,2423.525Z" transform="translate(-3666.551 -2369.3)" fill="#f3f9ff"/>
        <path id="Path_881541" data-name="Path 881541" d="M3672.667,2386.361c-.723,0-1.445.007-2.168,0-.673-.007-1.188-.257-1.18-1.013.007-.7.488-.96,1.123-.963,1.478-.008,2.957-.01,4.434,0,.646.006,1.1.312,1.085,1s-.488.959-1.126.969C3674.112,2386.368,3673.389,2386.36,3672.667,2386.361Z" transform="translate(-3666.533 -2339.469)" fill="#f3f9ff"/>
        <path id="Path_881542" data-name="Path 881542" d="M3674.971,2210.8c1.475,0,2.95,0,4.425,0,.682,0,1.181.221,1.164.992s-.531.984-1.2.984q-4.424,0-8.848,0c-.679,0-1.181-.282-1.176-1.017.006-.754.532-.966,1.209-.96C3672.021,2210.8,3673.5,2210.8,3674.971,2210.8Z" transform="translate(-3666.547 -2200.136)" fill="#f3f9ff"/>
        <path id="Path_881543" data-name="Path 881543" d="M3674.908,2194.083q-2.169,0-4.339,0c-.657,0-1.225-.177-1.246-.943-.021-.824.57-1.033,1.264-1.034q4.339-.008,8.678,0c.681,0,1.289.159,1.284,1.005s-.625.974-1.3.974Z" transform="translate(-3666.536 -2185.134)" fill="#f3f9ff"/>
        <path id="Path_881544" data-name="Path 881544" d="M3674.836,2231.241h-4.242c-.7,0-1.283-.2-1.259-1.03.02-.763.581-.954,1.239-.954q4.389,0,8.781,0c.661,0,1.2.2,1.2.981s-.521.994-1.184,1C3677.862,2231.246,3676.349,2231.241,3674.836,2231.241Z" transform="translate(-3666.545 -2214.957)" fill="#f3f9ff"/>
        <path id="Path_881545" data-name="Path 881545" d="M3672.616,2175.69c-.689,0-1.377.012-2.066,0-.65-.015-1.2-.231-1.224-.984-.02-.768.5-.989,1.18-.988q2.166,0,4.331,0c.646,0,1.116.25,1.13.945s-.465.988-1.086,1.017c-.753.035-1.509.008-2.263.008Z" transform="translate(-3666.537 -2170.375)" fill="#f3f9ff"/>
        <path id="Path_881546" data-name="Path 881546" d="M3895.609,2290.479a3.708,3.708,0,0,1-1.247-.126c-.328-.152-.73-.56-.74-.866a1.147,1.147,0,0,1,.67-.9,10.83,10.83,0,0,1,2.728-.01,1.141,1.141,0,0,1,.654.9,1.256,1.256,0,0,1-.7.878A4.344,4.344,0,0,1,3895.609,2290.479Z" transform="translate(-3846.575 -2262.506)" fill="#f3f9ff"/>
        <path id="Path_881547" data-name="Path 881547" d="M3895.685,2326.489c-.394,0-.856.13-1.165-.033a1.625,1.625,0,0,1-.85-.986c-.031-.273.487-.819.825-.879a6.685,6.685,0,0,1,2.349,0,1.3,1.3,0,0,1,.852.926c0,.325-.475.762-.844.949a2.839,2.839,0,0,1-1.167.033Z" transform="translate(-3846.613 -2291.394)" fill="#f3f9ff"/>
        <path id="Path_881548" data-name="Path 881548" d="M3895.724,2362.8a2.715,2.715,0,0,1-1.071-.029c-.39-.186-.937-.56-.952-.875a1.311,1.311,0,0,1,.811-1,6.731,6.731,0,0,1,2.445,0,1.284,1.284,0,0,1,.764,1.006c-.017.314-.544.684-.925.865A2.709,2.709,0,0,1,3895.724,2362.8Z" transform="translate(-3846.638 -2320.537)" fill="#f3f9ff"/>
      </g>
    </g>
  </g>
</svg>
