<svg xmlns="http://www.w3.org/2000/svg" xmlns:xlink="http://www.w3.org/1999/xlink" width="124.605" height="125.948" viewBox="0 0 124.605 125.948">
  <defs>
    <clipPath id="clip-path">
      <rect id="Rectangle_400938" data-name="Rectangle 400938" width="117.278" height="117.278" fill="none"/>
    </clipPath>
    <clipPath id="clip-path-2">
      <path id="Path_873460" data-name="Path 873460" d="M0,1.307A1.349,1.349,0,0,0,1.389,2.613,1.349,1.349,0,0,0,2.778,1.307,1.349,1.349,0,0,0,1.389,0,1.349,1.349,0,0,0,0,1.307" transform="translate(0)" fill="#34054d"/>
    </clipPath>
    <clipPath id="clip-path-3">
      <path id="Path_873466" data-name="Path 873466" d="M0,1.307A1.349,1.349,0,0,0,1.39,2.613,1.349,1.349,0,0,0,2.778,1.307,1.349,1.349,0,0,0,1.39,0,1.349,1.349,0,0,0,0,1.307" fill="#34054d"/>
    </clipPath>
    <clipPath id="clip-path-4">
      <path id="Path_873467" data-name="Path 873467" d="M0,1.306A1.349,1.349,0,0,0,1.389,2.612,1.349,1.349,0,0,0,2.778,1.306,1.349,1.349,0,0,0,1.389,0,1.349,1.349,0,0,0,0,1.306" transform="translate(0 0)" fill="#34054d"/>
    </clipPath>
    <clipPath id="clip-path-5">
      <path id="Path_873468" data-name="Path 873468" d="M0,1.306A1.349,1.349,0,0,0,1.39,2.612,1.349,1.349,0,0,0,2.778,1.306,1.349,1.349,0,0,0,1.39,0,1.349,1.349,0,0,0,0,1.306" transform="translate(0 0)" fill="#34054d"/>
    </clipPath>
    <clipPath id="clip-path-6">
      <path id="Path_873469" data-name="Path 873469" d="M0,1.306A1.349,1.349,0,0,0,1.389,2.612,1.349,1.349,0,0,0,2.777,1.306,1.349,1.349,0,0,0,1.389,0,1.349,1.349,0,0,0,0,1.306" transform="translate(0 0)" fill="#34054d"/>
    </clipPath>
    <clipPath id="clip-path-9">
      <path id="Path_873473" data-name="Path 873473" d="M0,1.306A1.349,1.349,0,0,0,1.39,2.612,1.348,1.348,0,0,0,2.778,1.306,1.349,1.349,0,0,0,1.39,0,1.349,1.349,0,0,0,0,1.306" transform="translate(0 0)" fill="#34054d"/>
    </clipPath>
    <clipPath id="clip-path-22">
      <rect id="Rectangle_401492" data-name="Rectangle 401492" width="63.051" height="63.052" transform="translate(0 0)" fill="#fff" stroke="#707070" stroke-width="1"/>
    </clipPath>
  </defs>
  <g id="Group_1102534" data-name="Group 1102534" transform="translate(23060.281 3818.28)">
    <g id="Group_1100237" data-name="Group 1100237" transform="translate(-23054.037 -3797.84)">
      <g id="Group_1099505" data-name="Group 1099505" transform="translate(1.808 8.418)">
        <g id="Group_1099504" data-name="Group 1099504" transform="translate(0)" clip-path="url(#clip-path-2)">
          <rect id="Rectangle_401140" data-name="Rectangle 401140" width="2.777" height="2.613" transform="translate(0)" fill="#34054d"/>
        </g>
      </g>
      <g id="Group_1099517" data-name="Group 1099517" transform="translate(37.056 8.418)">
        <g id="Group_1099516" data-name="Group 1099516" transform="translate(0)" clip-path="url(#clip-path-3)">
          <rect id="Rectangle_401146" data-name="Rectangle 401146" width="2.778" height="2.613" transform="translate(0 0)" fill="#34054d"/>
        </g>
      </g>
      <g id="Group_1099519" data-name="Group 1099519" transform="translate(30.194 8.418)">
        <g id="Group_1099518" data-name="Group 1099518" transform="translate(0 0)" clip-path="url(#clip-path-4)">
          <rect id="Rectangle_401147" data-name="Rectangle 401147" width="2.778" height="2.612" transform="translate(0 0)" fill="#34054d"/>
        </g>
      </g>
      <g id="Group_1099521" data-name="Group 1099521" transform="translate(23.332 8.418)">
        <g id="Group_1099520" data-name="Group 1099520" transform="translate(0 0)" clip-path="url(#clip-path-5)">
          <rect id="Rectangle_401148" data-name="Rectangle 401148" width="2.778" height="2.612" transform="translate(0 0)" fill="#34054d"/>
        </g>
      </g>
      <g id="Group_1099523" data-name="Group 1099523" transform="translate(16.47 8.418)">
        <g id="Group_1099522" data-name="Group 1099522" transform="translate(0 0)" clip-path="url(#clip-path-6)">
          <rect id="Rectangle_401149" data-name="Rectangle 401149" width="2.777" height="2.612" transform="translate(0 0)" fill="#34054d"/>
        </g>
      </g>
      <g id="Group_1099525" data-name="Group 1099525" transform="translate(34.311 0)">
        <g id="Group_1099524" data-name="Group 1099524" clip-path="url(#clip-path-4)">
          <rect id="Rectangle_401150" data-name="Rectangle 401150" width="2.778" height="2.612" transform="translate(0 0)" fill="#34054d"/>
        </g>
      </g>
      <g id="Group_1099529" data-name="Group 1099529" transform="translate(27.448 0)">
        <g id="Group_1099528" data-name="Group 1099528" transform="translate(0)" clip-path="url(#clip-path-5)">
          <rect id="Rectangle_401152" data-name="Rectangle 401152" width="2.778" height="2.612" transform="translate(0 0)" fill="#34054d"/>
        </g>
      </g>
      <g id="Group_1099531" data-name="Group 1099531" transform="translate(13.724 0)">
        <g id="Group_1099530" data-name="Group 1099530" transform="translate(0)" clip-path="url(#clip-path-9)">
          <rect id="Rectangle_401153" data-name="Rectangle 401153" width="2.777" height="2.612" transform="translate(0 0)" fill="#34054d"/>
        </g>
      </g>
      <g id="Group_1099533" data-name="Group 1099533" transform="translate(6.862 0)">
        <g id="Group_1099532" data-name="Group 1099532" clip-path="url(#clip-path-4)">
          <rect id="Rectangle_401154" data-name="Rectangle 401154" width="2.778" height="2.612" transform="translate(0 0)" fill="#34054d"/>
        </g>
      </g>
      <g id="Group_1099535" data-name="Group 1099535" transform="translate(0 0)">
        <g id="Group_1099534" data-name="Group 1099534" transform="translate(0)" clip-path="url(#clip-path-5)">
          <rect id="Rectangle_401155" data-name="Rectangle 401155" width="2.778" height="2.612" transform="translate(0 0)" fill="#34054d"/>
        </g>
      </g>
    </g>
    <g id="Group_1100238" data-name="Group 1100238" transform="translate(-22980.652 -3724.455)">
      <g id="Group_1099505-2" data-name="Group 1099505" transform="translate(1.808 8.418)">
        <g id="Group_1099504-2" data-name="Group 1099504" transform="translate(0)" clip-path="url(#clip-path-2)">
          <rect id="Rectangle_401140-2" data-name="Rectangle 401140" width="2.777" height="2.613" transform="translate(0)" fill="#34054d"/>
        </g>
      </g>
      <g id="Group_1099517-2" data-name="Group 1099517" transform="translate(37.056 8.418)">
        <g id="Group_1099516-2" data-name="Group 1099516" transform="translate(0)" clip-path="url(#clip-path-3)">
          <rect id="Rectangle_401146-2" data-name="Rectangle 401146" width="2.778" height="2.613" transform="translate(0 0)" fill="#34054d"/>
        </g>
      </g>
      <g id="Group_1099519-2" data-name="Group 1099519" transform="translate(30.194 8.418)">
        <g id="Group_1099518-2" data-name="Group 1099518" transform="translate(0 0)" clip-path="url(#clip-path-4)">
          <rect id="Rectangle_401147-2" data-name="Rectangle 401147" width="2.778" height="2.612" transform="translate(0 0)" fill="#34054d"/>
        </g>
      </g>
      <g id="Group_1099521-2" data-name="Group 1099521" transform="translate(23.332 8.418)">
        <g id="Group_1099520-2" data-name="Group 1099520" transform="translate(0 0)" clip-path="url(#clip-path-5)">
          <rect id="Rectangle_401148-2" data-name="Rectangle 401148" width="2.778" height="2.612" transform="translate(0 0)" fill="#34054d"/>
        </g>
      </g>
      <g id="Group_1099523-2" data-name="Group 1099523" transform="translate(16.47 8.418)">
        <g id="Group_1099522-2" data-name="Group 1099522" transform="translate(0 0)" clip-path="url(#clip-path-6)">
          <rect id="Rectangle_401149-2" data-name="Rectangle 401149" width="2.777" height="2.612" transform="translate(0 0)" fill="#34054d"/>
        </g>
      </g>
      <g id="Group_1099525-2" data-name="Group 1099525" transform="translate(34.311 0)">
        <g id="Group_1099524-2" data-name="Group 1099524" clip-path="url(#clip-path-4)">
          <rect id="Rectangle_401150-2" data-name="Rectangle 401150" width="2.778" height="2.612" transform="translate(0 0)" fill="#34054d"/>
        </g>
      </g>
      <g id="Group_1099529-2" data-name="Group 1099529" transform="translate(27.448 0)">
        <g id="Group_1099528-2" data-name="Group 1099528" transform="translate(0)" clip-path="url(#clip-path-5)">
          <rect id="Rectangle_401152-2" data-name="Rectangle 401152" width="2.778" height="2.612" transform="translate(0 0)" fill="#34054d"/>
        </g>
      </g>
      <g id="Group_1099531-2" data-name="Group 1099531" transform="translate(13.724 0)">
        <g id="Group_1099530-2" data-name="Group 1099530" transform="translate(0)" clip-path="url(#clip-path-9)">
          <rect id="Rectangle_401153-2" data-name="Rectangle 401153" width="2.777" height="2.612" transform="translate(0 0)" fill="#34054d"/>
        </g>
      </g>
      <g id="Group_1099533-2" data-name="Group 1099533" transform="translate(6.862 0)">
        <g id="Group_1099532-2" data-name="Group 1099532" clip-path="url(#clip-path-4)">
          <rect id="Rectangle_401154-2" data-name="Rectangle 401154" width="2.778" height="2.612" transform="translate(0 0)" fill="#34054d"/>
        </g>
      </g>
      <g id="Group_1099535-2" data-name="Group 1099535" transform="translate(0 0)">
        <g id="Group_1099534-2" data-name="Group 1099534" transform="translate(0)" clip-path="url(#clip-path-5)">
          <rect id="Rectangle_401155-2" data-name="Rectangle 401155" width="2.778" height="2.612" transform="translate(0 0)" fill="#34054d"/>
        </g>
      </g>
    </g>
    <path id="Path_873784" data-name="Path 873784" d="M83.8,18.565A18.62,18.62,0,0,0,65.231,0H18.566A18.62,18.62,0,0,0,0,18.566V65.231A18.62,18.62,0,0,0,18.565,83.8H65.231A18.62,18.62,0,0,0,83.8,65.23Z" transform="translate(-22994.928 -3692.332) rotate(-135)" fill="#bfa9fe"/>
    <path id="Path_873785" data-name="Path 873785" d="M86.438,19.15A19.206,19.206,0,0,0,67.287,0H19.151A19.207,19.207,0,0,0,0,19.151V67.287a19.206,19.206,0,0,0,19.15,19.15H67.287A19.207,19.207,0,0,0,86.437,67.286Z" transform="translate(-22999.16 -3696.04) rotate(-135)" fill="#34054d"/>
    <g id="Mask_Group_1098697" data-name="Mask Group 1098697" transform="translate(-23031.146 -3787.541)" clip-path="url(#clip-path-22)">
      <g id="Group_1103995" data-name="Group 1103995" transform="translate(-3651.993 -2371.53)">
        <path id="Path_878181" data-name="Path 878181" d="M3666.1,2484.816c0-1.324.027-2.494-.021-3.662a1.375,1.375,0,0,0-.439-.755,14.422,14.422,0,0,1-4.124-12.194,6.765,6.765,0,0,1,4.184-5.612,12.614,12.614,0,0,1,11.186.179,7.191,7.191,0,0,1,4.1,6.649,14.106,14.106,0,0,1-4.045,10.952,1.061,1.061,0,0,0-.322.627c-.03,1.228-.015,2.457-.015,3.813.792,0,1.492-.008,2.192,0a6.733,6.733,0,0,1,6.812,6.54c.073,1.881.067,3.771-.015,5.651a5.77,5.77,0,0,1-5.089,5.395,35.838,35.838,0,0,1-3.609.107q-6.628.017-13.258,0c-4.192-.006-6.638-2.437-6.623-6.609a38.314,38.314,0,0,1,.168-5.544,6.616,6.616,0,0,1,6.582-5.542C3664.5,2484.8,3665.233,2484.816,3666.1,2484.816Zm1.9-15.478a7.111,7.111,0,0,0-4.06,4.18,1.764,1.764,0,0,0,.083,1.071,11.465,11.465,0,0,0,2.755,4.44c2.785,2.786,6.181,2.792,8.986.014a12.921,12.921,0,0,0,2.788-4.426,2.348,2.348,0,0,0-.447-2.655,5.247,5.247,0,0,0-2.007-1.4,6.875,6.875,0,0,0-6.274.776c-.829.545-1.408.307-1.606-.656C3668.135,2470.274,3668.083,2469.855,3668,2469.339Zm7.255,31.4c1.513,0,2.933.019,4.352,0a4.193,4.193,0,0,0,4.271-4.116c.066-1.728.067-3.463-.006-5.19a4.931,4.931,0,0,0-2.61-4.219.954.954,0,0,0-1.472.264c-1.367,1.754-2.8,3.46-4.212,5.177-.192.232-.432.567-.675.591-1.2.119-1.039,1.119-.938,1.724C3674.284,2496.873,3674.8,2498.751,3675.256,2500.736Zm-7.939-.045c.418-1.812.815-3.52,1.207-5.23a1.661,1.661,0,0,0-1-2.275,2.244,2.244,0,0,1-.526-.51c-1.513-1.749-3.036-3.491-4.522-5.263a.72.72,0,0,0-1.09-.205,4.66,4.66,0,0,0-2.533,3.756,49.687,49.687,0,0,0-.02,6.006,3.914,3.914,0,0,0,3.547,3.691C3663.991,2500.812,3665.63,2500.691,3667.317,2500.691Zm11.713-30.592a5.288,5.288,0,0,0-2.179-5.234c-2.841-2.12-8.45-2.167-11.337-.095a5.471,5.471,0,0,0-2.122,5.792,21.563,21.563,0,0,1,1.838-1.669,12.888,12.888,0,0,1,2.237-1.3c1.689-.77,2-.584,2.346,1.209a2.046,2.046,0,0,0,.111.308C3673.527,2467.866,3676.439,2468.2,3679.03,2470.1Zm-11.166,11.954c0,.867-.025,1.51.009,2.151a2.264,2.264,0,0,0,.223,1.224c.944,1.127,1.981,2.177,3.2,3.488,1.225-1.325,2.25-2.427,3.262-3.539a.839.839,0,0,0,.238-.477c.022-.912.011-1.826.011-2.931A7.3,7.3,0,0,1,3667.864,2482.053Zm2.034,7.728a20.987,20.987,0,0,1-2.1-2.143c-.94-1.283-2.181-1.064-3.644-.968l3.911,4.555Zm2.782.021,1.809,1.4,3.614-4.432-.154-.253c-.775.105-1.729-.035-2.288.369A26.159,26.159,0,0,0,3672.68,2489.8Z" transform="translate(0 -71.338)" fill="#f3f9ff"/>
        <path id="Path_878182" data-name="Path 878182" d="M3779.2,2401.636c.752-2.986-.589-6.107-2.625-9.08-.922-1.347-1.669-2.815-2.466-4.245a3.765,3.765,0,0,1,1.495-5.4c.988-.573,2.012-1.09,2.969-1.711a1.475,1.475,0,0,0,.6-.982c.163-2.352,1.567-3.908,3.923-3.765a11.2,11.2,0,0,0,7.375-2.022,3.587,3.587,0,0,1,5.2,1.335,1.159,1.159,0,0,0,1.18.65q1.575-.051,3.154,0a3.71,3.71,0,0,1,3.868,3.942c.012,2.875-.023,5.75.025,8.624a3.836,3.836,0,0,0,.472,1.731c1.442,2.59,2.947,5.145,4.424,7.716,1.362,2.368.8,4.457-1.562,5.8-.913.519-1.854.994-2.729,1.572a1.391,1.391,0,0,0-.6.975,3.793,3.793,0,0,1-4.293,3.745,6.374,6.374,0,0,0-5.274,1.092,10.454,10.454,0,0,1-1.842,1.067,3.709,3.709,0,0,1-5.121-1.46,1.3,1.3,0,0,0-1.385-.763c-1.018.052-2.04.026-3.061.009a3.588,3.588,0,0,1-3.725-3.75C3779.188,2405.259,3779.2,2403.806,3779.2,2401.636Zm22.91-8.05q0-6.489,0-12.978c0-1.747-.669-2.408-2.408-2.409q-8.068,0-16.135,0c-2.026,0-2.646.621-2.647,2.66q0,12.608,0,25.215c0,2.033.622,2.653,2.666,2.654q8.021,0,16.042,0c1.927,0,2.482-.525,2.483-2.445Q3802.119,2399.936,3802.115,2393.586Zm-22.978-.167v-10.466c-.964.542-1.823,1-2.663,1.5a2,2,0,0,0-.823,2.978c.808,1.452,1.649,2.886,2.482,4.324C3778.417,2392.247,3778.719,2392.729,3779.136,2393.419Zm24.77,10.671c1.14-.662,2.152-1.182,3.086-1.815a1.765,1.765,0,0,0,.6-2.31c-1.126-2.052-2.332-4.061-3.512-6.083-.013-.023-.1,0-.17,0Zm-11.477,6.447h-3.3C3790.056,2411.678,3791.155,2411.67,3792.429,2410.536Zm-1.531-34.23h2.958A1.951,1.951,0,0,0,3790.9,2376.306Z" transform="translate(-94.93 0)" fill="#f3f9ff"/>
        <path id="Path_878183" data-name="Path 878183" d="M3826.69,2414.359c-2.942,0-2.736.293-2.731-2.741,0-.586,0-1.171,0-1.756a.922.922,0,0,1,1.026-1.035c1.141-.011,2.281-.007,3.422,0a.984.984,0,0,1,1.089,1.094c.015,1.109.011,2.219,0,3.328a.987.987,0,0,1-1.147,1.116C3827.8,2414.344,3827.245,2414.358,3826.69,2414.359Z" transform="translate(-136.004 -28.527)" fill="#f3f9ff"/>
        <path id="Path_878184" data-name="Path 878184" d="M3826.7,2526.428c-2.942,0-2.751.291-2.743-2.732q0-.879,0-1.757a.916.916,0,0,1,1.014-1.042c1.141-.006,2.281,0,3.422,0a.976.976,0,0,1,1.1,1.079c.018,1.14.022,2.281,0,3.42a.963.963,0,0,1-1.128,1.039C3827.811,2526.414,3827.255,2526.427,3826.7,2526.428Z" transform="translate(-136.003 -119.82)" fill="#f3f9ff"/>
        <path id="Path_878185" data-name="Path 878185" d="M3826.751,2489.1c-.555,0-1.11-.01-1.665,0-.78.016-1.124-.372-1.116-1.134.01-1.079.014-2.158,0-3.237-.012-.807.336-1.2,1.166-1.177,1.079.024,2.159.019,3.238,0a1,1,0,0,1,1.14,1.13c.012,1.048.018,2.1,0,3.145-.016.98-.3,1.252-1.281,1.268C3827.738,2489.11,3827.244,2489.1,3826.751,2489.1Zm.933-1.834v-1.816c-2.013-.235-2.244-.432-1.838,1.874.38,0,.775.006,1.169,0C3827.221,2487.32,3827.427,2487.291,3827.684,2487.269Z" transform="translate(-136.015 -89.407)" fill="#f3f9ff"/>
        <path id="Path_878186" data-name="Path 878186" d="M3823.963,2449c-.006-3.006-.225-2.747,2.728-2.746.586,0,1.171.007,1.756,0a.935.935,0,0,1,1.05,1.02c.024,1.17.026,2.342,0,3.511a.946.946,0,0,1-1.076,1c-1.109,0-2.219-.007-3.328,0-.766.006-1.141-.352-1.126-1.124C3823.973,2450.11,3823.964,2449.556,3823.963,2449Zm3.683-.827c-1.892-.391-2.195-.1-1.8,1.746h1.8Z" transform="translate(-136.007 -59.017)" fill="#f3f9ff"/>
        <path id="Path_878187" data-name="Path 878187" d="M3871.5,2465.656c1.233,0,2.466.01,3.7,0,.606-.008,1.084.2,1.109.838.027.706-.493.934-1.118.936q-3.7.007-7.4,0c-.623,0-1.148-.241-1.114-.943.031-.636.523-.835,1.123-.829C3869.035,2465.666,3870.268,2465.656,3871.5,2465.656Z" transform="translate(-170.806 -74.822)" fill="#f3f9ff"/>
        <path id="Path_878188" data-name="Path 878188" d="M3871.471,2504.63c-1.2,0-2.409-.012-3.612.005-.643.009-1.155-.2-1.163-.887s.521-.911,1.15-.91q3.659,0,7.318,0c.629,0,1.156.2,1.156.9s-.494.91-1.144.9C3873.942,2504.615,3872.707,2504.63,3871.471,2504.63Z" transform="translate(-170.821 -105.111)" fill="#f3f9ff"/>
        <path id="Path_878189" data-name="Path 878189" d="M3871.51,2430.046c-1.233,0-2.465-.013-3.7.006-.6.009-1.093-.167-1.121-.814-.03-.7.477-.925,1.114-.924q3.7,0,7.4,0c.636,0,1.141.2,1.116.917-.023.655-.506.832-1.109.823C3873.975,2430.033,3872.742,2430.046,3871.51,2430.046Z" transform="translate(-170.816 -44.406)" fill="#f3f9ff"/>
        <path id="Path_878190" data-name="Path 878190" d="M3871.5,2542.1c-1.231,0-2.463-.012-3.695,0-.6.008-1.095-.164-1.117-.815-.024-.709.5-.91,1.127-.909q3.7.005,7.39,0c.633,0,1.141.2,1.109.917-.029.663-.525.815-1.119.807C3873.966,2542.094,3872.734,2542.105,3871.5,2542.1Z" transform="translate(-170.816 -135.699)" fill="#f3f9ff"/>
        <path id="Path_878191" data-name="Path 878191" d="M3869.27,2447.549c.524,0,1.048,0,1.572,0,.581,0,1.042.3.951.863a1.28,1.28,0,0,1-.837.875,19.312,19.312,0,0,1-3.506,0c-.314-.029-.581-.577-.87-.887.311-.282.583-.721.942-.811A7.427,7.427,0,0,1,3869.27,2447.549Z" transform="translate(-170.726 -60.047)" fill="#f3f9ff"/>
        <path id="Path_878192" data-name="Path 878192" d="M3869.238,2486.585a6.9,6.9,0,0,1-1.655-.034c-.368-.094-.655-.5-.978-.768.275-.319.528-.885.83-.912a20.319,20.319,0,0,1,3.595,0c.3.027.551.591.826.909-.318.269-.6.681-.962.774A6.844,6.844,0,0,1,3869.238,2486.585Z" transform="translate(-170.747 -90.411)" fill="#f3f9ff"/>
        <path id="Path_878193" data-name="Path 878193" d="M3869.329,2524.1c-.553,0-1.105.01-1.658,0-.58-.011-1.03-.328-.916-.885a1.27,1.27,0,0,1,.9-.779,19.676,19.676,0,0,1,3.4,0c.323.029.6.521.906.8-.3.287-.551.736-.9.824A7.289,7.289,0,0,1,3869.329,2524.1Z" transform="translate(-170.855 -121.021)" fill="#f3f9ff"/>
        <path id="Path_878194" data-name="Path 878194" d="M3869.225,2412.048a7.319,7.319,0,0,1-1.741-.036c-.351-.087-.613-.527-.915-.809.305-.283.592-.781.92-.809a20.183,20.183,0,0,1,3.493.007c.3.027.564.558.844.857-.283.263-.532.681-.858.755A8.089,8.089,0,0,1,3869.225,2412.048Z" transform="translate(-170.717 -29.75)" fill="#f3f9ff"/>
      </g>
    </g>
  </g>
</svg>
