<svg xmlns="http://www.w3.org/2000/svg" width="62.504" height="62.504" viewBox="0 0 62.504 62.504">
  <g id="Group_1102676" data-name="Group 1102676" transform="translate(-279.816 -1198.717)">
    <g id="Group_1072053" data-name="Group 1072053" transform="translate(279.816 1198.717)">
      <circle id="Ellipse_4742" data-name="Ellipse 4742" cx="31.252" cy="31.252" r="31.252" transform="translate(0)" fill="#ffb12d"/>
    </g>
    <g id="Group_1102669" data-name="Group 1102669" transform="translate(960.404 1948.141)">
      <path id="Path_876784" data-name="Path 876784" d="M53.767-63.07q0,1.16,0,2.319c0,.173,0,.174-.172.174H52.07c-.168,0-.169,0-.169-.178q0-2.3,0-4.607c0-.261.023-.222-.216-.222H47.46c-.209,0-.176.019-.177-.176,0-.508,0-1.017,0-1.525,0-.144,0-.145.147-.145H51.7c.209,0,.2.033.2-.192q0-2.3,0-4.607c0-.211-.017-.188.186-.188h1.525c.168,0,.154-.014.154.153q0,2.168,0,4.337c0,.132,0,.265,0,.4,0,.074.023.109.1.1.037,0,.074,0,.111,0H58.2c.2,0,.191-.026.191.184q0,.739,0,1.477c0,.037,0,.074,0,.111,0,.054-.026.075-.078.074s-.085,0-.127,0H53.978c-.042,0-.085,0-.127,0-.061,0-.087.023-.084.084,0,.037,0,.074,0,.111Q53.767-64.23,53.767-63.07Z" transform="translate(-702.163 -651.77)" fill="#34054d"/>
      <path id="Path_876785" data-name="Path 876785" d="M-458.038,485.082v1.986c0,.037,0,.074,0,.111,0,.108-.015.123-.118.123-.45,0-.9,0-1.35,0-.08,0-.118-.032-.114-.113,0-.042,0-.085,0-.127q0-1.994,0-3.987c0-.241.016-.233-.234-.233h-3.685c-.042,0-.085,0-.127,0-.119,0-.121,0-.121-.128q0-.588,0-1.175c0-.135,0-.139.147-.14.233,0,.466,0,.7,0h3.129c.192,0,.193,0,.193-.189q0-2,0-4c0-.032,0-.064,0-.1,0-.157,0-.16.161-.16h1.255c.164,0,.166,0,.166.172q0,2.017,0,4.035c0,.268-.026.241.236.241h3.685c.048,0,.1,0,.143,0,.071,0,.105.025.1.1q0,.627,0,1.255c0,.061-.025.087-.084.086h-3.875c-.209,0-.209-.025-.209.205Q-458.038,484.065-458.038,485.082Z" transform="translate(-199.21 -1192.414)" fill="#34054d"/>
      <path id="Path_876786" data-name="Path 876786" d="M637.4-531.635q0-1.016,0-2.033,0-.064,0-.127a.064.064,0,0,1,.069-.07l.111,0h1.239c.183,0,.184,0,.184.18q0,2.025,0,4.049c0,.273-.02.238.237.238h3.732c.2,0,.193-.02.193.185q0,.54,0,1.08c0,.2.011.193-.188.193q-1.858,0-3.716,0c-.3,0-.257-.042-.258.262q0,1.993,0,3.986c0,.21.014.2-.2.2H637.6c-.209,0-.2.017-.2-.2q0-2.009,0-4.018c0-.267.033-.234-.238-.234q-1.826,0-3.652,0c-.042,0-.085,0-.127,0-.119,0-.122,0-.122-.127,0-.392,0-.783,0-1.175,0-.163-.008-.155.157-.155h3.4c.154,0,.307,0,.46,0,.121,0,.125,0,.125-.125,0-.4,0-.794,0-1.191Z" transform="translate(-1278.834 -197.653)" fill="#34054d"/>
      <path id="Path_876787" data-name="Path 876787" d="M637.634,484.631q0-1.032,0-2.065c0-.042,0-.085,0-.127s-.034-.072-.083-.072H633.69c-.215,0-.194.019-.194-.2q0-.516,0-1.032c0-.153,0-.155.16-.155h3.732c.28,0,.246.031.246-.244q0-2,0-4c0-.195-.027-.2.2-.2h1.207c.195,0,.2,0,.2.2q0,2.009,0,4.018c0,.247-.022.225.219.226H643.2c.194,0,.195,0,.2.188q0,.516,0,1.032c0,.164,0,.165-.166.165h-3.78c-.221,0-.216-.021-.216.216q0,2.033,0,4.066c0,.042,0,.085,0,.127,0,.111-.011.122-.117.122q-.683,0-1.366,0c-.113,0-.115-.007-.116-.154Q637.633,485.687,637.634,484.631Z" transform="translate(-1279.064 -1192.003)" fill="#34054d"/>
      <path id="Path_876788" data-name="Path 876788" d="M-458.234-525.655v2.033c0,.037,0,.074,0,.111,0,.109-.005.112-.121.112-.38,0-.76,0-1.14,0-.276,0-.276,0-.276-.275q0-2.025,0-4.05c0-.208.02-.19-.185-.19h-3.78c-.214,0-.2.013-.2-.2q0-.524,0-1.048c0-.144,0-.145.151-.145H-460c.267,0,.23.018.23-.229q0-2,0-4c0-.037,0-.074,0-.111,0-.12,0-.122.128-.123q.635,0,1.27,0c.137,0,.139,0,.139.144q0,1.1,0,2.208,0,.953,0,1.906c0,.042,0,.085,0,.127,0,.062.03.084.088.081.042,0,.085,0,.127,0h3.78c.037,0,.074,0,.111,0,.113,0,.116,0,.117.115,0,.3,0,.6,0,.905,0,.09,0,.18,0,.27s-.031.106-.1.1c-.042,0-.085,0-.127,0H-458.1c-.131,0-.133,0-.134.13,0,.291,0,.582,0,.874Z" transform="translate(-199.067 -197.745)" fill="#34054d"/>
      <path id="Path_876789" data-name="Path 876789" d="M1019.677,67.09q0-.707,0-1.414c0-.148,0-.149.148-.15h1.1c.146,0,.148,0,.148.148q0,1.382,0,2.764c0,.229-.031.213.212.213h2.382c.042,0,.085,0,.127,0,.068,0,.1.029.094.1,0,.116,0,.233,0,.349,0,.222,0,.445,0,.667,0,.152,0,.153-.161.153h-2.493c-.161,0-.162,0-.162.168q0,1.374,0,2.748c0,.222.034.213-.213.211-.336,0-.672,0-1.007,0-.171,0-.172,0-.172-.177q0-1.358,0-2.716c0-.032,0-.064,0-.1,0-.137,0-.138-.144-.139-.821,0-1.641,0-2.462,0-.226,0-.207.039-.208-.215,0-.291,0-.582,0-.874,0-.2,0-.177.185-.177h2.43c.214,0,.2.018.2-.2Q1019.678,67.773,1019.677,67.09Z" transform="translate(-1656.343 -787.525)" fill="#34054d"/>
      <path id="Path_876790" data-name="Path 876790" d="M181.476,875.89q0,.675,0,1.35c0,.042,0,.085,0,.127a.068.068,0,0,0,.076.079l.143,0h2.43c.155,0,.156,0,.156.158q0,.477,0,.953c0,.147,0,.148-.147.148h-2.4c-.261,0-.261,0-.261.26q0,1.31,0,2.621c0,.037,0,.074,0,.111,0,.139,0,.141-.144.141q-.556,0-1.112,0c-.135,0-.137,0-.137-.145q0-1.39,0-2.78c0-.222.014-.209-.2-.209h-2.446c-.195,0-.177.015-.177-.182q0-.461,0-.921c0-.155,0-.156.159-.156.781,0,1.563,0,2.344,0,.1,0,.231.046.3-.034s.021-.193.021-.292q0-1.279,0-2.557c0-.037,0-.074,0-.111,0-.119,0-.122.127-.123q.564,0,1.128,0c.135,0,.137,0,.137.148Q181.477,875.183,181.476,875.89Z" transform="translate(-830.072 -1583.479)" fill="#34054d"/>
      <path id="Path_876791" data-name="Path 876791" d="M-663.46,83.615q0-.659,0-1.318c0-.171.025-.175-.17-.175h-2.382c-.211,0-.2.017-.2-.195,0-.238,0-.476,0-.715,0-.156,0-.157.159-.157.783,0,1.567,0,2.35,0,.287,0,.243.031.243-.244,0-.836,0-1.673,0-2.509,0-.037,0-.074,0-.111,0-.119,0-.121.127-.122q.4,0,.794,0c.134,0,.136,0,.136.145q0,.858,0,1.715,0,.484,0,.969c0,.156,0,.158.156.158h2.414c.3,0,.254-.028.257.25q0,.3,0,.6c0,.11-.006.114-.119.118-.465.015-.93.027-1.4.044-.406.015-.813.036-1.219.052-.066,0-.1.025-.093.093,0,.037,0,.074,0,.111q0,1.31,0,2.62c0,.188.014.172-.17.172h-.746c-.139,0-.141,0-.141-.138Q-663.461,84.3-663.46,83.615Z" transform="translate(0 -799.866)" fill="#34054d"/>
      <path id="Path_876792" data-name="Path 876792" d="M192.64-733.189q0-.691,0-1.381c0-.136,0-.137.141-.138q.4,0,.794,0c.12,0,.123,0,.123.123q0,.905,0,1.81c0,.323,0,.646,0,.969,0,.156,0,.158.158.158.8,0,1.609,0,2.413,0,.3,0,.252-.04.255.248,0,.206,0,.413,0,.619,0,.131,0,.135-.133.135-.333,0-.667,0-1,0h-1.477c-.254,0-.215-.019-.216.224q0,1.318,0,2.636c0,.2.018.19-.186.191-.249,0-.5,0-.746,0-.121,0-.124,0-.125-.125,0-.318,0-.635,0-.953q0-.889,0-1.778c0-.037,0-.074,0-.111,0-.063-.03-.084-.087-.083s-.085,0-.127,0h-2.461a.068.068,0,0,1-.077-.079q0-.421,0-.841c0-.062.033-.084.09-.082s.085,0,.127,0h2.3c.037,0,.074,0,.111,0,.119,0,.121,0,.122-.128Q192.642-732.482,192.64-733.189Z" transform="translate(-842.504 0)" fill="#34054d"/>
    </g>
  </g>
</svg>
