<svg xmlns="http://www.w3.org/2000/svg" width="62.504" height="62.504" viewBox="0 0 62.504 62.504">
  <g id="Group_1102687" data-name="Group 1102687" transform="translate(-279.816 -1198.717)">
    <g id="Group_1072053" data-name="Group 1072053" transform="translate(279.816 1198.717)">
      <circle id="Ellipse_4742" data-name="Ellipse 4742" cx="31.252" cy="31.252" r="31.252" transform="translate(0)" fill="#ffb12d"/>
    </g>
    <g id="Group_1102673" data-name="Group 1102673" transform="translate(-3805.065 151.745)">
      <path id="Path_876802" data-name="Path 876802" d="M4118.839,1091.251v3.535c-1.335-.151-2.617-.231-3.876-.448-5.17-.89-10.333-1.822-15.569-2.751v-.8q0-12.608-.015-25.215c0-.574.16-.732.712-.827,4.675-.806,9.34-1.676,14.015-2.483,1.337-.231,2.7-.319,4.049-.465.21-.023.425,0,.706,0v3.1h.838c3.629,0,7.258-.011,10.886.008,1.477.008,1.781.325,1.783,1.834q.018,11.263.006,22.526a8.684,8.684,0,0,1-.116,1,.915.915,0,0,1-.874.852,10.213,10.213,0,0,1-1.378.107c-3.542.007-7.082,0-10.623,0C4119.232,1091.221,4119.081,1091.237,4118.839,1091.251Zm.074-16.13v1.651h2.888v2.576h-2.885v1.587h2.888v2.646h-2.878v1.616h2.887v2.578h-2.925v2.3h12.392V1066h-12.365v2.325h2.883v2.628h-2.889v1.591h2.9v2.576Zm-10.383,4.575c.574,1.4,1.137,2.78,1.718,4.155.069.164.228.393.363.407.822.086,1.65.12,2.552.175-.084-.207-.125-.33-.182-.445-.872-1.781-1.736-3.566-2.626-5.338a1.276,1.276,0,0,1-.009-1.3c.864-1.686,1.669-3.4,2.491-5.112a5.564,5.564,0,0,0,.2-.557c-.748.038-1.4.091-2.061.1a.7.7,0,0,0-.725.53c-.522,1.337-1.076,2.661-1.634,4.031-.475-1.274-.929-2.52-1.409-3.756-.079-.2-.271-.512-.409-.512-.751,0-1.5.09-2.328.153.783,1.73,1.5,3.386,2.284,5a1.706,1.706,0,0,1-.063,1.738c-.849,1.587-1.627,3.213-2.483,4.922.723.04,1.352.059,1.977.115a.644.644,0,0,0,.771-.507C4107.445,1082.208,4108.006,1080.947,4108.53,1079.7Z" transform="translate(0 0)" fill="#34054d"/>
      <path id="Path_876803" data-name="Path 876803" d="M5023.533,1782.186h-5.212v-2.573h5.212Z" transform="translate(-895.001 -698.646)" fill="#34054d"/>
      <path id="Path_876804" data-name="Path 876804" d="M5018.841,1306.652h5.2v2.563h-5.2Z" transform="translate(-895.507 -238.323)" fill="#34054d"/>
      <path id="Path_876805" data-name="Path 876805" d="M5018.233,1467.425v-2.535h5.219v2.535Z" transform="translate(-894.916 -392.333)" fill="#34054d"/>
      <path id="Path_876806" data-name="Path 876806" d="M5017.651,1940.844v-2.5h5.239v2.5Z" transform="translate(-894.349 -853.132)" fill="#34054d"/>
      <path id="Path_876807" data-name="Path 876807" d="M5023.944,1626.225h-5.21v-2.51h5.21Z" transform="translate(-895.404 -546.914)" fill="#34054d"/>
    </g>
  </g>
</svg>
