<svg xmlns="http://www.w3.org/2000/svg" xmlns:xlink="http://www.w3.org/1999/xlink" width="124.605" height="125.948" viewBox="0 0 124.605 125.948">
  <defs>
    <clipPath id="clip-path">
      <rect id="Rectangle_400938" data-name="Rectangle 400938" width="117.278" height="117.278" fill="none"/>
    </clipPath>
    <clipPath id="clip-path-2">
      <path id="Path_873460" data-name="Path 873460" d="M0,1.307A1.349,1.349,0,0,0,1.389,2.613,1.349,1.349,0,0,0,2.778,1.307,1.349,1.349,0,0,0,1.389,0,1.349,1.349,0,0,0,0,1.307" transform="translate(0)" fill="#34054d"/>
    </clipPath>
    <clipPath id="clip-path-3">
      <path id="Path_873466" data-name="Path 873466" d="M0,1.307A1.349,1.349,0,0,0,1.39,2.613,1.349,1.349,0,0,0,2.778,1.307,1.349,1.349,0,0,0,1.39,0,1.349,1.349,0,0,0,0,1.307" fill="#34054d"/>
    </clipPath>
    <clipPath id="clip-path-4">
      <path id="Path_873467" data-name="Path 873467" d="M0,1.306A1.349,1.349,0,0,0,1.389,2.612,1.349,1.349,0,0,0,2.778,1.306,1.349,1.349,0,0,0,1.389,0,1.349,1.349,0,0,0,0,1.306" transform="translate(0 0)" fill="#34054d"/>
    </clipPath>
    <clipPath id="clip-path-5">
      <path id="Path_873468" data-name="Path 873468" d="M0,1.306A1.349,1.349,0,0,0,1.39,2.612,1.349,1.349,0,0,0,2.778,1.306,1.349,1.349,0,0,0,1.39,0,1.349,1.349,0,0,0,0,1.306" transform="translate(0 0)" fill="#34054d"/>
    </clipPath>
    <clipPath id="clip-path-6">
      <path id="Path_873469" data-name="Path 873469" d="M0,1.306A1.349,1.349,0,0,0,1.389,2.612,1.349,1.349,0,0,0,2.777,1.306,1.349,1.349,0,0,0,1.389,0,1.349,1.349,0,0,0,0,1.306" transform="translate(0 0)" fill="#34054d"/>
    </clipPath>
    <clipPath id="clip-path-9">
      <path id="Path_873473" data-name="Path 873473" d="M0,1.306A1.349,1.349,0,0,0,1.39,2.612,1.348,1.348,0,0,0,2.778,1.306,1.349,1.349,0,0,0,1.39,0,1.349,1.349,0,0,0,0,1.306" transform="translate(0 0)" fill="#34054d"/>
    </clipPath>
    <clipPath id="clip-path-22">
      <rect id="Rectangle_401492" data-name="Rectangle 401492" width="63.051" height="63.052" transform="translate(-0.424 0.013)" fill="#34054d" stroke="#707070" stroke-width="1"/>
    </clipPath>
  </defs>
  <g id="Group_1102668" data-name="Group 1102668" transform="translate(23060.281 3818.28)">
    <g id="Group_1100237" data-name="Group 1100237" transform="translate(-23054.037 -3797.84)">
      <g id="Group_1099505" data-name="Group 1099505" transform="translate(1.808 8.418)">
        <g id="Group_1099504" data-name="Group 1099504" transform="translate(0)" clip-path="url(#clip-path-2)">
          <rect id="Rectangle_401140" data-name="Rectangle 401140" width="2.777" height="2.613" transform="translate(0)" fill="#34054d"/>
        </g>
      </g>
      <g id="Group_1099517" data-name="Group 1099517" transform="translate(37.056 8.418)">
        <g id="Group_1099516" data-name="Group 1099516" transform="translate(0)" clip-path="url(#clip-path-3)">
          <rect id="Rectangle_401146" data-name="Rectangle 401146" width="2.778" height="2.613" transform="translate(0 0)" fill="#34054d"/>
        </g>
      </g>
      <g id="Group_1099519" data-name="Group 1099519" transform="translate(30.194 8.418)">
        <g id="Group_1099518" data-name="Group 1099518" transform="translate(0 0)" clip-path="url(#clip-path-4)">
          <rect id="Rectangle_401147" data-name="Rectangle 401147" width="2.778" height="2.612" transform="translate(0 0)" fill="#34054d"/>
        </g>
      </g>
      <g id="Group_1099521" data-name="Group 1099521" transform="translate(23.332 8.418)">
        <g id="Group_1099520" data-name="Group 1099520" transform="translate(0 0)" clip-path="url(#clip-path-5)">
          <rect id="Rectangle_401148" data-name="Rectangle 401148" width="2.778" height="2.612" transform="translate(0 0)" fill="#34054d"/>
        </g>
      </g>
      <g id="Group_1099523" data-name="Group 1099523" transform="translate(16.47 8.418)">
        <g id="Group_1099522" data-name="Group 1099522" transform="translate(0 0)" clip-path="url(#clip-path-6)">
          <rect id="Rectangle_401149" data-name="Rectangle 401149" width="2.777" height="2.612" transform="translate(0 0)" fill="#34054d"/>
        </g>
      </g>
      <g id="Group_1099525" data-name="Group 1099525" transform="translate(34.311 0)">
        <g id="Group_1099524" data-name="Group 1099524" clip-path="url(#clip-path-4)">
          <rect id="Rectangle_401150" data-name="Rectangle 401150" width="2.778" height="2.612" transform="translate(0 0)" fill="#34054d"/>
        </g>
      </g>
      <g id="Group_1099529" data-name="Group 1099529" transform="translate(27.448 0)">
        <g id="Group_1099528" data-name="Group 1099528" transform="translate(0)" clip-path="url(#clip-path-5)">
          <rect id="Rectangle_401152" data-name="Rectangle 401152" width="2.778" height="2.612" transform="translate(0 0)" fill="#34054d"/>
        </g>
      </g>
      <g id="Group_1099531" data-name="Group 1099531" transform="translate(13.724 0)">
        <g id="Group_1099530" data-name="Group 1099530" transform="translate(0)" clip-path="url(#clip-path-9)">
          <rect id="Rectangle_401153" data-name="Rectangle 401153" width="2.777" height="2.612" transform="translate(0 0)" fill="#34054d"/>
        </g>
      </g>
      <g id="Group_1099533" data-name="Group 1099533" transform="translate(6.862 0)">
        <g id="Group_1099532" data-name="Group 1099532" clip-path="url(#clip-path-4)">
          <rect id="Rectangle_401154" data-name="Rectangle 401154" width="2.778" height="2.612" transform="translate(0 0)" fill="#34054d"/>
        </g>
      </g>
      <g id="Group_1099535" data-name="Group 1099535" transform="translate(0 0)">
        <g id="Group_1099534" data-name="Group 1099534" transform="translate(0)" clip-path="url(#clip-path-5)">
          <rect id="Rectangle_401155" data-name="Rectangle 401155" width="2.778" height="2.612" transform="translate(0 0)" fill="#34054d"/>
        </g>
      </g>
    </g>
    <g id="Group_1100238" data-name="Group 1100238" transform="translate(-22980.652 -3724.455)">
      <g id="Group_1099505-2" data-name="Group 1099505" transform="translate(1.808 8.418)">
        <g id="Group_1099504-2" data-name="Group 1099504" transform="translate(0)" clip-path="url(#clip-path-2)">
          <rect id="Rectangle_401140-2" data-name="Rectangle 401140" width="2.777" height="2.613" transform="translate(0)" fill="#34054d"/>
        </g>
      </g>
      <g id="Group_1099517-2" data-name="Group 1099517" transform="translate(37.056 8.418)">
        <g id="Group_1099516-2" data-name="Group 1099516" transform="translate(0)" clip-path="url(#clip-path-3)">
          <rect id="Rectangle_401146-2" data-name="Rectangle 401146" width="2.778" height="2.613" transform="translate(0 0)" fill="#34054d"/>
        </g>
      </g>
      <g id="Group_1099519-2" data-name="Group 1099519" transform="translate(30.194 8.418)">
        <g id="Group_1099518-2" data-name="Group 1099518" transform="translate(0 0)" clip-path="url(#clip-path-4)">
          <rect id="Rectangle_401147-2" data-name="Rectangle 401147" width="2.778" height="2.612" transform="translate(0 0)" fill="#34054d"/>
        </g>
      </g>
      <g id="Group_1099521-2" data-name="Group 1099521" transform="translate(23.332 8.418)">
        <g id="Group_1099520-2" data-name="Group 1099520" transform="translate(0 0)" clip-path="url(#clip-path-5)">
          <rect id="Rectangle_401148-2" data-name="Rectangle 401148" width="2.778" height="2.612" transform="translate(0 0)" fill="#34054d"/>
        </g>
      </g>
      <g id="Group_1099523-2" data-name="Group 1099523" transform="translate(16.47 8.418)">
        <g id="Group_1099522-2" data-name="Group 1099522" transform="translate(0 0)" clip-path="url(#clip-path-6)">
          <rect id="Rectangle_401149-2" data-name="Rectangle 401149" width="2.777" height="2.612" transform="translate(0 0)" fill="#34054d"/>
        </g>
      </g>
      <g id="Group_1099525-2" data-name="Group 1099525" transform="translate(34.311 0)">
        <g id="Group_1099524-2" data-name="Group 1099524" clip-path="url(#clip-path-4)">
          <rect id="Rectangle_401150-2" data-name="Rectangle 401150" width="2.778" height="2.612" transform="translate(0 0)" fill="#34054d"/>
        </g>
      </g>
      <g id="Group_1099529-2" data-name="Group 1099529" transform="translate(27.448 0)">
        <g id="Group_1099528-2" data-name="Group 1099528" transform="translate(0)" clip-path="url(#clip-path-5)">
          <rect id="Rectangle_401152-2" data-name="Rectangle 401152" width="2.778" height="2.612" transform="translate(0 0)" fill="#34054d"/>
        </g>
      </g>
      <g id="Group_1099531-2" data-name="Group 1099531" transform="translate(13.724 0)">
        <g id="Group_1099530-2" data-name="Group 1099530" transform="translate(0)" clip-path="url(#clip-path-9)">
          <rect id="Rectangle_401153-2" data-name="Rectangle 401153" width="2.777" height="2.612" transform="translate(0 0)" fill="#34054d"/>
        </g>
      </g>
      <g id="Group_1099533-2" data-name="Group 1099533" transform="translate(6.862 0)">
        <g id="Group_1099532-2" data-name="Group 1099532" clip-path="url(#clip-path-4)">
          <rect id="Rectangle_401154-2" data-name="Rectangle 401154" width="2.778" height="2.612" transform="translate(0 0)" fill="#34054d"/>
        </g>
      </g>
      <g id="Group_1099535-2" data-name="Group 1099535" transform="translate(0 0)">
        <g id="Group_1099534-2" data-name="Group 1099534" transform="translate(0)" clip-path="url(#clip-path-5)">
          <rect id="Rectangle_401155-2" data-name="Rectangle 401155" width="2.778" height="2.612" transform="translate(0 0)" fill="#34054d"/>
        </g>
      </g>
    </g>
    <path id="Path_873784" data-name="Path 873784" d="M83.8,18.565A18.62,18.62,0,0,0,65.231,0H18.566A18.62,18.62,0,0,0,0,18.566V65.231A18.62,18.62,0,0,0,18.565,83.8H65.231A18.62,18.62,0,0,0,83.8,65.23Z" transform="translate(-22994.928 -3692.332) rotate(-135)" fill="#4b0d6b"/>
    <path id="Path_873785" data-name="Path 873785" d="M86.438,19.15A19.206,19.206,0,0,0,67.287,0H19.151A19.207,19.207,0,0,0,0,19.151V67.287a19.206,19.206,0,0,0,19.15,19.15H67.287A19.207,19.207,0,0,0,86.437,67.286Z" transform="translate(-22999.16 -3696.04) rotate(-135)" fill="#d7c9fe"/>
    <g id="Mask_Group_1098697" data-name="Mask Group 1098697" transform="translate(-23031.146 -3787.541)" clip-path="url(#clip-path-22)">
      <g id="Group_1102702" data-name="Group 1102702" transform="translate(-2210.86 -459.217)">
        <path id="Path_876831" data-name="Path 876831" d="M2324.033,558.861a10.325,10.325,0,1,0,10.326,10.325A10.337,10.337,0,0,0,2324.033,558.861Zm6.828,4.916-3.083,2.074a5.02,5.02,0,0,0-2.674-1.567v-3.747A8.714,8.714,0,0,1,2330.86,563.777Zm-6.828,8.818a3.409,3.409,0,1,1,3.409-3.409A3.412,3.412,0,0,1,2324.033,572.6Zm-.538-12.107v3.71a5,5,0,0,0-3.033,1.468l-3.154-2.018A8.706,8.706,0,0,1,2323.495,560.488Zm-7.092,4.49,3.126,2a5,5,0,0,0-.067,4.273l-3.123,2.024a8.694,8.694,0,0,1,.065-8.3Zm.821,9.64,3.128-2.027a5.006,5.006,0,0,0,3.143,1.584v3.709A8.706,8.706,0,0,1,2317.223,574.618Zm7.88,3.217v-3.747a5.025,5.025,0,0,0,2.822-1.739l3.125,2A8.718,8.718,0,0,1,2325.1,577.835Zm6.78-4.864-3.155-2.018a5.007,5.007,0,0,0-.085-3.745l3.1-2.084a8.7,8.7,0,0,1,.143,7.847Z" transform="translate(-82.424 -78.647)" fill="#34054d"/>
        <path id="Path_876832" data-name="Path 876832" d="M2268.122,486.63a3.111,3.111,0,0,0-3.03,2.431h-4.065l.014-2.194a.8.8,0,0,0-.693-.8l-3.312-.462a15.556,15.556,0,0,0-.785-1.978l1.979-2.577a.8.8,0,0,0-.066-1.055l-5.564-5.635v-1.9l4.947-4.946h2.826a3.109,3.109,0,1,0-.034-1.609h-3.125a.8.8,0,0,0-.569.236l-5.417,5.418a.8.8,0,0,0-.236.569v2.455l-2.124,1.6a15.578,15.578,0,0,0-2.015-.815l-.42-3.2a.8.8,0,0,0-.792-.7l-2.424-.016V468.3a3.11,3.11,0,1,0-1.609.065v3.079l-3.979-.025a.809.809,0,0,0-.8.693l-.489,3.509a15.787,15.787,0,0,0-1.715.769l-2.184-1.676v-2.585a.8.8,0,0,0-.235-.569l-5.418-5.418a.8.8,0,0,0-.569-.235h-3.125a3.1,3.1,0,1,0-.034,1.609h2.826l4.947,4.946v1.774a.79.79,0,0,0-.075.061l-5.7,5.629a.8.8,0,0,0-.077,1.057l2.413,3.195c-.188.437-.357.882-.5,1.331l-3.956.519a.8.8,0,0,0-.7.792l-.015,2.241h-3.642a3.1,3.1,0,1,0-.068,1.609h3.7l-.027,4.161a.8.8,0,0,0,.693.8l4.326.6c.13.331.273.659.427.984l-2.632,3.429a.8.8,0,0,0,.065,1.055l5.622,5.7v1.944l-4.946,4.946h-2.826a3.11,3.11,0,1,0,.034,1.609h3.125a.8.8,0,0,0,.569-.236l5.417-5.418a.8.8,0,0,0,.235-.569v-2.607l2.989-2.257c.312.145.628.28.947.4l.565,4.312a.8.8,0,0,0,.792.7l3.087.02v3.343a3.109,3.109,0,1,0,1.609-.065v-3.268l3.315.021h.005a.8.8,0,0,0,.8-.693l.575-4.118c.414-.138.824-.295,1.227-.469l2.72,2.089c0,.015,0,.03,0,.045V509.8a.806.806,0,0,0,.235.569l5.417,5.418a.8.8,0,0,0,.569.236h3.219a3.1,3.1,0,1,0-.085-1.609h-2.8l-4.946-4.946v-2.124l5.646-5.573a.805.805,0,0,0,.077-1.057L2256,497.748a15.578,15.578,0,0,0,.727-1.61l3.56-.468a.805.805,0,0,0,.7-.792l.027-4.208h4.143a3.106,3.106,0,1,0,2.962-4.04Zm-4.771-21.484a1.5,1.5,0,1,1-1.5,1.5A1.5,1.5,0,0,1,2263.351,465.146Zm-22.562.19a1.5,1.5,0,1,1,1.5,1.5A1.5,1.5,0,0,1,2240.789,465.336Zm-20.713,2.8a1.5,1.5,0,1,1,1.5-1.5A1.5,1.5,0,0,1,2220.076,468.141Zm-4.533,23.093a1.5,1.5,0,1,1,1.5-1.5A1.5,1.5,0,0,1,2215.543,491.234Zm4.383,25.426a1.5,1.5,0,1,1,1.5-1.5A1.5,1.5,0,0,1,2219.926,516.659Zm23.167-.1a1.5,1.5,0,1,1-1.5-1.5A1.5,1.5,0,0,1,2243.094,516.556Zm20.21-2.989a1.5,1.5,0,1,1-1.5,1.5A1.5,1.5,0,0,1,2263.3,513.567Zm-3.919-19.4-3.347.44a.8.8,0,0,0-.654.533,14.044,14.044,0,0,1-1.035,2.284.806.806,0,0,0,.059.88l2.128,2.819-4.7,4.642-3.037-2.333a.821.821,0,0,0-.833-.09,14,14,0,0,1-1.949.742.8.8,0,0,0-.568.66l-.547,3.924-6.606-.042-.537-4.1a.806.806,0,0,0-.552-.661,13.607,13.607,0,0,1-1.654-.707.8.8,0,0,0-.849.075l-3.366,2.542-4.64-4.7,2.511-3.27a.805.805,0,0,0,.077-.859,13.926,13.926,0,0,1-.73-1.675.8.8,0,0,0-.658-.559l-4.1-.572.043-6.606,3.773-.5a.8.8,0,0,0,.668-.574,13.971,13.971,0,0,1,.772-2.047.805.805,0,0,0-.086-.827l-2.276-3.013,4.7-4.642,2.67,2.051a.8.8,0,0,0,.887.061,14.148,14.148,0,0,1,2.384-1.073.806.806,0,0,0,.536-.65l.459-3.292,6.606.042.4,3.021a.8.8,0,0,0,.575.669,13.974,13.974,0,0,1,2.676,1.08.8.8,0,0,0,.86-.069l2.449-1.849,4.642,4.7-1.858,2.42a.805.805,0,0,0-.075.862,14.026,14.026,0,0,1,1.048,2.642.8.8,0,0,0,.663.578l3.125.436Zm8.737-2.933a1.5,1.5,0,1,1,1.5-1.5A1.5,1.5,0,0,1,2268.122,491.234Z" fill="#34054d"/>
      </g>
    </g>
  </g>
</svg>
