<svg xmlns="http://www.w3.org/2000/svg" xmlns:xlink="http://www.w3.org/1999/xlink" width="113.138" height="113.138" viewBox="0 0 113.138 113.138">
  <defs>
    <linearGradient id="linear-gradient" y1="0.5" x2="1" y2="0.5" gradientUnits="objectBoundingBox">
      <stop offset="0" stop-color="#374ded"/>
      <stop offset="1" stop-color="#6e50ff"/>
    </linearGradient>
  </defs>
  <g id="Group_1102405" data-name="Group 1102405" transform="translate(208.86 1222.052)">
    <circle id="Ellipse_11543" data-name="Ellipse 11543" cx="41.247" cy="41.247" r="41.247" transform="translate(-193.538 -1206.73)" opacity="0.3" fill="url(#linear-gradient)"/>
    <circle id="Ellipse_11544" data-name="Ellipse 11544" cx="45.523" cy="45.523" r="45.523" transform="matrix(0.973, -0.23, 0.23, 0.973, -207.056, -1199.329)" fill="none" stroke="#a01f4e" stroke-miterlimit="10" stroke-width="3"/>
    <g id="Group_1102403" data-name="Group 1102403" transform="translate(-72.044 -948.813)">
      <path id="Path_876653" data-name="Path 876653" d="M156.833,32.147h0a2.408,2.408,0,0,0-.243-.45,1.324,1.324,0,0,0-.443-.4,1.5,1.5,0,0,0-1.349,0,1.305,1.305,0,0,0-.445.41,2.762,2.762,0,0,0-.267.528l-1.978,5.026c-.078.193-.133.341-.168.454a1.364,1.364,0,0,0-.065.407.971.971,0,0,0,.32.712,1.04,1.04,0,0,0,.728.3.883.883,0,0,0,.749-.331,3.364,3.364,0,0,0,.386-.8l.246-.66h2.344l.245.643,0,.009q.068.166.164.383a1.823,1.823,0,0,0,.223.4.958.958,0,0,0,.326.264,1,1,0,0,0,.452.1,1.042,1.042,0,0,0,.751-.311.993.993,0,0,0,.311-.708,2.507,2.507,0,0,0-.242-.89L157.05,32.7C156.964,32.474,156.891,32.288,156.833,32.147Zm-.841,3.384h-1.047l.519-1.446Z" transform="translate(-238.135 -250.491)" fill="#fff"/>
      <path id="Path_876654" data-name="Path 876654" d="M234.822,31.472a1.285,1.285,0,0,0-.292.894V37.9a1.287,1.287,0,0,0,.295.9,1.024,1.024,0,0,0,.777.338,1.045,1.045,0,0,0,.79-.334,1.285,1.285,0,0,0,.3-.9v-5.53a1.275,1.275,0,0,0-.3-.9,1.049,1.049,0,0,0-.789-.33A1.026,1.026,0,0,0,234.822,31.472Z" transform="translate(-313.177 -250.491)" fill="#fff"/>
      <path id="Path_876655" data-name="Path 876655" d="M-54.015-204.361a2.731,2.731,0,0,0-2.586,1.828l-10.105-.091-6.4-4.8,2.354-1.345a.968.968,0,0,0,.36-1.319.968.968,0,0,0-1.319-.36L-80.7-205.31l-8.523-5.053v-9.582l8.443-4.738,8.584,4.87v5.6a.968.968,0,0,0,.967.967.968.968,0,0,0,.967-.967v-.629h4.622v6.516a.968.968,0,0,0,.967.967h2.9a2.744,2.744,0,0,0,2.567,1.776,2.746,2.746,0,0,0,2.743-2.743,2.746,2.746,0,0,0-2.743-2.743,2.744,2.744,0,0,0-2.567,1.776h-1.931v-5.549h7.5A2.756,2.756,0,0,0-53.56-212.8a2.746,2.746,0,0,0,2.743-2.743,2.746,2.746,0,0,0-2.743-2.743,2.727,2.727,0,0,0-2.447,1.505h-7.7v-5.007h1.844a2.755,2.755,0,0,0,2.654,2.051,2.746,2.746,0,0,0,2.743-2.743,2.746,2.746,0,0,0-2.743-2.743,2.728,2.728,0,0,0-2.445,1.5h-3.02a.968.968,0,0,0-.967.967v5.974h-4.622v-3.6a.968.968,0,0,0-.49-.841l-2.728-1.548,6.775-5.081,10.105-.091a2.731,2.731,0,0,0,2.586,1.828,2.746,2.746,0,0,0,2.743-2.743,2.746,2.746,0,0,0-2.743-2.743,2.757,2.757,0,0,0-2.546,1.724l-9.5.086v-3.921a2.744,2.744,0,0,0,1.776-2.567,2.746,2.746,0,0,0-2.743-2.743,2.746,2.746,0,0,0-2.743,2.743A2.744,2.744,0,0,0-68-233.708v4.414l-6.927,5.2a.96.96,0,0,0-.288.351L-79.88-226.4v-6.084h2.346a2.765,2.765,0,0,0,2.452,1.517,2.746,2.746,0,0,0,2.743-2.743,2.746,2.746,0,0,0-2.743-2.743,2.759,2.759,0,0,0-2.65,2.035H-79.88v-4.952a2.775,2.775,0,0,0,1.82-2.613,2.79,2.79,0,0,0-2.787-2.787,2.79,2.79,0,0,0-2.787,2.787,2.775,2.775,0,0,0,1.82,2.613v4.952h-2.222a2.759,2.759,0,0,0-2.65-2.035,2.746,2.746,0,0,0-2.743,2.743,2.746,2.746,0,0,0,2.743,2.743,2.765,2.765,0,0,0,2.453-1.517h2.42v6.157l-4.427,2.484a.966.966,0,0,0-.24-.261l-6.927-5.2v-4.414a2.745,2.745,0,0,0,1.776-2.567,2.746,2.746,0,0,0-2.743-2.743,2.746,2.746,0,0,0-2.743,2.743,2.744,2.744,0,0,0,1.776,2.567v3.921l-9.521-.086a2.728,2.728,0,0,0-2.529-1.681,2.746,2.746,0,0,0-2.743,2.743,2.746,2.746,0,0,0,2.743,2.743,2.76,2.76,0,0,0,2.6-1.87l10.091.091,6.678,5.009-2.642,1.482a.968.968,0,0,0-.494.843v4.552h-4.431v-6.516a.968.968,0,0,0-.967-.967h-2.9a2.744,2.744,0,0,0-2.567-1.776,2.746,2.746,0,0,0-2.743,2.743,2.746,2.746,0,0,0,2.743,2.743,2.744,2.744,0,0,0,2.567-1.776h1.931v5.549h-7.5a2.756,2.756,0,0,0-2.653-2.047,2.746,2.746,0,0,0-2.743,2.743,2.746,2.746,0,0,0,2.743,2.743,2.727,2.727,0,0,0,2.447-1.505h7.7v5.007h-1.844a2.755,2.755,0,0,0-2.654-2.051,2.746,2.746,0,0,0-2.743,2.743,2.746,2.746,0,0,0,2.743,2.743,2.728,2.728,0,0,0,2.445-1.5h3.02a.968.968,0,0,0,.967-.967v-5.974h4.431v4.213a.971.971,0,0,0,.474.832l2.49,1.476-6.506,4.88-10.091.091a2.76,2.76,0,0,0-2.6-1.87,2.746,2.746,0,0,0-2.743,2.743,2.746,2.746,0,0,0,2.743,2.743,2.728,2.728,0,0,0,2.529-1.681l9.521-.086v3.921a2.744,2.744,0,0,0-1.776,2.567,2.746,2.746,0,0,0,2.743,2.743,2.746,2.746,0,0,0,2.743-2.743,2.745,2.745,0,0,0-1.776-2.567v-4.414l6.927-5.2a.956.956,0,0,0,.081-.068l4.476,2.654v6.28H-84.27a2.765,2.765,0,0,0-2.453-1.517,2.746,2.746,0,0,0-2.743,2.743,2.746,2.746,0,0,0,2.743,2.743,2.759,2.759,0,0,0,2.65-2.035h2.149v4.952a2.775,2.775,0,0,0-1.82,2.613,2.79,2.79,0,0,0,2.787,2.787,2.79,2.79,0,0,0,2.787-2.787,2.775,2.775,0,0,0-1.82-2.613v-4.952h2.222a2.759,2.759,0,0,0,2.65,2.035,2.746,2.746,0,0,0,2.743-2.743,2.746,2.746,0,0,0-2.743-2.743,2.765,2.765,0,0,0-2.453,1.517h-2.42v-5.984l5.055-2.889.009.007,6.927,5.2v4.414a2.744,2.744,0,0,0-1.776,2.567,2.746,2.746,0,0,0,2.743,2.743,2.746,2.746,0,0,0,2.743-2.743,2.744,2.744,0,0,0-1.776-2.567v-3.921l9.5.086a2.757,2.757,0,0,0,2.546,1.724,2.746,2.746,0,0,0,2.743-2.743A2.746,2.746,0,0,0-54.015-204.361Zm0,3.552a.81.81,0,0,1-.809-.809.81.81,0,0,1,.809-.809.81.81,0,0,1,.809.809A.81.81,0,0,1-54.015-200.809Zm-13.017,7.422a.81.81,0,0,1-.809-.809.81.81,0,0,1,.809-.809.81.81,0,0,1,.809.809A.81.81,0,0,1-67.032-193.387Zm-13.925,6.233a.854.854,0,0,1-.853-.853.854.854,0,0,1,.853-.853.854.854,0,0,1,.853.853A.853.853,0,0,1-80.957-187.154Zm-13.418-6.233a.81.81,0,0,1-.809-.809.81.81,0,0,1,.809-.809.81.81,0,0,1,.809.809A.81.81,0,0,1-94.375-193.387Zm13.528-49.444a.854.854,0,0,1,.853.853.854.854,0,0,1-.853.853.854.854,0,0,1-.853-.853A.853.853,0,0,1-80.847-242.831Zm21.638,33.7a.81.81,0,0,1,.809.809.81.81,0,0,1-.809.809.81.81,0,0,1-.809-.809A.81.81,0,0,1-59.209-209.135Zm5.65-7.212a.81.81,0,0,1,.809.809.81.81,0,0,1-.809.809.81.81,0,0,1-.809-.809A.81.81,0,0,1-53.56-216.348Zm-5.65-6.937a.81.81,0,0,1,.809.809.81.81,0,0,1-.809.809.81.81,0,0,1-.809-.809A.81.81,0,0,1-59.209-223.284Zm-7.823-13.8a.81.81,0,0,1,.809.809.81.81,0,0,1-.809.809.81.81,0,0,1-.809-.809A.81.81,0,0,1-67.032-237.084Zm13.017,7.422a.81.81,0,0,1,.809.809.81.81,0,0,1-.809.809.81.81,0,0,1-.809-.809A.81.81,0,0,1-54.015-229.662Zm-21.066-4.853a.81.81,0,0,1,.809.809.81.81,0,0,1-.809.809.81.81,0,0,1-.809-.809A.81.81,0,0,1-75.081-234.514Zm-11.6,1.618a.81.81,0,0,1-.809-.809.81.81,0,0,1,.809-.809.81.81,0,0,1,.809.809A.81.81,0,0,1-86.686-232.9Zm-7.689-4.188a.81.81,0,0,1,.809.809.81.81,0,0,1-.809.809.81.81,0,0,1-.809-.809A.81.81,0,0,1-94.375-237.084ZM-107.393-228a.81.81,0,0,1-.809-.809.81.81,0,0,1,.809-.809.81.81,0,0,1,.809.809A.81.81,0,0,1-107.393-228Zm5.37,6.335a.81.81,0,0,1-.809-.809.81.81,0,0,1,.809-.809.81.81,0,0,1,.809.809A.81.81,0,0,1-102.023-221.666Zm-5.65,7.212a.81.81,0,0,1-.809-.809.81.81,0,0,1,.809-.809.81.81,0,0,1,.809.809A.81.81,0,0,1-107.673-214.454Zm5.65,6.937a.81.81,0,0,1-.809-.809.81.81,0,0,1,.809-.809.81.81,0,0,1,.809.809A.81.81,0,0,1-102.023-207.517Zm-5.37,6.666a.81.81,0,0,1-.809-.809.81.81,0,0,1,.809-.809.81.81,0,0,1,.809.809A.81.81,0,0,1-107.393-200.851Zm20.67,5.381a.81.81,0,0,1-.809-.809.81.81,0,0,1,.809-.809.81.81,0,0,1,.809.809A.81.81,0,0,1-86.723-195.471Zm11.6-1.618a.81.81,0,0,1,.809.809.81.81,0,0,1-.809.809.81.81,0,0,1-.809-.809A.81.81,0,0,1-75.118-197.089Z" fill="#fff"/>
    </g>
  </g>
</svg>
