<svg xmlns="http://www.w3.org/2000/svg" xmlns:xlink="http://www.w3.org/1999/xlink" width="98.579" height="98.578" viewBox="0 0 98.579 98.578">
  <defs>
    <clipPath id="clip-path">
      <rect id="Rectangle_401223" data-name="Rectangle 401223" width="98.579" height="98.578" transform="translate(0)" fill="#bfa9fe"/>
    </clipPath>
    <clipPath id="clip-path-2">
      <rect id="Rectangle_401223-2" data-name="Rectangle 401223" width="88.117" height="88.116" fill="#d7c9fe"/>
    </clipPath>
  </defs>
  <g id="Group_1107073" data-name="Group 1107073" transform="translate(-1104.796 -1615.097)">
    <g id="Group_1102154" data-name="Group 1102154" transform="translate(183.463 1204.092)">
      <g id="Group_1099654" data-name="Group 1099654" transform="translate(921.333 411.006)">
        <g id="Group_1099652" data-name="Group 1099652" transform="translate(0 0)" clip-path="url(#clip-path)">
          <path id="Path_873521" data-name="Path 873521" d="M98.579,76.737a21.9,21.9,0,0,1-21.84,21.84H21.84A21.9,21.9,0,0,1,0,76.737V21.84A21.9,21.9,0,0,1,21.84,0h54.9a21.9,21.9,0,0,1,21.84,21.841Z" transform="translate(0)" fill="#bfa9fe"/>
        </g>
      </g>
      <g id="Group_1099659" data-name="Group 1099659" transform="translate(926.103 416.728)">
        <g id="Group_1099652-2" data-name="Group 1099652" transform="translate(0 0)" clip-path="url(#clip-path-2)">
          <path id="Path_873521-2" data-name="Path 873521" d="M88.117,68.594A19.58,19.58,0,0,1,68.595,88.116H19.523A19.58,19.58,0,0,1,0,68.594V19.522A19.58,19.58,0,0,1,19.523,0H68.595A19.58,19.58,0,0,1,88.117,19.523Z" fill="#d7c9fe"/>
        </g>
      </g>
    </g>
    <g id="Group_1102155" data-name="Group 1102155" transform="translate(1120.738 1630.901)">
      <rect id="Rectangle_401104" data-name="Rectangle 401104" width="68" height="69" transform="translate(0.059 -0.804)" fill="none"/>
      <g id="Group_1103999" data-name="Group 1103999" transform="translate(-3648.588 -2350.76)">
        <path id="Path_878287" data-name="Path 878287" d="M3805.466,2394.415c-3.184,0-6.369-.008-9.553.026-.934.01-1.279-.356-1.278-1.288q.025-21.168,0-42.336c0-.712.1-1.179.989-1.162,2.423.047,4.848.035,7.272.047a2.147,2.147,0,0,1,.361,1.649c-.034,10.277.094,20.555-.062,30.83a5.061,5.061,0,0,1-.247,1.378,11.153,11.153,0,0,0,1.874,9.549C3805.1,2393.5,3805.58,2393.821,3805.466,2394.415Z" transform="translate(-114.23)" fill="#065564"/>
        <path id="Path_878288" data-name="Path 878288" d="M3732.609,2441.829a1.285,1.285,0,0,1-.936.167c-2.9,0-5.792-.036-8.687-.009-.923.009-1.289-.3-1.287-1.26q.033-14.551,0-29.1c0-.9.293-1.2,1.192-1.183,2.424.053,4.85.028,7.275.034a2.328,2.328,0,0,1,.163,1.169c-.018,9.27,0,18.54-.008,27.81,0,.326.016.652.01.978-.011.673.294.989.977,1A1.553,1.553,0,0,1,3732.609,2441.829Z" transform="translate(-57.158 -47.562)" fill="#ffb12d"/>
        <path id="Path_878289" data-name="Path 878289" d="M3659.715,2459.967c-.274.352-.665.222-1.01.223-2.9.005-5.792-.024-8.687,0-.958.01-1.374-.321-1.371-1.324q.033-11.945.007-23.891c0-.747.154-1.3,1.047-1.3l9.447-.011a.614.614,0,0,1,.576.226,1.577,1.577,0,0,1-1.319.35c-.86-.031-1.165.4-1.122,1.19.012.216,0,.434,0,.65q0,10.843,0,21.685c0,1.633,0,1.634,1.653,1.874A1.149,1.149,0,0,1,3659.715,2459.967Z" transform="translate(0 -65.737)" fill="#00d5e4"/>
        <path id="Path_878290" data-name="Path 878290" d="M3832.923,2483.4a11.809,11.809,0,0,1-2.571-11.912,8.707,8.707,0,0,1,2.3-4.257,1.3,1.3,0,0,1,.908-.5,12.516,12.516,0,0,1,5.034-2.706,3.875,3.875,0,0,1,2.955-.6,11.583,11.583,0,0,1,7.888,7.59,11.9,11.9,0,0,1-9.115,15.592c-.5.095-1-.061-1.486.078A11.367,11.367,0,0,1,3832.923,2483.4Z" transform="translate(-141.687 -88.984)" fill="#12263f"/>
        <path id="Path_878291" data-name="Path 878291" d="M3873.482,2412.4a11.266,11.266,0,0,0-3.08.311q-.008-6.947-.021-13.892c0-.568.067-1,.79-1,3.255,0,6.511-.016,9.767-.015.12,0,.24.122.36.188a1.278,1.278,0,0,1-1.1.355c-.927-.039-1.16.453-1.156,1.279.015,2.855.038,5.711-.006,8.565a28.017,28.017,0,0,1-.161,5.291c-.383.557-.838.229-1.249.072A35.763,35.763,0,0,0,3873.482,2412.4Z" transform="translate(-173.498 -37.672)" fill="#a01f4e"/>
        <path id="Path_878292" data-name="Path 878292" d="M3762.266,2441.825c-.108-.008-.216-.021-.325-.024-2.337-.055-2.337-.055-2.337-2.45q0-13.7,0-27.4a2.762,2.762,0,0,1,.217-1.484c3.44-.062,2.779-.34,2.789,2.648.033,9.108.015,18.216,0,27.323C3762.613,2440.916,3762.82,2441.476,3762.266,2441.825Z" transform="translate(-86.816 -47.558)" fill="#eec150"/>
        <path id="Path_878293" data-name="Path 878293" d="M3835.808,2377.759a13.368,13.368,0,0,0-3.207,4.76l.006-32.8c3.732-.054,2.984-.453,3,2.87.043,7.971.012,15.944.021,23.915C3835.631,2376.923,3835.494,2377.377,3835.808,2377.759Z" transform="translate(-143.937 -0.016)" fill="#1a6775"/>
        <path id="Path_878294" data-name="Path 878294" d="M3689.457,2460.751c-2.8.044-2.8.044-2.8-2.726v-21.931c0-1.424,0-1.424,1.4-1.425.471,0,.941.005,1.412.008a1.977,1.977,0,0,1,.22,1.258q0,11.781,0,23.562A1.881,1.881,0,0,1,3689.457,2460.751Z" transform="translate(-29.743 -66.522)" fill="#3ecad4"/>
        <path id="Path_878295" data-name="Path 878295" d="M3874.43,2464.885a12.461,12.461,0,0,1,5.2,1.224,4.163,4.163,0,0,1,2.793,2.01,12.146,12.146,0,0,1,3.488,8.263,11.418,11.418,0,0,1-3.263,8.219c-.242.252-.59.437-.622.848a2.567,2.567,0,0,1-1.747,1.134,12.5,12.5,0,0,1-7.313,1.561,4.233,4.233,0,0,1-1.374-.287c1.067-.287,2.151-.525,3.2-.869a11.491,11.491,0,0,0,7.7-10.562,11.721,11.721,0,0,0-3.381-8.706A13.5,13.5,0,0,0,3874.43,2464.885Z" transform="translate(-174.445 -90.158)" fill="#727997"/>
        <path id="Path_878296" data-name="Path 878296" d="M3929.32,2589.178a3.356,3.356,0,0,1-4.421-.973c-1.147-1.484-2.258-3-3.355-4.519a3.646,3.646,0,0,1-.08-4.082.587.587,0,0,1,.263-.214,3.713,3.713,0,0,1,3.811,1.467c1.088,1.339,2.086,2.751,3.119,4.135A4.354,4.354,0,0,1,3929.32,2589.178Z" transform="translate(-213.01 -179.691)" fill="#65002f"/>
        <path id="Path_878297" data-name="Path 878297" d="M3911.249,2416.191l-2.794-2.01c0-4.778.033-9.557-.022-14.335-.012-1.057.3-1.446,1.337-1.3a9.412,9.412,0,0,0,1.3,0c.237.126.21.357.21.567Q3911.268,2407.652,3911.249,2416.191Z" transform="translate(-203.271 -38.231)" fill="#9a3e60"/>
        <path id="Path_878298" data-name="Path 878298" d="M3786.427,2643.673c0-3.151,0-3.151,3.122-3.151.688,0,1.377.031,2.063-.008.773-.044,1.153.256,1.146,1.052-.014,1.411-.009,2.822,0,4.234,0,.713-.292,1.056-1.046,1.039-1.411-.031-2.823-.038-4.233,0-.821.024-1.1-.331-1.057-1.105C3786.457,2645.05,3786.427,2644.36,3786.427,2643.673Z" transform="translate(-107.798 -227.583)" fill="#ffb12d"/>
        <path id="Path_878299" data-name="Path 878299" d="M3671.661,2591.046c-.794,0-1.589-.014-2.383,0-.552.012-.783-.231-.778-.778q.017-2.328,0-4.657c-.005-.618.356-.845.884-.851,1.48-.017,2.96-.024,4.44.006a.906.906,0,0,1,1,1.011q-.025,2.166,0,4.333c.009.71-.332.961-1,.938C3673.106,2591.028,3672.383,2591.047,3671.661,2591.046Z" transform="translate(-15.534 -183.953)" fill="#00d5e4"/>
        <path id="Path_878300" data-name="Path 878300" d="M3789.527,2591.193c-.724,0-1.449-.029-2.17.008-.763.038-1.022-.3-1.006-1.035.032-1.41.036-2.822,0-4.231-.02-.767.326-1.034,1.038-1.027q2.116.021,4.231,0c.771-.006,1.109.331,1.089,1.122-.035,1.337-.038,2.677,0,4.014.024.822-.252,1.217-1.123,1.158C3790.9,2591.156,3790.214,2591.193,3789.527,2591.193Z" transform="translate(-107.747 -184.076)" fill="#a01f4e"/>
        <path id="Path_878301" data-name="Path 878301" d="M3668.588,2643.67c0-3.1,0-3.1,3.051-3.1.723,0,1.446.006,2.168,0,.707-.007,1.087.321,1.089,1.04q.005,2.114,0,4.228c0,.72-.382,1.043-1.089,1.04-1.445-.007-2.892-.014-4.337,0-.66.008-.9-.31-.886-.934C3668.6,2645.189,3668.589,2644.429,3668.588,2643.67Z" transform="translate(-15.6 -227.63)" fill="#065564"/>
        <path id="Path_878302" data-name="Path 878302" d="M3932.094,2585.066c-.258-.176-.236-.4-.153-.67a3.6,3.6,0,0,0-.682-3.266c-.876-1.231-1.863-2.386-2.709-3.637a4.221,4.221,0,0,0-4.127-2.031c.084-.856.675-1.143,1.415-1.264a4.059,4.059,0,0,1,4.7,2.021c.838,1.267,1.823,2.435,2.7,3.678A3.382,3.382,0,0,1,3932.094,2585.066Z" transform="translate(-215.784 -175.579)" fill="#65002f"/>
        <path id="Path_878303" data-name="Path 878303" d="M3716.786,2585.531c.833,0,1.666-.008,2.5,0a.975.975,0,0,1,1.085.967.985.985,0,0,1-1.029,1.146q-2.6.073-5.211,0a1,1,0,0,1-1.048-1.139,1.055,1.055,0,0,1,1.207-.983C3715.121,2585.538,3715.954,2585.53,3716.786,2585.531Z" transform="translate(-50.413 -184.561)" fill="#223b6c"/>
        <path id="Path_878304" data-name="Path 878304" d="M3834.868,2585.536c.832,0,1.664,0,2.5,0,.671,0,1.114.284,1.149,1.008a.983.983,0,0,1-1.059,1.112c-1.7.043-3.4.039-5.1,0a1,1,0,0,1-1.107-1.078c.022-.76.514-1.056,1.234-1.05C3833.276,2585.541,3834.072,2585.536,3834.868,2585.536Z" transform="translate(-142.876 -184.567)" fill="#223b6c"/>
        <path id="Path_878305" data-name="Path 878305" d="M3716.72,2661.848c-.76,0-1.52-.011-2.279,0s-1.337-.288-1.33-1.082.619-1.06,1.361-1.056c1.555.008,3.11,0,4.665.006.685,0,1.24.235,1.257,1.029.018.854-.545,1.1-1.288,1.1Z" transform="translate(-50.441 -242.608)" fill="#223b6c"/>
        <path id="Path_878306" data-name="Path 878306" d="M3834.816,2661.834c-.794,0-1.589.01-2.384,0-.715-.012-1.2-.343-1.18-1.105.018-.715.518-1.006,1.166-1.014q2.437-.029,4.875,0c.683.006,1.22.251,1.221,1.056s-.507,1.057-1.206,1.066C3836.477,2661.843,3835.646,2661.834,3834.816,2661.834Z" transform="translate(-142.881 -242.596)" fill="#223b6c"/>
        <path id="Path_878307" data-name="Path 878307" d="M3716.775,2606.3c-.831,0-1.661-.013-2.491,0-.7.015-1.157-.322-1.187-.983-.034-.739.471-1.089,1.192-1.091,1.66-.005,3.321-.009,4.981,0,.668.006,1.122.319,1.114,1.041s-.432,1.025-1.12,1.024Q3718.02,2606.294,3716.775,2606.3Z" transform="translate(-50.428 -199.189)" fill="#213a6b"/>
        <path id="Path_878308" data-name="Path 878308" d="M3716.687,2643.309c-.829,0-1.658-.008-2.487,0a1.02,1.02,0,1,1-.043-2.034c1.73-.01,3.461-.017,5.191,0a.93.93,0,0,1,1.035,1c0,.713-.4,1.035-1.1,1.032C3718.418,2643.306,3717.552,2643.309,3716.687,2643.309Z" transform="translate(-50.425 -228.175)" fill="#21396b"/>
        <path id="Path_878309" data-name="Path 878309" d="M3834.844,2606.3c-.829,0-1.658,0-2.487,0a.972.972,0,0,1-1.1-1.045.951.951,0,0,1,1.039-1.008c1.729-.022,3.459-.026,5.189,0a1.028,1.028,0,1,1-.042,2.054C3836.574,2606.3,3835.709,2606.3,3834.844,2606.3Z" transform="translate(-142.881 -199.194)" fill="#20396b"/>
        <path id="Path_878310" data-name="Path 878310" d="M3834.906,2643.317q-1.3,0-2.608,0a1.011,1.011,0,1,1-.041-2.021c1.774-.021,3.549-.025,5.322.011a1.005,1.005,0,0,1-.066,2.008C3836.645,2643.324,3835.775,2643.317,3834.906,2643.317Z" transform="translate(-142.875 -228.186)" fill="#20396b"/>
        <path id="Path_878311" data-name="Path 878311" d="M3915.745,2562.766c-.457.438-1.118.647-1.416,1.263a.57.57,0,0,0-.186.03l-2.621-3.488a5.938,5.938,0,0,1,1.747-1.134Z" transform="translate(-205.69 -164.147)" fill="#223a6c"/>
        <path id="Path_878312" data-name="Path 878312" d="M3854.419,2499.057a6.986,6.986,0,0,1-3.393-7.952,7.184,7.184,0,0,1,6.89-5.286c1.8.164,3.782,3.094,3.982,5.545a7.336,7.336,0,0,1-4.542,7.525A3.72,3.72,0,0,1,3854.419,2499.057Z" transform="translate(-158.16 -106.544)" fill="#b1e4fa"/>
        <path id="Path_878313" data-name="Path 878313" d="M3867.513,2499.042a6.9,6.9,0,0,0,6.916-4.937,7.126,7.126,0,0,0-3.419-8.3,7.071,7.071,0,0,1,6.676,4.637,7.245,7.245,0,0,1-1.938,7.818A7,7,0,0,1,3867.513,2499.042Z" transform="translate(-171.254 -106.529)" fill="#90d9f9"/>
      </g>
    </g>
  </g>
</svg>
