<svg xmlns="http://www.w3.org/2000/svg" xmlns:xlink="http://www.w3.org/1999/xlink" width="148.182" height="148.182" viewBox="0 0 148.182 148.182">
  <defs>
    <clipPath id="clip-path">
      <rect id="Rectangle_400938" data-name="Rectangle 400938" width="146.193" height="146.193" fill="none"/>
    </clipPath>
    <clipPath id="clip-path-2">
      <rect id="Rectangle_400938-2" data-name="Rectangle 400938" width="148.182" height="148.182" fill="none"/>
    </clipPath>
    <clipPath id="clip-path-3">
      <path id="Path_873460" data-name="Path 873460" d="M0,1.651A1.7,1.7,0,0,0,1.755,3.3a1.7,1.7,0,0,0,1.754-1.65A1.7,1.7,0,0,0,1.755,0,1.7,1.7,0,0,0,0,1.651" transform="translate(0)" fill="#065564"/>
    </clipPath>
    <clipPath id="clip-path-4">
      <path id="Path_873468" data-name="Path 873468" d="M0,1.65A1.7,1.7,0,0,0,1.756,3.3,1.7,1.7,0,0,0,3.51,1.65,1.7,1.7,0,0,0,1.756,0,1.7,1.7,0,0,0,0,1.65" transform="translate(0 0)" fill="#065564"/>
    </clipPath>
    <clipPath id="clip-path-5">
      <path id="Path_873469" data-name="Path 873469" d="M0,1.65A1.7,1.7,0,0,0,1.755,3.3,1.7,1.7,0,0,0,3.509,1.65,1.7,1.7,0,0,0,1.755,0,1.7,1.7,0,0,0,0,1.65" transform="translate(0 0)" fill="#065564"/>
    </clipPath>
    <clipPath id="clip-path-6">
      <path id="Path_873470" data-name="Path 873470" d="M0,1.65A1.7,1.7,0,0,0,1.755,3.3,1.7,1.7,0,0,0,3.51,1.65,1.7,1.7,0,0,0,1.755,0,1.7,1.7,0,0,0,0,1.65" transform="translate(0 0)" fill="#065564"/>
    </clipPath>
    <clipPath id="clip-path-8">
      <path id="Path_873473" data-name="Path 873473" d="M0,1.65A1.7,1.7,0,0,0,1.756,3.3,1.7,1.7,0,0,0,3.509,1.65,1.7,1.7,0,0,0,1.756,0,1.7,1.7,0,0,0,0,1.65" transform="translate(0 0)" fill="#065564"/>
    </clipPath>
    <clipPath id="clip-path-12">
      <path id="Path_873466" data-name="Path 873466" d="M0,1.651A1.7,1.7,0,0,0,1.756,3.3,1.7,1.7,0,0,0,3.51,1.651,1.7,1.7,0,0,0,1.756,0,1.7,1.7,0,0,0,0,1.651" fill="#065564"/>
    </clipPath>
    <clipPath id="clip-path-21">
      <rect id="Rectangle_401492" data-name="Rectangle 401492" width="79.666" height="79.667" transform="translate(-0.035 0)" fill="#065564" stroke="#707070" stroke-width="1"/>
    </clipPath>
  </defs>
  <g id="Group_1102514" data-name="Group 1102514" transform="translate(23059.332 3814.126)">
    <g id="Group_1102017" data-name="Group 1102017" transform="translate(-1.406 0.822)">
      <g id="Group_1102014" data-name="Group 1102014" transform="translate(-23048.078 -3811.396)">
        <path id="Path_874344" data-name="Path 874344" d="M2243.665,80.614v52.661a6.246,6.246,0,0,0,3.123,5.409l58,33.484a6.245,6.245,0,0,0,6.245,0l58-33.484a6.245,6.245,0,0,0,3.123-5.409V80.614a6.245,6.245,0,0,0-3.123-5.409l-58-33.484a6.245,6.245,0,0,0-6.245,0l-58,33.484A6.246,6.246,0,0,0,2243.665,80.614Z" transform="translate(-2243.665 -32.738)" fill="#065564"/>
        <path id="Path_874345" data-name="Path 874345" d="M2286.509,12.1V72.913a6.245,6.245,0,0,0,3.123,5.409l52.661,30.4a6.245,6.245,0,0,0,6.245,0l52.661-30.4a6.246,6.246,0,0,0,3.123-5.409V12.1A6.246,6.246,0,0,0,2401.2,6.7l-52.661-30.4a6.245,6.245,0,0,0-6.245,0L2289.632,6.7A6.245,6.245,0,0,0,2286.509,12.1Z" transform="translate(-2281.175 24.545)" fill="#f3f9ff"/>
      </g>
      <g id="Group_1100237" data-name="Group 1100237" transform="translate(-23053.012 -3793.332)">
        <g id="Group_1099505" data-name="Group 1099505" transform="translate(2.284 10.636)">
          <g id="Group_1099504" data-name="Group 1099504" transform="translate(0)" clip-path="url(#clip-path-3)">
            <rect id="Rectangle_401140" data-name="Rectangle 401140" width="3.509" height="3.301" transform="translate(0)" fill="#065564"/>
          </g>
        </g>
        <g id="Group_1099521" data-name="Group 1099521" transform="translate(29.48 10.636)">
          <g id="Group_1099520" data-name="Group 1099520" transform="translate(0 0)" clip-path="url(#clip-path-4)">
            <rect id="Rectangle_401148" data-name="Rectangle 401148" width="3.51" height="3.301" transform="translate(0 0)" fill="#065564"/>
          </g>
        </g>
        <g id="Group_1099523" data-name="Group 1099523" transform="translate(20.81 10.636)">
          <g id="Group_1099522" data-name="Group 1099522" transform="translate(0 0)" clip-path="url(#clip-path-5)">
            <rect id="Rectangle_401149" data-name="Rectangle 401149" width="3.509" height="3.301" transform="translate(0 0)" fill="#065564"/>
          </g>
        </g>
        <g id="Group_1099525" data-name="Group 1099525" transform="translate(43.352 0)">
          <g id="Group_1099524" data-name="Group 1099524" clip-path="url(#clip-path-6)">
            <rect id="Rectangle_401150" data-name="Rectangle 401150" width="3.51" height="3.301" transform="translate(0 0)" fill="#065564"/>
          </g>
        </g>
        <g id="Group_1099529" data-name="Group 1099529" transform="translate(34.681 0)">
          <g id="Group_1099528" data-name="Group 1099528" transform="translate(0)" clip-path="url(#clip-path-4)">
            <rect id="Rectangle_401152" data-name="Rectangle 401152" width="3.51" height="3.301" transform="translate(0 0)" fill="#065564"/>
          </g>
        </g>
        <g id="Group_1099531" data-name="Group 1099531" transform="translate(17.341 0)">
          <g id="Group_1099530" data-name="Group 1099530" transform="translate(0)" clip-path="url(#clip-path-8)">
            <rect id="Rectangle_401153" data-name="Rectangle 401153" width="3.509" height="3.301" transform="translate(0 0)" fill="#065564"/>
          </g>
        </g>
        <g id="Group_1099533" data-name="Group 1099533" transform="translate(8.67 0)">
          <g id="Group_1099532" data-name="Group 1099532" clip-path="url(#clip-path-6)">
            <rect id="Rectangle_401154" data-name="Rectangle 401154" width="3.51" height="3.301" transform="translate(0 0)" fill="#065564"/>
          </g>
        </g>
        <g id="Group_1099535" data-name="Group 1099535" transform="translate(0 0)">
          <g id="Group_1099534" data-name="Group 1099534" transform="translate(0)" clip-path="url(#clip-path-4)">
            <rect id="Rectangle_401155" data-name="Rectangle 401155" width="3.51" height="3.301" transform="translate(0 0)" fill="#065564"/>
          </g>
        </g>
      </g>
      <g id="Group_1100238" data-name="Group 1100238" transform="translate(-22960.289 -3700.609)">
        <g id="Group_1099505-2" data-name="Group 1099505" transform="translate(2.284 10.636)">
          <g id="Group_1099504-2" data-name="Group 1099504" transform="translate(0)" clip-path="url(#clip-path-3)">
            <rect id="Rectangle_401140-2" data-name="Rectangle 401140" width="3.509" height="3.301" transform="translate(0)" fill="#065564"/>
          </g>
        </g>
        <g id="Group_1099517" data-name="Group 1099517" transform="translate(46.821 10.636)">
          <g id="Group_1099516" data-name="Group 1099516" transform="translate(0)" clip-path="url(#clip-path-12)">
            <rect id="Rectangle_401146" data-name="Rectangle 401146" width="3.51" height="3.301" transform="translate(0 0)" fill="#065564"/>
          </g>
        </g>
        <g id="Group_1099519" data-name="Group 1099519" transform="translate(38.151 10.636)">
          <g id="Group_1099518" data-name="Group 1099518" transform="translate(0 0)" clip-path="url(#clip-path-6)">
            <rect id="Rectangle_401147" data-name="Rectangle 401147" width="3.51" height="3.301" transform="translate(0 0)" fill="#065564"/>
          </g>
        </g>
        <g id="Group_1099521-2" data-name="Group 1099521" transform="translate(29.48 10.636)">
          <g id="Group_1099520-2" data-name="Group 1099520" transform="translate(0 0)" clip-path="url(#clip-path-4)">
            <rect id="Rectangle_401148-2" data-name="Rectangle 401148" width="3.51" height="3.301" transform="translate(0 0)" fill="#065564"/>
          </g>
        </g>
        <g id="Group_1099523-2" data-name="Group 1099523" transform="translate(20.81 10.636)">
          <g id="Group_1099522-2" data-name="Group 1099522" transform="translate(0 0)" clip-path="url(#clip-path-5)">
            <rect id="Rectangle_401149-2" data-name="Rectangle 401149" width="3.509" height="3.301" transform="translate(0 0)" fill="#065564"/>
          </g>
        </g>
        <g id="Group_1099525-2" data-name="Group 1099525" transform="translate(43.352 0)">
          <g id="Group_1099524-2" data-name="Group 1099524" clip-path="url(#clip-path-6)">
            <rect id="Rectangle_401150-2" data-name="Rectangle 401150" width="3.51" height="3.301" transform="translate(0 0)" fill="#065564"/>
          </g>
        </g>
        <g id="Group_1099529-2" data-name="Group 1099529" transform="translate(34.681 0)">
          <g id="Group_1099528-2" data-name="Group 1099528" transform="translate(0)" clip-path="url(#clip-path-4)">
            <rect id="Rectangle_401152-2" data-name="Rectangle 401152" width="3.51" height="3.301" transform="translate(0 0)" fill="#065564"/>
          </g>
        </g>
        <g id="Group_1099531-2" data-name="Group 1099531" transform="translate(17.341 0)">
          <g id="Group_1099530-2" data-name="Group 1099530" transform="translate(0)" clip-path="url(#clip-path-8)">
            <rect id="Rectangle_401153-2" data-name="Rectangle 401153" width="3.509" height="3.301" transform="translate(0 0)" fill="#065564"/>
          </g>
        </g>
        <g id="Group_1099533-2" data-name="Group 1099533" transform="translate(8.67 0)">
          <g id="Group_1099532-2" data-name="Group 1099532" clip-path="url(#clip-path-6)">
            <rect id="Rectangle_401154-2" data-name="Rectangle 401154" width="3.51" height="3.301" transform="translate(0 0)" fill="#065564"/>
          </g>
        </g>
        <g id="Group_1099535-2" data-name="Group 1099535" transform="translate(0 0)">
          <g id="Group_1099534-2" data-name="Group 1099534" transform="translate(0)" clip-path="url(#clip-path-4)">
            <rect id="Rectangle_401155-2" data-name="Rectangle 401155" width="3.51" height="3.301" transform="translate(0 0)" fill="#065564"/>
          </g>
        </g>
      </g>
      <g id="Mask_Group_1098697" data-name="Mask Group 1098697" transform="translate(-23024.09 -3780.318)" clip-path="url(#clip-path-21)">
        <g id="Group_1103915" data-name="Group 1103915" transform="translate(-1450.456 -1958.292)">
          <path id="Path_878031" data-name="Path 878031" d="M1476.206,1977.7h-4.94c.457,1.467.889,2.858,1.324,4.249,2.287,7.3,4.593,14.6,6.838,21.909a1.257,1.257,0,0,0,1.47,1.045q16.228-.041,32.457-.028c1.781,0,2.237-.349,2.754-2.047.294-.966.581-1.935.885-2.9.219-.692.624-1.256,1.43-1,.751.237.932.848.687,1.6-.407,1.256-.744,2.535-1.184,3.779a3.846,3.846,0,0,1-3.818,2.7c-2.724.02-5.448.007-8.173.008h-1.3c0,.434,0,.737,0,1.04a3.189,3.189,0,0,1-3.25,3.374c-3.385.039-6.771.008-10.157.015-.754,0-1.352-.227-1.366-1.075s.581-1.088,1.338-1.087q4.612.009,9.224,0c.311,0,.7.106.917-.041a8.643,8.643,0,0,0,1.147-1.107c-.39-.369-.762-.761-1.182-1.094-.121-.1-.377-.021-.572-.021q-14.127,0-28.254.007a6.989,6.989,0,0,0-4.1,12.66,7.282,7.282,0,0,0,4.388,1.326q10.741-.024,21.483-.006c.311,0,.623.012.934,0,.784-.032,1.337.3,1.334,1.107,0,.835-.616,1.081-1.37,1.078-1.907-.007-3.814,0-5.721,0h-1.369c.106,2.264-.1,4.267-2.839,4.718.632,2.563.271,4.8-2.119,6.229a4.466,4.466,0,0,1-4.977-.09c-2.224-1.455-2.646-3.6-1.958-6.129-2.708-.437-2.986-2.393-2.823-4.682-3.362.028-6.19-1-8.219-3.708a9.175,9.175,0,0,1-1.838-6.123c.216-4.572,3.61-7.82,9.121-8.618-.093-.4-.158-.807-.279-1.193q-2.57-8.168-5.152-16.333c-.07-.221-.158-.439-.206-.665-.147-.687-.017-1.286.746-1.471s1.157.271,1.368.944q.489,1.556.979,3.11c1.5,4.74,3.043,9.466,4.463,14.23.354,1.188.869,1.7,2.085,1.481a6.331,6.331,0,0,1,.968-.007c-.1-.438-.153-.8-.261-1.14q-4.982-15.9-9.958-31.8a1.648,1.648,0,0,0-1.831-1.373c-2.685.047-5.37.024-8.056.011-.852,0-1.67.125-1.652,1.166.016.963.732,1.237,1.637,1.222,2.023-.032,4.048.02,6.071-.022a1.636,1.636,0,0,1,1.859,1.344c.564,1.979,1.228,3.929,1.848,5.892a6.828,6.828,0,0,1,.189.674c.141.691,0,1.381-.762,1.422a1.619,1.619,0,0,1-1.269-.817c-.641-1.664-1.168-3.377-1.645-5.1-.244-.881-.608-1.263-1.6-1.208-1.746.1-3.5.069-5.252.007a3.335,3.335,0,0,1-3.21-2.721,3.225,3.225,0,0,1,2-3.783,3.913,3.913,0,0,1,1.361-.222q4.436-.029,8.873-.006a3.208,3.208,0,0,1,3.386,2.46c.412,1.254.817,2.512,1.176,3.782a.928.928,0,0,0,1.069.793c1.478-.038,2.96-.069,4.435.01.838.045,1.109-.315,1.374-1.032,2.754-7.467,7.979-12.195,15.777-13.921a21.1,21.1,0,0,1,24.035,13.208c.2.543.389,1.092.614,1.724,2.372,0,4.741-.005,7.111,0,1.561,0,1.94.519,1.48,2.025q-2.654,8.692-5.317,17.38c-.231.757-.527,1.494-1.494,1.221-1.062-.3-.836-1.109-.591-1.9q2.356-7.625,4.684-15.258c.112-.365.187-.741.3-1.21h-5.615c.948,8.429-1.693,15.424-8.517,20.579a20.252,20.252,0,0,1-14.745,3.964C1484.65,2001.2,1474.5,1991.994,1476.206,1977.7Zm32.16,4.694h-10v4.674l8.479,2.2Zm-20.885,6.885,8.51-2.209v-4.661h-10.064Zm-1.57-9.2h10.145v-2.462c0-2.315-.013-2.26-2.176-2.765-2.055-.479-4.081-1.09-6.386-1.715C1486.994,1975.327,1486.475,1977.6,1485.911,1980.074Zm22.479,0c-.557-2.477-1.067-4.748-1.547-6.879l-8.451,2.183v4.7Zm3.5,13.085a18.775,18.775,0,0,0,4.2-10.78h-5.444l-1.911,8.3Zm.006-23.877-3.163,2.482,1.911,8.282h5.448A18.935,18.935,0,0,0,1511.9,1969.285Zm-33.636,13.106a18.749,18.749,0,0,0,4.249,10.808c.489-.418.895-.78,1.314-1.124,1.845-1.514,1.785-1.5,1.193-3.747-.511-1.94-.861-3.922-1.293-5.937Zm4.211-13.1a18.6,18.6,0,0,0-4.2,10.779h5.294c.722-2.694,1.424-5.263,2.078-7.845a.954.954,0,0,0-.359-.728C1484.391,1970.757,1483.459,1970.06,1482.471,1969.293Zm23.271,21.963-7.347-1.935v10.042A21.959,21.959,0,0,0,1505.742,1991.257Zm-7.386-28.183v10.072l7.388-1.96A21.833,21.833,0,0,0,1498.356,1963.074Zm-9.769,8.091,7.38,1.989v-10.091A21.854,21.854,0,0,0,1488.587,1971.164Zm-.01,20.123a21.451,21.451,0,0,0,7.379,8.062V1989.3Zm-2.753,31.977H1475.71c-.383,1.8-.187,2.386.852,2.4,2.759.031,5.519,0,8.279.014.692,0,.991-.334.984-1C1485.82,2024.252,1485.824,2023.828,1485.824,2023.265Zm-2.476,6.7a1.9,1.9,0,0,0-2.028-2.117c-.388,0-.777,0-1.166,0a1.958,1.958,0,0,0-2.116,2.352,2.661,2.661,0,0,0,5.31-.235Zm18.977-30.506a18.265,18.265,0,0,0,8.04-4.682l-2.592-2.053Zm8.069-31.825a18.5,18.5,0,0,0-7.991-4.593l5.369,6.692Zm-23.854,25.094-2.539,2.106a18.778,18.778,0,0,0,7.972,4.6Zm.025-23,5.331-6.678a18.32,18.32,0,0,0-7.908,4.6Z" transform="translate(0)" fill="#065564"/>
          <path id="Path_878032" data-name="Path 878032" d="M1563.237,2189.582c.7,2.537.2,4.732-2.172,6.142a4.455,4.455,0,0,1-5.256-.322c-1.935-1.471-2.326-3.476-1.614-5.878-2.69-.436-3.048-2.374-2.8-4.758-1.2,0-2.279,0-3.357,0-.809.005-1.575-.146-1.536-1.143.034-.895.74-1.049,1.519-1.048q7.706.018,15.412,0c.35,0,.776.1,1.031-.057.378-.238.868-.664.877-1.02s-.448-.859-.825-1.052a3.217,3.217,0,0,0-1.376-.1q-21.308-.005-42.615-.01a10.188,10.188,0,0,1-2.321-.166,4.764,4.764,0,0,1-3.456-5.051,4.627,4.627,0,0,1,4.394-4.229c4.475-.061,8.951-.024,13.427-.031.767,0,1.34.274,1.3,1.125s-.669,1.037-1.409,1.035c-4.164-.006-8.329-.034-12.492.028a4.116,4.116,0,0,0-2.145.674,2.212,2.212,0,0,0-.765,2.62,2.485,2.485,0,0,0,2.206,1.813,8.673,8.673,0,0,0,1.166.02q21.716,0,43.432,0c2.122,0,3.524.966,3.646,2.8a4.568,4.568,0,0,1-.794,2.655,3.041,3.041,0,0,0-.678,1.856C1566.056,2188.086,1565.641,2188.671,1563.237,2189.582Zm.525-4.728h-10.2c-.026.277-.056.467-.061.658-.041,1.609.078,1.733,1.669,1.734,2.445,0,4.891-.036,7.335.018,1.044.023,1.417-.4,1.318-1.382C1563.8,2185.578,1563.787,2185.271,1563.762,2184.854Zm-5.024,4.57c-1.964,0-2.654.515-2.684,2.006a2.64,2.64,0,1,0,5.277.107C1561.362,2190.049,1560.595,2189.425,1558.737,2189.424Z" transform="translate(-46.981 -161.572)" fill="#065564"/>
        </g>
      </g>
    </g>
  </g>
</svg>
