<svg xmlns="http://www.w3.org/2000/svg" xmlns:xlink="http://www.w3.org/1999/xlink" width="400" height="588.252" viewBox="0 0 400 588.252">
  <defs>
    <linearGradient id="linear-gradient" x1="0.5" x2="0.5" y2="1" gradientUnits="objectBoundingBox">
      <stop offset="0" stop-color="#eed"/>
      <stop offset="1" stop-color="#fbf4ec"/>
    </linearGradient>
    <linearGradient id="linear-gradient-2" x1="0.5" x2="0.5" y2="1" gradientUnits="objectBoundingBox">
      <stop offset="0" stop-color="#eed"/>
      <stop offset="1" stop-color="#fff9f2"/>
    </linearGradient>
    <clipPath id="clip-path">
      <path id="Path_611005" data-name="Path 611005" d="M0,0H400V587.252H0Z" fill="url(#linear-gradient)"/>
    </clipPath>
    <clipPath id="clip-path-2">
      <path id="Path_877090" data-name="Path 877090" d="M145.285,231.538c.022-.109.031-.219.045-.33-.718-2.595-4.415-2.552-6.493-3.644a4.446,4.446,0,0,1-1.087-.807c-.042-.042-.083-.083-.122-.126a4.92,4.92,0,0,1-1.205-2.636c-.632-4.178,1.515-7.946,3.359-11.616a1.232,1.232,0,0,0-.218-.283,2.615,2.615,0,0,0-1.84-.445,11.531,11.531,0,0,1-6.651-2.205,19.672,19.672,0,0,1-2.581-2.284c-.46-.471-1.3-2.113-2.006-2.171a.347.347,0,0,0-.173.053c-.826,3.327-.893,6.438-2.887,9.419a10.675,10.675,0,0,1-2.7,2.868,3.944,3.944,0,0,1-2.16,1.084,5.073,5.073,0,0,1-.72.065c-.1.014-.19.041-.291.05a.512.512,0,0,1-.3-.061c-1.5-.065-3.046-.421-4.2.463a3.986,3.986,0,0,0-1.146,1.68c-1.954,4.672-.581,10.756,1.888,14.959a15.9,15.9,0,0,0,8.777,7.171c3.422.957,6.991.148,10.245-1.041,1.428-.522,2.783-1.04,4.086-1.641,3.921-1.811,7.3-3.826,8.329-8.3C145.253,231.69,145.27,231.614,145.285,231.538Z" transform="translate(-110.983 -204.989)" fill="none"/>
    </clipPath>
  </defs>
  <g id="Group_1107490" data-name="Group 1107490" transform="translate(-1765.25 8127.853)">
    <g id="Group_1102782" data-name="Group 1102782" transform="translate(3568.25 -318)">
      <g id="Group_1102778" data-name="Group 1102778" transform="translate(-1118 -6775.1) rotate(180)">
        <path id="Path_608309" data-name="Path 608309" d="M0,0H400V587.252H0Z" transform="translate(285 446.5)" fill="url(#linear-gradient-2)"/>
      </g>
      <g id="Group_1102779" data-name="Group 1102779" transform="translate(-1803.499 -7835.538)">
        <g id="Group_1102736" data-name="Group 1102736" transform="translate(38.519 39.07)">
          <path id="Path_877066" data-name="Path 877066" d="M260.8,339.914c-28-32.613-73.741-48.775-115.882-40.946-11.846,2.2-23.511,6.23-33.386,13.164S93.664,329.087,90.5,340.772a44.944,44.944,0,0,0,13.536,44.615c8.789,7.642,20.213,11.433,31.5,14.22a241.266,241.266,0,0,0,68.242,6.8c13.514-.589,27.225-2.388,39.512-8.076,11.344-5.251,21.975-14.863,27.684-26.177C276.837,360.53,268.306,348.654,260.8,339.914Z" transform="translate(-49.343 -94.312)" fill="#f1ebff"/>
          <path id="Path_877067" data-name="Path 877067" d="M368.347,320.993c5.154-8.231,11.377-15.994,19.44-21.37s18.179-8.158,27.6-5.943,17.728,10.038,19.02,19.677c.956,7.134-1.8,14.214-4.888,20.707-7.26,15.252-17.15,29.882-31.47,38.751-11.392,7.056-35.547,14.325-42.064-2.616C350,354.632,360.345,333.77,368.347,320.993Z" transform="translate(-106.126 -93.434)" fill="#f1ebff"/>
          <path id="Path_877068" data-name="Path 877068" d="M161.78,39.523a544.149,544.149,0,0,1,54.465.571c23.5,1.232,47.145,3.172,69.778,9.638,25.423,7.264,50.809,20.9,66.269,43.1,15.235,21.879,24.585,55.645,14.238,81.334-7.04,17.478-22.532,29.9-37.925,40.679s-31.782,21.168-42.271,36.8c-1.989,2.964-3.777,6.13-6.389,8.557s-6.313,4.034-9.743,3.088c-2.629-.725-4.656-2.79-6.467-4.84-6.427-7.268-11.937-15.459-19.433-21.606-14.093-11.557-33.147-14.371-51.179-16.756q-30.482-4.034-60.963-8.068c-16.041-2.119-34.994-4.626-49.844-11.169-23.787-10.479-40.282-34.945-43.268-60.878C35.462,108.851,50.285,70.43,79.654,57.217,105.458,45.608,133.4,40.888,161.78,39.523Z" transform="translate(-38.519 -39.07)" fill="#c5fdff"/>
        </g>
        <g id="Group_1102737" data-name="Group 1102737" transform="translate(145.486 242.357)">
          <path id="Path_877069" data-name="Path 877069" d="M276.562,413.959H262.1a4.041,4.041,0,0,1-4.03-4.051V312.381a4.041,4.041,0,0,0-4.031-4.052H196.672" transform="translate(-179.356 -300.021)" fill="none" stroke="#7a5ce0" stroke-linecap="round" stroke-linejoin="round" stroke-width="1"/>
          <path id="Path_877070" data-name="Path 877070" d="M282.071,398.64H267.6a4.041,4.041,0,0,1-4.031-4.052V301.809a4.041,4.041,0,0,0-4.03-4.052H202.181" transform="translate(-180.536 -297.757)" fill="none" stroke="#7a5ce0" stroke-linecap="round" stroke-linejoin="round" stroke-width="1"/>
          <path id="Path_877071" data-name="Path 877071" d="M271.449,385.492H252.4a3.375,3.375,0,0,1-3.366-3.384V316.156A4.041,4.041,0,0,0,245,312.105H174.637" transform="translate(-174.637 -300.83)" fill="none" stroke="#7a5ce0" stroke-linecap="round" stroke-linejoin="round" stroke-width="1"/>
        </g>
        <g id="Group_1102750" data-name="Group 1102750" transform="translate(49.646 147.901)">
          <path id="Path_877072" data-name="Path 877072" d="M215.354,422.817l14.063-101.372a.281.281,0,0,1,.558-.02l15.332,101.391" transform="translate(-87.517 -208.319)" fill="none" stroke="#000" stroke-linecap="round" stroke-linejoin="round" stroke-width="2"/>
          <path id="Path_877073" data-name="Path 877073" d="M119.285,431.513l15.928-66.137,24.239,66.137" transform="translate(-66.943 -217.783)" fill="none" stroke="#000" stroke-linecap="round" stroke-linejoin="round" stroke-width="2"/>
          <g id="Group_1102746" data-name="Group 1102746" transform="translate(11.698)">
            <g id="Group_1102745" data-name="Group 1102745">
              <g id="Group_1102738" data-name="Group 1102738" transform="translate(4.208 49.489)">
                <path id="Path_877074" data-name="Path 877074" d="M74.2,329.435c-.156-.432-.325-.858-.467-1.3Q73.947,328.8,74.2,329.435Z" transform="translate(-73.094 -259.296)" fill="#7a5ce0"/>
                <path id="Path_877075" data-name="Path 877075" d="M79.022,275.111c1.848,4.362,3.9,8.628,5.932,12.907A116.615,116.615,0,0,0,92,301.236a106.142,106.142,0,0,0,20.493,23.127c8.447,7.227,18.158,12.818,28.1,17.682.082.04.165.077.247.116-2.064.079-4.129.092-6.188.024a83.842,83.842,0,0,1-12.267-1.384,49.864,49.864,0,0,0,11.087,1.78,83.21,83.21,0,0,0,18.754-1.469c6.11-1.2,12.265-3.154,17.476-6.662a23.762,23.762,0,0,0,6.175-5.867,18.923,18.923,0,0,0,2.168-4.022c-.038-.153-.061-.31-.1-.461-3.011-11.046-12.61-12.485-21.205-17.391A62,62,0,0,1,134.5,285.073c-5.024-8.312-7.975-17.626-11.99-26.426-3.748-8.21-8.612-12.445-17.192-15.461-6.365-2.237-13.4-3.77-19.787-1.609-5.7,1.928-9.908,6.519-12.609,12.012C73.371,261.021,76.191,268.426,79.022,275.111Z" transform="translate(-72.919 -240.536)" fill="#7a5ce0"/>
              </g>
              <path id="Path_877076" data-name="Path 877076" d="M194.888,302.16c.045-4.323-.079-8.254,1.034-12.558,1.474-5.7,5.847-8.81,11.3-10.566a5.711,5.711,0,0,1,3.695-.224,5.273,5.273,0,0,1,2.763,3.219c1.715,4.4.823,9.34-.093,13.975q-3.075,15.569-6.149,31.138a2.12,2.12,0,0,1-.824,1.56,2.037,2.037,0,0,1-1.365.049,59.073,59.073,0,0,1-13.359-4.385C193.678,325.2,194.878,303.128,194.888,302.16Z" transform="translate(-94.19 -199.196)" fill="#dacafc"/>
              <path id="Path_877077" data-name="Path 877077" d="M206.529,385.883a71.082,71.082,0,0,0,8.41-2.579c.006,15.078,2.112,40.5,2.044,44.839-4.233.481-7.544,2.051-11.825,2.1-3.357-5.227-4.726-20.019-6.623-25.737-.439-1.322-2.351-7.923-4.488-15.436C198.236,388.124,202.4,387.053,206.529,385.883Z" transform="translate(-94.652 -221.622)" fill="#dacafc"/>
              <path id="Path_877078" data-name="Path 877078" d="M198.267,344.569c4.879,1.13,9.886,1.649,14.834,2.382,2.606.387,7.934,1.877,10.392.046,3.109-2.314-1.983-3.667-4.288-4.962-3.968-2.229-7.992-4.354-11.992-6.523-3.694-2-8.438-6.275-12.207-2.142-2.424,2.658-2.7,6.9-2.977,10.306A32.568,32.568,0,0,1,198.267,344.569Z" transform="translate(-94.22 -210.556)"/>
              <path id="Path_877079" data-name="Path 877079" d="M99.411,323.313c2.256-7.161,12.467-8.8,18.771-8.294,13.117,1.057,26.274,1.38,39.318,2.453,10.626.873,22.192,3.183,29.5,11.7,5.972,6.961,6.935,16.539,8.626,25.262a218.147,218.147,0,0,1,3.642,47.659,1.427,1.427,0,0,1-1.6,1.675l-18.712,2.519a1.257,1.257,0,0,1-1.7-1.139c-.974-3.369-13.839-54.911-12.932-55.056-10.772,1.717-19.289,1.219-30.16.342-7.683-.621-15.5-1.954-22.2-5.779C105.487,340.956,96.8,331.6,99.411,323.313Z" transform="translate(-74.283 -206.98)" fill="#1c1c1b"/>
              <path id="Path_877080" data-name="Path 877080" d="M93.769,300.412c.774,1.167.714,2.229,1.1,2.864,1.974-.027,3.951,0,5.925.035,5.17.079,10.389.154,15.476-.921a104.507,104.507,0,0,0,13.087-3.794c6.581-2.323,12.752-3.961,12.268-12.064-.608-10.442-1.864-23.6,1.068-33.783,1.183-4.111,1.826-7.175,3.6-11.065a9.619,9.619,0,0,0,1.044-3.345,8.431,8.431,0,0,0-.317-2.491c-3.274-13.364-14.389-13.526-26.181-14.574a21.277,21.277,0,0,0-5.484-.013,20.37,20.37,0,0,0-6.768,2.214c-10.335,6.233-11.035,16.7-14.146,27.523-1.554,5.4-3.99,10.519-5.549,15.92A39.7,39.7,0,0,0,93.769,300.412Z" transform="translate(-71.769 -186.881)" fill="#ff6363"/>
              <path id="Path_877081" data-name="Path 877081" d="M222.246,438.911a24.356,24.356,0,0,0,4.526,1.551c3.514,1.064,7.156,1.664,10.622,2.893,1.818.645,3.554,2.93,1.576,4.549a5.891,5.891,0,0,1-3.129,1.011c-8.794,1.022-17.685.525-26.523.027a2.018,2.018,0,0,1-1.351-.415,1.961,1.961,0,0,1-.4-.715,71.223,71.223,0,0,1-2.493-8.886c1.185-.291,2.438.207,3.629.3a8.2,8.2,0,0,0,4.642-.54,22.459,22.459,0,0,0,5.172-3.947,1.489,1.489,0,0,1,.475-.372c.615-.251,1.219.419,1.427,1.053.406,1.235.427,2.618,1.59,3.355Q222.126,438.844,222.246,438.911Z" transform="translate(-97.014 -232.546)"/>
              <path id="Path_877082" data-name="Path 877082" d="M183.416,295.028c-.105-1.468.007-2.83,1.37-3.345,1.882-.712,2.519.295,3.722-1.667,2.317-3.778,3.963-8.5,5.532-12.638,1.89-4.99,5.454-11.5,5.267-16.863a1.433,1.433,0,0,0-.2-.8,1.419,1.419,0,0,0-.835-.453,26.835,26.835,0,0,0-8.564-.471c-18.9,1.221-29.449,21.82-38.387,35.925-1.349,2.127-9.2,12.366-11.263,12.2,7.223.574,12.785,4.252,19.464,6.28,4.1,1.246,8.61,4.922,12.447,5.449,1.24.171,6.3-9.178,7.037-10.4,1.935-3.209,4.666-6.867,4.607-10.759C183.6,296.723,183.475,295.858,183.416,295.028Z" transform="translate(-83.09 -194.93)" fill="#1c1c1b"/>
              <path id="Path_877083" data-name="Path 877083" d="M216.421,295.191a81.206,81.206,0,0,1-1.713,9.392,1.731,1.731,0,0,1-.333.762,1.528,1.528,0,0,1-1.241.352,21.122,21.122,0,0,1-2.765-.5c-5.736-1.1-15.277,2.774-19.692-2.6a7.642,7.642,0,0,1-1.356-3.915c-1.349-10.029,1.839-19.826,1.7-29.9-.072-5.381,1.916-8.629,4.637-13.019,2.609-4.212,6.281-5.643,10.988-4.038,7.931,2.7,12.468,11.153,12.1,19.182C218.37,279,217.5,287.124,216.421,295.191Z" transform="translate(-93.568 -193.304)" fill="#1c1c1b"/>
              <g id="Group_1102740" data-name="Group 1102740" transform="translate(49.028 8.493)">
                <g id="Group_1102739" data-name="Group 1102739">
                  <path id="Path_877084" data-name="Path 877084" d="M129.956,203.869c-.077.971,1.946,3.191,2.564,3.891a9.113,9.113,0,0,0,3.5,2.515c3.592,1.424,7.357,1.555,10.172-1.422a16.433,16.433,0,0,0,3.006-4.972c1.16-2.732,2.777-10.267,2.043-13.145-.666-2.611-3.452-.335-5.988-1.212-2.207-.762-3.887-1.445-6.247-1.033a8.734,8.734,0,0,0-5.44,3.127c-.355.461-.677.929-.972,1.4a32.392,32.392,0,0,0-1.8,4.589,30.792,30.792,0,0,0-.728,3.992C130.049,202.356,130.016,203.114,129.956,203.869Z" transform="translate(-129.954 -188.368)" fill="#dacafc"/>
                </g>
              </g>
              <g id="Group_1102742" data-name="Group 1102742" transform="translate(41.212 21.555)">
                <g id="Group_1102741" data-name="Group 1102741">
                  <path id="Path_877085" data-name="Path 877085" d="M126.332,224.794a14.893,14.893,0,0,0,7.2,2.648c.489.04,6.688-.656,5.8-1.834-2.326-3.087-1.055-5.836.4-9.19.223-.515,2.177-3.682,1.975-4.039a1.233,1.233,0,0,0-.218-.283,2.615,2.615,0,0,0-1.84-.445,11.531,11.531,0,0,1-6.651-2.205,19.674,19.674,0,0,1-2.581-2.284c-.46-.471-1.3-2.113-2.006-2.171a.347.347,0,0,0-.173.053c-.825,3.327-1.23,6.237-2.887,9.419-1.283,2.464-4.452,3.683-5.35,3.848A21.5,21.5,0,0,0,126.332,224.794Z" transform="translate(-120.008 -204.989)" fill="#dacafc"/>
                </g>
              </g>
              <path id="Path_877086" data-name="Path 877086" d="M134.74,196.554c.063-.512.126-1.136.594-1.346s.99.174,1.5.288c1.629.367,3.132-1.411,4.064-2.538.189-.229.376-.441.563-.636a4.443,4.443,0,0,1,3.975-1.492c1.789.148,3.581.769,5.343.423a5.349,5.349,0,0,0,4.041-3.971c.741-3.154-1.833-7.352-5.384-6.761-.958.16-1.994.647-2.836.161a4.015,4.015,0,0,1-1.066-1.228,4.854,4.854,0,0,0-5.633-1.545,16.57,16.57,0,0,1-1.51.687,9.02,9.02,0,0,1-3.154.016,5.73,5.73,0,0,0-3.585.861,3.382,3.382,0,0,0-1.5,3.238,3.674,3.674,0,0,1,.159,1.091c-.164,1.29-2.207,1.341-2.817,2.488-.585,1.1.483,2.453.182,3.664-.18.72-.826,1.279-.9,2.017-.092.915.744,1.556,1.1,2.318a9.174,9.174,0,0,1,.853,2.87c.168,1.9-.978,3.951,1.823,3.713A4.7,4.7,0,0,0,134.74,196.554Z" transform="translate(-80.244 -177.56)" fill="#1d1d1b"/>
              <path id="Path_877087" data-name="Path 877087" d="M173.862,255.556c1.106,1.333,2.011,2.706,5.192,2.5a13.6,13.6,0,0,0,10.279-5.715,7.391,7.391,0,0,0,1.321-3.117c.918-6.8-6.7-11.208-11.558-13.96a93.946,93.946,0,0,0-17.67-7.325c-5.387-1.734-11.015-4.743-16.815-4.278a2.61,2.61,0,0,0-.46.08c.062.754.1,1.511.108,2.267A44.256,44.256,0,0,1,149.626,240c.692,3.124,2.236,6.728,1.922,9.95q9.622,1.33,19.108,3.48A5.433,5.433,0,0,1,173.862,255.556Z" transform="translate(-83.966 -187.422)" fill="#ff6363"/>
              <path id="Path_877088" data-name="Path 877088" d="M189.649,245.934a7.911,7.911,0,0,0-5.711,4.306,23.588,23.588,0,0,0-2.119,7.113c-1.3,6.984-1.723,15.082-4.053,21.776-1.447,4.159-7.076,9.9-4.291,14.641a4.037,4.037,0,0,0,4.12,1.879c2.794-.529,4.1-3.678,5.286-6.275,1.532-3.348,3.806-5.925,5.836-8.866,2.539-3.678,4.378-8.189,6.216-12.251,2.358-5.209,4.445-11.146,2.521-16.53C196.276,248.429,193.127,245.55,189.649,245.934Z" transform="translate(-90.083 -192.196)" fill="#dacafc"/>
              <g id="Group_1102744" data-name="Group 1102744" transform="translate(34.12 21.555)">
                <g id="Group_1102743" data-name="Group 1102743" clip-path="url(#clip-path-2)">
                  <path id="Path_877089" data-name="Path 877089" d="M138.052,215.744a2.352,2.352,0,0,0,.32.14,12.41,12.41,0,0,0,6.432,1.044c.538.231.36.673.089,1.473q-.569,1.68-1.026,3.4l-5.95-6.111Z" transform="translate(-116.751 -207.28)" fill="#081132"/>
                </g>
              </g>
              <path id="Path_877091" data-name="Path 877091" d="M94.913,231.285c-4.061,4.667-5.728,10.96-7.108,16.854q-2.677,11.427-5.353,22.854a27.342,27.342,0,0,0-.892,5.429,39.964,39.964,0,0,0,1.447,9.535c.883,3.644,3.051,3.419,6.28,3.1,5.1-.51,12.05-2.062,15.5-6.247,1.638-1.99,2.164-4.648,2.636-7.187l1.947-10.472c2.652-14.262,5.3-28.974,2.3-43.167A26.894,26.894,0,0,0,94.913,231.285Z" transform="translate(-70.561 -187.073)" fill="#ff6363"/>
              <path id="Path_877092" data-name="Path 877092" d="M117.378,251.84c-5.9,1.545-5.372,9.137-5.906,13.819a138.233,138.233,0,0,1-3.924,20.489" transform="translate(-76.127 -193.468)" fill="none" stroke="#1d1d1b" stroke-linecap="round" stroke-linejoin="round" stroke-width="1"/>
              <path id="Path_877093" data-name="Path 877093" d="M197.777,273.087c-2.258,9.786-7.427,24.649-7.524,34.694" transform="translate(-93.839 -198.018)" fill="none" stroke="#081132" stroke-linecap="round" stroke-linejoin="round" stroke-width="0.5"/>
              <path id="Path_877094" data-name="Path 877094" d="M146.194,208.976a2.627,2.627,0,0,0,1.977,1.715,2.376,2.376,0,0,0,2.263-1.112" transform="translate(-84.404 -184.288)" fill="#fff"/>
              <path id="Path_877095" data-name="Path 877095" d="M76.648,313.5c16.342-3.73,30.194-6.455,44.9.5,9.578,4.53,16.042,12.967,17.856,21.945s-1.1,15.269-8.974,19.226" transform="translate(-69.51 -205.859)" fill="none" stroke="#634ab5" stroke-linecap="round" stroke-linejoin="round" stroke-width="4"/>
              <path id="Path_877096" data-name="Path 877096" d="M185.471,358.192c-.447-3.4-.546-7.623-.993-11.028" transform="translate(-92.603 -213.883)" fill="none" stroke="#081132" stroke-linecap="round" stroke-linejoin="round" stroke-width="0.5"/>
              <path id="Path_877097" data-name="Path 877097" d="M182.144,321.217c-10.521-1.609-17.291-.2-30.836-.2" transform="translate(-85.499 -208.161)" fill="none" stroke="#081132" stroke-linecap="round" stroke-linejoin="round" stroke-width="0.5"/>
              <path id="Path_877098" data-name="Path 877098" d="M132.872,200.412a3.117,3.117,0,1,0,3.117-3.133A3.125,3.125,0,0,0,132.872,200.412Z" transform="translate(-81.551 -181.783)" fill="#dacafc"/>
              <path id="Path_877099" data-name="Path 877099" d="M140.425,346.024c-.083-.04-.9-.381-.978-.421-9.942-4.864-19.654-10.456-28.1-17.682a106.143,106.143,0,0,1-20.493-23.127,116.616,116.616,0,0,1-7.046-13.219c-2.027-4.279-4.085-8.544-5.932-12.907-2.831-6.684-5.651-14.09-6.1-21.521a35.454,35.454,0,0,0-3.107,9.75c-2.4,14.424-.758,32.091,3.748,46.036.142.441.31.867.467,1.3,3,8.3,9.064,15.709,20.405,22.173,20.117,11.465,36.068,9.748,40.187,9.882C135.531,346.355,138.361,346.1,140.425,346.024Z" transform="translate(-67.564 -194.605)" fill="#634ab5"/>
            </g>
            <path id="Path_877100" data-name="Path 877100" d="M103.441,287.251c3.165.7,6.27,1.712,9.377,2.657,4.933,1.5,9.93,2.365,14.941,3.706a17.55,17.55,0,0,0,4.343.766c2.533.024,4.979-1.006,7.512-1.062a10.2,10.2,0,0,1,8.536,4.653c3.1,4.761-2.038,3.486-5.271,3.439l-7.564-.111a290.19,290.19,0,0,0-29.225,1.2c-5.4.457-14.818,1.729-19.622-1.492-2.335-1.565-6.183-9.184-4.04-11.462a4.057,4.057,0,0,1,1.5-.884,32.179,32.179,0,0,1,15.348-2.1A38.184,38.184,0,0,1,103.441,287.251Z" transform="translate(-70.613 -200.864)" fill="#dacafc"/>
            <path id="Path_877101" data-name="Path 877101" d="M201.987,297.752h-.18" transform="translate(-96.314 -203.301)" fill="#dc8b77"/>
            <path id="Path_877102" data-name="Path 877102" d="M71.786,280.7c.167,2.033.5,4.065.818,6.035.411,2.515.825,5.034,1.441,7.507a15.344,15.344,0,0,0,2.67,6.079,9.388,9.388,0,0,0,9.957,2.8c2.712-.9,2.338-1.869,1.182-4.129-2.4-4.684-4.886-9.586-6.944-14.459C78.824,279.6,76.9,274.92,75.2,269.841c-.361-1.071-.721-2.143-1.033-3.231a37.441,37.441,0,0,1-1.063-4.939,22.02,22.02,0,0,1-.377,4.858q-.249,2.546-.6,5.08A41.07,41.07,0,0,0,71.786,280.7Z" transform="translate(-68.443 -195.573)" fill="#634ab5"/>
          </g>
          <g id="Group_1102747" data-name="Group 1102747" transform="translate(0 109.929)">
            <path id="Path_877103" data-name="Path 877103" d="M52.678,422.817,67.421,321.445a.3.3,0,0,1,.585-.02L84.078,422.817" transform="translate(-52.678 -318.248)" fill="none" stroke="#000" stroke-linecap="round" stroke-linejoin="round" stroke-width="2"/>
            <rect id="Rectangle_403569" data-name="Rectangle 403569" width="146.046" height="4.5" transform="translate(5.688)" fill="#ae96ff"/>
          </g>
          <path id="Path_877104" data-name="Path 877104" d="M137.982,200.32a1.761,1.761,0,0,0-2.643-1.084" transform="translate(-70.381 -182.143)" fill="none" stroke="#1c1c1b" stroke-linecap="round" stroke-linejoin="round" stroke-width="0.5"/>
          <g id="Group_1102749" data-name="Group 1102749" transform="translate(49.177 74.669)">
            <rect id="Rectangle_403570" data-name="Rectangle 403570" width="68.131" height="3.113" rx="1.525" transform="translate(0 32.349)"/>
            <path id="Path_877105" data-name="Path 877105" d="M186.358,308.04H128.137l5.066-33.434a2.364,2.364,0,0,1,2.307-2.027h53.606a2.268,2.268,0,0,1,2.213,2.65Z" transform="translate(-118.015 -272.578)"/>
            <g id="Group_1102748" data-name="Group 1102748" transform="translate(40.195 16.594)">
              <line id="Line_3241" data-name="Line 3241" x2="2.525" y2="2.111" transform="translate(3.319)" fill="none" stroke="#ff6363" stroke-linecap="round" stroke-linejoin="round" stroke-width="1"/>
              <line id="Line_3242" data-name="Line 3242" x2="2.525" y2="2.111" fill="none" stroke="#ff6363" stroke-linecap="round" stroke-linejoin="round" stroke-width="1"/>
            </g>
          </g>
          <path id="Path_877106" data-name="Path 877106" d="M180.616,257.383a11.508,11.508,0,0,0,1.989,6.4" transform="translate(-80.074 -194.655)" fill="none" stroke="#1d1d1b" stroke-linecap="round" stroke-linejoin="round" stroke-width="1"/>
        </g>
        <g id="Group_1102760" data-name="Group 1102760" transform="translate(209.707 149.656)">
          <g id="Group_1102753" data-name="Group 1102753" transform="translate(64.589 1.896)">
            <g id="Group_1102752" data-name="Group 1102752">
              <g id="Group_1102751" data-name="Group 1102751">
                <path id="Path_877107" data-name="Path 877107" d="M347.352,182.685a12.13,12.13,0,0,0-2.2.881,2.114,2.114,0,0,1,.145.156,2.04,2.04,0,0,1-.4,2.846,1.935,1.935,0,0,1-2.95-.6,12.4,12.4,0,0,0-1.472,1.872,1.977,1.977,0,0,1,.216.068,2.029,2.029,0,0,1-1.576,3.741,1.944,1.944,0,0,1-.225-.123,12.294,12.294,0,0,0-.347,2.379,1.972,1.972,0,0,1,.247-.056,2.031,2.031,0,0,1,.5,4.031,1.855,1.855,0,0,1-.288.006,12.242,12.242,0,0,0,.889,2.258,1.923,1.923,0,0,1,.211-.2,2.013,2.013,0,0,1,2.83.4,2.038,2.038,0,0,1-.394,2.845,2.09,2.09,0,0,1-.266.163,12.386,12.386,0,0,0,1.906,1.516,2.037,2.037,0,0,1,.091-.3,2.022,2.022,0,1,1,3.722,1.584,2.09,2.09,0,0,1-.159.292,12.13,12.13,0,0,0,2.417.349,1.976,1.976,0,0,1-.072-.314,2.021,2.021,0,1,1,4.011-.5,2,2,0,0,1,.008.336,12.114,12.114,0,0,0,2.266-.916,2,2,0,0,1-.217-.236,2.038,2.038,0,0,1,.395-2.845,2.014,2.014,0,0,1,2.831.4,1.992,1.992,0,0,1,.167.276,12.376,12.376,0,0,0,1.5-1.927,1.983,1.983,0,0,1-1.359-2.752,2.016,2.016,0,0,1,2.648-1.079,2.063,2.063,0,0,1,.262.145,12.3,12.3,0,0,0,.329-2.4,1.955,1.955,0,0,1-.266.061,2.031,2.031,0,0,1-.5-4.031,1.889,1.889,0,0,1,.266-.006,12.214,12.214,0,0,0-.9-2.229,1.9,1.9,0,0,1-.179.167,2.014,2.014,0,0,1-2.831-.4,1.962,1.962,0,0,1,.6-2.971,12.324,12.324,0,0,0-1.872-1.468,1.928,1.928,0,0,1-.065.211,2.022,2.022,0,1,1-3.722-1.584,1.91,1.91,0,0,1,.108-.2,12.114,12.114,0,0,0-2.341-.332c.015.068.037.132.046.2a2.021,2.021,0,1,1-4.011.5A2.087,2.087,0,0,1,347.352,182.685Zm2.411,3.6a8.277,8.277,0,1,1-7.161,9.232A8.243,8.243,0,0,1,349.763,186.29Z" transform="translate(-338.551 -182.206)" fill="#ff6363"/>
              </g>
              <path id="Path_877108" data-name="Path 877108" d="M350.3,205.057a9.986,9.986,0,1,0-8.767-11.037A9.958,9.958,0,0,0,350.3,205.057ZM345.14,194.5a6.324,6.324,0,0,1,7-5.322,6.008,6.008,0,0,1,5.535,6.595,6.327,6.327,0,0,1-7,5.323A6.008,6.008,0,0,1,345.14,194.5Z" transform="translate(-339.177 -182.835)" fill="#ff6363"/>
            </g>
          </g>
          <g id="Group_1102756" data-name="Group 1102756" transform="translate(0 20.583)">
            <g id="Group_1102755" data-name="Group 1102755">
              <g id="Group_1102754" data-name="Group 1102754">
                <path id="Path_877109" data-name="Path 877109" d="M263.51,206.38a9.649,9.649,0,0,0-1.789.738,1.612,1.612,0,0,1,.118.133,1.756,1.756,0,0,1-.315,2.4,1.61,1.61,0,0,1-2.31-.342,1.8,1.8,0,0,1-.1-.168,10.314,10.314,0,0,0-1.2,1.576,1.582,1.582,0,0,1,.176.057,1.748,1.748,0,0,1,.882,2.249,1.617,1.617,0,0,1-2.157.9,1.569,1.569,0,0,1-.184-.105,10.712,10.712,0,0,0-.277,2.006,1.559,1.559,0,0,1,.2-.046,1.715,1.715,0,1,1,.181,3.407,10.629,10.629,0,0,0,.73,1.906,1.574,1.574,0,0,1,2.481.178,1.756,1.756,0,0,1-.315,2.4,1.588,1.588,0,0,1-.217.137,10.215,10.215,0,0,0,1.559,1.284,1.677,1.677,0,0,1,.073-.25,1.618,1.618,0,0,1,2.158-.9,1.725,1.725,0,0,1,.753,2.5,9.62,9.62,0,0,0,1.972.3,1.732,1.732,0,0,1-.059-.265,1.648,1.648,0,1,1,3.277-.128,9.6,9.6,0,0,0,1.847-.767,1.67,1.67,0,0,1-.178-.2,1.755,1.755,0,0,1,.315-2.4,1.61,1.61,0,0,1,2.309.342,1.758,1.758,0,0,1,.137.233,10.325,10.325,0,0,0,1.215-1.622,1.726,1.726,0,0,1-.234-.076,1.748,1.748,0,0,1-.882-2.249,1.618,1.618,0,0,1,2.158-.9,1.641,1.641,0,0,1,.214.123,10.675,10.675,0,0,0,.263-2.027,1.528,1.528,0,0,1-.217.05,1.715,1.715,0,0,1-.415-3.4,1.553,1.553,0,0,1,.218,0,10.7,10.7,0,0,0-.739-1.883,1.644,1.644,0,0,1-.146.141,1.61,1.61,0,0,1-2.31-.342,1.757,1.757,0,0,1,.315-2.4,1.7,1.7,0,0,1,.167-.105,10.2,10.2,0,0,0-1.531-1.243,1.478,1.478,0,0,1-.053.178,1.617,1.617,0,0,1-2.157.9,1.748,1.748,0,0,1-.882-2.249,1.661,1.661,0,0,1,.087-.167,9.648,9.648,0,0,0-1.91-.285c.013.057.03.112.038.171a1.649,1.649,0,1,1-3.271.411A1.849,1.849,0,0,1,263.51,206.38Zm1.976,3.047a6.991,6.991,0,1,1-5.818,7.771A6.823,6.823,0,0,1,265.486,209.427Z" transform="translate(-256.36 -205.985)" fill="#ff6363"/>
              </g>
              <path id="Path_877110" data-name="Path 877110" d="M266.344,224.527a7.151,7.151,0,0,0,7.852-6.513,7.4,7.4,0,0,0-6.31-8.2,7.15,7.15,0,0,0-7.853,6.512A7.407,7.407,0,0,0,266.344,224.527Zm-4.251-7.9a5.065,5.065,0,0,1,5.6-4.394,4.968,4.968,0,0,1,4.449,5.478,5.065,5.065,0,0,1-5.6,4.394A4.969,4.969,0,0,1,262.092,216.625Z" transform="translate(-257.138 -206.793)" fill="#ff6363"/>
            </g>
          </g>
          <g id="Group_1102759" data-name="Group 1102759" transform="translate(20.733)">
            <g id="Group_1102758" data-name="Group 1102758">
              <g id="Group_1102757" data-name="Group 1102757">
                <path id="Path_877111" data-name="Path 877111" d="M298.228,180.637a21.308,21.308,0,0,0-3.865,1.55,3.39,3.39,0,0,1,.254.276,3.586,3.586,0,0,1-.695,5.006,3.543,3.543,0,0,1-4.98-.7,3.344,3.344,0,0,1-.211-.349,21.783,21.783,0,0,0-2.589,3.293,3.433,3.433,0,0,1,2.268,4.8,3.549,3.549,0,0,1-4.66,1.9,3.44,3.44,0,0,1-.4-.218,21.63,21.63,0,0,0-.611,4.187,3.415,3.415,0,0,1,.434-.1,3.574,3.574,0,0,1,.873,7.095,3.514,3.514,0,0,1-.505.011,21.6,21.6,0,0,0,1.564,3.972,3.451,3.451,0,0,1,5.35.354,3.5,3.5,0,0,1-1.163,5.293,21.689,21.689,0,0,0,3.356,2.668,3.478,3.478,0,0,1,4.82-2.419,3.581,3.581,0,0,1,1.888,4.684,3.626,3.626,0,0,1-.28.514,21.25,21.25,0,0,0,4.253.614,3.609,3.609,0,0,1-.125-.552,3.556,3.556,0,1,1,7.058-.878,3.458,3.458,0,0,1,.013.59,21.315,21.315,0,0,0,3.988-1.612,3.566,3.566,0,1,1,5.587-4.236,21.737,21.737,0,0,0,2.631-3.392,3.524,3.524,0,0,1-.5-.157,3.571,3.571,0,0,1,2.772-6.583,3.483,3.483,0,0,1,.461.254,21.617,21.617,0,0,0,.58-4.23,3.409,3.409,0,0,1-.468.107,3.574,3.574,0,0,1-.874-7.095,3.478,3.478,0,0,1,.47-.01,21.6,21.6,0,0,0-1.582-3.923,3.635,3.635,0,0,1-.316.295,3.544,3.544,0,0,1-4.981-.7,3.444,3.444,0,0,1,1.057-5.227,21.685,21.685,0,0,0-3.294-2.583,3.4,3.4,0,0,1-.115.371,3.558,3.558,0,1,1-6.548-2.787,3.511,3.511,0,0,1,.189-.347,21.236,21.236,0,0,0-4.119-.583,3.483,3.483,0,0,1,.08.355,3.56,3.56,0,1,1-7.066.489Zm4.368,7.351A13.549,13.549,0,1,1,290.875,203.1,13.493,13.493,0,0,1,302.6,187.988Z" transform="translate(-282.743 -179.793)" fill="#ff6363"/>
              </g>
              <path id="Path_877112" data-name="Path 877112" d="M303.809,219.268a16.552,16.552,0,1,0-14.53-18.294A16.505,16.505,0,0,0,303.809,219.268Zm-9.161-17.688a11.063,11.063,0,1,1,9.762,12.29A11.089,11.089,0,0,1,294.648,201.579Z" transform="translate(-284.121 -181.179)" fill="none" stroke="#292929" stroke-linecap="round" stroke-linejoin="round" stroke-width="1"/>
            </g>
          </g>
        </g>
        <g id="Group_1102761" data-name="Group 1102761" transform="translate(175.889 59.267)">
          <path id="Path_877113" data-name="Path 877113" d="M213.325,66.4a4.664,4.664,0,0,1,6.6-.486,4.723,4.723,0,0,1,.483,6.637" transform="translate(-213.325 -64.772)" fill="none" stroke="#000" stroke-linecap="round" stroke-linejoin="round" stroke-width="1"/>
          <ellipse id="Ellipse_11587" data-name="Ellipse 11587" cx="4.469" cy="4.493" rx="4.469" ry="4.493" transform="translate(8.805 16.422)" fill="none" stroke="#000" stroke-linecap="round" stroke-linejoin="round" stroke-width="1"/>
        </g>
        <g id="Group_1102762" data-name="Group 1102762" transform="translate(295.466 82.161)">
          <path id="Path_877114" data-name="Path 877114" d="M374.783,107.63a11.1,11.1,0,0,1,11.546-11.156,10.925,10.925,0,0,1,5.686,1.926,13.011,13.011,0,0,1,10.464-4.482c5.687.273,11.192,4.14,11.652,9.443A12.729,12.729,0,0,1,419,125.478a7.815,7.815,0,0,1-.619,6.438,6.545,6.545,0,0,1-2.935,2.772,7.65,7.65,0,0,1-6.218.312l-.144,10.47a.642.642,0,0,1-1.17.359l-5.448-7.906c-5.077,2.089-9.633-1.044-9.972-5.681a9.034,9.034,0,0,1-4.49.954,9.176,9.176,0,0,1-8.684-8.46,9.332,9.332,0,0,1-9.163.186,8.229,8.229,0,0,1-3.985-4.434A9.26,9.26,0,0,1,374.783,107.63Z" transform="translate(-365.49 -93.904)" fill="#ae96ff"/>
          <path id="Path_877115" data-name="Path 877115" d="M425.039,127.679a7.506,7.506,0,0,1,6.582,4.664" transform="translate(-378.243 -101.137)" fill="none" stroke="#000" stroke-linecap="round" stroke-linejoin="round" stroke-width="1"/>
          <path id="Path_877116" data-name="Path 877116" d="M383.183,129.773a9.176,9.176,0,0,1,9.583-8.756" transform="translate(-369.279 -99.708)" fill="none" stroke="#000" stroke-linecap="round" stroke-linejoin="round" stroke-width="1"/>
          <path id="Path_877117" data-name="Path 877117" d="M376.321,111.378a9.119,9.119,0,0,1,5.249,1.225" transform="translate(-367.809 -97.641)" fill="none" stroke="#000" stroke-linecap="round" stroke-linejoin="round" stroke-width="1"/>
          <path id="Path_877118" data-name="Path 877118" d="M389.555,102.4a7.379,7.379,0,0,1,7,7.738" transform="translate(-370.643 -95.724)" fill="none" stroke="#000" stroke-linecap="round" stroke-linejoin="round" stroke-width="1"/>
          <path id="Path_877119" data-name="Path 877119" d="M395.819,136.566a6.519,6.519,0,0,1-7.095-5.9" transform="translate(-370.465 -101.778)" fill="none" stroke="#000" stroke-linecap="round" stroke-linejoin="round" stroke-width="1"/>
          <path id="Path_877120" data-name="Path 877120" d="M371.593,123.938a5.9,5.9,0,0,1,3.616-7.494" transform="translate(-366.727 -98.731)" fill="none" stroke="#000" stroke-linecap="round" stroke-linejoin="round" stroke-width="1"/>
          <path id="Path_877121" data-name="Path 877121" d="M427.085,136.962a4.44,4.44,0,0,1-5.6,2.873" transform="translate(-377.482 -103.125)" fill="none" stroke="#000" stroke-linecap="round" stroke-linejoin="round" stroke-width="1"/>
          <path id="Path_877122" data-name="Path 877122" d="M415,107.662a12.308,12.308,0,0,1,9.559-1.84" transform="translate(-376.093 -96.397)" fill="none" stroke="#000" stroke-linecap="round" stroke-linejoin="round" stroke-width="1"/>
          <path id="Path_877123" data-name="Path 877123" d="M429.816,113.113a7.54,7.54,0,0,1,3.04,5.939" transform="translate(-379.266 -98.018)" fill="none" stroke="#000" stroke-linecap="round" stroke-linejoin="round" stroke-width="1"/>
          <path id="Path_877124" data-name="Path 877124" d="M404.811,116.679a5.838,5.838,0,0,1,5.964,2.6,5.908,5.908,0,0,1-.332,6.526" transform="translate(-373.911 -98.759)" fill="none" stroke="#000" stroke-linecap="round" stroke-linejoin="round" stroke-width="1"/>
          <path id="Path_877125" data-name="Path 877125" d="M403.552,130.941a3.3,3.3,0,0,0,.777,5.395" transform="translate(-373.412 -101.836)" fill="none" stroke="#000" stroke-linecap="round" stroke-linejoin="round" stroke-width="1"/>
        </g>
        <g id="Group_1102764" data-name="Group 1102764" transform="translate(213.346 61.553)">
          <g id="Group_1102763" data-name="Group 1102763" transform="translate(2.766)">
            <path id="Path_877126" data-name="Path 877126" d="M328.625,67.68l.34,33.167-6.913.037-.34-33.167Z" transform="translate(-276.761 -67.68)" fill="#7a5ce0"/>
            <path id="Path_877127" data-name="Path 877127" d="M309.073,74.657l.285,27.767-6.913.037-.285-27.767Z" transform="translate(-272.574 -69.174)" fill="#ff6363"/>
            <path id="Path_877128" data-name="Path 877128" d="M282.591,80.013l.243,23.678,6.913-.037L289.5,80.013Z" transform="translate(-268.383 -70.322)" fill="#7a5ce0"/>
            <path id="Path_877129" data-name="Path 877129" d="M271.423,94l.13,12.727-6.913.037-.13-12.727Z" transform="translate(-264.511 -73.317)" fill="#ff6363"/>
          </g>
          <line id="Line_3243" data-name="Line 3243" x1="60.736" y2="0.378" transform="translate(0 33.178)" fill="none" stroke="#101c59" stroke-linecap="round" stroke-linejoin="round" stroke-width="1"/>
          <line id="Line_3244" data-name="Line 3244" y2="7.557" transform="translate(33.657 7.507)" fill="none" stroke="#000" stroke-linecap="round" stroke-linejoin="round" stroke-width="1"/>
          <line id="Line_3245" data-name="Line 3245" y2="9.546" transform="translate(49.312 19.228)" fill="none" stroke="#000" stroke-linecap="round" stroke-linejoin="round" stroke-width="1"/>
          <line id="Line_3246" data-name="Line 3246" y2="3.158" transform="translate(3.781 24.201)" fill="none" stroke="#000" stroke-linecap="round" stroke-linejoin="round" stroke-width="1"/>
          <path id="Path_877130" data-name="Path 877130" d="M284.4,90.869v1.354" transform="translate(-266.004 -72.646)" fill="none" stroke="#000" stroke-linecap="round" stroke-linejoin="round" stroke-width="1"/>
        </g>
        <path id="Path_877131" data-name="Path 877131" d="M158.706,256.972a13.124,13.124,0,0,0-.259-3.693" transform="translate(-25.684 -45.875)" fill="none" stroke="#1d1d1b" stroke-linecap="round" stroke-linejoin="round" stroke-width="1"/>
        <g id="Group_1102765" data-name="Group 1102765" transform="translate(189.739 97.616)">
          <path id="Path_877132" data-name="Path 877132" d="M347.784,146.107l-15.659,15.742h-62.2L250.6,181.6" transform="translate(-235.159 -120.539)" fill="none" stroke="#7a5ce0" stroke-linecap="round" stroke-linejoin="round" stroke-width="1"/>
          <path id="Path_877133" data-name="Path 877133" d="M350.307,154.727l-13.951,14.024H281.364l-21.3,21.408" transform="translate(-237.186 -122.385)" fill="none" stroke="#7a5ce0" stroke-linecap="round" stroke-linejoin="round" stroke-width="1"/>
          <line id="Line_3247" data-name="Line 3247" x1="95.543" transform="translate(2.657 2.862)" fill="none" stroke="#7a5ce0" stroke-linecap="round" stroke-linejoin="round" stroke-width="1"/>
          <path id="Path_877134" data-name="Path 877134" d="M327,136.152H250.347L234.2,152.387" transform="translate(-231.645 -118.407)" fill="none" stroke="#7a5ce0" stroke-linecap="round" stroke-linejoin="round" stroke-width="1"/>
          <path id="Path_877135" data-name="Path 877135" d="M301.359,148.05l-8.541,8.586H253.907l-10.914,10.972" transform="translate(-233.529 -120.955)" fill="none" stroke="#7a5ce0" stroke-linecap="round" stroke-linejoin="round" stroke-width="1"/>
          <line id="Line_3248" data-name="Line 3248" x2="31.508" transform="translate(24.554 26.713)" fill="none" stroke="#7a5ce0" stroke-linecap="round" stroke-linejoin="round" stroke-width="1"/>
          <line id="Line_3249" data-name="Line 3249" x1="55.045" transform="translate(30.628 9.922)" fill="none" stroke="#7a5ce0" stroke-linecap="round" stroke-linejoin="round" stroke-width="1"/>
          <line id="Line_3250" data-name="Line 3250" x2="20.12" transform="translate(74.663 30.529)" fill="none" stroke="#7a5ce0" stroke-linecap="round" stroke-linejoin="round" stroke-width="1"/>
          <path id="Path_877136" data-name="Path 877136" d="M357.845,116.242a2.657,2.657,0,1,1-2.658-2.671A2.665,2.665,0,0,1,357.845,116.242Z" transform="translate(-256.988 -113.571)" fill="#7a5ce0"/>
          <path id="Path_877137" data-name="Path 877137" d="M236.265,116.242a2.657,2.657,0,1,1-2.658-2.671A2.665,2.665,0,0,1,236.265,116.242Z" transform="translate(-230.95 -113.571)" fill="#7a5ce0"/>
          <ellipse id="Ellipse_11588" data-name="Ellipse 11588" cx="2.657" cy="2.671" rx="2.657" ry="2.671" transform="translate(91.367 28.24)" fill="#7a5ce0"/>
          <ellipse id="Ellipse_11589" data-name="Ellipse 11589" cx="2.657" cy="2.671" rx="2.657" ry="2.671" transform="translate(53.405 24.042)" fill="#7a5ce0"/>
          <path id="Path_877138" data-name="Path 877138" d="M317.75,146.836a2.657,2.657,0,1,1-2.658-2.671A2.664,2.664,0,0,1,317.75,146.836Z" transform="translate(-248.401 -120.123)" fill="#7a5ce0"/>
          <ellipse id="Ellipse_11590" data-name="Ellipse 11590" cx="2.657" cy="2.671" rx="2.657" ry="2.671" transform="translate(23.415 23.66)" fill="#7a5ce0"/>
          <path id="Path_877139" data-name="Path 877139" d="M253.5,189.085a2.657,2.657,0,1,1-2.657-2.672A2.664,2.664,0,0,1,253.5,189.085Z" transform="translate(-234.641 -129.171)" fill="#7a5ce0"/>
          <ellipse id="Ellipse_11591" data-name="Ellipse 11591" cx="2.657" cy="2.671" rx="2.657" ry="2.671" transform="translate(20.386 65.016)" fill="#7a5ce0"/>
          <ellipse id="Ellipse_11592" data-name="Ellipse 11592" cx="2.657" cy="2.671" rx="2.657" ry="2.671" transform="translate(7.851 42.36)" fill="#7a5ce0"/>
          <ellipse id="Ellipse_11593" data-name="Ellipse 11593" cx="2.657" cy="2.671" rx="2.657" ry="2.671" transform="translate(74.284 28.24)" fill="#7a5ce0"/>
          <path id="Path_877140" data-name="Path 877140" d="M354.222,135.424a2.657,2.657,0,1,1-2.658-2.671A2.664,2.664,0,0,1,354.222,135.424Z" transform="translate(-256.212 -117.679)" fill="#7a5ce0"/>
          <path id="Path_877141" data-name="Path 877141" d="M376.832,154a2.657,2.657,0,1,1-2.657-2.671A2.664,2.664,0,0,1,376.832,154Z" transform="translate(-261.054 -121.657)" fill="#7a5ce0"/>
          <path id="Path_877142" data-name="Path 877142" d="M375.96,145.137a2.657,2.657,0,1,1-2.657-2.672A2.664,2.664,0,0,1,375.96,145.137Z" transform="translate(-260.867 -119.759)" fill="#7a5ce0"/>
          <ellipse id="Ellipse_11594" data-name="Ellipse 11594" cx="2.657" cy="2.671" rx="2.657" ry="2.671" transform="translate(83.015 7.251)" fill="#7a5ce0"/>
          <ellipse id="Ellipse_11595" data-name="Ellipse 11595" cx="2.657" cy="2.671" rx="2.657" ry="2.671" transform="translate(27.97 7.251)" fill="#7a5ce0"/>
          <ellipse id="Ellipse_11596" data-name="Ellipse 11596" cx="2.657" cy="2.671" rx="2.657" ry="2.671" transform="translate(1.018 30.529)" fill="#7a5ce0"/>
        </g>
        <g id="Group_1102773" data-name="Group 1102773" transform="translate(48.479 70.329)">
          <g id="Group_1102771" data-name="Group 1102771" transform="translate(0 0)">
            <g id="Group_1102766" data-name="Group 1102766" transform="translate(0 2.374)">
              <path id="Path_877143" data-name="Path 877143" d="M77.583,117.83h0a1.465,1.465,0,0,0,1.461,1.469h28.109a1.465,1.465,0,0,0,1.461-1.469h0a1.465,1.465,0,0,0-1.461-1.469H79.044A1.465,1.465,0,0,0,77.583,117.83Z" transform="translate(-56.845 -89.257)" fill="#bfa7f2"/>
              <path id="Path_877144" data-name="Path 877144" d="M131.738,116.361h-8.984a1.465,1.465,0,0,0-1.461,1.469h0a1.465,1.465,0,0,0,1.461,1.469h8.984a1.465,1.465,0,0,0,1.46-1.469h0A1.465,1.465,0,0,0,131.738,116.361Z" transform="translate(-66.206 -89.257)" fill="#bfa7f2"/>
              <path id="Path_877145" data-name="Path 877145" d="M115.792,125.561H90.22a1.464,1.464,0,0,0-1.461,1.468h0A1.465,1.465,0,0,0,90.22,128.5h25.572a1.465,1.465,0,0,0,1.461-1.469h0A1.464,1.464,0,0,0,115.792,125.561Z" transform="translate(-59.238 -91.227)" fill="#bfa7f2"/>
              <path id="Path_877146" data-name="Path 877146" d="M128.168,127.029h0a1.465,1.465,0,0,0,1.46,1.469h5.445a1.465,1.465,0,0,0,1.461-1.469h0a1.464,1.464,0,0,0-1.461-1.468h-5.445A1.464,1.464,0,0,0,128.168,127.029Z" transform="translate(-67.678 -91.227)" fill="#bfa7f2"/>
              <path id="Path_877147" data-name="Path 877147" d="M82.263,125.561H79.044a1.464,1.464,0,0,0-1.461,1.468h0a1.465,1.465,0,0,0,1.461,1.469h3.219a1.465,1.465,0,0,0,1.46-1.469h0A1.464,1.464,0,0,0,82.263,125.561Z" transform="translate(-56.845 -91.227)" fill="#bfa7f2"/>
              <path id="Path_877148" data-name="Path 877148" d="M67.443,125.561H54.559a1.464,1.464,0,0,0-1.461,1.468h0a1.465,1.465,0,0,0,1.461,1.469H67.443a.88.88,0,0,0,.878-.883v-1.171A.88.88,0,0,0,67.443,125.561Z" transform="translate(-51.601 -91.227)" fill="#bfa7f2"/>
              <path id="Path_877149" data-name="Path 877149" d="M93.909,135.611h0a1.464,1.464,0,0,0,1.461,1.468h31.818a1.464,1.464,0,0,0,1.461-1.468h0a1.465,1.465,0,0,0-1.461-1.469H95.37A1.465,1.465,0,0,0,93.909,135.611Z" transform="translate(-60.341 -93.065)" fill="#bfa7f2"/>
              <path id="Path_877150" data-name="Path 877150" d="M65.1,135.611h0a1.465,1.465,0,0,0,1.461,1.468H81.4a1.464,1.464,0,0,0,1.46-1.468h0a1.465,1.465,0,0,0-1.46-1.469H66.561A1.465,1.465,0,0,0,65.1,135.611Z" transform="translate(-54.171 -93.065)" fill="#bfa7f2"/>
              <path id="Path_877151" data-name="Path 877151" d="M51.193,144.81h0a1.465,1.465,0,0,0,1.46,1.469h1.958a1.465,1.465,0,0,0,1.46-1.469h0a1.465,1.465,0,0,0-1.46-1.469H52.653A1.465,1.465,0,0,0,51.193,144.81Z" transform="translate(-51.193 -95.035)" fill="#bfa7f2"/>
              <path id="Path_877152" data-name="Path 877152" d="M59.885,144.81h0a1.465,1.465,0,0,0,1.461,1.469H80.478a1.465,1.465,0,0,0,1.461-1.469h0a1.465,1.465,0,0,0-1.461-1.469H61.346A1.465,1.465,0,0,0,59.885,144.81Z" transform="translate(-53.054 -95.035)" fill="#bfa7f2"/>
              <path id="Path_877153" data-name="Path 877153" d="M91.922,144.81h0a1.465,1.465,0,0,0,1.461,1.469h7.032a1.465,1.465,0,0,0,1.46-1.469h0a1.465,1.465,0,0,0-1.46-1.469H93.383A1.465,1.465,0,0,0,91.922,144.81Z" transform="translate(-59.916 -95.035)" fill="#bfa7f2"/>
              <path id="Path_877154" data-name="Path 877154" d="M110.052,144.81h0a1.465,1.465,0,0,0,1.461,1.469h7.227a1.465,1.465,0,0,0,1.46-1.469h0a1.465,1.465,0,0,0-1.46-1.469h-7.227A1.465,1.465,0,0,0,110.052,144.81Z" transform="translate(-63.798 -95.035)" fill="#bfa7f2"/>
              <path id="Path_877155" data-name="Path 877155" d="M129.424,144.81h0a1.465,1.465,0,0,0,1.46,1.469h3.91a1.465,1.465,0,0,0,1.461-1.469h0a1.465,1.465,0,0,0-1.461-1.469h-3.91A1.465,1.465,0,0,0,129.424,144.81Z" transform="translate(-67.947 -95.035)" fill="#bfa7f2"/>
              <path id="Path_877156" data-name="Path 877156" d="M71.806,154.009h0a1.465,1.465,0,0,0,1.461,1.469H76a1.465,1.465,0,0,0,1.461-1.469h0A1.464,1.464,0,0,0,76,152.541H73.267A1.464,1.464,0,0,0,71.806,154.009Z" transform="translate(-55.607 -97.005)" fill="#bfa7f2"/>
              <path id="Path_877157" data-name="Path 877157" d="M86.369,154.009h0a1.465,1.465,0,0,0,1.461,1.469h13.747a1.465,1.465,0,0,0,1.461-1.469h0a1.464,1.464,0,0,0-1.461-1.468H87.83A1.465,1.465,0,0,0,86.369,154.009Z" transform="translate(-58.726 -97.005)" fill="#bfa7f2"/>
              <path id="Path_877158" data-name="Path 877158" d="M111.349,154.009h0a1.465,1.465,0,0,0,1.461,1.469h10.74a1.465,1.465,0,0,0,1.461-1.469h0a1.464,1.464,0,0,0-1.461-1.468H112.81A1.464,1.464,0,0,0,111.349,154.009Z" transform="translate(-64.076 -97.005)" fill="#bfa7f2"/>
              <path id="Path_877159" data-name="Path 877159" d="M94.381,91.287h0a1.465,1.465,0,0,0,1.461,1.469H127.66a1.465,1.465,0,0,0,1.461-1.469h0a1.465,1.465,0,0,0-1.461-1.468H95.842A1.464,1.464,0,0,0,94.381,91.287Z" transform="translate(-60.442 -83.572)" fill="#bfa7f2"/>
              <path id="Path_877160" data-name="Path 877160" d="M107.719,81.87H103.83a1.465,1.465,0,0,0-1.461,1.469h0a1.465,1.465,0,0,0,1.461,1.469h3.889a1.465,1.465,0,0,0,1.461-1.469h0A1.465,1.465,0,0,0,107.719,81.87Z" transform="translate(-62.153 -81.87)" fill="#bfa7f2"/>
              <path id="Path_877161" data-name="Path 877161" d="M92.711,81.87H79.5a1.465,1.465,0,0,0-1.461,1.469h0A1.465,1.465,0,0,0,79.5,84.807H92.711a1.465,1.465,0,0,0,1.461-1.469h0A1.465,1.465,0,0,0,92.711,81.87Z" transform="translate(-56.943 -81.87)" fill="#bfa7f2"/>
              <rect id="Rectangle_403571" data-name="Rectangle 403571" width="19.381" height="2.937" rx="1.468" transform="translate(49.297 0)" fill="#bfa7f2"/>
              <path id="Path_877162" data-name="Path 877162" d="M92.394,100.486h0a1.465,1.465,0,0,0,1.461,1.469h7.032a1.465,1.465,0,0,0,1.461-1.469h0a1.464,1.464,0,0,0-1.461-1.468H93.855A1.464,1.464,0,0,0,92.394,100.486Z" transform="translate(-60.017 -85.542)" fill="#bfa7f2"/>
              <path id="Path_877163" data-name="Path 877163" d="M110.524,100.486h0a1.465,1.465,0,0,0,1.461,1.469h7.227a1.465,1.465,0,0,0,1.461-1.469h0a1.464,1.464,0,0,0-1.461-1.468h-7.227A1.464,1.464,0,0,0,110.524,100.486Z" transform="translate(-63.899 -85.542)" fill="#bfa7f2"/>
              <path id="Path_877164" data-name="Path 877164" d="M128.826,100.486h0a1.465,1.465,0,0,0,1.461,1.469h5.322a1.465,1.465,0,0,0,1.461-1.469h0a1.464,1.464,0,0,0-1.461-1.468h-5.322A1.464,1.464,0,0,0,128.826,100.486Z" transform="translate(-67.819 -85.542)" fill="#bfa7f2"/>
              <path id="Path_877165" data-name="Path 877165" d="M100.914,109.686h0a1.464,1.464,0,0,0,1.461,1.468h8.2a1.464,1.464,0,0,0,1.461-1.468h0a1.465,1.465,0,0,0-1.461-1.469h-8.2A1.465,1.465,0,0,0,100.914,109.686Z" transform="translate(-61.841 -87.512)" fill="#bfa7f2"/>
              <path id="Path_877166" data-name="Path 877166" d="M72.278,109.686h0a1.464,1.464,0,0,0,1.46,1.468h2.739a1.465,1.465,0,0,0,1.461-1.468h0a1.465,1.465,0,0,0-1.461-1.469H73.738A1.465,1.465,0,0,0,72.278,109.686Z" transform="translate(-55.709 -87.512)" fill="#bfa7f2"/>
              <path id="Path_877167" data-name="Path 877167" d="M82.957,109.686h0a1.464,1.464,0,0,0,1.46,1.468h6.056a1.464,1.464,0,0,0,1.461-1.468h0a1.465,1.465,0,0,0-1.461-1.469H84.417A1.465,1.465,0,0,0,82.957,109.686Z" transform="translate(-57.996 -87.512)" fill="#bfa7f2"/>
              <path id="Path_877168" data-name="Path 877168" d="M121.948,109.686h0a1.464,1.464,0,0,0,1.461,1.468h10.74a1.465,1.465,0,0,0,1.461-1.468h0a1.465,1.465,0,0,0-1.461-1.469h-10.74A1.465,1.465,0,0,0,121.948,109.686Z" transform="translate(-66.346 -87.512)" fill="#bfa7f2"/>
            </g>
            <g id="Group_1102767" data-name="Group 1102767" transform="translate(12.015)">
              <path id="Path_877169" data-name="Path 877169" d="M70.43,86.05a.687.687,0,0,1-.469-.185l-3.478-3.231,3.451-3.575a.689.689,0,0,1,.978-.014.7.7,0,0,1,.015.983L68.463,82.58,70.9,84.844a.7.7,0,0,1,.039.983A.688.688,0,0,1,70.43,86.05Z" transform="translate(-66.483 -78.848)" fill="#bfa7f2"/>
            </g>
            <g id="Group_1102768" data-name="Group 1102768" transform="translate(16.21)">
              <path id="Path_877170" data-name="Path 877170" d="M75.767,86.05a.69.69,0,0,1-.469-.185L71.82,82.634l3.451-3.575a.689.689,0,0,1,.978-.014.7.7,0,0,1,.015.983L73.8,82.58l2.436,2.264a.7.7,0,0,1,.038.983A.686.686,0,0,1,75.767,86.05Z" transform="translate(-71.82 -78.848)" fill="#bfa7f2"/>
            </g>
            <g id="Group_1102769" data-name="Group 1102769" transform="translate(66.633 55.977)">
              <path id="Path_877171" data-name="Path 877171" d="M136.677,157.282a.689.689,0,0,1-.508-.224.7.7,0,0,1,.039-.983l2.437-2.264-2.464-2.551a.7.7,0,0,1,.014-.984.69.69,0,0,1,.979.015l3.451,3.575-3.478,3.231A.687.687,0,0,1,136.677,157.282Z" transform="translate(-135.985 -150.08)" fill="#bfa7f2"/>
            </g>
            <g id="Group_1102770" data-name="Group 1102770" transform="translate(62.438 55.977)">
              <path id="Path_877172" data-name="Path 877172" d="M131.34,157.282a.689.689,0,0,1-.509-.224.7.7,0,0,1,.038-.983l2.437-2.264-2.464-2.551a.7.7,0,0,1,.015-.984.69.69,0,0,1,.978.015l3.451,3.575-3.478,3.231A.69.69,0,0,1,131.34,157.282Z" transform="translate(-130.647 -150.08)" fill="#bfa7f2"/>
            </g>
          </g>
          <g id="Group_1102772" data-name="Group 1102772" transform="translate(112.994 22.316)">
            <rect id="Rectangle_403572" data-name="Rectangle 403572" width="9.403" height="39.802" rx="4.701" transform="translate(4.158 7.6)" fill="#ae96ff"/>
            <path id="Path_877173" data-name="Path 877173" d="M221.109,196.141l-.839.457a3.736,3.736,0,0,1-5.077-1.521l-12.07-22.428a3.774,3.774,0,0,1,1.512-5.1l.839-.457a3.735,3.735,0,0,1,5.077,1.52l12.07,22.428A3.774,3.774,0,0,1,221.109,196.141Z" transform="translate(-196.628 -119.966)" fill="#ae96ff"/>
            <path id="Path_877174" data-name="Path 877174" d="M222.3,217.761c-2.615-5.188-1.371-11.108,2.778-13.222s9.634.377,12.25,5.565" transform="translate(-200.539 -127.922)" fill="none" stroke="#ae96ff" stroke-linecap="round" stroke-linejoin="round" stroke-width="5"/>
            <ellipse id="Ellipse_11597" data-name="Ellipse 11597" cx="1.512" cy="1.52" rx="1.512" ry="1.52" transform="translate(7.668 41.906)" fill="#1d1d1b"/>
            <path id="Path_877175" data-name="Path 877175" d="M209.411,171.211a1.512,1.512,0,1,1-1.512-1.521A1.516,1.516,0,0,1,209.411,171.211Z" transform="translate(-197.424 -120.62)" fill="#1d1d1b"/>
            <ellipse id="Ellipse_11598" data-name="Ellipse 11598" cx="9.396" cy="9.445" rx="9.396" ry="9.445" transform="translate(0)" fill="none" stroke="#000" stroke-linecap="round" stroke-linejoin="round" stroke-width="1"/>
            <ellipse id="Ellipse_11599" data-name="Ellipse 11599" cx="6.393" cy="6.427" rx="6.393" ry="6.427" transform="translate(3.003 3.018)"/>
            <path id="Path_877176" data-name="Path 877176" d="M222.3,217.761c-2.615-5.188-1.371-11.108,2.778-13.222s9.634.377,12.25,5.565" transform="translate(-200.539 -127.922)" fill="none" stroke="#000" stroke-linecap="round" stroke-linejoin="round" stroke-width="1"/>
          </g>
          <path id="Path_877177" data-name="Path 877177" d="M193.178,111.208V99.034a8.749,8.749,0,0,0-8.726-8.773H141.838" transform="translate(-70.606 -81.293)" fill="none" stroke="#7a5ce0" stroke-linecap="round" stroke-linejoin="round" stroke-width="1"/>
          <path id="Path_877178" data-name="Path 877178" d="M141.838,114.3h19.1a14.943,14.943,0,0,1,10.593,4.41l18.1,18.2" transform="translate(-70.606 -86.441)" fill="none" stroke="#7a5ce0" stroke-linecap="round" stroke-linejoin="round" stroke-width="1"/>
          <path id="Path_877179" data-name="Path 877179" d="M141.838,122.312h15.11a14.941,14.941,0,0,1,10.593,4.411l21.805,21.921" transform="translate(-70.606 -88.157)" fill="none" stroke="#7a5ce0" stroke-linecap="round" stroke-linejoin="round" stroke-width="1"/>
        </g>
        <path id="Path_877180" data-name="Path 877180" d="M196.619,308.04l5.559-33.589a1.606,1.606,0,0,0-1.578-1.873H176.049" transform="translate(-29.453 -50.008)" fill="none" stroke="#ff6363" stroke-linecap="round" stroke-linejoin="round" stroke-width="1"/>
        <g id="Group_1102774" data-name="Group 1102774" transform="translate(239.937 282.309)">
          <rect id="Rectangle_403573" data-name="Rectangle 403573" width="95.632" height="88.276" fill="#ae96ff"/>
          <line id="Line_3251" data-name="Line 3251" x1="95.632" transform="translate(0 17.407)" fill="none" stroke="#1d1d1b" stroke-linecap="round" stroke-linejoin="round" stroke-width="1"/>
          <line id="Line_3252" data-name="Line 3252" x1="95.632" transform="translate(0 34.815)" fill="none" stroke="#1d1d1b" stroke-linecap="round" stroke-linejoin="round" stroke-width="1"/>
          <line id="Line_3253" data-name="Line 3253" x1="95.632" transform="translate(0 52.222)" fill="none" stroke="#1d1d1b" stroke-linecap="round" stroke-linejoin="round" stroke-width="1"/>
          <line id="Line_3254" data-name="Line 3254" x1="95.632" transform="translate(0 69.629)" fill="none" stroke="#1d1d1b" stroke-linecap="round" stroke-linejoin="round" stroke-width="1"/>
          <rect id="Rectangle_403574" data-name="Rectangle 403574" width="18.103" height="5.143" transform="translate(6.69 75.959)" fill="#7a5ce0"/>
          <rect id="Rectangle_403575" data-name="Rectangle 403575" width="53.522" height="5.143" transform="translate(33.845 75.959)" fill="#7a5ce0"/>
          <rect id="Rectangle_403576" data-name="Rectangle 403576" width="18.103" height="5.143" transform="translate(6.69 58.947)" fill="#7a5ce0"/>
          <rect id="Rectangle_403577" data-name="Rectangle 403577" width="53.522" height="5.143" transform="translate(33.845 58.947)" fill="#7a5ce0"/>
          <rect id="Rectangle_403578" data-name="Rectangle 403578" width="18.103" height="5.143" transform="translate(6.69 41.936)" fill="#7a5ce0"/>
          <rect id="Rectangle_403579" data-name="Rectangle 403579" width="53.522" height="5.143" transform="translate(33.845 41.936)" fill="#7a5ce0"/>
          <rect id="Rectangle_403580" data-name="Rectangle 403580" width="18.103" height="5.143" transform="translate(6.69 24.924)" fill="#7a5ce0"/>
          <rect id="Rectangle_403581" data-name="Rectangle 403581" width="53.522" height="5.143" transform="translate(33.845 24.924)" fill="#7a5ce0"/>
          <rect id="Rectangle_403582" data-name="Rectangle 403582" width="18.103" height="5.143" transform="translate(6.69 7.912)" fill="#7a5ce0"/>
          <rect id="Rectangle_403583" data-name="Rectangle 403583" width="53.522" height="5.143" transform="translate(33.845 7.912)" fill="#7a5ce0"/>
        </g>
        <g id="Group_1102775" data-name="Group 1102775" transform="translate(279.455 123.33)">
          <ellipse id="Ellipse_11600" data-name="Ellipse 11600" cx="2.657" cy="2.671" rx="2.657" ry="2.671" transform="translate(25.712 13.884)" fill="#7a5ce0"/>
          <path id="Path_877181" data-name="Path 877181" d="M408.273,160.759a2.657,2.657,0,1,1-2.657-2.671A2.664,2.664,0,0,1,408.273,160.759Z" transform="translate(-357.503 -148.819)" fill="#7a5ce0"/>
          <path id="Path_877182" data-name="Path 877182" d="M400.511,156.228a2.657,2.657,0,1,1-2.658-2.671A2.664,2.664,0,0,1,400.511,156.228Z" transform="translate(-355.841 -147.849)" fill="#7a5ce0"/>
          <ellipse id="Ellipse_11601" data-name="Ellipse 11601" cx="2.657" cy="2.671" rx="2.657" ry="2.671" transform="translate(33.866)" fill="#7a5ce0"/>
          <path id="Path_877183" data-name="Path 877183" d="M406.437,159.809l.59,129.961,25.679,25.814v39.463l-15.5,15.578" transform="translate(-358.248 -149.188)" fill="none" stroke="#7a5ce0" stroke-linecap="round" stroke-linejoin="round" stroke-width="1"/>
          <path id="Path_877184" data-name="Path 877184" d="M385.539,148.482V279.036l-22.727,22.847" transform="translate(-348.906 -146.762)" fill="none" stroke="#7a5ce0" stroke-linecap="round" stroke-linejoin="round" stroke-width="1"/>
          <line id="Line_3255" data-name="Line 3255" y2="143.692" transform="translate(42.158 8.165)" fill="none" stroke="#7a5ce0" stroke-linecap="round" stroke-linejoin="round" stroke-width="1"/>
          <path id="Path_877185" data-name="Path 877185" d="M374.218,167.36V279.518l-25.679,25.814" transform="translate(-345.849 -150.805)" fill="none" stroke="#7a5ce0" stroke-linecap="round" stroke-linejoin="round" stroke-width="1"/>
          <ellipse id="Ellipse_11602" data-name="Ellipse 11602" cx="2.657" cy="2.671" rx="2.657" ry="2.671" transform="translate(0 151.823)" fill="#7a5ce0"/>
          <path id="Path_877186" data-name="Path 877186" d="M401.095,341.66a2.657,2.657,0,1,1-2.658-2.671A2.664,2.664,0,0,1,401.095,341.66Z" transform="translate(-355.966 -187.561)" fill="#7a5ce0"/>
          <ellipse id="Ellipse_11603" data-name="Ellipse 11603" cx="2.657" cy="2.671" rx="2.657" ry="2.671" transform="translate(55.818 219.474)" fill="#7a5ce0"/>
          <ellipse id="Ellipse_11604" data-name="Ellipse 11604" cx="2.657" cy="2.671" rx="2.657" ry="2.671" transform="translate(11.249 151.823)" fill="#7a5ce0"/>
        </g>
      </g>
      <g id="Group_1102781" data-name="Group 1102781" transform="translate(6 -43)">
        <rect id="Rectangle_403589" data-name="Rectangle 403589" width="254" height="204" rx="20" transform="translate(-1797 -7409)" fill="#4b0d6b"/>
        <rect id="Rectangle_403590" data-name="Rectangle 403590" width="226" height="148" rx="19" transform="translate(-1769 -7363)" fill="#ffc9dd"/>
        <rect id="Rectangle_403591" data-name="Rectangle 403591" width="187" height="92" rx="19" transform="translate(-1730 -7307)" fill="#c5fdff"/>
        <rect id="Rectangle_403592" data-name="Rectangle 403592" width="110" height="204" rx="17" transform="translate(-1531 -7409)" fill="#4b0d6b"/>
        <g id="Rectangle_403593" data-name="Rectangle 403593" transform="translate(-1598 -7330)" fill="#d7c9fe" stroke="#fff" stroke-width="3">
          <rect width="122" height="58" rx="20" stroke="none"/>
          <rect x="1.5" y="1.5" width="119" height="55" rx="18.5" fill="none"/>
        </g>
        <g id="Group_1107489" data-name="Group 1107489">
          <path id="Path_881780" data-name="Path 881780" d="M11.007,10.231a7.3,7.3,0,0,1-.631,3.129,4.751,4.751,0,0,1-1.805,2.075,4.994,4.994,0,0,1-2.694.73A5.028,5.028,0,0,1,3.2,15.444,4.8,4.8,0,0,1,1.37,13.381,7.087,7.087,0,0,1,.714,10.3V9.7a7.258,7.258,0,0,1,.643-3.142A4.79,4.79,0,0,1,3.175,4.474,5,5,0,0,1,5.86,3.748a5,5,0,0,1,2.685.726,4.79,4.79,0,0,1,1.818,2.083,7.237,7.237,0,0,1,.643,3.134ZM8.483,9.683A5.086,5.086,0,0,0,7.8,6.794,2.218,2.218,0,0,0,5.86,5.807a2.219,2.219,0,0,0-1.934.975,5.028,5.028,0,0,0-.689,2.86v.589A5.15,5.15,0,0,0,3.918,13.1a2.212,2.212,0,0,0,1.959,1.021A2.192,2.192,0,0,0,7.8,13.14a5.12,5.12,0,0,0,.681-2.868Zm7.047-4.873V7.019h1.536v1.76H15.531v4.482a1.07,1.07,0,0,0,.191.714.959.959,0,0,0,.73.216,3.826,3.826,0,0,0,.706-.058V15.95a4.938,4.938,0,0,1-1.453.216,2.29,2.29,0,0,1-2.573-2.548V8.778H11.82V7.019h1.312V4.811ZM23.45,9.268a6.517,6.517,0,0,0-.863-.066,1.757,1.757,0,0,0-1.785.921V16H18.4V7.019h2.266l.066,1.071a2.223,2.223,0,0,1,2-1.237,2.514,2.514,0,0,1,.747.108ZM29.559,16a2.664,2.664,0,0,1-.241-.805,2.9,2.9,0,0,1-2.266.971,3.189,3.189,0,0,1-2.187-.764A2.456,2.456,0,0,1,24,13.477a2.538,2.538,0,0,1,1.058-2.191,5.222,5.222,0,0,1,3.059-.772h1.1V10a1.48,1.48,0,0,0-.32-1,1.257,1.257,0,0,0-1.009-.374,1.429,1.429,0,0,0-.95.291.987.987,0,0,0-.344.8H24.2a2.41,2.41,0,0,1,.481-1.444A3.182,3.182,0,0,1,26.04,7.23a4.961,4.961,0,0,1,1.976-.378,3.92,3.92,0,0,1,2.635.834,2.918,2.918,0,0,1,.975,2.345v3.893a4.294,4.294,0,0,0,.357,1.934V16Zm-1.984-1.668a2.066,2.066,0,0,0,.979-.237,1.554,1.554,0,0,0,.664-.635V11.916h-.9q-1.8,0-1.917,1.245L26.4,13.3a.96.96,0,0,0,.315.739A1.225,1.225,0,0,0,27.575,14.332Zm10.758-.813a.773.773,0,0,0-.436-.693,4.95,4.95,0,0,0-1.4-.452q-3.2-.672-3.2-2.723a2.468,2.468,0,0,1,.992-2,4,4,0,0,1,2.594-.8,4.307,4.307,0,0,1,2.735.805A2.538,2.538,0,0,1,40.641,9.75h-2.4A1.161,1.161,0,0,0,37.91,8.9a1.405,1.405,0,0,0-1.038-.336,1.436,1.436,0,0,0-.938.274.865.865,0,0,0-.332.7.739.739,0,0,0,.378.643,3.885,3.885,0,0,0,1.274.423,10.407,10.407,0,0,1,1.511.4,2.482,2.482,0,0,1,1.9,2.416,2.343,2.343,0,0,1-1.054,1.988,4.548,4.548,0,0,1-2.723.76,4.75,4.75,0,0,1-2-.4,3.363,3.363,0,0,1-1.374-1.1,2.565,2.565,0,0,1-.5-1.515h2.274a1.252,1.252,0,0,0,.473.979,1.877,1.877,0,0,0,1.179.34A1.737,1.737,0,0,0,37.98,14.2.814.814,0,0,0,38.333,13.518ZM3.793,26.811v2.208H5.329v1.76H3.793v4.482a1.07,1.07,0,0,0,.191.714.959.959,0,0,0,.73.216,3.826,3.826,0,0,0,.706-.058V37.95a4.939,4.939,0,0,1-1.453.216,2.29,2.29,0,0,1-2.573-2.548V30.778H.083v-1.76H1.395V26.811ZM10.8,38.166a4.409,4.409,0,0,1-3.217-1.212,4.308,4.308,0,0,1-1.241-3.229v-.232a5.426,5.426,0,0,1,.523-2.42,3.838,3.838,0,0,1,1.482-1.644,4.159,4.159,0,0,1,2.187-.577,3.727,3.727,0,0,1,2.9,1.162,4.722,4.722,0,0,1,1.058,3.3v.979H8.774a2.229,2.229,0,0,0,.7,1.411,2.12,2.12,0,0,0,1.482.531,2.589,2.589,0,0,0,2.167-1l1.179,1.32a3.6,3.6,0,0,1-1.461,1.191A4.793,4.793,0,0,1,10.8,38.166Zm-.274-7.379a1.5,1.5,0,0,0-1.158.484A2.5,2.5,0,0,0,8.8,32.654h3.337v-.192a1.786,1.786,0,0,0-.432-1.238A1.547,1.547,0,0,0,10.525,30.787Zm.216-5.537h2.615l-2.3,2.573H9.106ZM19.59,36.232a1.573,1.573,0,0,0,1.079-.365A1.28,1.28,0,0,0,21.1,34.9h2.25a3.077,3.077,0,0,1-.5,1.673,3.286,3.286,0,0,1-1.341,1.179,4.2,4.2,0,0,1-1.88.419,3.9,3.9,0,0,1-3.038-1.224,4.845,4.845,0,0,1-1.112-3.383V33.4a4.79,4.79,0,0,1,1.1-3.312,3.854,3.854,0,0,1,3.03-1.237,3.778,3.778,0,0,1,2.7.959,3.4,3.4,0,0,1,1.033,2.552H21.1a1.648,1.648,0,0,0-.432-1.139,1.6,1.6,0,0,0-2.362.173,3.541,3.541,0,0,0-.427,1.983v.249a3.586,3.586,0,0,0,.423,2A1.463,1.463,0,0,0,19.59,36.232Zm7.338-7.213L27,30.056a3.136,3.136,0,0,1,2.582-1.2,2.606,2.606,0,0,1,2.125.838,3.912,3.912,0,0,1,.714,2.507V38h-2.4V32.256a1.556,1.556,0,0,0-.332-1.108,1.486,1.486,0,0,0-1.1-.344,1.65,1.65,0,0,0-1.519.863V38h-2.4V29.019ZM36.772,38H34.365V29.019h2.407ZM34.224,26.694a1.181,1.181,0,0,1,.361-.888,1.556,1.556,0,0,1,1.963,0,1.268,1.268,0,0,1,0,1.785,1.539,1.539,0,0,1-1.951,0A1.178,1.178,0,0,1,34.224,26.694Zm8.259,9.538a1.573,1.573,0,0,0,1.079-.365,1.28,1.28,0,0,0,.432-.971h2.25a3.077,3.077,0,0,1-.5,1.673,3.286,3.286,0,0,1-1.341,1.179,4.2,4.2,0,0,1-1.88.419,3.9,3.9,0,0,1-3.038-1.224,4.845,4.845,0,0,1-1.112-3.383V33.4a4.79,4.79,0,0,1,1.1-3.312,3.854,3.854,0,0,1,3.03-1.237,3.778,3.778,0,0,1,2.7.959,3.4,3.4,0,0,1,1.033,2.552h-2.25a1.648,1.648,0,0,0-.432-1.139A1.6,1.6,0,0,0,41.2,31.4a3.541,3.541,0,0,0-.427,1.983v.249a3.586,3.586,0,0,0,.423,2A1.463,1.463,0,0,0,42.483,36.232ZM52.818,38a2.664,2.664,0,0,1-.241-.805,2.9,2.9,0,0,1-2.266.971,3.189,3.189,0,0,1-2.187-.764,2.456,2.456,0,0,1-.867-1.926,2.538,2.538,0,0,1,1.058-2.191,5.222,5.222,0,0,1,3.059-.772h1.1V32a1.48,1.48,0,0,0-.32-1,1.257,1.257,0,0,0-1.009-.374,1.429,1.429,0,0,0-.95.291.987.987,0,0,0-.344.8h-2.4a2.41,2.41,0,0,1,.481-1.444A3.182,3.182,0,0,1,49.3,29.23a4.961,4.961,0,0,1,1.976-.378,3.92,3.92,0,0,1,2.635.834,2.918,2.918,0,0,1,.975,2.345v3.893a4.294,4.294,0,0,0,.357,1.934V38Zm-1.984-1.668a2.066,2.066,0,0,0,.979-.237,1.554,1.554,0,0,0,.664-.635V33.916h-.9q-1.8,0-1.917,1.245l-.008.141a.96.96,0,0,0,.315.739A1.225,1.225,0,0,0,50.834,36.332Zm10.758-.813a.773.773,0,0,0-.436-.693,4.95,4.95,0,0,0-1.4-.452q-3.2-.672-3.2-2.723a2.468,2.468,0,0,1,.992-2,4,4,0,0,1,2.594-.8,4.307,4.307,0,0,1,2.735.805A2.538,2.538,0,0,1,63.9,31.75H61.5a1.161,1.161,0,0,0-.332-.851,1.405,1.405,0,0,0-1.038-.336,1.436,1.436,0,0,0-.938.274.865.865,0,0,0-.332.7.739.739,0,0,0,.378.643,3.885,3.885,0,0,0,1.274.423,10.407,10.407,0,0,1,1.511.4,2.482,2.482,0,0,1,1.9,2.416,2.343,2.343,0,0,1-1.054,1.988,4.548,4.548,0,0,1-2.723.76,4.75,4.75,0,0,1-2-.4,3.363,3.363,0,0,1-1.374-1.1,2.565,2.565,0,0,1-.5-1.515h2.274a1.252,1.252,0,0,0,.473.979,1.877,1.877,0,0,0,1.179.34,1.737,1.737,0,0,0,1.042-.261A.814.814,0,0,0,61.592,35.518Z" transform="translate(-1512.942 -7387.545)" fill="#fff"/>
          <path id="Path_881776" data-name="Path 881776" d="M3.508,15H1.164V3.625H3.508Zm4.1-8.453.07.977a2.951,2.951,0,0,1,2.43-1.133,2.453,2.453,0,0,1,2,.789,3.682,3.682,0,0,1,.672,2.359V15H10.523V9.594a1.465,1.465,0,0,0-.312-1.043,1.4,1.4,0,0,0-1.039-.324,1.553,1.553,0,0,0-1.43.813V15H5.484V6.547ZM17.2,4.469V6.547h1.445V8.2H17.2v4.219a1.007,1.007,0,0,0,.18.672.9.9,0,0,0,.688.2,3.6,3.6,0,0,0,.664-.055v1.711a4.648,4.648,0,0,1-1.367.2,2.156,2.156,0,0,1-2.422-2.4V8.2H13.7V6.547h1.234V4.469Zm6.594,10.688a4.15,4.15,0,0,1-3.027-1.141,4.054,4.054,0,0,1-1.168-3.039v-.219a5.106,5.106,0,0,1,.492-2.277A3.612,3.612,0,0,1,21.48,6.934a3.914,3.914,0,0,1,2.059-.543,3.508,3.508,0,0,1,2.73,1.094,4.444,4.444,0,0,1,1,3.1v.922H21.883a2.1,2.1,0,0,0,.66,1.328,2,2,0,0,0,1.395.5,2.437,2.437,0,0,0,2.039-.945l1.109,1.242a3.389,3.389,0,0,1-1.375,1.121A4.511,4.511,0,0,1,23.789,15.156Zm-.258-6.945a1.411,1.411,0,0,0-1.09.455,2.357,2.357,0,0,0-.535,1.3h3.141V9.788a1.681,1.681,0,0,0-.406-1.165A1.456,1.456,0,0,0,23.531,8.211ZM30.93,15H28.664V3H30.93Zm4.242,0H32.906V6.547h2.266Zm-2.4-10.641a1.112,1.112,0,0,1,.34-.836,1.465,1.465,0,0,1,1.848,0,1.105,1.105,0,0,1,.344.836,1.108,1.108,0,0,1-.348.844,1.448,1.448,0,0,1-1.836,0A1.108,1.108,0,0,1,32.773,4.359Zm3.93,6.352a4.954,4.954,0,0,1,.926-3.133,3,3,0,0,1,2.5-1.187,2.631,2.631,0,0,1,2.164.953l.094-.8H44.43v8.172a3.613,3.613,0,0,1-.5,1.93,3.236,3.236,0,0,1-1.418,1.25,4.985,4.985,0,0,1-2.141.43,4.635,4.635,0,0,1-1.812-.371A3.217,3.217,0,0,1,37.219,17l1-1.375a2.645,2.645,0,0,0,2.047.945,1.936,1.936,0,0,0,1.4-.48,1.8,1.8,0,0,0,.5-1.363v-.453a2.612,2.612,0,0,1-2.055.883,2.992,2.992,0,0,1-2.465-1.191A4.953,4.953,0,0,1,36.7,10.8Zm2.258.168a3.085,3.085,0,0,0,.461,1.8,1.466,1.466,0,0,0,1.266.653,1.568,1.568,0,0,0,1.477-.775V9A1.564,1.564,0,0,0,40.7,8.227a1.476,1.476,0,0,0-1.277.665A3.477,3.477,0,0,0,38.961,10.879Zm11.094,4.277a4.15,4.15,0,0,1-3.027-1.141,4.054,4.054,0,0,1-1.168-3.039v-.219a5.106,5.106,0,0,1,.492-2.277,3.612,3.612,0,0,1,1.395-1.547A3.914,3.914,0,0,1,49.8,6.391a3.508,3.508,0,0,1,2.73,1.094,4.444,4.444,0,0,1,1,3.1v.922H48.148a2.1,2.1,0,0,0,.66,1.328,2,2,0,0,0,1.395.5,2.437,2.437,0,0,0,2.039-.945l1.109,1.242a3.389,3.389,0,0,1-1.375,1.121A4.511,4.511,0,0,1,50.055,15.156ZM49.8,8.211a1.411,1.411,0,0,0-1.09.455,2.357,2.357,0,0,0-.535,1.3h3.141V9.788a1.681,1.681,0,0,0-.406-1.165A1.456,1.456,0,0,0,49.8,8.211Zm7.094-1.664.07.977a2.951,2.951,0,0,1,2.43-1.133,2.453,2.453,0,0,1,2,.789,3.682,3.682,0,0,1,.672,2.359V15H59.8V9.594a1.465,1.465,0,0,0-.312-1.043,1.4,1.4,0,0,0-1.039-.324,1.553,1.553,0,0,0-1.43.813V15H54.766V6.547Zm10.4,6.789a1.481,1.481,0,0,0,1.016-.344,1.2,1.2,0,0,0,.406-.914h2.117a2.9,2.9,0,0,1-.469,1.574A3.093,3.093,0,0,1,69.1,14.762a3.949,3.949,0,0,1-1.77.395A3.67,3.67,0,0,1,64.469,14a4.56,4.56,0,0,1-1.047-3.184v-.148a4.508,4.508,0,0,1,1.039-3.117,3.627,3.627,0,0,1,2.852-1.164,3.555,3.555,0,0,1,2.543.9,3.2,3.2,0,0,1,.973,2.4H68.711A1.551,1.551,0,0,0,68.3,8.623a1.51,1.51,0,0,0-2.223.163,3.333,3.333,0,0,0-.4,1.866v.235a3.375,3.375,0,0,0,.4,1.878A1.377,1.377,0,0,0,67.289,13.336ZM74.5,15H72.234V6.547H74.5ZM72.1,4.359a1.112,1.112,0,0,1,.34-.836,1.465,1.465,0,0,1,1.848,0,1.105,1.105,0,0,1,.344.836,1.108,1.108,0,0,1-.348.844,1.448,1.448,0,0,1-1.836,0A1.108,1.108,0,0,1,72.1,4.359ZM81.258,15a2.507,2.507,0,0,1-.227-.758,2.732,2.732,0,0,1-2.133.914,3,3,0,0,1-2.059-.719,2.312,2.312,0,0,1-.816-1.812,2.389,2.389,0,0,1,1-2.062A4.915,4.915,0,0,1,79.9,9.836h1.039V9.352a1.393,1.393,0,0,0-.3-.937,1.183,1.183,0,0,0-.949-.352,1.345,1.345,0,0,0-.895.273.929.929,0,0,0-.324.75H76.211a2.268,2.268,0,0,1,.453-1.359,3,3,0,0,1,1.281-.98A4.669,4.669,0,0,1,79.8,6.391a3.689,3.689,0,0,1,2.48.785A2.747,2.747,0,0,1,83.2,9.383v3.664a4.041,4.041,0,0,0,.336,1.82V15Zm-1.867-1.57a1.945,1.945,0,0,0,.922-.223,1.462,1.462,0,0,0,.625-.6V11.156h-.844q-1.7,0-1.8,1.172l-.008.133a.9.9,0,0,0,.3.7A1.153,1.153,0,0,0,79.391,13.43ZM93.82,15a2.507,2.507,0,0,1-.227-.758,2.732,2.732,0,0,1-2.133.914,3,3,0,0,1-2.059-.719,2.312,2.312,0,0,1-.816-1.812,2.389,2.389,0,0,1,1-2.062,4.915,4.915,0,0,1,2.879-.727H93.5V9.352a1.393,1.393,0,0,0-.3-.937,1.183,1.183,0,0,0-.949-.352,1.345,1.345,0,0,0-.895.273.929.929,0,0,0-.324.75H88.773a2.268,2.268,0,0,1,.453-1.359,3,3,0,0,1,1.281-.98,4.669,4.669,0,0,1,1.859-.355,3.689,3.689,0,0,1,2.48.785,2.747,2.747,0,0,1,.918,2.207v3.664a4.041,4.041,0,0,0,.336,1.82V15Zm-1.867-1.57a1.945,1.945,0,0,0,.922-.223,1.462,1.462,0,0,0,.625-.6V11.156h-.844q-1.7,0-1.8,1.172l-.008.133a.9.9,0,0,0,.3.7A1.153,1.153,0,0,0,91.953,13.43Zm10.3-4.766a6.134,6.134,0,0,0-.812-.062,1.654,1.654,0,0,0-1.68.867V15H97.5V6.547h2.133L99.7,7.555a2.092,2.092,0,0,1,1.883-1.164,2.366,2.366,0,0,1,.7.1Zm4.18-4.2V6.547h1.445V8.2H106.43v4.219a1.007,1.007,0,0,0,.18.672.9.9,0,0,0,.688.2,3.6,3.6,0,0,0,.664-.055v1.711a4.648,4.648,0,0,1-1.367.2,2.156,2.156,0,0,1-2.422-2.4V8.2h-1.234V6.547h1.234V4.469ZM111.516,15H109.25V6.547h2.266Zm-2.4-10.641a1.112,1.112,0,0,1,.34-.836,1.465,1.465,0,0,1,1.848,0,1.105,1.105,0,0,1,.344.836,1.108,1.108,0,0,1-.348.844,1.448,1.448,0,0,1-1.836,0A1.108,1.108,0,0,1,109.117,4.359ZM113.922,15V8.2h-1.258V6.547h1.258V6.156A3.17,3.17,0,0,1,114.9,3.7a3.945,3.945,0,0,1,2.723-.863,9.031,9.031,0,0,1,2.563.461l-.328,1.867a10,10,0,0,0-1.187-.293,5.835,5.835,0,0,0-.906-.066q-1.578,0-1.578,1.4v.344h1.664V8.2h-1.664V15Zm7.32,0h-2.266V6.547h2.266Zm5.383-1.664a1.481,1.481,0,0,0,1.016-.344,1.2,1.2,0,0,0,.406-.914h2.117a2.9,2.9,0,0,1-.469,1.574,3.093,3.093,0,0,1-1.262,1.109,3.949,3.949,0,0,1-1.77.395A3.67,3.67,0,0,1,123.8,14a4.56,4.56,0,0,1-1.047-3.184v-.148A4.508,4.508,0,0,1,123.8,7.555a3.627,3.627,0,0,1,2.852-1.164,3.555,3.555,0,0,1,2.543.9,3.2,3.2,0,0,1,.973,2.4h-2.117a1.552,1.552,0,0,0-.406-1.072,1.51,1.51,0,0,0-2.223.163,3.333,3.333,0,0,0-.4,1.866v.235a3.375,3.375,0,0,0,.4,1.878A1.377,1.377,0,0,0,126.625,13.336ZM133.836,15H131.57V6.547h2.266Zm-2.4-10.641a1.112,1.112,0,0,1,.34-.836,1.465,1.465,0,0,1,1.848,0,1.105,1.105,0,0,1,.344.836,1.109,1.109,0,0,1-.348.844,1.448,1.448,0,0,1-1.836,0A1.109,1.109,0,0,1,131.438,4.359ZM140.594,15a2.507,2.507,0,0,1-.227-.758,2.732,2.732,0,0,1-2.133.914,3,3,0,0,1-2.059-.719,2.312,2.312,0,0,1-.816-1.812,2.389,2.389,0,0,1,1-2.062,4.915,4.915,0,0,1,2.879-.727h1.039V9.352a1.393,1.393,0,0,0-.3-.937,1.183,1.183,0,0,0-.949-.352,1.345,1.345,0,0,0-.895.273.929.929,0,0,0-.324.75h-2.258A2.268,2.268,0,0,1,136,7.727a3,3,0,0,1,1.281-.98,4.669,4.669,0,0,1,1.859-.355,3.689,3.689,0,0,1,2.48.785,2.747,2.747,0,0,1,.918,2.207v3.664a4.041,4.041,0,0,0,.336,1.82V15Zm-1.867-1.57a1.945,1.945,0,0,0,.922-.223,1.462,1.462,0,0,0,.625-.6V11.156h-.844q-1.7,0-1.8,1.172l-.008.133a.9.9,0,0,0,.3.7A1.153,1.153,0,0,0,138.727,13.43Zm7.93,1.57h-2.266V3h2.266Z" transform="translate(-1749.111 -7393.907)" fill="#fff"/>
          <path id="Path_881777" data-name="Path 881777" d="M5.4,5.914l1.486,8.741,4.507-8.741h3.237L12.526,18h-2.44l.6-3.445,1.179-5.379L7.23,18H5.562L3.943,8.869l-.78,5.952L2.606,18H.174l2.1-12.086ZM19.748,18a2.423,2.423,0,0,1-.091-.813,3.042,3.042,0,0,1-2.291.979A2.756,2.756,0,0,1,15.41,17.4a2.323,2.323,0,0,1-.726-1.855,2.685,2.685,0,0,1,1.233-2.254,5.6,5.6,0,0,1,3.15-.784l1.1.017.116-.54a1.874,1.874,0,0,0,.025-.523.9.9,0,0,0-.295-.61,1.015,1.015,0,0,0-.668-.228,1.43,1.43,0,0,0-.93.27,1.308,1.308,0,0,0-.49.826l-2.349.008a2.611,2.611,0,0,1,1.183-2.088,4.581,4.581,0,0,1,2.777-.784,3.312,3.312,0,0,1,2.391.909,2.659,2.659,0,0,1,.722,2.254l-.689,4.3-.042.531a2.563,2.563,0,0,0,.141,1L22.047,18Zm-1.8-1.652a2.144,2.144,0,0,0,1.768-.88L20,13.916l-.813-.008a2.273,2.273,0,0,0-1.868.789,1.373,1.373,0,0,0-.257.672.8.8,0,0,0,.187.71A.946.946,0,0,0,17.946,16.348Zm9.463-.108a1.537,1.537,0,0,0,1.079-.353,1.734,1.734,0,0,0,.564-.984l2.2-.008a3.226,3.226,0,0,1-.594,1.7,3.606,3.606,0,0,1-1.428,1.179,4.087,4.087,0,0,1-1.88.4,3.319,3.319,0,0,1-2.59-1.129,4.213,4.213,0,0,1-.921-2.938l.025-.457.008-.091a5.615,5.615,0,0,1,1.478-3.474,4,4,0,0,1,3.1-1.233,3.238,3.238,0,0,1,2.411.992,3.5,3.5,0,0,1,.876,2.528H29.551a1.838,1.838,0,0,0-.315-1.137,1.2,1.2,0,0,0-.946-.448q-1.677-.05-2.034,2.449a8.269,8.269,0,0,0-.091,1.527Q26.247,16.215,27.409,16.24Zm8.317-6.226a3.13,3.13,0,0,1,2.432-1.162,2.277,2.277,0,0,1,1.963.959,3.769,3.769,0,0,1,.469,2.528L39.645,18H37.3l.955-5.693a2.759,2.759,0,0,0,.017-.6.941.941,0,0,0-1.046-.922,2.022,2.022,0,0,0-1.66.814L34.44,18H32.1L34.307,5.25h2.349ZM43.944,18H41.587l1.561-8.981H45.5ZM43.421,6.736a1.169,1.169,0,0,1,.365-.921,1.405,1.405,0,0,1,1.843-.042,1.164,1.164,0,0,1,.407.88,1.2,1.2,0,0,1-.344.9,1.291,1.291,0,0,1-.942.4,1.313,1.313,0,0,1-.917-.315A1.159,1.159,0,0,1,43.421,6.736ZM49.63,9.01l-.2,1.063a3.232,3.232,0,0,1,2.615-1.22,2.155,2.155,0,0,1,1.876.93,3.746,3.746,0,0,1,.44,2.507L53.416,18H51.075l.963-5.736a2.686,2.686,0,0,0,.017-.589.951.951,0,0,0-1.062-.872,2.015,2.015,0,0,0-1.652.855L48.219,18H45.878l1.561-8.981Zm9.886,9.156a3.907,3.907,0,0,1-2.088-.577,3.5,3.5,0,0,1-1.357-1.561,4.349,4.349,0,0,1-.349-2.187l.025-.332a5.806,5.806,0,0,1,.764-2.407,4.613,4.613,0,0,1,1.644-1.689,4.066,4.066,0,0,1,2.225-.56,3.107,3.107,0,0,1,2.627,1.276,4.374,4.374,0,0,1,.677,3.147L63.551,14.3h-5.5a1.927,1.927,0,0,0,.423,1.395,1.616,1.616,0,0,0,1.245.54,2.872,2.872,0,0,0,2.241-1l1.071,1.328a3.331,3.331,0,0,1-1.461,1.191A4.777,4.777,0,0,1,59.517,18.166Zm.747-7.379a1.663,1.663,0,0,0-1.15.407,3.573,3.573,0,0,0-.9,1.469h3.221l.05-.216a2.2,2.2,0,0,0,.008-.631,1.2,1.2,0,0,0-.407-.751A1.275,1.275,0,0,0,60.264,10.787ZM70.914,18H68.556L70.772,5.25h2.349Zm6.25.166a3.907,3.907,0,0,1-2.088-.577,3.5,3.5,0,0,1-1.357-1.561,4.349,4.349,0,0,1-.349-2.187l.025-.332a5.806,5.806,0,0,1,.764-2.407A4.613,4.613,0,0,1,75.8,9.413a4.066,4.066,0,0,1,2.225-.56,3.107,3.107,0,0,1,2.627,1.276,4.374,4.374,0,0,1,.677,3.147L81.2,14.3h-5.5a1.927,1.927,0,0,0,.423,1.395,1.616,1.616,0,0,0,1.245.54,2.872,2.872,0,0,0,2.241-1l1.071,1.328a3.331,3.331,0,0,1-1.461,1.191A4.777,4.777,0,0,1,77.164,18.166Zm.747-7.379a1.663,1.663,0,0,0-1.15.407,3.573,3.573,0,0,0-.9,1.469h3.221l.05-.216a2.2,2.2,0,0,0,.008-.631,1.2,1.2,0,0,0-.407-.751A1.275,1.275,0,0,0,77.911,10.787ZM87.092,18A2.423,2.423,0,0,1,87,17.187a3.042,3.042,0,0,1-2.291.979,2.756,2.756,0,0,1-1.955-.768,2.323,2.323,0,0,1-.726-1.855,2.685,2.685,0,0,1,1.233-2.254,5.6,5.6,0,0,1,3.15-.784l1.1.017.116-.54a1.874,1.874,0,0,0,.025-.523.9.9,0,0,0-.295-.61,1.015,1.015,0,0,0-.668-.228,1.43,1.43,0,0,0-.93.27,1.308,1.308,0,0,0-.49.826l-2.349.008A2.611,2.611,0,0,1,84.1,9.637a4.581,4.581,0,0,1,2.777-.784,3.312,3.312,0,0,1,2.391.909,2.659,2.659,0,0,1,.722,2.254l-.689,4.3-.042.531a2.563,2.563,0,0,0,.141,1L89.391,18Zm-1.8-1.652a2.144,2.144,0,0,0,1.768-.88l.291-1.552-.813-.008a2.273,2.273,0,0,0-1.868.789,1.373,1.373,0,0,0-.257.672.8.8,0,0,0,.187.71A.946.946,0,0,0,85.291,16.348Zm11.679-5.08a4.833,4.833,0,0,0-.789-.083,2.269,2.269,0,0,0-1.984.938L93.16,18H90.819l1.561-8.981,2.2-.008-.216,1.1a2.47,2.47,0,0,1,2.092-1.27,3.415,3.415,0,0,1,.813.116Zm3.652-2.258-.2,1.063a3.232,3.232,0,0,1,2.615-1.22,2.155,2.155,0,0,1,1.876.93,3.746,3.746,0,0,1,.44,2.507L104.407,18h-2.341l.963-5.736a2.686,2.686,0,0,0,.017-.589.951.951,0,0,0-1.062-.872,2.015,2.015,0,0,0-1.652.855L99.211,18H96.87l1.561-8.981ZM108.715,18h-2.357l1.561-8.981h2.357Zm-.523-11.264a1.169,1.169,0,0,1,.365-.921,1.405,1.405,0,0,1,1.843-.042,1.164,1.164,0,0,1,.407.88,1.2,1.2,0,0,1-.344.9,1.291,1.291,0,0,1-.942.4,1.313,1.313,0,0,1-.917-.315A1.159,1.159,0,0,1,108.192,6.736ZM114.4,9.01l-.2,1.063a3.232,3.232,0,0,1,2.615-1.22,2.155,2.155,0,0,1,1.876.93,3.746,3.746,0,0,1,.44,2.507L118.187,18h-2.341l.963-5.736a2.686,2.686,0,0,0,.017-.589.951.951,0,0,0-1.062-.872,2.015,2.015,0,0,0-1.652.855L112.99,18h-2.341l1.561-8.981Zm6.068,4.491a6.214,6.214,0,0,1,1.357-3.383,3.444,3.444,0,0,1,2.793-1.274,2.518,2.518,0,0,1,2.142,1.038l.307-.872,2.15.008-1.469,8.674a4.232,4.232,0,0,1-1.527,2.839,4.751,4.751,0,0,1-3.187,1.013,4.429,4.429,0,0,1-1.776-.4,3.8,3.8,0,0,1-1.395-1.058l1.162-1.428a2.5,2.5,0,0,0,1.959,1.021,2.3,2.3,0,0,0,1.561-.477,2.554,2.554,0,0,0,.88-1.44l.133-.54a2.921,2.921,0,0,1-2.2.946,2.58,2.58,0,0,1-2.083-.975,4.194,4.194,0,0,1-.847-2.494A8.383,8.383,0,0,1,120.469,13.5Zm2.3.985a2.147,2.147,0,0,0,.328,1.251,1.147,1.147,0,0,0,.95.495,2.1,2.1,0,0,0,1.693-.815l.7-3.807a1.377,1.377,0,0,0-1.32-.815,1.836,1.836,0,0,0-1.519.723,3.783,3.783,0,0,0-.78,1.987A8.728,8.728,0,0,0,122.769,14.486Z" transform="translate(-1724.256 -7341.438)" fill="#12263f"/>
          <path id="Path_881778" data-name="Path 881778" d="M.174,18l2.1-12.086,3.47.008a4.752,4.752,0,0,1,2.2.552A4.149,4.149,0,0,1,9.521,7.989a5.188,5.188,0,0,1,.73,2.225,7.343,7.343,0,0,1-.017,1.478l-.058.44a6.9,6.9,0,0,1-2.088,4.262A5.906,5.906,0,0,1,3.91,18ZM4.358,7.931,2.955,16l1.013.008a3.322,3.322,0,0,0,2.694-1.229,6.349,6.349,0,0,0,1.166-3.71l.017-.266a3.348,3.348,0,0,0-.523-2.1,2,2,0,0,0-1.635-.764ZM15.091,18.166A3.907,3.907,0,0,1,13,17.589a3.5,3.5,0,0,1-1.357-1.561,4.349,4.349,0,0,1-.349-2.187l.025-.332a5.806,5.806,0,0,1,.764-2.407,4.613,4.613,0,0,1,1.644-1.689,4.066,4.066,0,0,1,2.225-.56,3.107,3.107,0,0,1,2.627,1.276,4.374,4.374,0,0,1,.677,3.147L19.125,14.3h-5.5a1.927,1.927,0,0,0,.423,1.395,1.616,1.616,0,0,0,1.245.54,2.872,2.872,0,0,0,2.241-1L18.6,16.564a3.331,3.331,0,0,1-1.461,1.191A4.777,4.777,0,0,1,15.091,18.166Zm.747-7.379a1.663,1.663,0,0,0-1.15.407,3.573,3.573,0,0,0-.9,1.469h3.221l.05-.216a2.2,2.2,0,0,0,.008-.631,1.2,1.2,0,0,0-.407-.751A1.275,1.275,0,0,0,15.838,10.787Zm8.251,7.379A3.907,3.907,0,0,1,22,17.589a3.5,3.5,0,0,1-1.357-1.561,4.349,4.349,0,0,1-.349-2.187l.025-.332a5.806,5.806,0,0,1,.764-2.407,4.613,4.613,0,0,1,1.644-1.689,4.066,4.066,0,0,1,2.225-.56,3.107,3.107,0,0,1,2.627,1.276,4.374,4.374,0,0,1,.677,3.147L28.123,14.3h-5.5a1.927,1.927,0,0,0,.423,1.395,1.616,1.616,0,0,0,1.245.54,2.872,2.872,0,0,0,2.241-1L27.6,16.564a3.331,3.331,0,0,1-1.461,1.191A4.777,4.777,0,0,1,24.089,18.166Zm.747-7.379a1.663,1.663,0,0,0-1.15.407,3.573,3.573,0,0,0-.9,1.469h3.221l.05-.216a2.2,2.2,0,0,0,.008-.631,1.2,1.2,0,0,0-.407-.751A1.275,1.275,0,0,0,24.836,10.787Zm12.609,2.748a7.418,7.418,0,0,1-.739,2.507,4.065,4.065,0,0,1-1.4,1.627,3.249,3.249,0,0,1-1.859.506,2.593,2.593,0,0,1-2.059-.971l-.822,4.25H28.223l2.15-12.435,2.158-.008-.158.9a2.868,2.868,0,0,1,2.291-1.062,2.551,2.551,0,0,1,2.05.959,4.167,4.167,0,0,1,.78,2.511A9.7,9.7,0,0,1,37.445,13.534Zm-2.324-.17.05-.8a2.22,2.22,0,0,0-.295-1.28,1.058,1.058,0,0,0-.909-.49,1.932,1.932,0,0,0-1.685.865l-.672,3.708a1.31,1.31,0,0,0,1.32.873,1.689,1.689,0,0,0,1.411-.657A4.5,4.5,0,0,0,35.121,13.364ZM44.849,18H42.492L44.708,5.25h2.349Zm6.25.166a3.907,3.907,0,0,1-2.088-.577,3.5,3.5,0,0,1-1.357-1.561,4.349,4.349,0,0,1-.349-2.187l.025-.332a5.806,5.806,0,0,1,.764-2.407,4.613,4.613,0,0,1,1.644-1.689,4.066,4.066,0,0,1,2.225-.56,3.107,3.107,0,0,1,2.627,1.276,4.374,4.374,0,0,1,.677,3.147L55.134,14.3h-5.5a1.927,1.927,0,0,0,.423,1.395,1.616,1.616,0,0,0,1.245.54,2.872,2.872,0,0,0,2.241-1l1.071,1.328a3.331,3.331,0,0,1-1.461,1.191A4.777,4.777,0,0,1,51.1,18.166Zm.747-7.379a1.663,1.663,0,0,0-1.15.407,3.573,3.573,0,0,0-.9,1.469h3.221l.05-.216a2.2,2.2,0,0,0,.008-.631,1.2,1.2,0,0,0-.407-.751A1.275,1.275,0,0,0,51.847,10.787ZM61.027,18a2.423,2.423,0,0,1-.091-.813,3.042,3.042,0,0,1-2.291.979A2.756,2.756,0,0,1,56.69,17.4a2.323,2.323,0,0,1-.726-1.855A2.685,2.685,0,0,1,57.2,13.289a5.6,5.6,0,0,1,3.15-.784l1.1.017.116-.54a1.874,1.874,0,0,0,.025-.523.9.9,0,0,0-.295-.61,1.015,1.015,0,0,0-.668-.228,1.43,1.43,0,0,0-.93.27,1.308,1.308,0,0,0-.49.826l-2.349.008a2.611,2.611,0,0,1,1.183-2.088,4.581,4.581,0,0,1,2.777-.784,3.312,3.312,0,0,1,2.391.909,2.659,2.659,0,0,1,.722,2.254l-.689,4.3-.042.531a2.563,2.563,0,0,0,.141,1L63.327,18Zm-1.8-1.652a2.144,2.144,0,0,0,1.768-.88l.291-1.552-.813-.008A2.273,2.273,0,0,0,58.6,14.7a1.373,1.373,0,0,0-.257.672.8.8,0,0,0,.187.71A.946.946,0,0,0,59.226,16.348Zm11.679-5.08a4.833,4.833,0,0,0-.789-.083,2.269,2.269,0,0,0-1.984.938L67.1,18H64.754l1.561-8.981,2.2-.008-.216,1.1a2.47,2.47,0,0,1,2.092-1.27,3.415,3.415,0,0,1,.813.116ZM74.558,9.01l-.2,1.063a3.232,3.232,0,0,1,2.615-1.22,2.155,2.155,0,0,1,1.876.93,3.746,3.746,0,0,1,.44,2.507L78.343,18H76l.963-5.736a2.686,2.686,0,0,0,.017-.589.951.951,0,0,0-1.062-.872,2.015,2.015,0,0,0-1.652.855L73.146,18H70.806l1.561-8.981ZM82.651,18H80.293l1.561-8.981h2.357ZM82.128,6.736a1.169,1.169,0,0,1,.365-.921,1.405,1.405,0,0,1,1.843-.042,1.164,1.164,0,0,1,.407.88,1.2,1.2,0,0,1-.344.9,1.291,1.291,0,0,1-.942.4,1.313,1.313,0,0,1-.917-.315A1.159,1.159,0,0,1,82.128,6.736ZM88.337,9.01l-.2,1.063a3.232,3.232,0,0,1,2.615-1.22,2.155,2.155,0,0,1,1.876.93,3.746,3.746,0,0,1,.44,2.507L92.122,18H89.781l.963-5.736a2.686,2.686,0,0,0,.017-.589A.951.951,0,0,0,89.7,10.8a2.015,2.015,0,0,0-1.652.855L86.926,18H84.585l1.561-8.981ZM94.4,13.5a6.214,6.214,0,0,1,1.357-3.383,3.444,3.444,0,0,1,2.793-1.274A2.518,2.518,0,0,1,100.7,9.882L101,9.01l2.15.008-1.469,8.674a4.232,4.232,0,0,1-1.527,2.839,4.751,4.751,0,0,1-3.187,1.013,4.429,4.429,0,0,1-1.776-.4A3.8,3.8,0,0,1,93.8,20.083l1.162-1.428a2.5,2.5,0,0,0,1.959,1.021A2.3,2.3,0,0,0,98.48,19.2a2.554,2.554,0,0,0,.88-1.44l.133-.54a2.921,2.921,0,0,1-2.2.946,2.58,2.58,0,0,1-2.083-.975,4.194,4.194,0,0,1-.847-2.494A8.383,8.383,0,0,1,94.4,13.5Zm2.3.985a2.147,2.147,0,0,0,.328,1.251,1.147,1.147,0,0,0,.95.495,2.1,2.1,0,0,0,1.693-.815l.7-3.807a1.377,1.377,0,0,0-1.32-.815,1.836,1.836,0,0,0-1.519.723,3.783,3.783,0,0,0-.78,1.987A8.728,8.728,0,0,0,96.7,14.486Z" transform="translate(-1699.443 -7271.106)" fill="#12263f"/>
          <path id="Path_881779" data-name="Path 881779" d="M10.907,16H8.417L3.569,8.048V16H1.079V3.914h2.49l4.856,7.969V3.914h2.482Zm4.665-4.258V16h-2.49V3.914H17.8a5.455,5.455,0,0,1,2.395.5,3.67,3.67,0,0,1,1.59,1.415,3.946,3.946,0,0,1,.556,2.088,3.47,3.47,0,0,1-1.216,2.8,5.065,5.065,0,0,1-3.366,1.025Zm0-2.017H17.8A2.187,2.187,0,0,0,19.3,9.26a1.691,1.691,0,0,0,.519-1.328A1.994,1.994,0,0,0,19.3,6.5a1.953,1.953,0,0,0-1.444-.564H15.572ZM26.538,14h5.288v2H24.047V3.914h2.49Z" transform="translate(-1550.617 -7307)" fill="#12263f"/>
        </g>
      </g>
    </g>
  </g>
</svg>
