<svg xmlns="http://www.w3.org/2000/svg" xmlns:xlink="http://www.w3.org/1999/xlink" width="98.579" height="98.578" viewBox="0 0 98.579 98.578">
  <defs>
    <clipPath id="clip-path">
      <rect id="Rectangle_401223" data-name="Rectangle 401223" width="98.579" height="98.578" transform="translate(0)" fill="#bfa9fe"/>
    </clipPath>
    <clipPath id="clip-path-2">
      <rect id="Rectangle_401223-2" data-name="Rectangle 401223" width="88.117" height="88.116" fill="#d7c9fe"/>
    </clipPath>
  </defs>
  <g id="Group_1107072" data-name="Group 1107072" transform="translate(-753.296 -1615.097)">
    <g id="Group_1102150" data-name="Group 1102150" transform="translate(-168.037 1204.092)">
      <g id="Group_1099654" data-name="Group 1099654" transform="translate(921.333 411.006)">
        <g id="Group_1099652" data-name="Group 1099652" transform="translate(0 0)" clip-path="url(#clip-path)">
          <path id="Path_873521" data-name="Path 873521" d="M98.579,76.737a21.9,21.9,0,0,1-21.84,21.84H21.84A21.9,21.9,0,0,1,0,76.737V21.84A21.9,21.9,0,0,1,21.84,0h54.9a21.9,21.9,0,0,1,21.84,21.841Z" transform="translate(0)" fill="#bfa9fe"/>
        </g>
      </g>
      <g id="Group_1099659" data-name="Group 1099659" transform="translate(926.103 416.728)">
        <g id="Group_1099652-2" data-name="Group 1099652" transform="translate(0 0)" clip-path="url(#clip-path-2)">
          <path id="Path_873521-2" data-name="Path 873521" d="M88.117,68.594A19.58,19.58,0,0,1,68.595,88.116H19.523A19.58,19.58,0,0,1,0,68.594V19.522A19.58,19.58,0,0,1,19.523,0H68.595A19.58,19.58,0,0,1,88.117,19.523Z" fill="#d7c9fe"/>
        </g>
      </g>
    </g>
    <g id="Group_1102151" data-name="Group 1102151" transform="translate(769.238 1630.901)">
      <rect id="Rectangle_401104" data-name="Rectangle 401104" width="68" height="69" transform="translate(0.059 -0.804)" fill="none"/>
      <g id="Group_1103998" data-name="Group 1103998" transform="translate(-3663.583 -2377.03)">
        <path id="Path_878257" data-name="Path 878257" d="M3724.306,2416.36c1,0,2,.04,3,0,1.049-.041,1.423.426,1.418,1.452-.025,5.877-.012,11.754-.012,17.631q0,7.259,0,14.52c0,1.421-.226,1.653-1.687,1.654q-12.274.009-24.548,0c-1.384,0-1.621-.305-1.695-1.7-.064-1.2.3-2.439-.236-3.611a2.534,2.534,0,0,1-.161-1.242q.014-12.961,0-25.921c0-.422-.011-.845.021-1.267.1-1.269.583-1.758,1.871-1.884.268-.026.537-.028.806-.028q9.735-.006,19.471,0A2.382,2.382,0,0,1,3724.306,2416.36Z" transform="translate(-28.672 -31.757)" fill="#fde0ea"/>
        <path id="Path_878258" data-name="Path 878258" d="M3836.1,2636.3l-6.912-.009c-.322-.437-.111-.888-.019-1.327a22.03,22.03,0,0,0,.627-4.781c0-.412.3-1.016-.44-1.085s-.718.544-.785,1.03a31.459,31.459,0,0,1-.771,4.878,2.32,2.32,0,0,1-.688,1.292l-6.692-.014c-.191-.574.154-1.037.34-1.521a23.335,23.335,0,0,0,1.327-4.618c.085-.513.151-1.043-.568-1.136-.669-.087-.7.432-.777.891a15.67,15.67,0,0,1-1.637,5.1c-.426.75-.245,1.032.593,1a.884.884,0,0,1,.725.282,2.094,2.094,0,0,1-1.766.2,44.929,44.929,0,0,0-6.319-.166,1.846,1.846,0,0,1-1.823-.924c-.44-.785.034-1.336.465-1.86a25.742,25.742,0,0,0,3.318-4.532,16.588,16.588,0,0,0,1.772-6.023,4.451,4.451,0,0,1,.212-.769,2.09,2.09,0,0,1,1.523-.381q12.537-.014,25.073,0a2.079,2.079,0,0,1,1.523.378c.007,3.84.03,7.68.014,11.521a2.467,2.467,0,0,1-2.638,2.569c-1.268.019-2.535,0-3.8.006a1.97,1.97,0,0,1-.394-1.515c-.017-1.535.02-3.072-.022-4.606-.01-.389.087-.968-.523-.975s-.522.575-.532.963c-.042,1.535-.006,3.071-.021,4.607A2.049,2.049,0,0,1,3836.1,2636.3Z" transform="translate(-113.262 -190.129)" fill="#c5fdff"/>
        <path id="Path_878259" data-name="Path 878259" d="M3852.4,2585.03a2.166,2.166,0,0,0,1.333.211c2.521,0,5.043-.011,7.565.007a2.538,2.538,0,0,1,2.849,2.818c.011,1.3-.014,2.6-.022,3.9a2.035,2.035,0,0,1-1.517.407q-12.554.014-25.107,0a2.033,2.033,0,0,1-1.515-.41c-.008-1.262-.027-2.524-.022-3.786.008-1.952.935-2.909,2.865-2.923,2.525-.018,5.051,0,7.576-.006a2.637,2.637,0,0,0,1.347-.186A17.92,17.92,0,0,1,3852.4,2585.03Z" transform="translate(-132.975 -161.714)" fill="#00d5e4"/>
        <path id="Path_878260" data-name="Path 878260" d="M3679.685,2429.275c-3.136.115-2.8,0-2.8-2.737a4,4,0,0,1,0-.57c.14-.953-.157-1.463-1.221-1.3a1.793,1.793,0,0,1-.644-.162c.051-.056.1-.113.151-.17,1.1-.237,1.354-.937,1.35-2.009-.038-8.333-.022-16.666-.021-25,0-.384,0-.768,0-1.152.032-1.942.363-2.295,2.3-2.3q9.563-.023,19.125,0a5.309,5.309,0,0,1,2.276.157c1.069.01,2.139-.008,3.207.038.911.039,1.52.389,1.4,1.481a21.514,21.514,0,0,0-.022,2.175,2.7,2.7,0,0,1-1.356.158q-9.854-.011-19.709,0a9.646,9.646,0,0,0-1.5.067,2.58,2.58,0,0,0-2.375,2.539c-.038.421-.028.845-.028,1.267q0,13.138,0,26.275A2.564,2.564,0,0,1,3679.685,2429.275Z" transform="translate(-9.171 -14.732)" fill="#fde0ea"/>
        <path id="Path_878261" data-name="Path 878261" d="M3665.857,2409.769c-2.8-.086-2.755.383-2.75-2.89q.022-15.268.006-30.536c0-1.66,0-1.662,1.666-1.662H3689.1c1.928,0,1.928,0,1.929,1.973,0,.345-.006.691-.009,1.036a2.727,2.727,0,0,1-1.983.386q-9.562.015-19.125.006c-.5,0-1-.018-1.5.032a2.149,2.149,0,0,0-2.092,2.057,13.837,13.837,0,0,0-.036,1.5q0,13.018-.007,26.035a2.846,2.846,0,0,1-.348,1.993Z" transform="translate(0)" fill="#fde0ea"/>
        <path id="Path_878262" data-name="Path 878262" d="M3675.169,2419.652c-.015-3.3-.041-6.6-.044-9.905q-.01-9.62,0-19.24c0-1.963.926-2.886,2.9-2.885q11.118,0,22.236.024.01.805.02,1.611a2.8,2.8,0,0,1-1.463.208q-10.192,0-20.384,0c-1.437,0-1.471.036-1.471,1.5q0,13.473-.008,26.945C3676.948,2419.721,3677.386,2419.719,3675.169,2419.652Z" transform="translate(-9.242 -9.956)" fill="#ffc9dd"/>
        <path id="Path_878263" data-name="Path 878263" d="M3694.393,2441.535a1.931,1.931,0,0,1-.238-1.328q0-13.586,0-27.171a2.936,2.936,0,0,1,3.279-3.263q10.42-.016,20.841,0a2.121,2.121,0,0,1,1.226.218q.005.8.011,1.609l-21.518.01c-1.892,0-2,.108-2,2.033q0,13.232,0,26.463a2.049,2.049,0,0,1-.247,1.438Z" transform="translate(-23.879 -26.992)" fill="#ffc9dd"/>
        <path id="Path_878264" data-name="Path 878264" d="M3887.133,2518.544c-.01-5.259-.032-10.517-.021-15.776a2.3,2.3,0,0,1,4.6-.015c.013,5.259-.006,10.517-.013,15.776A6.1,6.1,0,0,1,3887.133,2518.544Z" transform="translate(-172.324 -96.801)" fill="#00d5e4"/>
        <path id="Path_878265" data-name="Path 878265" d="M3882.042,2399.541c.325.759.686,1.506.962,2.282.159.447.468.406.8.429.442.031.91-.117,1.318.174a.5.5,0,0,1-.219.234c-.4.274-1.246-.147-1.259.651-.011.688.822.358,1.16.689a.216.216,0,0,1,.076.187c-.009.069-.021.1-.038.1-1.159-.167-1.7.324-2.13,1.453a6.008,6.008,0,0,1-6.3,3.8c-3.142-.613-5.267-2.8-5.412-5.561a6.045,6.045,0,0,1,4.34-6.4,5.908,5.908,0,0,1,5.164.767c.109.931-.5,1.343-1.214,1.677-2.383-.926-3.927-.641-5.309.982a3.917,3.917,0,0,0-.154,4.618,3.856,3.856,0,0,0,4.431,1.586c2.513-.9,3.333-2.945,2.327-5.808A2.113,2.113,0,0,1,3882.042,2399.541Z" transform="translate(-159.927 -17.417)" fill="#065564"/>
        <path id="Path_878266" data-name="Path 878266" d="M3836.058,2615.519l28.14,0q-.006.918-.011,1.837l-28.12,0Z" transform="translate(-133.051 -185.276)" fill="#065564"/>
        <path id="Path_878267" data-name="Path 878267" d="M3706.308,2639.47q-8.066,0-16.132,0c-1.906,0-2.088-.19-2.088-2.116,0-1.959.03-3.918-.015-5.876-.017-.759.235-.991.987-.99s.887.338.877.984c-.028,1.766.01,3.533-.02,5.3-.011.646.216.875.865.872,4.878-.018,9.756,0,14.634-.02.646,0,1.29-.151,1.938-.187.452-.025.582-.246.6-.657s-.133-.852.191-1.215c.767.835.762,1.3-.018,2.227-.789.178-1.668.256-1.614,1.408A1.533,1.533,0,0,1,3706.308,2639.47Z" transform="translate(-19.206 -196.79)" fill="#065564"/>
        <path id="Path_878268" data-name="Path 878268" d="M3930.714,2421.325v-.164a1.8,1.8,0,0,1,.2-1.614c.028-.028.055-.056.082-.085,1.92.009,3.841.052,5.761.012.966-.021,1.393.272,1.377,1.309-.046,3.149-.027,6.3-.008,9.448,0,.655-.049,1.067-.9,1.081-.921.015-.963-.448-.957-1.143.022-2.5-.035-4.994.03-7.489.026-1.016-.2-1.453-1.32-1.375C3933.561,2421.4,3932.135,2421.326,3930.714,2421.325Z" transform="translate(-205.795 -34.45)" fill="#065564"/>
        <path id="Path_878269" data-name="Path 878269" d="M3889.574,2397.666a7.078,7.078,0,0,0,1.162-1.562,10.606,10.606,0,0,0,1.009-1.23c.375-.619.668-.586,1.245-.186.7.484.68.846.154,1.407a11.468,11.468,0,0,0-.874,1.2l-1.333,1.756a13.268,13.268,0,0,1-3.249,4.381c-.5.514-1.15.269-1.652-.2a20.461,20.461,0,0,1-1.419-1.665.929.929,0,0,1,.018-1.429c.445-.412.987-.76,1.53-.266.816.742,1.225.274,1.73-.376S3888.711,2397.993,3889.574,2397.666Z" transform="translate(-170.156 -15.167)" fill="#a01f4e"/>
        <path id="Path_878270" data-name="Path 878270" d="M3768.7,2652.953c.828-.613.5-1.36.245-2.1.233-.709.695-.539,1.047-.186.838.84,1.621,1.735,2.419,2.614a.673.673,0,0,1-.063,1.017c-.751.819-1.488,1.651-2.242,2.466-.2.216-.393.514-.765.388a.809.809,0,0,1-.564-.909c.25-1.443-.613-1.553-1.668-1.484,0-.065,0-.13,0-.194A2.3,2.3,0,0,0,3768.7,2652.953Z" transform="translate(-80.006 -212.081)" fill="#065564"/>
        <path id="Path_878271" data-name="Path 878271" d="M3883.032,2659.065a26.936,26.936,0,0,0,1.127-6.89c.042-1.086.8-.661,1.315-.733.634-.088.764.236.712.824a33.571,33.571,0,0,1-1.077,6.792Z" transform="translate(-169.187 -212.892)" fill="#3762a2"/>
        <path id="Path_878272" data-name="Path 878272" d="M3951.638,2539.026a.6.6,0,0,1-.669-.422,3.2,3.2,0,0,0-1.732-1.742c-.666-.3-.7-.821.011-1.158a3.372,3.372,0,0,0,1.73-1.753c.274-.615.793-.7,1.089-.052a3.734,3.734,0,0,0,1.913,1.883c.513.247.512.745.017.969a3.523,3.523,0,0,0-1.96,1.983A.437.437,0,0,1,3951.638,2539.026Z" transform="translate(-219.725 -122.141)" fill="#ffb12d"/>
        <path id="Path_878273" data-name="Path 878273" d="M3795.4,2608.024c-.036.366-.317.519-.6.626a2.72,2.72,0,0,0-1.524,1.479c-.145.3-.255.689-.7.656-.359-.027-.493-.332-.606-.62a2.84,2.84,0,0,0-1.494-1.51c-.866-.437-.856-.862.015-1.324a3.029,3.029,0,0,0,1.488-1.525c.23-.553.729-.917,1.083-.286a4.3,4.3,0,0,0,2.088,2.03A.435.435,0,0,1,3795.4,2608.024Z" transform="translate(-97.491 -177.329)" fill="#ffb12d"/>
        <path id="Path_878274" data-name="Path 878274" d="M3921.881,2659.05c-.006-2.221.014-4.443-.033-6.663-.016-.748.214-.991.973-.99s.986.252.971,1c-.046,2.22-.027,4.442-.034,6.664Z" transform="translate(-199.048 -212.876)" fill="#3762a2"/>
        <path id="Path_878275" data-name="Path 878275" d="M3887.093,2578.625l4.57-.015.044,1.588a9.98,9.98,0,0,1-4.649.026Z" transform="translate(-172.285 -156.882)" fill="#065564"/>
        <path id="Path_878276" data-name="Path 878276" d="M3956.087,2480.594c.791-.145,1.068.158,1.054.923-.014.733-.166,1.149-1.019,1.13-.716-.016-1.049-.229-1.034-.992C3955.1,2480.923,3955.245,2480.417,3956.087,2480.594Z" transform="translate(-224.619 -81.452)" fill="#065564"/>
        <path id="Path_878277" data-name="Path 878277" d="M3957.1,2498.561c.117.834-.212,1.139-1.019,1.133-.757-.006-.991-.306-1-1.024-.009-.769.235-1.11,1.053-1.086C3956.861,2497.606,3957.221,2497.846,3957.1,2498.561Z" transform="translate(-224.611 -94.548)" fill="#065564"/>
        <path id="Path_878278" data-name="Path 878278" d="M3688.058,2595.721c-.131-.768.1-1.1.9-1.086s.917.423.939,1.092c.023.733-.2,1.006-.97,1.007C3688.1,2596.735,3687.922,2596.365,3688.058,2595.721Z" transform="translate(-19.164 -169.209)" fill="#065564"/>
        <path id="Path_878279" data-name="Path 878279" d="M3689.861,2613.4c.117.7-.186.93-.878.945-.76.017-.977-.268-.967-.994.009-.673.2-.933.909-.935C3689.668,2612.411,3690,2612.652,3689.861,2613.4Z" transform="translate(-19.162 -182.886)" fill="#065564"/>
        <path id="Path_878280" data-name="Path 878280" d="M3728.076,2457.473c-2.954,0-5.908-.019-8.862.013-.751.008-1.108-.146-1.1-1s.458-.887,1.1-.886q8.862.016,17.724,0c.7,0,1.042.139,1.04.943s-.322.958-1.034.952C3733.984,2457.457,3731.03,2457.473,3728.076,2457.473Z" transform="translate(-42.315 -62.244)" fill="#ffc9dd"/>
        <path id="Path_878281" data-name="Path 878281" d="M3724.116,2491.755c-1.686,0-3.373-.028-5.057.014-.74.019-.914-.3-.9-.96.018-.642.074-1.125.909-1.12q5.172.03,10.345,0c.878,0,.713.585.734,1.1.022.535.008.986-.749.972C3727.641,2491.734,3725.878,2491.755,3724.116,2491.755Z" transform="translate(-42.354 -88.476)" fill="#ffc9dd"/>
        <path id="Path_878282" data-name="Path 878282" d="M3724.11,2472.606c1.648,0,3.3.031,4.943-.014.765-.021,1.106.166,1.084,1.012-.02.75-.165,1.095-1.016,1.084q-4.944-.064-9.888,0c-.879.01-1.094-.345-1.118-1.161-.029-.949.5-.933,1.166-.925C3720.89,2472.619,3722.5,2472.606,3724.11,2472.606Z" transform="translate(-42.317 -75.322)" fill="#ffc9dd"/>
        <path id="Path_878283" data-name="Path 878283" d="M3724.116,2440.437c-1.687,0-3.376-.029-5.062.013-.741.018-.9-.3-.9-.963-.006-.691.219-.944.928-.938q5.062.041,10.125,0c.674,0,.955.18.958.905,0,.742-.222,1.016-.985,1C3727.492,2440.406,3725.8,2440.437,3724.116,2440.437Z" transform="translate(-42.346 -49.134)" fill="#ffc9dd"/>
        <path id="Path_878284" data-name="Path 878284" d="M3846.17,2658.874h-2.36a16.415,16.415,0,0,0,2.2-5.606c.088-.448.159-.9.234-1.35.094-.561.291-.759.979-.723,1.087.055,1.151.551.99,1.391a24.4,24.4,0,0,1-2.042,6.29Z" transform="translate(-139.014 -212.718)" fill="#3762a2"/>
        <path id="Path_878285" data-name="Path 878285" d="M3925.771,2419.737c-.014.544.236,1.12-.2,1.613a5.327,5.327,0,0,1-1.346-.105c-.455-.153-.239-.648-.265-1-.029-.387.2-.54.562-.535C3924.941,2419.714,3925.356,2419.727,3925.771,2419.737Z" transform="translate(-200.653 -34.639)" fill="#00d5e4"/>
        <path id="Path_878286" data-name="Path 878286" d="M3768.653,2661.593c.087,1.626.087,1.626-1.594,1.613C3767.008,2661.59,3767.008,2661.59,3768.653,2661.593Z" transform="translate(-79.959 -220.72)" fill="#5783bc"/>
      </g>
    </g>
  </g>
</svg>
