<svg xmlns="http://www.w3.org/2000/svg" xmlns:xlink="http://www.w3.org/1999/xlink" width="98.579" height="98.578" viewBox="0 0 98.579 98.578">
  <defs>
    <clipPath id="clip-path">
      <rect id="Rectangle_401223" data-name="Rectangle 401223" width="98.579" height="98.578" transform="translate(0)" fill="#bfa9fe"/>
    </clipPath>
    <clipPath id="clip-path-2">
      <rect id="Rectangle_401223-2" data-name="Rectangle 401223" width="88.117" height="88.116" fill="#d7c9fe"/>
    </clipPath>
  </defs>
  <g id="Group_1107075" data-name="Group 1107075" transform="translate(6775.915 10066.902)">
    <g id="Group_1102415" data-name="Group 1102415" transform="translate(-7697.248 -10477.908)">
      <g id="Group_1099654" data-name="Group 1099654" transform="translate(921.333 411.006)">
        <g id="Group_1099652" data-name="Group 1099652" transform="translate(0 0)" clip-path="url(#clip-path)">
          <path id="Path_873521" data-name="Path 873521" d="M98.579,76.737a21.9,21.9,0,0,1-21.84,21.84H21.84A21.9,21.9,0,0,1,0,76.737V21.84A21.9,21.9,0,0,1,21.84,0h54.9a21.9,21.9,0,0,1,21.84,21.841Z" transform="translate(0)" fill="#bfa9fe"/>
        </g>
      </g>
      <g id="Group_1099659" data-name="Group 1099659" transform="translate(926.103 416.728)">
        <g id="Group_1099652-2" data-name="Group 1099652" transform="translate(0 0)" clip-path="url(#clip-path-2)">
          <path id="Path_873521-2" data-name="Path 873521" d="M88.117,68.594A19.58,19.58,0,0,1,68.595,88.116H19.523A19.58,19.58,0,0,1,0,68.594V19.522A19.58,19.58,0,0,1,19.523,0H68.595A19.58,19.58,0,0,1,88.117,19.523Z" fill="#d7c9fe"/>
        </g>
      </g>
    </g>
    <g id="Group_1102417" data-name="Group 1102417" transform="translate(-6759.973 -10051.099)">
      <rect id="Rectangle_401104" data-name="Rectangle 401104" width="68" height="69" transform="translate(0.059 -0.804)" fill="none"/>
      <g id="Group_1104001" data-name="Group 1104001" transform="translate(-3656.06 -2365.107)">
        <path id="Path_878340" data-name="Path 878340" d="M3657.531,2424.876q0-14.091,0-28.183c0-1.56,0-1.561-1.582-1.648-.27-.014-.547.012-.718-.262a3.029,3.029,0,0,1,2.111-.368q21.365-.013,42.732-.006,7.853,0,15.707,0a3.168,3.168,0,0,1,1.9.316,2.375,2.375,0,0,1,.365,1.653q.015,11.15,0,22.3a3.022,3.022,0,0,1-.232,1.469,2.256,2.256,0,0,1-2.368.276.762.762,0,0,1-.308-.318,4.547,4.547,0,0,1-.187-1.823q-.009-8.2,0-16.4c0-1.961,0-1.961-1.911-2.094-.193,0-.384.031-.576.044-1.263.087-1.346.15-1.352,1.452-.018,4.662-.006,9.323-.007,13.985a14.539,14.539,0,0,1-.041,1.5c-.029,1.188.3,2.4-.3,3.545a7.683,7.683,0,0,1-4.7.029,2.674,2.674,0,0,1-.363-1.872c-.012-4.024,0-8.047-.007-12.071,0-1.853-.006-1.853-1.885-1.989-1.959.122-1.953.122-1.964,2.134-.019,3.413.051,6.828-.035,10.242-.026,1.181.3,2.391-.293,3.526a7.837,7.837,0,0,1-4.674.049,2.167,2.167,0,0,1-.382-1.63c-.016-2.184,0-4.367-.007-6.551,0-1.868-.006-1.868-1.873-1.991-1.991.1-1.985.1-2,2.05-.008,1.523.038,3.045-.027,4.568a9.52,9.52,0,0,1-.192,3.369,1.006,1.006,0,0,1-.675.37c-1.4.312-1.4.313-1.441,1.783,0,.113-.009.227-.006.342a3.292,3.292,0,0,1-.351,2.311,3.389,3.389,0,0,1-1.91.286c-5.037,0-10.075.034-15.112-.042a25.485,25.485,0,0,1-2.913.005c-3.522.05-7.046.046-10.568.035A2.547,2.547,0,0,1,3657.531,2424.876Z" transform="translate(-0.509 -22.174)" fill="#f1f1f1"/>
        <path id="Path_878341" data-name="Path 878341" d="M3730.912,2424.812l17.188-.036a2.705,2.705,0,0,1,1.99-.381q11.387-.016,22.774-.007c.385,0,.771.007,1.156,0,1.273-.039,1.341-.137,1.415-1.4.055-.939-.265-1.938.38-2.8q0-12.711.007-25.421c1.475-.764,2.995-.463,4.514-.187a.279.279,0,0,1,.116.379q-.006,17.21-.013,34.42c-.052.056-.1.113-.154.17a2.643,2.643,0,0,1-1.457.259q-20.255.011-40.51,0a5.05,5.05,0,0,1-.918-.061,1.43,1.43,0,0,1-1.091-.76,7.9,7.9,0,0,0-4.741-3.624C3731.283,2425.275,3730.951,2425.208,3730.912,2424.812Z" transform="translate(-58.682 -22.084)" fill="#e2e5f4"/>
        <path id="Path_878342" data-name="Path 878342" d="M3722.279,2373.176l-4.63,0c-.462-.013-.923-.038-1.385-.038q-29.882-.005-59.764-.007c-.424,0-.847-.017-1.271-.025q.013-1.716.027-3.432c.576-.54,1.3-.4,1.979-.4q13.226-.016,26.452-.007H3718.8c.5,0,1,.013,1.5-.013,1.246-.067,1.458-.274,1.565-1.5.046-.53-.024-1.092.414-1.516,2.306-.125,2.307-.125,2.306,2.164q0,2.35-.009,4.7A5.056,5.056,0,0,1,3722.279,2373.176Z" transform="translate(-0.509 -0.5)" fill="#46598e"/>
        <path id="Path_878343" data-name="Path 878343" d="M3721.773,2365.741c0,3.6.273,3.436-3.461,3.434q-31.783-.011-63.565,0c-.037-1.11-.466-2.509.147-3.244.594-.712,2.029-.219,3.091-.22q31.144-.023,62.289-.01C3720.773,2365.7,3721.274,2365.728,3721.773,2365.741Z" transform="translate(0 0)" fill="#065564"/>
        <path id="Path_878344" data-name="Path 878344" d="M3675.133,2609.514a11.659,11.659,0,0,1,8.985-12.518c.745.25.562.906.591,1.435.092,1.643-.115,3.3.136,4.932.054.141.067.32.184.414.593.474.868,1.478,1.849,1.3a3.309,3.309,0,0,0,1.754-2.507c.036-1.378,0-2.757.017-4.135.006-.489-.077-1.009.338-1.4a8.975,8.975,0,0,1,4.395,1.968,9.165,9.165,0,0,1,1.722,5.052,35.4,35.4,0,0,1,.021,4.264c-.041,1.231-.352,1.535-1.633,1.562-2.421.049-4.843.015-7.265.017-3.113,0-6.227.009-9.34-.005A2.306,2.306,0,0,1,3675.133,2609.514Z" transform="translate(-15.764 -177.9)" fill="#dee4f0"/>
        <path id="Path_878345" data-name="Path 878345" d="M3766.887,2552.984l-9.921-.053a4.967,4.967,0,0,1,.819-3.648,5.087,5.087,0,0,1,2.055-.2q18.557-.008,37.113,0c.5,0,1,.013,1.5-.014,1.253-.067,1.457-.267,1.563-1.5.046-.531-.023-1.094.421-1.514l-.028-.077c2.323.106,2.323.106,2.323,2.482,0,1.039-.075,2.085.021,3.115.1,1.077-.186,1.416-1.345,1.406-7.078-.063-14.158-.036-21.238-.03-3.654,0-7.308.025-10.963.038A2.122,2.122,0,0,1,3766.887,2552.984Z" transform="translate(-78.655 -138.681)" fill="#065564"/>
        <path id="Path_878346" data-name="Path 878346" d="M3705.649,2552.152a15.657,15.657,0,0,1-.714,3.449,9.035,9.035,0,0,1-6.253,4.64c-.256.739-.835.221-1.255.327a1.3,1.3,0,0,1-1.064-.332,9.079,9.079,0,0,1-4.8-2.617c-.533-.633-.978-1.342-1.463-2.016a3.868,3.868,0,0,1-.791-3.431.8.8,0,0,1,.319-.248,27.515,27.515,0,0,1,5.053-.125,3.206,3.206,0,0,0,2.75-1.124,3.332,3.332,0,0,1,2.955-1.221c1.188.059,2.38.005,3.57.016a2.45,2.45,0,0,1,1.447.275A2.306,2.306,0,0,1,3705.649,2552.152Z" transform="translate(-26.624 -141.353)" fill="#f3dfc9"/>
        <path id="Path_878347" data-name="Path 878347" d="M3675.15,2616.177c6.117,0,12.234-.03,18.35.014,1.02.007,1.267-.28,1.3-1.291a21.118,21.118,0,0,0-1.4-9.236,11.09,11.09,0,0,1,4.815,8.775c.095,1.418-.007,2.849.036,4.272.021.674-.146.943-.887.94q-10.684-.038-21.369,0c-.736,0-.934-.254-.89-.936C3675.158,2617.872,3675.138,2617.024,3675.15,2616.177Z" transform="translate(-15.781 -184.563)" fill="#727997"/>
        <path id="Path_878348" data-name="Path 878348" d="M3665.156,2526.138l12.537.025c-.082.5-.533.505-.877.617a7.745,7.745,0,0,0-4.4,3.369,1.614,1.614,0,0,1-1.12.923c-1.672.15-3.344.064-5.015.057a1.281,1.281,0,0,1-1.135-.407Q3665.152,2528.43,3665.156,2526.138Z" transform="translate(-8.134 -123.435)" fill="#e2e5f4"/>
        <path id="Path_878349" data-name="Path 878349" d="M3663.206,2559.783a13.206,13.206,0,0,0,.682,3.449c-2.646,0-5.291-.01-7.936.025-.644.009-.891-.168-.844-.833.06-.878.038-1.761.051-2.642a1.486,1.486,0,0,1,1.161-.387q2.865-.043,5.729,0A1.428,1.428,0,0,1,3663.206,2559.783Z" transform="translate(-0.411 -148.982)" fill="#065564"/>
        <path id="Path_878350" data-name="Path 878350" d="M3663.265,2549.464h-8.048c-.013-.343-.036-.687-.037-1.03-.01-2.359-.008-2.359,2.306-2.484l6.465.071a7.143,7.143,0,0,1-.64,3.466Z" transform="translate(-0.47 -138.663)" fill="#576cb0"/>
        <path id="Path_878351" data-name="Path 878351" d="M3794.8,2600.164l.906.727a3.726,3.726,0,0,1-4.828,4.827c-1.635-1.886-1.209-3.942,1.152-5.56A2.039,2.039,0,0,1,3794.8,2600.164Z" transform="translate(-104.017 -179.916)" fill="#576cb0"/>
        <path id="Path_878352" data-name="Path 878352" d="M3718.1,2596.019c.385-.176.776.4,1.16-.008l1.166.245q-.008,2.882-.018,5.764a5.675,5.675,0,0,1-2.157,2.929c-.338.105-.5-.13-.679-.313-.539-.546-1.064-1.1-1.595-1.659,1.8-.5,1.807-1.875,1.785-3.388C3717.741,2598.4,3717.393,2597.149,3718.1,2596.019Z" transform="translate(-47.2 -177.123)" fill="#065564"/>
        <path id="Path_878353" data-name="Path 878353" d="M3716.7,2596.064q0,2.361,0,4.722c0,2.012-.131,2.149-2.121,2.236-.419-1.767-.073-3.561-.2-5.338-.033-.477.186-1-.222-1.42.415-.374.922-.144,1.384-.213Z" transform="translate(-45.806 -177.168)" fill="#e2e5f4"/>
        <path id="Path_878354" data-name="Path 878354" d="M3801.881,2582.222a4.827,4.827,0,0,0-2.77-.006c.482-1.3.132-2.657.22-3.985.043-.649,0-1.3,0-1.956h2.323c0,1.575,0,3.149-.007,4.723A2.11,2.11,0,0,0,3801.881,2582.222Z" transform="translate(-111.102 -161.974)" fill="#e2e5f4"/>
        <path id="Path_878355" data-name="Path 878355" d="M3794.133,2609.945a.5.5,0,0,1,.509-.159c2.79.469,4.625-1.367,4.158-4.159a.5.5,0,0,1,.161-.509,3.421,3.421,0,1,1-4.828,4.827Z" transform="translate(-107.276 -184.143)" fill="#485a90"/>
        <path id="Path_878356" data-name="Path 878356" d="M3945.03,2396.125l2.3-.071c-.714.544-1.538.141-2.3.266C3945.029,2396.255,3945.029,2396.19,3945.03,2396.125Z" transform="translate(-223.26 -23.448)" fill="#f1f1f1"/>
        <path id="Path_878357" data-name="Path 878357" d="M3690.215,2534.339a8.16,8.16,0,0,1,.64-3.466,8.929,8.929,0,0,1,6.078-4.629h2.673a8.921,8.921,0,0,1,6.076,4.629c.31.311.706.593.355,1.114-1.8,0-3.611.053-5.412-.01a2.113,2.113,0,0,0-1.99.868,3.63,3.63,0,0,1-3.585,1.495C3693.447,2534.218,3691.827,2534.33,3690.215,2534.339Z" transform="translate(-27.374 -123.517)" fill="#b28c5c"/>
        <path id="Path_878358" data-name="Path 878358" d="M3832.919,2506.143c0,1.191-.039,2.385.025,3.573.041.779-.159,1.05-1,1.047-8.914-.034-17.828-.025-26.742-.028l.014-2.3c.577-.535,1.3-.39,1.975-.391q10.022-.018,20.042-.008c.422,0,.845-.017,1.267,0,.959.031,1.659-.253,1.782-1.339a.861.861,0,0,1,.337-.585Z" transform="translate(-115.785 -108.043)" fill="#065564"/>
        <path id="Path_878359" data-name="Path 878359" d="M3830.525,2504.6c-.021,2.218-.124,2.319-2.362,2.319l-23.042.007c-.126-2.284-.126-2.284,2.243-2.336a6.406,6.406,0,0,1,4.686,0h4.564a6.4,6.4,0,0,1,4.686,0h4.564a6.5,6.5,0,0,1,4.685-.012Z" transform="translate(-115.689 -106.534)" fill="#576cb0"/>
        <path id="Path_878360" data-name="Path 878360" d="M3899.6,2436.964l-4.685.012q.033-1.721.067-3.442c.134-.076-.058-.044.087-.072,1.748-.325,1.846-1.56,1.825-3.018-.06-4.158-.027-8.317-.016-12.475a2.266,2.266,0,0,1,.39-1.751c2.3-.115,2.3-.115,2.3,2.1Q3899.584,2427.641,3899.6,2436.964Z" transform="translate(-184.741 -38.917)" fill="#00d5e4"/>
        <path id="Path_878361" data-name="Path 878361" d="M3715.894,2459.96a10.319,10.319,0,0,1-17.778,7.237,3.154,3.154,0,0,1,1.688-1.791.542.542,0,0,1,.327.106,7.488,7.488,0,0,0,7.807,1.783,7.389,7.389,0,0,0,5.2-5.953c.111-.548.086-1.174.633-1.558A2.156,2.156,0,0,1,3715.894,2459.96Z" transform="translate(-33.473 -72.285)" fill="#d2e1f1"/>
        <path id="Path_878362" data-name="Path 878362" d="M3689.783,2432.277a8.481,8.481,0,0,1-1.658,1.667,10.332,10.332,0,0,1,7.4-17.613,2.161,2.161,0,0,1,.188,2.116c-.37.554-1,.527-1.542.643a7.723,7.723,0,0,0-5.043,11.99A2.867,2.867,0,0,1,3689.783,2432.277Z" transform="translate(-23.482 -39.032)" fill="#65002f"/>
        <path id="Path_878363" data-name="Path 878363" d="M3859.624,2452.343h-4.686l.067-3.441c1.968-.406,1.962-1.851,1.916-3.431-.073-2.539-.027-5.082-.014-7.624a2.108,2.108,0,0,1,.384-1.637c2.3-.115,2.3-.115,2.3,2.214Q3859.605,2445.383,3859.624,2452.343Z" transform="translate(-154.013 -54.284)" fill="#00d5e4"/>
        <path id="Path_878364" data-name="Path 878364" d="M3897.335,2416.176q-.005,7.507-.01,15.014c0,2.149-.121,2.271-2.276,2.3-.012-5.495-.017-10.989-.047-16.484,0-.625.158-.94.837-.876C3896.335,2416.179,3896.836,2416.163,3897.335,2416.176Z" transform="translate(-184.808 -38.875)" fill="#c5fdff"/>
        <path id="Path_878365" data-name="Path 878365" d="M3729.921,2418.588q.02-1.141.041-2.283a10.226,10.226,0,0,1,10.378,10.375l-2.271.035-.129-.113a3.746,3.746,0,0,1-.334-1.213,7.506,7.506,0,0,0-6.407-6.358,7.292,7.292,0,0,1-1.009-.231A.622.622,0,0,1,3729.921,2418.588Z" transform="translate(-57.92 -39.005)" fill="#deab4c"/>
        <path id="Path_878366" data-name="Path 878366" d="M3819.645,2471.548h-4.686q.034-1.721.067-3.442c.136-.074-.059-.044.087-.07,1.78-.319,1.959-1.564,1.839-3.05a25.333,25.333,0,0,1,0-2.626,1.533,1.533,0,0,1,.365-1.165c2.3-.115,2.3-.115,2.3,2.2Q3819.623,2467.473,3819.645,2471.548Z" transform="translate(-123.283 -73.489)" fill="#00d5e4"/>
        <path id="Path_878367" data-name="Path 878367" d="M3857.356,2436.165q0,5.2-.01,10.391c0,2.147-.122,2.269-2.276,2.3-.012-3.954-.015-7.908-.047-11.862-.005-.627.163-.937.838-.873C3856.357,2436.168,3856.858,2436.153,3857.356,2436.165Z" transform="translate(-154.078 -54.24)" fill="#c5fdff"/>
        <path id="Path_878368" data-name="Path 878368" d="M3817.332,2461.079q-.005,2.306-.01,4.614c0,2.142-.123,2.265-2.277,2.3-.012-1.914.023-3.831-.056-5.743-.039-.94.217-1.36,1.2-1.212A9.831,9.831,0,0,0,3817.332,2461.079Z" transform="translate(-123.304 -73.373)" fill="#c5fdff"/>
        <path id="Path_878369" data-name="Path 878369" d="M3757.53,2547.274l-.355-1.114q12.974-.016,25.949-.029c5.843,0,11.686.026,17.529.04-.052,3.513.385,3.437-3.475,3.432q-19.642-.023-39.286,0Q3757.711,2548.439,3757.53,2547.274Z" transform="translate(-78.868 -138.803)" fill="#576cb0"/>
        <path id="Path_878370" data-name="Path 878370" d="M3719.654,2459.894c-.2,3.222-1.545,5.743-4.534,7.187a7.9,7.9,0,0,1-8.364-.718c-.356-.241-.719-.454-.748-.945-.181-.52.236-.772.512-1.054,1.339-1.368,2.7-2.718,4.057-4.066a2.355,2.355,0,0,1,1.378-.774c2.17-.115,4.34-.042,6.509-.047a1.73,1.73,0,0,1,1.183.331Z" transform="translate(-39.506 -72.184)" fill="#a0beff"/>
        <path id="Path_878371" data-name="Path 878371" d="M3703.407,2434.244c-1.917,1.8-3.79,3.642-5.565,5.582a1.5,1.5,0,0,0-.2.011c-2.6-2.177-3.082-6.838-1-10.019a7.974,7.974,0,0,1,6.7-3.643l.1-.011A18.6,18.6,0,0,1,3703.407,2434.244Z" transform="translate(-31.339 -46.591)" fill="#a01f4e"/>
        <path id="Path_878372" data-name="Path 878372" d="M3730.21,2434.244q.016-4.04.031-8.081a8.093,8.093,0,0,1,8.043,8.053Z" transform="translate(-58.142 -46.591)" fill="#ffb12d"/>
      </g>
    </g>
  </g>
</svg>
