<svg xmlns="http://www.w3.org/2000/svg" width="62.504" height="62.504" viewBox="0 0 62.504 62.504">
  <g id="Group_1102656" data-name="Group 1102656" transform="translate(-279.816 -1198.717)">
    <g id="Group_1072053" data-name="Group 1072053" transform="translate(279.816 1198.717)">
      <circle id="Ellipse_4742" data-name="Ellipse 4742" cx="31.252" cy="31.252" r="31.252" transform="translate(0)" fill="#ffb12d"/>
    </g>
    <g id="Group_1102670" data-name="Group 1102670" transform="translate(-3398.993 1187.961)">
      <path id="Path_876793" data-name="Path 876793" d="M3733.4,43.934c0,2.894.008,5.788,0,8.682a3.4,3.4,0,0,1-2.411,3.183,3.649,3.649,0,0,1-2.322-.3c-.546-.2-1.091-.4-1.63-.611a.932.932,0,0,1-.56-1.269.847.847,0,0,1,1.2-.406c.7.264,1.4.539,2.1.783a1.564,1.564,0,0,0,2.015-1.428,4.424,4.424,0,0,0,.011-.459c0-5.421-.015-10.841.013-16.261a2.009,2.009,0,0,0-1.55-2.211c-2.752-.876-5.478-1.83-8.211-2.764-2.5-.855-5-1.726-7.5-2.583q-2.926-1-5.859-1.986a1.563,1.563,0,0,0-2.1,1.45c-.03.4-.015.8-.015,1.194q0,5.1,0,10.2a3.385,3.385,0,0,1-.039.64.789.789,0,0,1-.759.681.835.835,0,0,1-.785-.711,2.362,2.362,0,0,1-.024-.412c0-3.8-.007-7.595,0-11.392a3.464,3.464,0,0,1,2.237-3.411,2.567,2.567,0,0,1,1.755-.02c2.835.965,5.664,1.945,8.5,2.906,3.531,1.2,7.068,2.376,10.6,3.567q1.564.527,3.122,1.072a3.408,3.408,0,0,1,2.208,3.146C3733.408,38.115,3733.4,41.024,3733.4,43.934Z" transform="translate(-8.884 0)" fill="#34054d"/>
      <path id="Path_876794" data-name="Path 876794" d="M3873.962,163.989q0-4.592,0-9.184a2.109,2.109,0,0,1,1.441-2.163,1.769,1.769,0,0,1,2.1.9,3.011,3.011,0,0,1,.332,1.267q.032,9.138.013,18.275a2.22,2.22,0,0,1-.9,1.919,1.9,1.9,0,0,1-2.958-1.461,5.735,5.735,0,0,1-.027-.733Q3873.96,168.4,3873.962,163.989Z" transform="translate(-162.35 -116.424)" fill="#34054d"/>
      <path id="Path_876795" data-name="Path 876795" d="M3818.092,186.921c0,2.265.013,4.53-.012,6.8a3.069,3.069,0,0,1-.262,1.237,1.742,1.742,0,0,1-1.808,1.08,1.851,1.851,0,0,1-1.625-1.3,2.633,2.633,0,0,1-.176-.939q-.014-6.887,0-13.774a2.185,2.185,0,0,1,1-1.953,1.842,1.842,0,0,1,2.746,1.11,3.469,3.469,0,0,1,.129.994C3818.1,182.422,3818.092,184.672,3818.092,186.921Z" transform="translate(-108.082 -139.32)" fill="#34054d"/>
      <path id="Path_876796" data-name="Path 876796" d="M3758.66,210.214c0,1.561.014,3.123,0,4.684a1.924,1.924,0,0,1-2.125,1.95,2.009,2.009,0,0,1-1.689-1.745,2.157,2.157,0,0,1-.022-.274c0-3.107-.007-6.214,0-9.321a2.044,2.044,0,0,1,.95-1.741,1.576,1.576,0,0,1,1.73-.124,1.961,1.961,0,0,1,1.151,1.795C3758.674,207.031,3758.66,208.623,3758.66,210.214Z" transform="translate(-54.152 -162.62)" fill="#34054d"/>
      <path id="Path_876797" data-name="Path 876797" d="M3699.053,231.4c0,.841,0,1.681,0,2.521a2.1,2.1,0,0,1-.7,1.59,1.852,1.852,0,0,1-3.094-1.114,2.408,2.408,0,0,1-.065-.544c0-1.65-.012-3.3,0-4.951a2.076,2.076,0,0,1,1.534-2.083,1.953,1.953,0,0,1,2.313,1.924c.032.885.006,1.772.006,2.659Z" transform="translate(0 -183.808)" fill="#34054d"/>
    </g>
  </g>
</svg>
