<svg xmlns="http://www.w3.org/2000/svg" xmlns:xlink="http://www.w3.org/1999/xlink" width="148.182" height="148.182" viewBox="0 0 148.182 148.182">
  <defs>
    <clipPath id="clip-path">
      <rect id="Rectangle_400938" data-name="Rectangle 400938" width="146.193" height="146.193" fill="none"/>
    </clipPath>
    <clipPath id="clip-path-2">
      <rect id="Rectangle_400938-2" data-name="Rectangle 400938" width="148.182" height="148.182" fill="none"/>
    </clipPath>
    <clipPath id="clip-path-3">
      <path id="Path_873460" data-name="Path 873460" d="M0,1.651A1.7,1.7,0,0,0,1.755,3.3a1.7,1.7,0,0,0,1.754-1.65A1.7,1.7,0,0,0,1.755,0,1.7,1.7,0,0,0,0,1.651" transform="translate(0)" fill="#065564"/>
    </clipPath>
    <clipPath id="clip-path-4">
      <path id="Path_873468" data-name="Path 873468" d="M0,1.65A1.7,1.7,0,0,0,1.756,3.3,1.7,1.7,0,0,0,3.51,1.65,1.7,1.7,0,0,0,1.756,0,1.7,1.7,0,0,0,0,1.65" transform="translate(0 0)" fill="#065564"/>
    </clipPath>
    <clipPath id="clip-path-5">
      <path id="Path_873469" data-name="Path 873469" d="M0,1.65A1.7,1.7,0,0,0,1.755,3.3,1.7,1.7,0,0,0,3.509,1.65,1.7,1.7,0,0,0,1.755,0,1.7,1.7,0,0,0,0,1.65" transform="translate(0 0)" fill="#065564"/>
    </clipPath>
    <clipPath id="clip-path-6">
      <path id="Path_873470" data-name="Path 873470" d="M0,1.65A1.7,1.7,0,0,0,1.755,3.3,1.7,1.7,0,0,0,3.51,1.65,1.7,1.7,0,0,0,1.755,0,1.7,1.7,0,0,0,0,1.65" transform="translate(0 0)" fill="#065564"/>
    </clipPath>
    <clipPath id="clip-path-8">
      <path id="Path_873473" data-name="Path 873473" d="M0,1.65A1.7,1.7,0,0,0,1.756,3.3,1.7,1.7,0,0,0,3.509,1.65,1.7,1.7,0,0,0,1.756,0,1.7,1.7,0,0,0,0,1.65" transform="translate(0 0)" fill="#065564"/>
    </clipPath>
    <clipPath id="clip-path-12">
      <path id="Path_873466" data-name="Path 873466" d="M0,1.651A1.7,1.7,0,0,0,1.756,3.3,1.7,1.7,0,0,0,3.51,1.651,1.7,1.7,0,0,0,1.756,0,1.7,1.7,0,0,0,0,1.651" fill="#065564"/>
    </clipPath>
    <clipPath id="clip-path-21">
      <rect id="Rectangle_401492" data-name="Rectangle 401492" width="79.666" height="79.667" transform="translate(-0.41 0.432)" fill="#065564" stroke="#707070" stroke-width="1"/>
    </clipPath>
  </defs>
  <g id="Group_1102513" data-name="Group 1102513" transform="translate(23059.332 3814.126)">
    <g id="Group_1102017" data-name="Group 1102017" transform="translate(-1.406 0.822)">
      <g id="Group_1102014" data-name="Group 1102014" transform="translate(-23048.078 -3811.396)">
        <path id="Path_874344" data-name="Path 874344" d="M2243.665,80.614v52.661a6.246,6.246,0,0,0,3.123,5.409l58,33.484a6.245,6.245,0,0,0,6.245,0l58-33.484a6.245,6.245,0,0,0,3.123-5.409V80.614a6.245,6.245,0,0,0-3.123-5.409l-58-33.484a6.245,6.245,0,0,0-6.245,0l-58,33.484A6.246,6.246,0,0,0,2243.665,80.614Z" transform="translate(-2243.665 -32.738)" fill="#065564"/>
        <path id="Path_874345" data-name="Path 874345" d="M2286.509,12.1V72.913a6.245,6.245,0,0,0,3.123,5.409l52.661,30.4a6.245,6.245,0,0,0,6.245,0l52.661-30.4a6.246,6.246,0,0,0,3.123-5.409V12.1A6.246,6.246,0,0,0,2401.2,6.7l-52.661-30.4a6.245,6.245,0,0,0-6.245,0L2289.632,6.7A6.245,6.245,0,0,0,2286.509,12.1Z" transform="translate(-2281.175 24.545)" fill="#f3f9ff"/>
      </g>
      <g id="Group_1100237" data-name="Group 1100237" transform="translate(-23053.012 -3793.332)">
        <g id="Group_1099505" data-name="Group 1099505" transform="translate(2.284 10.636)">
          <g id="Group_1099504" data-name="Group 1099504" transform="translate(0)" clip-path="url(#clip-path-3)">
            <rect id="Rectangle_401140" data-name="Rectangle 401140" width="3.509" height="3.301" transform="translate(0)" fill="#065564"/>
          </g>
        </g>
        <g id="Group_1099521" data-name="Group 1099521" transform="translate(29.48 10.636)">
          <g id="Group_1099520" data-name="Group 1099520" transform="translate(0 0)" clip-path="url(#clip-path-4)">
            <rect id="Rectangle_401148" data-name="Rectangle 401148" width="3.51" height="3.301" transform="translate(0 0)" fill="#065564"/>
          </g>
        </g>
        <g id="Group_1099523" data-name="Group 1099523" transform="translate(20.81 10.636)">
          <g id="Group_1099522" data-name="Group 1099522" transform="translate(0 0)" clip-path="url(#clip-path-5)">
            <rect id="Rectangle_401149" data-name="Rectangle 401149" width="3.509" height="3.301" transform="translate(0 0)" fill="#065564"/>
          </g>
        </g>
        <g id="Group_1099525" data-name="Group 1099525" transform="translate(43.352 0)">
          <g id="Group_1099524" data-name="Group 1099524" clip-path="url(#clip-path-6)">
            <rect id="Rectangle_401150" data-name="Rectangle 401150" width="3.51" height="3.301" transform="translate(0 0)" fill="#065564"/>
          </g>
        </g>
        <g id="Group_1099529" data-name="Group 1099529" transform="translate(34.681 0)">
          <g id="Group_1099528" data-name="Group 1099528" transform="translate(0)" clip-path="url(#clip-path-4)">
            <rect id="Rectangle_401152" data-name="Rectangle 401152" width="3.51" height="3.301" transform="translate(0 0)" fill="#065564"/>
          </g>
        </g>
        <g id="Group_1099531" data-name="Group 1099531" transform="translate(17.341 0)">
          <g id="Group_1099530" data-name="Group 1099530" transform="translate(0)" clip-path="url(#clip-path-8)">
            <rect id="Rectangle_401153" data-name="Rectangle 401153" width="3.509" height="3.301" transform="translate(0 0)" fill="#065564"/>
          </g>
        </g>
        <g id="Group_1099533" data-name="Group 1099533" transform="translate(8.67 0)">
          <g id="Group_1099532" data-name="Group 1099532" clip-path="url(#clip-path-6)">
            <rect id="Rectangle_401154" data-name="Rectangle 401154" width="3.51" height="3.301" transform="translate(0 0)" fill="#065564"/>
          </g>
        </g>
        <g id="Group_1099535" data-name="Group 1099535" transform="translate(0 0)">
          <g id="Group_1099534" data-name="Group 1099534" transform="translate(0)" clip-path="url(#clip-path-4)">
            <rect id="Rectangle_401155" data-name="Rectangle 401155" width="3.51" height="3.301" transform="translate(0 0)" fill="#065564"/>
          </g>
        </g>
      </g>
      <g id="Group_1100238" data-name="Group 1100238" transform="translate(-22960.289 -3700.609)">
        <g id="Group_1099505-2" data-name="Group 1099505" transform="translate(2.284 10.636)">
          <g id="Group_1099504-2" data-name="Group 1099504" transform="translate(0)" clip-path="url(#clip-path-3)">
            <rect id="Rectangle_401140-2" data-name="Rectangle 401140" width="3.509" height="3.301" transform="translate(0)" fill="#065564"/>
          </g>
        </g>
        <g id="Group_1099517" data-name="Group 1099517" transform="translate(46.821 10.636)">
          <g id="Group_1099516" data-name="Group 1099516" transform="translate(0)" clip-path="url(#clip-path-12)">
            <rect id="Rectangle_401146" data-name="Rectangle 401146" width="3.51" height="3.301" transform="translate(0 0)" fill="#065564"/>
          </g>
        </g>
        <g id="Group_1099519" data-name="Group 1099519" transform="translate(38.151 10.636)">
          <g id="Group_1099518" data-name="Group 1099518" transform="translate(0 0)" clip-path="url(#clip-path-6)">
            <rect id="Rectangle_401147" data-name="Rectangle 401147" width="3.51" height="3.301" transform="translate(0 0)" fill="#065564"/>
          </g>
        </g>
        <g id="Group_1099521-2" data-name="Group 1099521" transform="translate(29.48 10.636)">
          <g id="Group_1099520-2" data-name="Group 1099520" transform="translate(0 0)" clip-path="url(#clip-path-4)">
            <rect id="Rectangle_401148-2" data-name="Rectangle 401148" width="3.51" height="3.301" transform="translate(0 0)" fill="#065564"/>
          </g>
        </g>
        <g id="Group_1099523-2" data-name="Group 1099523" transform="translate(20.81 10.636)">
          <g id="Group_1099522-2" data-name="Group 1099522" transform="translate(0 0)" clip-path="url(#clip-path-5)">
            <rect id="Rectangle_401149-2" data-name="Rectangle 401149" width="3.509" height="3.301" transform="translate(0 0)" fill="#065564"/>
          </g>
        </g>
        <g id="Group_1099525-2" data-name="Group 1099525" transform="translate(43.352 0)">
          <g id="Group_1099524-2" data-name="Group 1099524" clip-path="url(#clip-path-6)">
            <rect id="Rectangle_401150-2" data-name="Rectangle 401150" width="3.51" height="3.301" transform="translate(0 0)" fill="#065564"/>
          </g>
        </g>
        <g id="Group_1099529-2" data-name="Group 1099529" transform="translate(34.681 0)">
          <g id="Group_1099528-2" data-name="Group 1099528" transform="translate(0)" clip-path="url(#clip-path-4)">
            <rect id="Rectangle_401152-2" data-name="Rectangle 401152" width="3.51" height="3.301" transform="translate(0 0)" fill="#065564"/>
          </g>
        </g>
        <g id="Group_1099531-2" data-name="Group 1099531" transform="translate(17.341 0)">
          <g id="Group_1099530-2" data-name="Group 1099530" transform="translate(0)" clip-path="url(#clip-path-8)">
            <rect id="Rectangle_401153-2" data-name="Rectangle 401153" width="3.509" height="3.301" transform="translate(0 0)" fill="#065564"/>
          </g>
        </g>
        <g id="Group_1099533-2" data-name="Group 1099533" transform="translate(8.67 0)">
          <g id="Group_1099532-2" data-name="Group 1099532" clip-path="url(#clip-path-6)">
            <rect id="Rectangle_401154-2" data-name="Rectangle 401154" width="3.51" height="3.301" transform="translate(0 0)" fill="#065564"/>
          </g>
        </g>
        <g id="Group_1099535-2" data-name="Group 1099535" transform="translate(0 0)">
          <g id="Group_1099534-2" data-name="Group 1099534" transform="translate(0)" clip-path="url(#clip-path-4)">
            <rect id="Rectangle_401155-2" data-name="Rectangle 401155" width="3.51" height="3.301" transform="translate(0 0)" fill="#065564"/>
          </g>
        </g>
      </g>
      <g id="Mask_Group_1098697" data-name="Mask Group 1098697" transform="translate(-23024.09 -3780.318)" clip-path="url(#clip-path-21)">
        <g id="Group_1103914" data-name="Group 1103914" transform="translate(-1836.706 -1562.713)">
          <path id="Path_878027" data-name="Path 878027" d="M1859.961,1778.606c0,1.13-.008,2.12,0,3.109a1.17,1.17,0,0,1-1.335,1.345c-.994,0-1.988,0-3.032,0a7.108,7.108,0,0,0-.12.859,1.238,1.238,0,0,1-1.423,1.4q-4.151-.018-8.3,0c-1.036.006-1.452-.526-1.451-1.5,0-3.421,0-6.842,0-10.263,0-.755.194-1.449,1.108-1.441.978.008,1.128.743,1.127,1.54,0,3.111,0,6.222,0,9.428h6.644v-24.552h-6.644v2.383c0,2.345,0,4.689,0,7.034,0,.81-.177,1.52-1.155,1.508-.917-.011-1.083-.71-1.083-1.462,0-3.383-.011-6.765,0-10.148.006-1.217.377-1.573,1.592-1.579,2.422-.012,4.843,0,7.265,0,2.138,0,2.138,0,2.418,2.278.841,0,1.706,0,2.572,0,1.625,0,1.767.145,1.812,1.771.005.19.025.379.041.611,1.547-.535,3.028-1.16,4.568-1.558a20.382,20.382,0,0,1,12.127.651,13.742,13.742,0,0,0,5.5.854c.728-.042,1.464.04,2.19-.016,2.324-.178,4.185.469,5.141,2.9,2.47-1.421,4.859-2.793,7.246-4.17,2.062-1.19,4.116-2.394,6.182-3.577a4.08,4.08,0,0,1,5.553.951,3.957,3.957,0,0,1-1.02,5.528q-9.271,7.323-18.618,14.548a7.647,7.647,0,0,1-4.734,1.562c-2.883.021-5.766,0-8.649.011-.793,0-1.551-.1-1.553-1.1s.781-1.106,1.556-1.107c2.691-.006,5.382-.035,8.072.008a7.238,7.238,0,0,0,4.778-1.661c5.639-4.451,11.317-8.855,16.972-13.287.48-.376,1.093-.755,1.293-1.269a2.8,2.8,0,0,0,.032-1.993,1.443,1.443,0,0,0-2-.594,9.554,9.554,0,0,0-1.019.53c-4.457,2.571-8.919,5.135-13.359,7.734a4.832,4.832,0,0,0-1.324,1.206,3.859,3.859,0,0,1-3.135,1.667c-4.305.019-8.61.009-12.915.014-.745,0-1.35-.244-1.326-1.08.023-.808.605-1.061,1.362-1.059q6.169.015,12.339,0c1.5,0,2.074-.454,2.129-1.652.057-1.217-.621-1.878-2.033-1.953a14.924,14.924,0,0,0-1.614,0,23.774,23.774,0,0,1-9.431-1.5c-4.772-1.685-9.472-.571-13.843,1.846a1.227,1.227,0,0,0-.49.915c-.03,3.882-.016,7.764-.008,11.646a2.561,2.561,0,0,0,.134.484h1.541c2.691,0,5.381,0,8.072,0,.766,0,1.552.079,1.552,1.1s-.746,1.1-1.538,1.1c-2.806-.008-5.612,0-8.418,0Zm-2.27,2.237v-20.1h-2.129v20.1Z" transform="translate(0 -146.324)" fill="#065564"/>
          <path id="Path_878028" data-name="Path 878028" d="M1921.886,1565.165c2.537,0,5.077-.063,7.611.031a7.96,7.96,0,0,1,2.955.683c2.51,1.152,4.974,2.411,7.409,3.717a1.959,1.959,0,0,1,.951,1.37c.02,4.6.353,9.234-.731,13.777-.284,1.193-.633,2.371-.982,3.547-.216.73-.635,1.311-1.5,1-.767-.277-.829-.91-.569-1.621,1.853-5.063,1.714-10.341,1.62-15.605a1.421,1.421,0,0,0-.686-1c-2.243-1.176-4.513-2.3-6.793-3.4a3.416,3.416,0,0,0-1.423-.341q-7.843-.036-15.686,0a3.98,3.98,0,0,0-1.641.4q-3.321,1.6-6.588,3.3c-.339.177-.762.626-.764.95-.016,4.336-.259,8.683.824,12.959a31.025,31.025,0,0,0,15.263,20.032,1.372,1.372,0,0,0,1.568-.092,31.14,31.14,0,0,0,11.928-11.9c.171-.3.273-.712.532-.873.375-.234,1.016-.52,1.264-.358a2.061,2.061,0,0,1,.573,1.3c.042.243-.233.548-.383.815a32.66,32.66,0,0,1-13.778,13.363,2.344,2.344,0,0,1-1.891.037c-10.193-5.572-16.253-14.1-17.768-25.638a84.151,84.151,0,0,1-.291-10.587,1.935,1.935,0,0,1,.894-1.407c2.745-1.459,5.536-2.831,8.334-4.188a3.467,3.467,0,0,1,1.446-.262C1916.349,1565.153,1919.118,1565.165,1921.886,1565.165Z" transform="translate(-45.075 0)" fill="#065564"/>
          <path id="Path_878029" data-name="Path 878029" d="M1952.375,1609.657c0,1.893-.03,3.581.011,5.267.026,1.083-.461,1.551-1.511,1.546-1.958-.01-3.917,0-5.876,0-.993,0-1.463-.472-1.444-1.5.033-1.719.009-3.44.009-5.313-1.747,0-3.385,0-5.023,0-1.526-.006-1.7-.184-1.708-1.745q-.011-2.65,0-5.3c.008-1.516.245-1.753,1.729-1.759,1.608-.006,3.216,0,5,0,0-1.716,0-3.351,0-4.987.005-1.544.171-1.707,1.738-1.71,1.882,0,3.764.024,5.646-.01,1.039-.019,1.456.433,1.435,1.454-.034,1.685-.009,3.372-.009,5.253H1957c2,0,2.133.14,2.134,2.18,0,1.728-.011,3.457,0,5.185.008,1-.412,1.477-1.457,1.453C1955.96,1609.628,1954.241,1609.657,1952.375,1609.657Zm4.552-6.627c-1.776,0-3.422.01-5.068,0-1.356-.011-1.613-.273-1.621-1.632-.01-1.678,0-3.356,0-5.036h-4.521c0,1.673,0,3.245,0,4.817-.005,1.661-.195,1.849-1.87,1.854-1.6,0-3.2,0-4.808,0v4.519c1.708,0,3.351,0,4.993,0,1.457.005,1.674.218,1.683,1.668.01,1.641,0,3.282,0,4.932h4.521c0-1.59,0-3.085,0-4.579,0-1.926.1-2.021,2.019-2.022h4.672Z" transform="translate(-71.189 -22.31)" fill="#065564"/>
          <path id="Path_878030" data-name="Path 878030" d="M1866.707,1789.885c-.647.47-1.091,1.028-1.4.962-.424-.09-.747-.656-1.114-1.018.38-.353.724-.912,1.153-.988C1865.653,1788.787,1866.077,1789.375,1866.707,1789.885Z" transform="translate(-15.305 -172.1)" fill="#065564"/>
        </g>
      </g>
    </g>
  </g>
</svg>
