<svg xmlns="http://www.w3.org/2000/svg" xmlns:xlink="http://www.w3.org/1999/xlink" width="124.605" height="125.948" viewBox="0 0 124.605 125.948">
  <defs>
    <clipPath id="clip-path">
      <rect id="Rectangle_400938" data-name="Rectangle 400938" width="117.278" height="117.278" fill="none"/>
    </clipPath>
    <clipPath id="clip-path-2">
      <path id="Path_873460" data-name="Path 873460" d="M0,1.307A1.349,1.349,0,0,0,1.389,2.613,1.349,1.349,0,0,0,2.778,1.307,1.349,1.349,0,0,0,1.389,0,1.349,1.349,0,0,0,0,1.307" transform="translate(0)" fill="#34054d"/>
    </clipPath>
    <clipPath id="clip-path-3">
      <path id="Path_873466" data-name="Path 873466" d="M0,1.307A1.349,1.349,0,0,0,1.39,2.613,1.349,1.349,0,0,0,2.778,1.307,1.349,1.349,0,0,0,1.39,0,1.349,1.349,0,0,0,0,1.307" fill="#34054d"/>
    </clipPath>
    <clipPath id="clip-path-4">
      <path id="Path_873467" data-name="Path 873467" d="M0,1.306A1.349,1.349,0,0,0,1.389,2.612,1.349,1.349,0,0,0,2.778,1.306,1.349,1.349,0,0,0,1.389,0,1.349,1.349,0,0,0,0,1.306" transform="translate(0 0)" fill="#34054d"/>
    </clipPath>
    <clipPath id="clip-path-5">
      <path id="Path_873468" data-name="Path 873468" d="M0,1.306A1.349,1.349,0,0,0,1.39,2.612,1.349,1.349,0,0,0,2.778,1.306,1.349,1.349,0,0,0,1.39,0,1.349,1.349,0,0,0,0,1.306" transform="translate(0 0)" fill="#34054d"/>
    </clipPath>
    <clipPath id="clip-path-6">
      <path id="Path_873469" data-name="Path 873469" d="M0,1.306A1.349,1.349,0,0,0,1.389,2.612,1.349,1.349,0,0,0,2.777,1.306,1.349,1.349,0,0,0,1.389,0,1.349,1.349,0,0,0,0,1.306" transform="translate(0 0)" fill="#34054d"/>
    </clipPath>
    <clipPath id="clip-path-9">
      <path id="Path_873473" data-name="Path 873473" d="M0,1.306A1.349,1.349,0,0,0,1.39,2.612,1.348,1.348,0,0,0,2.778,1.306,1.349,1.349,0,0,0,1.39,0,1.349,1.349,0,0,0,0,1.306" transform="translate(0 0)" fill="#34054d"/>
    </clipPath>
    <clipPath id="clip-path-22">
      <rect id="Rectangle_401492" data-name="Rectangle 401492" width="63.051" height="63.052" transform="translate(-0.424 0.013)" fill="#34054d" stroke="#707070" stroke-width="1"/>
    </clipPath>
  </defs>
  <g id="Group_1102667" data-name="Group 1102667" transform="translate(23060.281 3818.28)">
    <g id="Group_1100237" data-name="Group 1100237" transform="translate(-23054.037 -3797.84)">
      <g id="Group_1099505" data-name="Group 1099505" transform="translate(1.808 8.418)">
        <g id="Group_1099504" data-name="Group 1099504" transform="translate(0)" clip-path="url(#clip-path-2)">
          <rect id="Rectangle_401140" data-name="Rectangle 401140" width="2.777" height="2.613" transform="translate(0)" fill="#34054d"/>
        </g>
      </g>
      <g id="Group_1099517" data-name="Group 1099517" transform="translate(37.056 8.418)">
        <g id="Group_1099516" data-name="Group 1099516" transform="translate(0)" clip-path="url(#clip-path-3)">
          <rect id="Rectangle_401146" data-name="Rectangle 401146" width="2.778" height="2.613" transform="translate(0 0)" fill="#34054d"/>
        </g>
      </g>
      <g id="Group_1099519" data-name="Group 1099519" transform="translate(30.194 8.418)">
        <g id="Group_1099518" data-name="Group 1099518" transform="translate(0 0)" clip-path="url(#clip-path-4)">
          <rect id="Rectangle_401147" data-name="Rectangle 401147" width="2.778" height="2.612" transform="translate(0 0)" fill="#34054d"/>
        </g>
      </g>
      <g id="Group_1099521" data-name="Group 1099521" transform="translate(23.332 8.418)">
        <g id="Group_1099520" data-name="Group 1099520" transform="translate(0 0)" clip-path="url(#clip-path-5)">
          <rect id="Rectangle_401148" data-name="Rectangle 401148" width="2.778" height="2.612" transform="translate(0 0)" fill="#34054d"/>
        </g>
      </g>
      <g id="Group_1099523" data-name="Group 1099523" transform="translate(16.47 8.418)">
        <g id="Group_1099522" data-name="Group 1099522" transform="translate(0 0)" clip-path="url(#clip-path-6)">
          <rect id="Rectangle_401149" data-name="Rectangle 401149" width="2.777" height="2.612" transform="translate(0 0)" fill="#34054d"/>
        </g>
      </g>
      <g id="Group_1099525" data-name="Group 1099525" transform="translate(34.311 0)">
        <g id="Group_1099524" data-name="Group 1099524" clip-path="url(#clip-path-4)">
          <rect id="Rectangle_401150" data-name="Rectangle 401150" width="2.778" height="2.612" transform="translate(0 0)" fill="#34054d"/>
        </g>
      </g>
      <g id="Group_1099529" data-name="Group 1099529" transform="translate(27.448 0)">
        <g id="Group_1099528" data-name="Group 1099528" transform="translate(0)" clip-path="url(#clip-path-5)">
          <rect id="Rectangle_401152" data-name="Rectangle 401152" width="2.778" height="2.612" transform="translate(0 0)" fill="#34054d"/>
        </g>
      </g>
      <g id="Group_1099531" data-name="Group 1099531" transform="translate(13.724 0)">
        <g id="Group_1099530" data-name="Group 1099530" transform="translate(0)" clip-path="url(#clip-path-9)">
          <rect id="Rectangle_401153" data-name="Rectangle 401153" width="2.777" height="2.612" transform="translate(0 0)" fill="#34054d"/>
        </g>
      </g>
      <g id="Group_1099533" data-name="Group 1099533" transform="translate(6.862 0)">
        <g id="Group_1099532" data-name="Group 1099532" clip-path="url(#clip-path-4)">
          <rect id="Rectangle_401154" data-name="Rectangle 401154" width="2.778" height="2.612" transform="translate(0 0)" fill="#34054d"/>
        </g>
      </g>
      <g id="Group_1099535" data-name="Group 1099535" transform="translate(0 0)">
        <g id="Group_1099534" data-name="Group 1099534" transform="translate(0)" clip-path="url(#clip-path-5)">
          <rect id="Rectangle_401155" data-name="Rectangle 401155" width="2.778" height="2.612" transform="translate(0 0)" fill="#34054d"/>
        </g>
      </g>
    </g>
    <g id="Group_1100238" data-name="Group 1100238" transform="translate(-22980.652 -3724.455)">
      <g id="Group_1099505-2" data-name="Group 1099505" transform="translate(1.808 8.418)">
        <g id="Group_1099504-2" data-name="Group 1099504" transform="translate(0)" clip-path="url(#clip-path-2)">
          <rect id="Rectangle_401140-2" data-name="Rectangle 401140" width="2.777" height="2.613" transform="translate(0)" fill="#34054d"/>
        </g>
      </g>
      <g id="Group_1099517-2" data-name="Group 1099517" transform="translate(37.056 8.418)">
        <g id="Group_1099516-2" data-name="Group 1099516" transform="translate(0)" clip-path="url(#clip-path-3)">
          <rect id="Rectangle_401146-2" data-name="Rectangle 401146" width="2.778" height="2.613" transform="translate(0 0)" fill="#34054d"/>
        </g>
      </g>
      <g id="Group_1099519-2" data-name="Group 1099519" transform="translate(30.194 8.418)">
        <g id="Group_1099518-2" data-name="Group 1099518" transform="translate(0 0)" clip-path="url(#clip-path-4)">
          <rect id="Rectangle_401147-2" data-name="Rectangle 401147" width="2.778" height="2.612" transform="translate(0 0)" fill="#34054d"/>
        </g>
      </g>
      <g id="Group_1099521-2" data-name="Group 1099521" transform="translate(23.332 8.418)">
        <g id="Group_1099520-2" data-name="Group 1099520" transform="translate(0 0)" clip-path="url(#clip-path-5)">
          <rect id="Rectangle_401148-2" data-name="Rectangle 401148" width="2.778" height="2.612" transform="translate(0 0)" fill="#34054d"/>
        </g>
      </g>
      <g id="Group_1099523-2" data-name="Group 1099523" transform="translate(16.47 8.418)">
        <g id="Group_1099522-2" data-name="Group 1099522" transform="translate(0 0)" clip-path="url(#clip-path-6)">
          <rect id="Rectangle_401149-2" data-name="Rectangle 401149" width="2.777" height="2.612" transform="translate(0 0)" fill="#34054d"/>
        </g>
      </g>
      <g id="Group_1099525-2" data-name="Group 1099525" transform="translate(34.311 0)">
        <g id="Group_1099524-2" data-name="Group 1099524" clip-path="url(#clip-path-4)">
          <rect id="Rectangle_401150-2" data-name="Rectangle 401150" width="2.778" height="2.612" transform="translate(0 0)" fill="#34054d"/>
        </g>
      </g>
      <g id="Group_1099529-2" data-name="Group 1099529" transform="translate(27.448 0)">
        <g id="Group_1099528-2" data-name="Group 1099528" transform="translate(0)" clip-path="url(#clip-path-5)">
          <rect id="Rectangle_401152-2" data-name="Rectangle 401152" width="2.778" height="2.612" transform="translate(0 0)" fill="#34054d"/>
        </g>
      </g>
      <g id="Group_1099531-2" data-name="Group 1099531" transform="translate(13.724 0)">
        <g id="Group_1099530-2" data-name="Group 1099530" transform="translate(0)" clip-path="url(#clip-path-9)">
          <rect id="Rectangle_401153-2" data-name="Rectangle 401153" width="2.777" height="2.612" transform="translate(0 0)" fill="#34054d"/>
        </g>
      </g>
      <g id="Group_1099533-2" data-name="Group 1099533" transform="translate(6.862 0)">
        <g id="Group_1099532-2" data-name="Group 1099532" clip-path="url(#clip-path-4)">
          <rect id="Rectangle_401154-2" data-name="Rectangle 401154" width="2.778" height="2.612" transform="translate(0 0)" fill="#34054d"/>
        </g>
      </g>
      <g id="Group_1099535-2" data-name="Group 1099535" transform="translate(0 0)">
        <g id="Group_1099534-2" data-name="Group 1099534" transform="translate(0)" clip-path="url(#clip-path-5)">
          <rect id="Rectangle_401155-2" data-name="Rectangle 401155" width="2.778" height="2.612" transform="translate(0 0)" fill="#34054d"/>
        </g>
      </g>
    </g>
    <path id="Path_873784" data-name="Path 873784" d="M83.8,18.565A18.62,18.62,0,0,0,65.231,0H18.566A18.62,18.62,0,0,0,0,18.566V65.231A18.62,18.62,0,0,0,18.565,83.8H65.231A18.62,18.62,0,0,0,83.8,65.23Z" transform="translate(-22994.928 -3692.332) rotate(-135)" fill="#4b0d6b"/>
    <path id="Path_873785" data-name="Path 873785" d="M86.438,19.15A19.206,19.206,0,0,0,67.287,0H19.151A19.207,19.207,0,0,0,0,19.151V67.287a19.206,19.206,0,0,0,19.15,19.15H67.287A19.207,19.207,0,0,0,86.437,67.286Z" transform="translate(-22999.16 -3696.04) rotate(-135)" fill="#d7c9fe"/>
    <g id="Mask_Group_1098697" data-name="Mask Group 1098697" transform="translate(-23031.146 -3787.541)" clip-path="url(#clip-path-22)">
      <g id="Group_1102703" data-name="Group 1102703" transform="translate(-2239.365 -1345.878)">
        <path id="Path_876833" data-name="Path 876833" d="M2298.87,1390.038a8.343,8.343,0,0,0-5.941-5.809,7.4,7.4,0,0,0-1.443-.187,10.77,10.77,0,0,0-3.173-5.3,9.49,9.49,0,0,0-3.94-2.121l3.757-2.588a3.7,3.7,0,0,0,1.554-3.071v-5.641c0-.008,0-.016,0-.023a2.952,2.952,0,0,0-1.2-2.349l-.031-.021-16.544-10.583a2.494,2.494,0,0,0-2.854-.021l-16.936,10.368-.033.021a2.984,2.984,0,0,0-1.259,2.372.9.9,0,0,0-.051.292v4.8a4.231,4.231,0,0,0,1.7,3.444l4.2,3.035a9.495,9.495,0,0,0-3.829,2.091,10.776,10.776,0,0,0-3.173,5.295,7.445,7.445,0,0,0-1.443.187,8.342,8.342,0,0,0-5.941,5.809,9.589,9.589,0,0,0,1.446,8.122,9.185,9.185,0,0,0,6.752,3.748l.046,0h8.542a.831.831,0,0,0,0-1.657h-8.518a7.678,7.678,0,0,1-5.627-3.119,7.9,7.9,0,0,1-1.189-6.6,6.833,6.833,0,0,1,4.808-4.686,6.75,6.75,0,0,1,6.3,1.985.718.718,0,0,0,1.076-.032.881.881,0,0,0-.029-1.171,8.521,8.521,0,0,0-4.667-2.483,9.051,9.051,0,0,1,2.579-4.122,7.885,7.885,0,0,1,4.671-2.011.571.571,0,0,0,.058-.01l9.5,6.859a3.689,3.689,0,0,0,4.3.051l10.106-6.96a.7.7,0,0,0,.232.061,7.885,7.885,0,0,1,4.671,2.011,9.052,9.052,0,0,1,2.579,4.122,8.52,8.52,0,0,0-4.667,2.483.881.881,0,0,0-.029,1.171.718.718,0,0,0,1.076.032,6.749,6.749,0,0,1,6.3-1.985,6.832,6.832,0,0,1,4.808,4.686,7.9,7.9,0,0,1-1.189,6.6,7.677,7.677,0,0,1-5.627,3.119h-8.518a.831.831,0,0,0,0,1.657h8.542l.046,0a9.185,9.185,0,0,0,6.752-3.748A9.59,9.59,0,0,0,2298.87,1390.038Zm-45.988-25.909,16.932-10.366.033-.021a1.074,1.074,0,0,1,1.243.005l.031.021,16.541,10.581a1.253,1.253,0,0,1,.5,1.036,1.294,1.294,0,0,1-.545,1.074l-16.475,11.47a1.077,1.077,0,0,1-1.233.011l-17.035-11.686a1.246,1.246,0,0,1-.529-1.05A1.292,1.292,0,0,1,2252.882,1364.13Zm18.642,19.386a2.268,2.268,0,0,1-2.643-.031l-15.568-11.243a2.534,2.534,0,0,1-1.017-2.063v-2.359l16.8,11.525a2.5,2.5,0,0,0,1.417.443,2.529,2.529,0,0,0,1.448-.459l16.2-11.279v2.92a2.015,2.015,0,0,1-.845,1.671Z" fill="#34054d"/>
        <path id="Path_876834" data-name="Path 876834" d="M2379.493,1538.736a.761.761,0,0,0-.761.761v12.987a.761.761,0,1,0,1.522,0V1539.5A.761.761,0,0,0,2379.493,1538.736Z" transform="translate(-112.765 -149.953)" fill="#34054d"/>
        <path id="Path_876835" data-name="Path 876835" d="M2334.561,1526.152v-7.483a.761.761,0,1,0-1.522,0v7.483a2.694,2.694,0,1,0,1.522,0Zm-.761,3.755a1.172,1.172,0,1,1,1.172-1.172A1.174,1.174,0,0,1,2333.8,1529.907Z" transform="translate(-73.504 -132.783)" fill="#34054d"/>
        <path id="Path_876836" data-name="Path 876836" d="M2421.413,1538.736a.761.761,0,0,0-.761.761v12.987a.761.761,0,0,0,1.522,0V1539.5A.761.761,0,0,0,2421.413,1538.736Z" transform="translate(-147.322 -149.953)" fill="#34054d"/>
        <path id="Path_876837" data-name="Path 876837" d="M2451.652,1528.735a2.7,2.7,0,0,0-1.933-2.583v-7.483a.761.761,0,1,0-1.522,0v7.483a2.694,2.694,0,1,0,3.455,2.583Zm-2.694,1.172a1.172,1.172,0,1,1,1.172-1.172A1.174,1.174,0,0,1,2448.958,1529.907Z" transform="translate(-168.434 -132.783)" fill="#34054d"/>
        <path id="Path_876838" data-name="Path 876838" d="M2369.686,1403.478h3.393l.651,1.935h2.058l-3.516-9.392h-1.794l-3.5,9.392h2.058Zm1.69-5.083,1.181,3.516h-2.348Z" transform="translate(-103.079 -35.547)" fill="#34054d"/>
        <rect id="Rectangle_403548" data-name="Rectangle 403548" width="1.935" height="9.393" transform="translate(2273.709 1360.474)" fill="#34054d"/>
      </g>
    </g>
  </g>
</svg>
