<svg xmlns="http://www.w3.org/2000/svg" xmlns:xlink="http://www.w3.org/1999/xlink" width="124.605" height="125.948" viewBox="0 0 124.605 125.948">
  <defs>
    <clipPath id="clip-path">
      <rect id="Rectangle_400938" data-name="Rectangle 400938" width="117.278" height="117.278" fill="none"/>
    </clipPath>
    <clipPath id="clip-path-2">
      <path id="Path_873460" data-name="Path 873460" d="M0,1.307A1.349,1.349,0,0,0,1.389,2.613,1.349,1.349,0,0,0,2.778,1.307,1.349,1.349,0,0,0,1.389,0,1.349,1.349,0,0,0,0,1.307" transform="translate(0)" fill="#34054d"/>
    </clipPath>
    <clipPath id="clip-path-3">
      <path id="Path_873466" data-name="Path 873466" d="M0,1.307A1.349,1.349,0,0,0,1.39,2.613,1.349,1.349,0,0,0,2.778,1.307,1.349,1.349,0,0,0,1.39,0,1.349,1.349,0,0,0,0,1.307" fill="#34054d"/>
    </clipPath>
    <clipPath id="clip-path-4">
      <path id="Path_873467" data-name="Path 873467" d="M0,1.306A1.349,1.349,0,0,0,1.389,2.612,1.349,1.349,0,0,0,2.778,1.306,1.349,1.349,0,0,0,1.389,0,1.349,1.349,0,0,0,0,1.306" transform="translate(0 0)" fill="#34054d"/>
    </clipPath>
    <clipPath id="clip-path-5">
      <path id="Path_873468" data-name="Path 873468" d="M0,1.306A1.349,1.349,0,0,0,1.39,2.612,1.349,1.349,0,0,0,2.778,1.306,1.349,1.349,0,0,0,1.39,0,1.349,1.349,0,0,0,0,1.306" transform="translate(0 0)" fill="#34054d"/>
    </clipPath>
    <clipPath id="clip-path-6">
      <path id="Path_873469" data-name="Path 873469" d="M0,1.306A1.349,1.349,0,0,0,1.389,2.612,1.349,1.349,0,0,0,2.777,1.306,1.349,1.349,0,0,0,1.389,0,1.349,1.349,0,0,0,0,1.306" transform="translate(0 0)" fill="#34054d"/>
    </clipPath>
    <clipPath id="clip-path-9">
      <path id="Path_873473" data-name="Path 873473" d="M0,1.306A1.349,1.349,0,0,0,1.39,2.612,1.348,1.348,0,0,0,2.778,1.306,1.349,1.349,0,0,0,1.39,0,1.349,1.349,0,0,0,0,1.306" transform="translate(0 0)" fill="#34054d"/>
    </clipPath>
    <clipPath id="clip-path-22">
      <rect id="Rectangle_401492" data-name="Rectangle 401492" width="63.051" height="63.052" transform="translate(-0.424 0.013)" fill="#34054d" stroke="#707070" stroke-width="1"/>
    </clipPath>
  </defs>
  <g id="Group_1102666" data-name="Group 1102666" transform="translate(23060.281 3818.28)">
    <g id="Group_1100237" data-name="Group 1100237" transform="translate(-23054.037 -3797.84)">
      <g id="Group_1099505" data-name="Group 1099505" transform="translate(1.808 8.418)">
        <g id="Group_1099504" data-name="Group 1099504" transform="translate(0)" clip-path="url(#clip-path-2)">
          <rect id="Rectangle_401140" data-name="Rectangle 401140" width="2.777" height="2.613" transform="translate(0)" fill="#34054d"/>
        </g>
      </g>
      <g id="Group_1099517" data-name="Group 1099517" transform="translate(37.056 8.418)">
        <g id="Group_1099516" data-name="Group 1099516" transform="translate(0)" clip-path="url(#clip-path-3)">
          <rect id="Rectangle_401146" data-name="Rectangle 401146" width="2.778" height="2.613" transform="translate(0 0)" fill="#34054d"/>
        </g>
      </g>
      <g id="Group_1099519" data-name="Group 1099519" transform="translate(30.194 8.418)">
        <g id="Group_1099518" data-name="Group 1099518" transform="translate(0 0)" clip-path="url(#clip-path-4)">
          <rect id="Rectangle_401147" data-name="Rectangle 401147" width="2.778" height="2.612" transform="translate(0 0)" fill="#34054d"/>
        </g>
      </g>
      <g id="Group_1099521" data-name="Group 1099521" transform="translate(23.332 8.418)">
        <g id="Group_1099520" data-name="Group 1099520" transform="translate(0 0)" clip-path="url(#clip-path-5)">
          <rect id="Rectangle_401148" data-name="Rectangle 401148" width="2.778" height="2.612" transform="translate(0 0)" fill="#34054d"/>
        </g>
      </g>
      <g id="Group_1099523" data-name="Group 1099523" transform="translate(16.47 8.418)">
        <g id="Group_1099522" data-name="Group 1099522" transform="translate(0 0)" clip-path="url(#clip-path-6)">
          <rect id="Rectangle_401149" data-name="Rectangle 401149" width="2.777" height="2.612" transform="translate(0 0)" fill="#34054d"/>
        </g>
      </g>
      <g id="Group_1099525" data-name="Group 1099525" transform="translate(34.311 0)">
        <g id="Group_1099524" data-name="Group 1099524" clip-path="url(#clip-path-4)">
          <rect id="Rectangle_401150" data-name="Rectangle 401150" width="2.778" height="2.612" transform="translate(0 0)" fill="#34054d"/>
        </g>
      </g>
      <g id="Group_1099529" data-name="Group 1099529" transform="translate(27.448 0)">
        <g id="Group_1099528" data-name="Group 1099528" transform="translate(0)" clip-path="url(#clip-path-5)">
          <rect id="Rectangle_401152" data-name="Rectangle 401152" width="2.778" height="2.612" transform="translate(0 0)" fill="#34054d"/>
        </g>
      </g>
      <g id="Group_1099531" data-name="Group 1099531" transform="translate(13.724 0)">
        <g id="Group_1099530" data-name="Group 1099530" transform="translate(0)" clip-path="url(#clip-path-9)">
          <rect id="Rectangle_401153" data-name="Rectangle 401153" width="2.777" height="2.612" transform="translate(0 0)" fill="#34054d"/>
        </g>
      </g>
      <g id="Group_1099533" data-name="Group 1099533" transform="translate(6.862 0)">
        <g id="Group_1099532" data-name="Group 1099532" clip-path="url(#clip-path-4)">
          <rect id="Rectangle_401154" data-name="Rectangle 401154" width="2.778" height="2.612" transform="translate(0 0)" fill="#34054d"/>
        </g>
      </g>
      <g id="Group_1099535" data-name="Group 1099535" transform="translate(0 0)">
        <g id="Group_1099534" data-name="Group 1099534" transform="translate(0)" clip-path="url(#clip-path-5)">
          <rect id="Rectangle_401155" data-name="Rectangle 401155" width="2.778" height="2.612" transform="translate(0 0)" fill="#34054d"/>
        </g>
      </g>
    </g>
    <g id="Group_1100238" data-name="Group 1100238" transform="translate(-22980.652 -3724.455)">
      <g id="Group_1099505-2" data-name="Group 1099505" transform="translate(1.808 8.418)">
        <g id="Group_1099504-2" data-name="Group 1099504" transform="translate(0)" clip-path="url(#clip-path-2)">
          <rect id="Rectangle_401140-2" data-name="Rectangle 401140" width="2.777" height="2.613" transform="translate(0)" fill="#34054d"/>
        </g>
      </g>
      <g id="Group_1099517-2" data-name="Group 1099517" transform="translate(37.056 8.418)">
        <g id="Group_1099516-2" data-name="Group 1099516" transform="translate(0)" clip-path="url(#clip-path-3)">
          <rect id="Rectangle_401146-2" data-name="Rectangle 401146" width="2.778" height="2.613" transform="translate(0 0)" fill="#34054d"/>
        </g>
      </g>
      <g id="Group_1099519-2" data-name="Group 1099519" transform="translate(30.194 8.418)">
        <g id="Group_1099518-2" data-name="Group 1099518" transform="translate(0 0)" clip-path="url(#clip-path-4)">
          <rect id="Rectangle_401147-2" data-name="Rectangle 401147" width="2.778" height="2.612" transform="translate(0 0)" fill="#34054d"/>
        </g>
      </g>
      <g id="Group_1099521-2" data-name="Group 1099521" transform="translate(23.332 8.418)">
        <g id="Group_1099520-2" data-name="Group 1099520" transform="translate(0 0)" clip-path="url(#clip-path-5)">
          <rect id="Rectangle_401148-2" data-name="Rectangle 401148" width="2.778" height="2.612" transform="translate(0 0)" fill="#34054d"/>
        </g>
      </g>
      <g id="Group_1099523-2" data-name="Group 1099523" transform="translate(16.47 8.418)">
        <g id="Group_1099522-2" data-name="Group 1099522" transform="translate(0 0)" clip-path="url(#clip-path-6)">
          <rect id="Rectangle_401149-2" data-name="Rectangle 401149" width="2.777" height="2.612" transform="translate(0 0)" fill="#34054d"/>
        </g>
      </g>
      <g id="Group_1099525-2" data-name="Group 1099525" transform="translate(34.311 0)">
        <g id="Group_1099524-2" data-name="Group 1099524" clip-path="url(#clip-path-4)">
          <rect id="Rectangle_401150-2" data-name="Rectangle 401150" width="2.778" height="2.612" transform="translate(0 0)" fill="#34054d"/>
        </g>
      </g>
      <g id="Group_1099529-2" data-name="Group 1099529" transform="translate(27.448 0)">
        <g id="Group_1099528-2" data-name="Group 1099528" transform="translate(0)" clip-path="url(#clip-path-5)">
          <rect id="Rectangle_401152-2" data-name="Rectangle 401152" width="2.778" height="2.612" transform="translate(0 0)" fill="#34054d"/>
        </g>
      </g>
      <g id="Group_1099531-2" data-name="Group 1099531" transform="translate(13.724 0)">
        <g id="Group_1099530-2" data-name="Group 1099530" transform="translate(0)" clip-path="url(#clip-path-9)">
          <rect id="Rectangle_401153-2" data-name="Rectangle 401153" width="2.777" height="2.612" transform="translate(0 0)" fill="#34054d"/>
        </g>
      </g>
      <g id="Group_1099533-2" data-name="Group 1099533" transform="translate(6.862 0)">
        <g id="Group_1099532-2" data-name="Group 1099532" clip-path="url(#clip-path-4)">
          <rect id="Rectangle_401154-2" data-name="Rectangle 401154" width="2.778" height="2.612" transform="translate(0 0)" fill="#34054d"/>
        </g>
      </g>
      <g id="Group_1099535-2" data-name="Group 1099535" transform="translate(0 0)">
        <g id="Group_1099534-2" data-name="Group 1099534" transform="translate(0)" clip-path="url(#clip-path-5)">
          <rect id="Rectangle_401155-2" data-name="Rectangle 401155" width="2.778" height="2.612" transform="translate(0 0)" fill="#34054d"/>
        </g>
      </g>
    </g>
    <path id="Path_873784" data-name="Path 873784" d="M83.8,18.565A18.62,18.62,0,0,0,65.231,0H18.566A18.62,18.62,0,0,0,0,18.566V65.231A18.62,18.62,0,0,0,18.565,83.8H65.231A18.62,18.62,0,0,0,83.8,65.23Z" transform="translate(-22994.928 -3692.332) rotate(-135)" fill="#4b0d6b"/>
    <path id="Path_873785" data-name="Path 873785" d="M86.438,19.15A19.206,19.206,0,0,0,67.287,0H19.151A19.207,19.207,0,0,0,0,19.151V67.287a19.206,19.206,0,0,0,19.15,19.15H67.287A19.207,19.207,0,0,0,86.437,67.286Z" transform="translate(-22999.16 -3696.04) rotate(-135)" fill="#d7c9fe"/>
    <g id="Mask_Group_1098697" data-name="Mask Group 1098697" transform="translate(-23031.146 -3787.541)" clip-path="url(#clip-path-22)">
      <g id="Group_1102718" data-name="Group 1102718" transform="translate(305.147 -1205.965)">
        <g id="Group_1102704" data-name="Group 1102704" transform="translate(-274.438 1208.979)">
          <path id="Path_876839" data-name="Path 876839" d="M-145.793,1246.251a7.034,7.034,0,0,1-3.071-.694.853.853,0,0,1-.394-1.14.853.853,0,0,1,1.141-.394,5.457,5.457,0,0,0,5.317-.359,5.455,5.455,0,0,0,2.383-4.766.853.853,0,0,1,.642-.875,4.216,4.216,0,0,0,2.811-3.569,9.8,9.8,0,0,0-.993-5.206c-.508-1.2-1.025-1.815-1.626-1.942a.853.853,0,0,1-.609-.5.853.853,0,0,1,.061-.786,4.786,4.786,0,0,0-.014-4.933,4.788,4.788,0,0,0-4.451-2.127.851.851,0,0,1-.679-.223.853.853,0,0,1-.271-.661,5.922,5.922,0,0,0-2.339-5.15,5.012,5.012,0,0,0-5.281-.1.854.854,0,0,1-1.144-.231,4.577,4.577,0,0,0-3.788-1.909,4.4,4.4,0,0,0-3.575,2.154.853.853,0,0,1-1.165.312.853.853,0,0,1-.312-1.166,6.148,6.148,0,0,1,4.99-3.006,6.216,6.216,0,0,1,4.765,2.035,6.7,6.7,0,0,1,6.464.49,7.4,7.4,0,0,1,3.083,5.722,6.48,6.48,0,0,1,5.148,2.944,6.481,6.481,0,0,1,.469,5.877,5.513,5.513,0,0,1,1.848,2.529,11.756,11.756,0,0,1,1.111,6.116,6.127,6.127,0,0,1-3.434,4.761,7.21,7.21,0,0,1-3.146,5.627A7.131,7.131,0,0,1-145.793,1246.251Z" transform="translate(163.268 -1208.979)" fill="#34054d"/>
        </g>
        <g id="Group_1102705" data-name="Group 1102705" transform="translate(-264.445 1233.197)">
          <path id="Path_876840" data-name="Path 876840" d="M-109.914,1353.8a.854.854,0,0,1-.815-.6.853.853,0,0,1,.563-1.067,4.217,4.217,0,0,0,2.685-2.584,4.217,4.217,0,0,0-.477-3.7.853.853,0,0,1-.065-.842.854.854,0,0,1,.691-.486,3.444,3.444,0,0,0,2.66-1.7,3.4,3.4,0,0,0,.067-3.1,3.4,3.4,0,0,0-2.531-1.8.853.853,0,0,1-.735-.957.853.853,0,0,1,.957-.735,5.086,5.086,0,0,1,3.833,2.725,5.086,5.086,0,0,1-.1,4.7,5.132,5.132,0,0,1-2.8,2.312,5.964,5.964,0,0,1,.109,4.151,5.953,5.953,0,0,1-3.791,3.649A.853.853,0,0,1-109.914,1353.8Z" transform="translate(110.768 -1336.215)" fill="#34054d"/>
        </g>
        <g id="Group_1102706" data-name="Group 1102706" transform="translate(-265.662 1216.404)">
          <path id="Path_876841" data-name="Path 876841" d="M-107.836,1262.887a.846.846,0,0,1-.376-.088.853.853,0,0,1-.389-1.142,3.438,3.438,0,0,0-.315-3.483,3.438,3.438,0,0,0-3.24-1.317.853.853,0,0,1-.8-.3.853.853,0,0,1-.142-.838,4.608,4.608,0,0,0-.3-3.8,4.609,4.609,0,0,0-3.086-2.241.853.853,0,0,1-.671-1,.854.854,0,0,1,1-.671,6.336,6.336,0,0,1,4.243,3.081,6.345,6.345,0,0,1,.715,4.052,5.2,5.2,0,0,1,3.643,2.024,5.183,5.183,0,0,1,.475,5.251A.854.854,0,0,1-107.836,1262.887Z" transform="translate(117.165 -1247.986)" fill="#34054d"/>
        </g>
        <g id="Group_1102707" data-name="Group 1102707" transform="translate(-269.528 1243.157)">
          <path id="Path_876842" data-name="Path 876842" d="M-124.11,1407.7a.853.853,0,0,1-.853-.853v-3.464h-11.659a.853.853,0,0,1-.853-.853V1389.4a.853.853,0,0,1,.853-.853h2.652a.853.853,0,0,1,.853.853.853.853,0,0,1-.853.853h-1.8v11.422h11.659a.853.853,0,0,1,.853.853v4.317A.853.853,0,0,1-124.11,1407.7Z" transform="translate(137.476 -1388.546)" fill="#34054d"/>
        </g>
        <g id="Group_1102708" data-name="Group 1102708" transform="translate(-259.134 1260.736)">
          <path id="Path_876843" data-name="Path 876843" d="M-79.894,1486.846a2.975,2.975,0,0,1-2.972-2.972,2.975,2.975,0,0,1,2.972-2.972,2.975,2.975,0,0,1,2.972,2.972A2.975,2.975,0,0,1-79.894,1486.846Zm0-4.237a1.266,1.266,0,0,0-1.265,1.265,1.266,1.266,0,0,0,1.265,1.265,1.266,1.266,0,0,0,1.265-1.265A1.266,1.266,0,0,0-79.894,1482.609Z" transform="translate(82.866 -1480.903)" fill="#34054d"/>
        </g>
        <g id="Group_1102709" data-name="Group 1102709" transform="translate(-300.571 1208.979)">
          <path id="Path_876844" data-name="Path 876844" d="M-289.975,1246.252a7.13,7.13,0,0,1-3.937-1.167,7.211,7.211,0,0,1-3.146-5.627,6.128,6.128,0,0,1-3.434-4.761,11.755,11.755,0,0,1,1.111-6.115,5.513,5.513,0,0,1,1.848-2.53,6.481,6.481,0,0,1,.469-5.877,6.481,6.481,0,0,1,5.148-2.944,7.4,7.4,0,0,1,3.083-5.721,6.7,6.7,0,0,1,6.464-.49,6.237,6.237,0,0,1,4.765-2.035,6.149,6.149,0,0,1,4.99,3.006.854.854,0,0,1-.312,1.166.854.854,0,0,1-1.165-.312,4.405,4.405,0,0,0-3.576-2.154,4.575,4.575,0,0,0-3.788,1.909.854.854,0,0,1-1.144.231,5.013,5.013,0,0,0-5.281.1,5.923,5.923,0,0,0-2.339,5.15.854.854,0,0,1-.271.662.851.851,0,0,1-.679.223,4.785,4.785,0,0,0-4.451,2.127,4.786,4.786,0,0,0-.014,4.933.852.852,0,0,1,.061.786.853.853,0,0,1-.609.5c-.6.127-1.118.744-1.626,1.942a9.807,9.807,0,0,0-.993,5.206,4.216,4.216,0,0,0,2.811,3.569.853.853,0,0,1,.642.875,5.456,5.456,0,0,0,2.383,4.766,5.458,5.458,0,0,0,5.317.359.853.853,0,0,1,1.141.394.854.854,0,0,1-.394,1.14A7.034,7.034,0,0,1-289.975,1246.252Z" transform="translate(300.571 -1208.98)" fill="#34054d"/>
        </g>
        <g id="Group_1102710" data-name="Group 1102710" transform="translate(-290.706 1233.197)">
          <path id="Path_876845" data-name="Path 876845" d="M-241.383,1353.8a.854.854,0,0,1-.252-.038,5.953,5.953,0,0,1-3.791-3.649,5.966,5.966,0,0,1,.109-4.151,5.134,5.134,0,0,1-2.8-2.312,5.086,5.086,0,0,1-.1-4.7,5.086,5.086,0,0,1,3.833-2.725.854.854,0,0,1,.957.735.853.853,0,0,1-.735.957,3.4,3.4,0,0,0-2.531,1.8,3.4,3.4,0,0,0,.067,3.1,3.443,3.443,0,0,0,2.66,1.7.854.854,0,0,1,.691.486.854.854,0,0,1-.065.842,4.217,4.217,0,0,0-.477,3.7,4.217,4.217,0,0,0,2.685,2.584.853.853,0,0,1,.563,1.067A.854.854,0,0,1-241.383,1353.8Z" transform="translate(248.743 -1336.216)" fill="#34054d"/>
        </g>
        <g id="Group_1102711" data-name="Group 1102711" transform="translate(-291.873 1216.404)">
          <path id="Path_876846" data-name="Path 876846" d="M-253.6,1262.888a.853.853,0,0,1-.766-.477,5.183,5.183,0,0,1,.475-5.251,5.2,5.2,0,0,1,3.643-2.025,6.345,6.345,0,0,1,.715-4.051,6.336,6.336,0,0,1,4.243-3.081.854.854,0,0,1,1,.671.853.853,0,0,1-.671,1,4.609,4.609,0,0,0-3.087,2.241,4.609,4.609,0,0,0-.3,3.8.853.853,0,0,1-.142.838.853.853,0,0,1-.8.3,3.438,3.438,0,0,0-3.24,1.317,3.437,3.437,0,0,0-.315,3.483.853.853,0,0,1-.389,1.142A.849.849,0,0,1-253.6,1262.888Z" transform="translate(254.87 -1247.987)" fill="#34054d"/>
        </g>
        <g id="Group_1102712" data-name="Group 1102712" transform="translate(-291.628 1243.157)">
          <path id="Path_876847" data-name="Path 876847" d="M-252.733,1407.7a.853.853,0,0,1-.853-.853v-4.317a.853.853,0,0,1,.853-.853h11.659v-11.422h-1.8a.853.853,0,0,1-.853-.853.853.853,0,0,1,.853-.853h2.652a.853.853,0,0,1,.853.853v13.129a.853.853,0,0,1-.853.853H-251.88v3.464A.853.853,0,0,1-252.733,1407.7Z" transform="translate(253.586 -1388.546)" fill="#34054d"/>
        </g>
        <g id="Group_1102713" data-name="Group 1102713" transform="translate(-293.747 1260.736)">
          <path id="Path_876848" data-name="Path 876848" d="M-261.744,1486.846a2.975,2.975,0,0,1-2.972-2.972,2.975,2.975,0,0,1,2.972-2.972,2.975,2.975,0,0,1,2.972,2.972A2.975,2.975,0,0,1-261.744,1486.846Zm0-4.237a1.267,1.267,0,0,0-1.265,1.265,1.267,1.267,0,0,0,1.265,1.265,1.267,1.267,0,0,0,1.265-1.265A1.267,1.267,0,0,0-261.744,1482.609Z" transform="translate(264.716 -1480.903)" fill="#34054d"/>
        </g>
        <g id="Group_1102714" data-name="Group 1102714" transform="translate(-276.572 1257.728)">
          <path id="Path_876849" data-name="Path 876849" d="M-171.51,1471.043a2.975,2.975,0,0,1-2.972-2.972,2.975,2.975,0,0,1,2.972-2.971,2.975,2.975,0,0,1,2.972,2.971A2.975,2.975,0,0,1-171.51,1471.043Zm0-4.237a1.266,1.266,0,0,0-1.265,1.265,1.266,1.266,0,0,0,1.265,1.265,1.267,1.267,0,0,0,1.265-1.265A1.267,1.267,0,0,0-171.51,1466.806Z" transform="translate(174.482 -1465.1)" fill="#34054d"/>
        </g>
        <g id="Group_1102715" data-name="Group 1102715" transform="translate(-274.334 1210.679)">
          <path id="Path_876850" data-name="Path 876850" d="M-161.873,1228.881a.853.853,0,0,1-.853-.853v-9.266a.853.853,0,0,1,.853-.853.853.853,0,0,1,.853.853v9.266A.853.853,0,0,1-161.873,1228.881Z" transform="translate(162.726 -1217.909)" fill="#34054d"/>
        </g>
        <g id="Group_1102716" data-name="Group 1102716" transform="translate(-274.38 1242.971)">
          <path id="Path_876851" data-name="Path 876851" d="M-162.112,1403.161a.853.853,0,0,1-.853-.853V1388.42a.853.853,0,0,1,.853-.853.853.853,0,0,1,.853.853v13.888A.853.853,0,0,1-162.112,1403.161Z" transform="translate(162.965 -1387.567)" fill="#34054d"/>
        </g>
        <g id="Group_1102717" data-name="Group 1102717" transform="translate(-282.453 1225.778)">
          <path id="Path_876852" data-name="Path 876852" d="M-197.307,1307.111H-201.8l-.854,2.563h-2.725l4.629-12.436h2.374l4.655,12.436h-2.725Zm-3.8-2.075H-198l-1.563-4.655Z" transform="translate(205.378 -1297.238)" fill="#34054d"/>
          <path id="Path_876853" data-name="Path 876853" d="M-134.607,1309.674h-2.562v-12.436h2.562Z" transform="translate(150.152 -1297.238)" fill="#34054d"/>
        </g>
      </g>
    </g>
  </g>
</svg>
