<svg xmlns="http://www.w3.org/2000/svg" xmlns:xlink="http://www.w3.org/1999/xlink" width="99" height="99" viewBox="0 0 99 99">
  <defs>
    <clipPath id="clip-path">
      <rect id="Rectangle_401223" data-name="Rectangle 401223" width="99" height="99" transform="translate(0)" fill="#a01f4e"/>
    </clipPath>
    <clipPath id="clip-path-2">
      <rect id="Rectangle_401223-2" data-name="Rectangle 401223" width="88.539" height="88.539" fill="#f3f9ff"/>
    </clipPath>
  </defs>
  <g id="Group_1102429" data-name="Group 1102429" transform="translate(-619.921 -5755.871)">
    <g id="Group_1100724" data-name="Group 1100724" transform="translate(619.921 5755.871)">
      <g id="Group_1099654" data-name="Group 1099654" transform="translate(0 0)">
        <g id="Group_1099652" data-name="Group 1099652" clip-path="url(#clip-path)">
          <path id="Path_873521" data-name="Path 873521" d="M99,77.066A22,22,0,0,1,77.066,99H21.934A22,22,0,0,1,0,77.066V21.933A22,22,0,0,1,21.934,0H77.066A22,22,0,0,1,99,21.934Z" transform="translate(0)" fill="#bfa9fe"/>
        </g>
      </g>
      <g id="Group_1099659" data-name="Group 1099659" transform="translate(4.77 5.723)">
        <g id="Group_1099652-2" data-name="Group 1099652" transform="translate(0 0)" clip-path="url(#clip-path-2)">
          <path id="Path_873521-2" data-name="Path 873521" d="M88.539,68.922A19.674,19.674,0,0,1,68.923,88.539H19.616A19.674,19.674,0,0,1,0,68.922V19.616A19.674,19.674,0,0,1,19.616,0H68.923A19.674,19.674,0,0,1,88.539,19.616Z" fill="#f3f9ff"/>
        </g>
      </g>
    </g>
    <g id="Group_1100725" data-name="Group 1100725" transform="translate(636.343 5771.293)">
      <rect id="Rectangle_401104" data-name="Rectangle 401104" width="68" height="69" fill="none"/>
      <g id="Group_1104016" data-name="Group 1104016" transform="translate(-3659.533 -2370.073)">
        <path id="Path_878408" data-name="Path 878408" d="M3762.826,2478.371c-.378.312-.83.209-1.256.21q-16.7.008-33.4.006c-2.61,0-3.852-1.232-3.853-3.873q-.012-20.384,0-40.768c0-2.639,1.243-3.857,3.852-3.868,2.416-.01,4.832-.029,7.248-.044a3.529,3.529,0,0,1,.091,3.387,28.475,28.475,0,0,1-5.2.136c-2.294.053-2.3.014-2.3,2.265q0,18.6,0,37.2c0,2.072,0,2.076,2.115,2.076q14.676,0,29.353,0c.317,0,.635-.016.95-.01.7.014,1.015-.32,1.008-1.008,0-.316.011-.634.011-.95q0-18.717,0-37.435c0-2.118,0-2.119-2.071-2.123-1.267,0-2.535.01-3.8-.006a2.593,2.593,0,0,1-1.6-.324,3.08,3.08,0,0,1,.066-3.192c2.474.01,4.948.016,7.423.034.46,0,.95-.13,1.356.22a6.34,6.34,0,0,1,1.355,4.415q-.053,19.557,0,39.115A6.513,6.513,0,0,1,3762.826,2478.371Z" transform="translate(-51.193 -47.144)" fill="#a01f4e"/>
        <path id="Path_878409" data-name="Path 878409" d="M3770.652,2418.718q-.008-1.686-.016-3.373c.376-1.334.874-1.715,2.167-1.646a7.822,7.822,0,0,1,.823.083,6.459,6.459,0,0,0,2.309.331c.818-.2.28-1.333.749-1.921a4.567,4.567,0,0,1,.877-1.1,11.768,11.768,0,0,1,1.712-.336,2.862,2.862,0,0,1,3,2.279,1.289,1.289,0,0,0,1.262,1.124c1.131.128,2.177-.453,3.3-.4a4.037,4.037,0,0,1,1.066,3.35c-.079.9-.066,1.751,1.131,1.926.2.029.286.247.122.458a2.469,2.469,0,0,1-1.595.334q-7.641.015-15.283,0a3.5,3.5,0,0,1-1.172-.133C3770.63,2419.529,3770.357,2419.253,3770.652,2418.718Z" transform="translate(-86.409 -32.455)" fill="#65002f"/>
        <path id="Path_878410" data-name="Path 878410" d="M3921.069,2395.969c-.009,5.62-.041,11.24-.006,16.861a2.122,2.122,0,0,1-1.257,2.17c-1.4.724-2.741,1.558-4.252,2.429.816.379,1.313.892.917,1.679-.35.7-1.011.576-1.67.46-.854-.15-1.728-.191-2.589-.3-.962-.123-1.355-.689-1.019-1.557.386-.994.819-1.974,1.293-2.928.491-.988,1.007-1.042,1.942-.285.215.3-.078.7.2.985,1.238-.7,2.466-1.411,3.721-2.075a1.116,1.116,0,0,0,.586-1.173q-.027-8.131-.035-16.263A1.622,1.622,0,0,1,3921.069,2395.969Z" transform="translate(-193.502 -20.872)" fill="#7c85bb"/>
        <path id="Path_878411" data-name="Path 878411" d="M3918.943,2569.14q.015-8.132.035-16.264a1.117,1.117,0,0,0-.586-1.173c-1.256-.663-2.483-1.379-3.722-2.074-.28.284.014.688-.2.984-.934.754-1.45.7-1.942-.289-.458-.919-.863-1.867-1.247-2.82s-.032-1.534.976-1.663c.9-.116,1.813-.165,2.706-.323.683-.121,1.321-.148,1.595.591.268.722-.119,1.217-1.031,1.525,1.541.89,2.9,1.738,4.322,2.474a2.123,2.123,0,0,1,1.257,2.17c-.035,5.62,0,11.241.007,16.862A1.622,1.622,0,0,1,3918.943,2569.14Z" transform="translate(-193.541 -135.092)" fill="#7c85bb"/>
        <path id="Path_878412" data-name="Path 878412" d="M3667.124,2569.135c.009-5.621.041-11.242.005-16.862a2.121,2.121,0,0,1,1.258-2.169c1.4-.723,2.743-1.556,4.269-2.433-.844-.367-1.324-.889-.936-1.672.346-.7,1.008-.579,1.667-.463.854.151,1.728.191,2.589.3,1.008.128,1.361.708.977,1.662s-.788,1.9-1.247,2.82c-.494.99-1,1.044-1.942.29-.217-.3.077-.7-.2-.981-1.239.695-2.466,1.41-3.721,2.074a1.117,1.117,0,0,0-.586,1.172q.027,8.131.035,16.261A1.621,1.621,0,0,1,3667.124,2569.135Z" transform="translate(-7.616 -135.087)" fill="#7c85bb"/>
        <path id="Path_878413" data-name="Path 878413" d="M3669.288,2395.969q-.015,8.131-.035,16.261a1.118,1.118,0,0,0,.587,1.172c1.255.664,2.482,1.379,3.721,2.074.281-.283-.013-.685.2-.981.935-.755,1.449-.7,1.942.288.458.919.863,1.867,1.247,2.82s.032,1.534-.976,1.664c-.9.116-1.813.166-2.706.323-.684.121-1.321.147-1.595-.592-.267-.721.114-1.219,1.033-1.525-1.542-.89-2.9-1.736-4.321-2.473a2.124,2.124,0,0,1-1.259-2.168c.036-5.621,0-11.242-.005-16.863A1.621,1.621,0,0,1,3669.288,2395.969Z" transform="translate(-7.616 -20.872)" fill="#7c85bb"/>
        <path id="Path_878414" data-name="Path 878414" d="M3884.345,2479.227c-.141-.124-.925.1-.342-.4a3.869,3.869,0,0,0,1.284-3.267q-.019-20.371,0-40.742a3.592,3.592,0,0,0-1.3-3.251c-.251-.183-.22-.226.344-.414,1.617.6,2.175,1.444,2.176,3.367q.006,13.716,0,27.432c0,4.71.008,9.421,0,14.132A2.9,2.9,0,0,1,3884.345,2479.227Z" transform="translate(-172.712 -48.001)" fill="#d17f6f"/>
        <path id="Path_878415" data-name="Path 878415" d="M3661.671,2375.1h-2.163c-2.476-.04-2.388.273-2.371-2.372.007-1.144.026-2.289-.007-3.432-.023-.806.3-1.153,1.117-1.129,1.3.04,2.6.028,3.9.038a1.227,1.227,0,0,1,.59,1.21c.041,1.424.038,2.848,0,4.271a1.619,1.619,0,0,1-.6,1.36Z" fill="#75aef8"/>
        <path id="Path_878416" data-name="Path 878416" d="M3659.508,2644.969h2.163l.474.053c.9,1.144.9,5.837.005,6.841-1.3.01-2.6,0-3.9.038-.816.024-1.134-.325-1.117-1.13.031-1.42.006-2.841.009-4.261,0-1.478.046-1.518,1.541-1.532Z" transform="translate(0 -210.921)" fill="#75aef8"/>
        <path id="Path_878417" data-name="Path 878417" d="M3938.5,2375.1h-2.165c-2.379-.033-2.379-.033-2.379-2.451,0-1.109.02-2.219-.006-3.326-.019-.788.28-1.178,1.111-1.154,1.306.038,2.612.028,3.918.039a1.215,1.215,0,0,1,.59,1.193q.064,2.225,0,4.452a1.213,1.213,0,0,1-.59,1.193Z" transform="translate(-210.929 -0.004)" fill="#75aef8"/>
        <path id="Path_878418" data-name="Path 878418" d="M3936.331,2644.969h2.165l.48.054a1.214,1.214,0,0,1,.589,1.194q.064,2.226,0,4.452a1.212,1.212,0,0,1-.59,1.193c-1.306.01-2.613,0-3.918.038-.831.024-1.125-.367-1.111-1.154.025-1.346,0-2.693.007-4.039,0-1.595.119-1.712,1.667-1.728Z" transform="translate(-210.929 -210.921)" fill="#75aef8"/>
        <path id="Path_878419" data-name="Path 878419" d="M3678.2,2375.113a21.483,21.483,0,0,0,.006-6.841c1.8-.074,1.889.008,1.891,1.773q0,1.645,0,3.291C3680.1,2375.091,3679.992,2375.189,3678.2,2375.113Z" transform="translate(-16.057 -0.069)" fill="#5a92f6"/>
        <path id="Path_878420" data-name="Path 878420" d="M3678.208,2651.979a21.451,21.451,0,0,0-.006-6.841c1.792-.076,1.9.021,1.9,1.776q0,1.646,0,3.292C3680.1,2651.969,3680.009,2652.052,3678.208,2651.979Z" transform="translate(-16.057 -211.037)" fill="#5a92f6"/>
        <path id="Path_878421" data-name="Path 878421" d="M3955.081,2375.11a21.417,21.417,0,0,0,0-6.838c1.816-.079,1.889-.011,1.892,1.766q0,1.647,0,3.3C3956.97,2375.1,3956.878,2375.187,3955.081,2375.11Z" transform="translate(-227.034 -0.067)" fill="#5a91f6"/>
        <path id="Path_878422" data-name="Path 878422" d="M3955.078,2651.977a21.407,21.407,0,0,0,0-6.839c1.8-.078,1.889.007,1.891,1.777q0,1.648,0,3.3C3956.968,2651.988,3956.9,2652.054,3955.078,2651.977Z" transform="translate(-227.032 -211.036)" fill="#5a91f6"/>
        <path id="Path_878423" data-name="Path 878423" d="M3840.5,2428.7c-1.591-.014-1.56-.015-1.6-1.567-.034-1.237.4-2.629-.981-3.5l.27-.354c1.542-.131,1.928.124,2.415,1.6q.012,1.58.024,3.159C3840.775,2428.294,3840.785,2428.524,3840.5,2428.7Z" transform="translate(-137.76 -41.975)" fill="#a01f4e"/>
        <path id="Path_878424" data-name="Path 878424" d="M3806.048,2412.313c-.769.4-1.355.592-1.481-.665-.163-1.608-1.185-2.358-2.806-2.426-.57-.024-1.128.359-1.692.025a3.626,3.626,0,0,1,5.979,3.066Z" transform="translate(-108.917 -30.608)" fill="#a01f4e"/>
        <path id="Path_878425" data-name="Path 878425" d="M3694.1,2563.013c.214.153.214.153.2.981C3693.982,2563.72,3694.106,2563.354,3694.1,2563.013Z" transform="translate(-28.157 -148.472)" fill="#cccfe2"/>
        <path id="Path_878426" data-name="Path 878426" d="M3924.99,2563.981c.128-.315-.308-.749.205-.984C3925.192,2563.339,3925.316,2563.707,3924.99,2563.981Z" transform="translate(-204.066 -148.46)" fill="#cdd0e2"/>
        <path id="Path_878427" data-name="Path 878427" d="M3925.2,2476.117c-.514-.236-.072-.67-.2-.985C3925.323,2475.407,3925.2,2475.775,3925.2,2476.117Z" transform="translate(-204.073 -81.508)" fill="#ced1e2"/>
        <path id="Path_878428" data-name="Path 878428" d="M3694.307,2475.129c-.129.314.314.748-.2.981C3694.107,2475.77,3693.982,2475.4,3694.307,2475.129Z" transform="translate(-28.158 -81.506)" fill="#ccd0e2"/>
        <path id="Path_878429" data-name="Path 878429" d="M3764.336,2443.9l.125-.661c2.259-.006,4.518.021,6.776-.035.843-.021,1.075.264,1.073,1.087q-.039,15.991-.023,31.983c0,2.655-.031,5.311.027,7.965.021.94-.182,1.3-1.225,1.3q-15.99-.057-31.981-.006c-.876,0-1.149-.227-1.147-1.128q.041-20.034,0-40.068c0-.9.256-1.166,1.143-1.136,1.86.062,3.725.019,5.587.019a1.8,1.8,0,0,1,1.144.219c-.059.879.6.657,1.06.658,5.092.01,10.185.02,15.277-.009C3762.89,2444.083,3763.653,2444.365,3764.336,2443.9Z" transform="translate(-61.593 -57.175)" fill="#f2f2fe"/>
        <path id="Path_878430" data-name="Path 878430" d="M3734.034,2464.582q0-9.872,0-19.743c0-.317,0-.635.015-.951.01-.213.11-.4.342-.406s.33.191.341.4c.015.277.014.555.014.832q0,19.863,0,39.725a1.241,1.241,0,0,1,0,.237c-.069.353.2.968-.352.969s-.349-.614-.349-.967Q3734.025,2474.632,3734.034,2464.582Z" transform="translate(-58.58 -57.391)" fill="#d28475"/>
        <path id="Path_878431" data-name="Path 878431" d="M3763.608,2515.584c.011,1.5.049,3,.026,4.5-.018,1.219-.447,1.621-1.664,1.628q-3.082.018-6.165,0c-1.226-.008-1.621-.407-1.629-1.642q-.02-3.082,0-6.165c.007-1.21.412-1.628,1.638-1.652,1.343-.027,2.688,0,4.031-.011a1.336,1.336,0,0,1,1.349.779c.29.643-.125,1.034-.622,1.355a16.471,16.471,0,0,1-3.3.08c-.679-.006-.9.219-.875.885.043,1.143.024,2.289.007,3.432-.008.5.181.677.688.713a21.748,21.748,0,0,0,3.4-.292c.643-.054.7-.651.717-1.186A3.491,3.491,0,0,1,3763.608,2515.584Z" transform="translate(-73.941 -109.787)" fill="#75aff8"/>
        <path id="Path_878432" data-name="Path 878432" d="M3763.585,2567.548c.012,1.5.05,3,.027,4.5-.018,1.219-.441,1.608-1.673,1.615q-3.081.017-6.163,0c-1.23-.009-1.613-.4-1.621-1.645-.012-2.054.026-4.109-.015-6.163a1.393,1.393,0,0,1,1.546-1.638q2.073-.035,4.148.005a1.29,1.29,0,0,1,1.356.758c.245.658-.154,1.037-.64,1.364-1,.177-2.029.07-3.036.293-.617.137-.911.392-.9,1.01,0,.2,0,.394,0,.592-.013,3.177.426,3.515,3.658,2.959.8-.137.867-.674.927-1.279A3.551,3.551,0,0,1,3763.585,2567.548Z" transform="translate(-73.92 -149.377)" fill="#75aff8"/>
        <path id="Path_878433" data-name="Path 878433" d="M3763.594,2463.591c.011,1.506.048,3.012.025,4.517-.019,1.211-.459,1.616-1.679,1.623-2.061.011-4.122-.009-6.183.008-1.083.009-1.61-.476-1.6-1.574.015-2.1.028-4.2-.006-6.3a1.362,1.362,0,0,1,1.479-1.591q2.079-.054,4.161,0c.762.02,1.507.277,1.447,1.2-.058.9-.824.916-1.529.908-.872-.01-1.745.026-2.615-.01-.629-.026-.834.233-.819.838q.045,1.782,0,3.566c-.016.61.193.854.82.834,1.069-.036,2.144-.062,3.209.007.9.058,1.364-.188,1.2-1.168a5.941,5.941,0,0,1-.034-.711A2.878,2.878,0,0,1,3763.594,2463.591Z" transform="translate(-73.927 -70.164)" fill="#75aff8"/>
        <path id="Path_878434" data-name="Path 878434" d="M3812.1,2519.54q-2.909,0-5.817,0c-.674,0-1.313-.054-1.37-.93-.062-.936.619-1.156,1.318-1.161q5.876-.042,11.752,0c.679.006,1.447.2,1.4,1.1-.042.863-.721,1-1.468.994C3815.983,2519.527,3814.043,2519.54,3812.1,2519.54Z" transform="translate(-112.609 -113.737)" fill="#7d86bc"/>
        <path id="Path_878435" data-name="Path 878435" d="M3812.126,2538.075c1.939,0,3.878.005,5.817,0,.7,0,1.31.142,1.346.977.039.905-.614,1.125-1.346,1.127q-5.817.018-11.634,0c-.731,0-1.387-.22-1.347-1.126.037-.832.646-.981,1.347-.978C3808.248,2538.08,3810.187,2538.075,3812.126,2538.075Z" transform="translate(-112.645 -129.467)" fill="#7d86bc"/>
        <path id="Path_878436" data-name="Path 878436" d="M3812.125,2486.074c1.939,0,3.879,0,5.818,0,.7,0,1.306.164,1.346.987.044.9-.609,1.129-1.342,1.132q-5.818.02-11.636,0c-.73,0-1.387-.224-1.347-1.127.037-.822.636-.994,1.342-.991C3808.247,2486.079,3810.186,2486.074,3812.125,2486.074Z" transform="translate(-112.648 -89.844)" fill="#7d85bc"/>
        <path id="Path_878437" data-name="Path 878437" d="M3812.121,2590.027c1.939,0,3.878.007,5.818,0,.7,0,1.309.137,1.348.972.043.912-.609,1.119-1.344,1.121q-5.817.015-11.635,0c-.732,0-1.389-.2-1.349-1.116.037-.834.641-.98,1.344-.977C3808.243,2590.033,3810.182,2590.027,3812.121,2590.027Z" transform="translate(-112.643 -169.053)" fill="#7d86bc"/>
        <path id="Path_878438" data-name="Path 878438" d="M3812.173,2569.847c1.943,0,3.885,0,5.828,0,.727,0,1.456.1,1.421,1.014-.033.86-.715,1-1.467,1-3.846-.016-7.691-.008-11.537-.007-.71,0-1.427-.037-1.456-.98-.033-1.069.773-1.019,1.5-1.02Q3809.318,2569.843,3812.173,2569.847Z" transform="translate(-112.645 -153.678)" fill="#7c85bb"/>
        <path id="Path_878439" data-name="Path 878439" d="M3812.111,2467.892q-2.914,0-5.827,0c-.679,0-1.321-.066-1.346-.951-.027-.952.632-1.054,1.369-1.053q5.827.006,11.655,0c.747,0,1.439.14,1.433,1.02s-.718,1-1.455.992C3816,2467.883,3814.054,2467.893,3812.111,2467.892Z" transform="translate(-112.627 -74.463)" fill="#7c85bc"/>
        <path id="Path_878440" data-name="Path 878440" d="M3772.9,2515.608a14.849,14.849,0,0,0-2.119,2.13,3.251,3.251,0,0,1-.4.692c-.4.387-.735.869-1.356.937a1.017,1.017,0,0,1-.826-.2,14.2,14.2,0,0,1-1.632-2.6.983.983,0,0,1,.383-1.508.919.919,0,0,1,1.4.434c.486,1.113.921.685,1.485.091.9-.945,1.835-1.852,2.761-2.77.533-.528,1.125-.816,1.734-.154.549.6.293,1.15-.213,1.656C3773.695,2514.734,3773.3,2515.177,3772.9,2515.608Z" transform="translate(-83.231 -109.811)" fill="#065564"/>
        <path id="Path_878441" data-name="Path 878441" d="M3772.035,2567.585a14.45,14.45,0,0,0-2.118,2.117c-.776,1.457-1.2,1.711-2.6,1.563a6.1,6.1,0,0,1-1.969-2.862c-.347-.8.136-1.337.814-1.722a.654.654,0,0,1,.706.157,1.18,1.18,0,0,0,.273.221c.542.214.441,1.272,1.154,1.066.467-.135.806-.719,1.2-1.107.783-.776,1.554-1.564,2.346-2.331a1.03,1.03,0,0,1,1.648-.044c.487.542.314,1.08-.159,1.567C3772.885,2566.661,3772.463,2567.126,3772.035,2567.585Z" transform="translate(-82.369 -149.415)" fill="#065564"/>
        <path id="Path_878442" data-name="Path 878442" d="M3772.914,2463.646a14.824,14.824,0,0,0-2.126,2.148c-.378.344-.751.694-1.134,1.032-.783.689-1.388.619-1.941-.254-.4-.634-.753-1.3-1.132-1.946a.993.993,0,0,1,.375-1.513.922.922,0,0,1,1.4.423c.469,1.042.887.792,1.491.128.823-.906,1.709-1.755,2.583-2.615.548-.54,1.151-1.143,1.9-.345.667.712.188,1.285-.368,1.816C3773.592,2462.873,3773.262,2463.269,3772.914,2463.646Z" transform="translate(-83.246 -70.219)" fill="#065564"/>
        <path id="Path_878443" data-name="Path 878443" d="M3765.647,2577.889c1.314.336,1.73-.942,2.583-1.435a7.046,7.046,0,0,0,.033.708c.132.915-.2,1.278-1.167,1.2a27.545,27.545,0,0,0-3.194-.009c-.674.025-.9-.232-.883-.894.037-1.143.049-2.29,0-3.432-.034-.763.3-.944.982-.918,1.1.042,2.208.018,3.313.021-.628.545-1.516-.129-2.135.456l-.687.034c-1.984.64-.513,2.188-.817,3.273-.226.807.549.872,1.166.863A4.294,4.294,0,0,1,3765.647,2577.889Z" transform="translate(-80.683 -156.166)" fill="#eaeef8"/>
        <path id="Path_878444" data-name="Path 878444" d="M3765.649,2525.91l.976.028c.676-.008,1.162-.229,1.141-1.018l.465-.435a6.84,6.84,0,0,0,.034.709c.135.921-.213,1.274-1.171,1.2a27.853,27.853,0,0,0-3.2-.009c-.68.026-.9-.244-.876-.9.037-1.144.049-2.291,0-3.434-.035-.763.3-.944.981-.919,1.1.042,2.21.015,3.315.017-.98.466-2.021.179-3.028.2-.775.013-1.079.257-1.018,1.035.049.63.01,1.268.01,1.9C3763.278,2526.292,3763.661,2526.554,3765.649,2525.91Z" transform="translate(-80.684 -116.559)" fill="#eaeef8"/>
        <path id="Path_878445" data-name="Path 878445" d="M3779.321,2537.048a.676.676,0,0,1,.127,1.017.983.983,0,0,1-1.267,0Z" transform="translate(-92.239 -128.687)" fill="#f2f2fe"/>
        <path id="Path_878446" data-name="Path 878446" d="M3766.484,2578.553c-.57.418-1.217.167-1.828.195-.493.023-.54-.356-.54-.734,0-1.024,0-2.048,0-3.071-.007-.99.382-1.226,1.213-.656a1.3,1.3,0,0,0-.294,2.012C3765.544,2577.031,3766,2577.8,3766.484,2578.553Z" transform="translate(-81.52 -156.83)" fill="#f2f2fe"/>
      </g>
    </g>
  </g>
</svg>
