<svg xmlns="http://www.w3.org/2000/svg" xmlns:xlink="http://www.w3.org/1999/xlink" width="99" height="99" viewBox="0 0 99 99">
  <defs>
    <clipPath id="clip-path">
      <rect id="Rectangle_401223" data-name="Rectangle 401223" width="99" height="99" transform="translate(0)" fill="#a01f4e"/>
    </clipPath>
    <clipPath id="clip-path-2">
      <rect id="Rectangle_401223-2" data-name="Rectangle 401223" width="88.539" height="88.539" fill="#f3f9ff"/>
    </clipPath>
  </defs>
  <g id="Group_1104012" data-name="Group 1104012" transform="translate(-619.921 -5755.871)">
    <g id="Group_1100724" data-name="Group 1100724" transform="translate(619.921 5755.871)">
      <g id="Group_1099654" data-name="Group 1099654" transform="translate(0 0)">
        <g id="Group_1099652" data-name="Group 1099652" clip-path="url(#clip-path)">
          <path id="Path_873521" data-name="Path 873521" d="M99,77.066A22,22,0,0,1,77.066,99H21.934A22,22,0,0,1,0,77.066V21.933A22,22,0,0,1,21.934,0H77.066A22,22,0,0,1,99,21.934Z" transform="translate(0)" fill="#bfa9fe"/>
        </g>
      </g>
      <g id="Group_1099659" data-name="Group 1099659" transform="translate(4.77 5.723)">
        <g id="Group_1099652-2" data-name="Group 1099652" transform="translate(0 0)" clip-path="url(#clip-path-2)">
          <path id="Path_873521-2" data-name="Path 873521" d="M88.539,68.922A19.674,19.674,0,0,1,68.923,88.539H19.616A19.674,19.674,0,0,1,0,68.922V19.616A19.674,19.674,0,0,1,19.616,0H68.923A19.674,19.674,0,0,1,88.539,19.616Z" fill="#f3f9ff"/>
        </g>
      </g>
    </g>
    <g id="Group_1100725" data-name="Group 1100725" transform="translate(636.343 5771.293)">
      <rect id="Rectangle_401104" data-name="Rectangle 401104" width="68" height="69" fill="none"/>
      <g id="Group_1104019" data-name="Group 1104019" transform="translate(-3700.761 -2380.036)">
        <path id="Path_878506" data-name="Path 878506" d="M3759.784,2570.86a.982.982,0,0,1-.881.214,3.445,3.445,0,0,0-1.866,0c-7.8-.228-13.35-4-16.853-10.861a1.725,1.725,0,0,0-1.839-1.119q-13.062.041-26.124.011a2.61,2.61,0,0,1-1.463-.156c.614-.771,1.489-.54,2.269-.542,7.607-.021,15.214-.012,22.822-.013a3.445,3.445,0,0,0,.946-.015c.655-.195,1.823.573,1.848-.855.028-1.616-.547-2.277-1.976-2.284-6.928-.033-13.856,0-20.784-.024-.747,0-1.561.168-2.17-.491.362-.926,1.193-.628,1.838-.631,6.579-.03,13.158-.013,19.737-.02,3.052,0,2.775.211,2.8-2.795.055-7.935,6.187-15.431,14.391-17.589a21.17,21.17,0,0,1,2.532-.518,15.336,15.336,0,0,1,2.745.013,2.554,2.554,0,0,1,.43.089,20.575,20.575,0,0,1,9.672,4.356,19.211,19.211,0,0,1,1.736,27.69,16.228,16.228,0,0,1-7.679,4.951C3761.234,2570.579,3760.43,2570.435,3759.784,2570.86Z" transform="translate(-7.273 -116.843)" fill="#a01f4e"/>
        <path id="Path_878507" data-name="Path 878507" d="M3706.464,2453.742a2.825,2.825,0,0,0,1.468.144c7.3.008,14.6.028,21.895-.018,1.114-.007,1.666.236,1.735,1.445.05.88.824,2.139.482,2.523-.555.624-1.785.22-2.727.222q-12.1.023-24.207.011c-.542,0-1.085.038-1.626.059-1.944-.576-2.714-1.526-2.715-3.521q-.014-28.3,0-56.594c0-2.237,1.228-3.426,3.466-3.44,3.9-.025,7.8-.02,11.7-.028a4.43,4.43,0,0,1-.184,4.559,4,4,0,0,1-1.991.3c-2.175.02-4.35,0-6.525.015a1.457,1.457,0,0,0-1.662,1.662c0,.407-.018.815-.018,1.223q0,24-.012,47.994A5.107,5.107,0,0,0,3706.464,2453.742Z" transform="translate(0 -16.026)" fill="#34054d"/>
        <path id="Path_878508" data-name="Path 878508" d="M3755.678,2382.848c.5-1.422.156-2.884.21-4.328.116-1.587.4-1.854,1.986-1.877a12.533,12.533,0,0,1,1.493.007,4.1,4.1,0,0,0,4.467-2.094c1.952-3.069,6.736-2.551,8.646.752a2.351,2.351,0,0,0,2.4,1.348c1.219-.046,2.442.016,3.664.031a9.465,9.465,0,0,1,.148,5.827,1.536,1.536,0,0,1-1.444,1.069,11.966,11.966,0,0,1-1.762.072c-6.425-.009-12.85.023-19.275-.011A.667.667,0,0,1,3755.678,2382.848Z" transform="translate(-39.953)" fill="#d2a471"/>
        <path id="Path_878509" data-name="Path 878509" d="M3872.249,2394.655c1.3-.022,2.6-.08,3.907-.057,1.955.035,2.921.909,3.273,2.868.057,11.63,0,23.26.037,34.89,0,.908-.228,1.23-1.18.982-.994-.259-2.013-.435-3.03-.595l-.039-.027a3.235,3.235,0,0,1-.436-2.345q-.019-14.015-.014-28.029c0-1.03.134-2.123-.856-2.864a2.535,2.535,0,0,1-.23-.138c-.59-.4-1.644-.179-1.761-1.189C3871.785,2396.974,3871.492,2395.758,3872.249,2394.655Z" transform="translate(-124.403 -16.06)" fill="#34054d"/>
        <path id="Path_878510" data-name="Path 878510" d="M3884.619,2440.411a11.743,11.743,0,0,1,3.214.417c.7.181.92-.033.894-.692-.013-.316,0-.633,0-.95q0-16.285,0-32.57c0-.5.041-.99.063-1.484a2.794,2.794,0,0,1,.128,1.467c.009,11.017.024,22.034-.02,33.05,0,1.093.342,1.5,1.358,1.91,6.944,2.81,11.054,7.886,12.106,15.392,1.223,8.726-4.546,17.764-12.978,20.2a1.971,1.971,0,0,1-.4.034c-.338.077-.754.388-.84-.283a18.81,18.81,0,0,0,7.433-30.749,17.594,17.594,0,0,0-10.232-5.458C3885.075,2440.648,3884.792,2440.681,3884.619,2440.411Z" transform="translate(-133.766 -23.728)" fill="#ffc9dd"/>
        <path id="Path_878511" data-name="Path 878511" d="M3756.426,2394.591a3.139,3.139,0,0,1,1.723-.263h18.65c2.011,0,2.216-.214,2.222-2.291q.006-2.11.01-4.22c1.181.063,1.358.89,1.391,1.828.76,1.418.332,2.935.365,4.414-.216,1.547-.8,2.152-2.318,2.308a30.543,30.543,0,0,1-3.119.049q-7.869,0-15.738,0a5.245,5.245,0,0,1-2.143-.241C3756.807,2395.883,3756.116,2395.551,3756.426,2394.591Z" transform="translate(-40.443 -11.129)" fill="#b5895c"/>
        <path id="Path_878512" data-name="Path 878512" d="M3844.648,2398.917q.007-2.2.015-4.392l7.867.08c0,.894.057,1.793-.021,2.68-.089,1.03.231,1.524,1.327,1.379.189-.025.4.138.607.214-.549.639-1.29.448-1.984.462-2.1.111-4.208.038-6.312.04A1.957,1.957,0,0,1,3844.648,2398.917Z" transform="translate(-104.685 -16.01)" fill="#34054d"/>
        <path id="Path_878513" data-name="Path 878513" d="M3891.708,2668.556c.2.319.539.251.84.284a5.4,5.4,0,0,1-2.706.559c-.072-.087-.6-.073-.127-.276A14.82,14.82,0,0,1,3891.708,2668.556Z" transform="translate(-137.333 -215.382)" fill="#8dbefb"/>
        <path id="Path_878514" data-name="Path 878514" d="M3880.622,2671.694a1.721,1.721,0,0,1,1.866,0Z" transform="translate(-130.858 -217.466)" fill="#92c1fc"/>
        <path id="Path_878515" data-name="Path 878515" d="M3751.53,2410.49l7.873.017a2.412,2.412,0,0,1,.469,1.793q.018,15.087,0,30.174a2.462,2.462,0,0,1-.461,1.8,20.183,20.183,0,0,0-8.964,3.594c-5.032,3.907-7.791,8.918-7.672,15.391.039,2.109.348,1.979-1.921,1.985l-22.824.059c-.975-.051-1.313-.671-1.362-1.538-.018-.317-.006-.635-.006-.953q0-24.909,0-49.819c0-2.3.234-2.527,2.6-2.532q4.015-.009,8.03-.026l.257.613c.077,1.084.875,1.318,1.718,1.321q10.238.034,20.477,0A1.6,1.6,0,0,0,3751.53,2410.49Z" transform="translate(-11.567 -27.584)" fill="#ebedef"/>
        <path id="Path_878516" data-name="Path 878516" d="M3836.6,2568.048a1.719,1.719,0,0,1,1.657-1.9c.684-.63,1.535-.385,2.324-.425.9-.044,1.8.032,2.7-.052a1.465,1.465,0,0,0,1.252-.65c-.43-.484-.957-.342-1.429-.35-1.4-.025-2.794,0-4.192-.016a1.968,1.968,0,0,1-1.519-.419,1.56,1.56,0,0,1,1.888-1.625c1.952.167,3.978-.514,5.866.507a.8.8,0,0,0,.753-.127c.291-.32-.127-.55-.266-.8-1.449-2.642-.808-6.665,1.33-8.29,1.909-.531,2.115-.458,2,1.553a6.9,6.9,0,0,0,3.679,7,2.956,2.956,0,0,1,1.534,2.941c-.112,3.613.162,7.231-.146,10.842a4.769,4.769,0,0,1-3.263,1.359,22.394,22.394,0,0,1-6.278-.576c.12-.879-.151-1.314-1.148-1.235-1.027.082-2.067.024-3.1.013a2,2,0,0,1-1.395-.393c-.087-.856.64-1.281,1-1.9.775-.667,1.715-.35,2.587-.42.745-.06,1.526.032,2.152-.679-.418-.494-.934-.378-1.391-.386-1.3-.023-2.608.007-3.913-.016a1.892,1.892,0,0,1-1.513-.409,3.17,3.17,0,0,1,.8-1.648c.741-.63,1.635-.359,2.469-.4.945-.05,1.9.043,2.84-.062a1.463,1.463,0,0,0,1.3-.731c-.407-.369-.915-.26-1.374-.264-1.8-.017-3.609,0-5.414-.011A2.422,2.422,0,0,1,3836.6,2568.048Z" transform="translate(-98.831 -131.759)" fill="#eddacb"/>
        <path id="Path_878517" data-name="Path 878517" d="M3873.555,2444.323l-.008-33.765,1.922-.056c.986.545,1.056,1.458,1.055,2.453q-.017,15.668,0,31.336Z" transform="translate(-125.711 -27.634)" fill="#cfcfd4"/>
        <path id="Path_878518" data-name="Path 878518" d="M3904.163,2588.608c4.339-.066,4.341-.066,4.338,4.265q0,3.854-.02,7.708c-1.178.505-2.408.223-3.615.216-.546,0-.781-.461-.785-.943C3904.051,2596.1,3903.885,2592.355,3904.163,2588.608Z" transform="translate(-147.87 -157.205)" fill="#cfcfd4"/>
        <path id="Path_878519" data-name="Path 878519" d="M3881.719,2574.767c-.446-.4-.276-.928-.278-1.406-.014-3.3-.028-6.606.007-9.909a1.853,1.853,0,0,0-1-1.887,15.029,15.029,0,0,1-1.987-1.4,5.847,5.847,0,0,1-2.2-4.732,8.687,8.687,0,0,1,.01-1.491c.2-1.328-.214-1.934-1.62-1.506a1.526,1.526,0,0,1,.305-.254c2.183-.992,2.633-.833,2.316,1.53-.577,4.308,2.313,6.1,5.228,8a1.922,1.922,0,0,1,.289,1.3q.006,5.03,0,10.059a1.468,1.468,0,0,1-.285,1.15Z" transform="translate(-126.516 -130.295)" fill="#e4c9bb"/>
        <path id="Path_878520" data-name="Path 878520" d="M3836.6,2606.521c2.8,0,5.591-.006,8.386.008.376,0,.9-.182,1.054.336.138.455-.295.719-.585.987a2.389,2.389,0,0,1-1.746.581c-1.713-.024-3.426-.015-5.138-.018C3837.521,2608.2,3836.616,2607.824,3836.6,2606.521Z" transform="translate(-98.834 -170.232)" fill="#e5cabb"/>
        <path id="Path_878521" data-name="Path 878521" d="M3839.336,2592.56c2.264,0,4.529-.007,6.792.01.413,0,.981-.185,1.077.5.075.527-.3.821-.688,1.074a2.485,2.485,0,0,1-1.43.333c-1.63-.011-3.26,0-4.89,0C3839.83,2593.872,3839.026,2593.467,3839.336,2592.56Z" transform="translate(-100.77 -160.083)" fill="#e5cabb"/>
        <path id="Path_878522" data-name="Path 878522" d="M3840.911,2619.48c2.072,0,4.145-.015,6.217.013.444.006,1.1-.272,1.253.425s-.413,1.042-.965,1.281a7.432,7.432,0,0,1-2.672.181c-.583.033-1.171.01-1.757.012C3841.792,2621.3,3840.99,2620.784,3840.911,2619.48Z" transform="translate(-101.967 -179.649)" fill="#e5cabb"/>
        <path id="Path_878523" data-name="Path 878523" d="M3844.849,2633.4c1.615,0,3.231-.022,4.846.013.507.011,1.193-.3,1.487.268.315.6-.521.846-.688,1.334-1.134.014-2.27-.011-3.4.053A1.915,1.915,0,0,1,3844.849,2633.4Z" transform="translate(-104.832 -189.759)" fill="#e5c9bb"/>
        <path id="Path_878524" data-name="Path 878524" d="M3903.468,2601.161l0-12.507.306-.01a3.02,3.02,0,0,1,.249,1.579c0,3.017.047,6.036-.026,9.051-.027,1.105.355,1.432,1.4,1.348.895-.072,1.8-.009,2.7-.005-.232.6-.748.556-1.246.554Z" transform="translate(-147.476 -157.242)" fill="#afafb3"/>
        <path id="Path_878525" data-name="Path 878525" d="M3794.557,2384.5a1.517,1.517,0,0,1,1.636-1.6,1.587,1.587,0,0,1,.014,3.173A1.529,1.529,0,0,1,3794.557,2384.5Z" transform="translate(-68.241 -7.554)" fill="#eaebeb"/>
        <path id="Path_878526" data-name="Path 878526" d="M3802.238,2496.434c2.813,0,5.625.028,8.438-.013,1.148-.017,1.927.429,1.941,1.576a1.677,1.677,0,0,1-1.892,1.713q-8.437.04-16.875,0c-1.166-.005-2.119-.9-1.979-1.8.176-1.143.955-1.5,2.066-1.487C3796.7,2496.462,3799.471,2496.434,3802.238,2496.434Z" transform="translate(-66.277 -90.145)" fill="#065564"/>
        <path id="Path_878527" data-name="Path 878527" d="M3802.264,2441.026c-2.767,0-5.534.007-8.3,0-1.313,0-2.2-.645-2.081-1.591a1.868,1.868,0,0,1,2.1-1.7c5.534,0,11.068-.012,16.6.007,1.232,0,2.151.769,2.063,1.695-.117,1.232-.9,1.625-2.082,1.6C3807.8,2440.993,3805.031,2441.026,3802.264,2441.026Z" transform="translate(-66.287 -47.445)" fill="#065564"/>
        <path id="Path_878528" data-name="Path 878528" d="M3802.193,2461.905c-2.721,0-5.442.01-8.163,0-1.357-.007-2.094-.6-2.092-1.613,0-.983.813-1.655,2.076-1.657q8.3-.014,16.6,0c1.273,0,2.088.658,2.1,1.632s-.8,1.634-2.08,1.639C3807.816,2461.914,3805,2461.905,3802.193,2461.905Z" transform="translate(-66.336 -62.646)" fill="#065564"/>
        <path id="Path_878529" data-name="Path 878529" d="M3802.261,2519.989c-2.767,0-5.534.007-8.3,0-1.329,0-2.208-.634-2.082-1.582a1.874,1.874,0,0,1,2.1-1.7c5.534,0,11.069-.012,16.6.007,1.219,0,2.148.78,2.066,1.7-.111,1.244-.9,1.615-2.082,1.595C3807.8,2519.957,3805.028,2519.989,3802.261,2519.989Z" transform="translate(-66.283 -104.897)" fill="#065564"/>
        <path id="Path_878530" data-name="Path 878530" d="M3747.089,2445.647c-2.177.007-4.354.026-6.531.017-1.631-.007-1.92-.3-1.925-1.889-.006-2.132.007-4.264,0-6.4,0-.8.151-1.548,1.072-1.609a35.313,35.313,0,0,1,8.216.086c.194,2.564.112,5.132.1,7.7C3748.017,2444.375,3747.968,2445.2,3747.089,2445.647Z" transform="translate(-27.551 -45.874)" fill="#00d5e4"/>
        <path id="Path_878531" data-name="Path 878531" d="M3747.065,2504.37c-2.266.008-4.532-.01-6.8.036-1.138.024-1.677-.4-1.658-1.586q.055-3.331,0-6.663c-.02-1.178.512-1.615,1.652-1.592,2.265.045,4.532.023,6.8.028a1.992,1.992,0,0,1,.965,1.963q.053,2.926,0,5.852A1.961,1.961,0,0,1,3747.065,2504.37Z" transform="translate(-27.537 -88.794)" fill="#ffb12d"/>
        <path id="Path_878532" data-name="Path 878532" d="M3747.907,2562.441c-.421.391-.944.24-1.426.242q-2.848.01-5.7-.026c-1.83-.021-2.16-.351-2.165-2.122,0-2.125.018-4.25-.008-6.375-.013-1.086.462-1.571,1.551-1.552,1.943.033,3.887.022,5.831.029a1.355,1.355,0,0,1,.667,1.83,7.119,7.119,0,0,0-3.018,1.915c-.354.458-.917.214-1.389.021-.628-.257-1.274-.378-1.691.3a1.479,1.479,0,0,0,.318,1.862c.21.238.437.46.663.682,1.5,1.467,1.942,1.4,3.4-.162.454-.485.655-1.612,1.777-1.114a4.713,4.713,0,0,1,.155,2.527C3746.7,2561.511,3746.915,2562.135,3747.907,2562.441Z" transform="translate(-27.539 -131.024)" fill="#065564"/>
        <path id="Path_878533" data-name="Path 878533" d="M3767.62,2562.467h-1.7c.516-1.6.226-3.143.294-4.668a4.5,4.5,0,0,0-.021-3.219,2.858,2.858,0,0,0-.49-1.916c2.6-.085,2.665-.026,2.666,2.572,0,1.891.006,3.782,0,5.673C3768.367,2561.538,3768.4,2562.2,3767.62,2562.467Z" transform="translate(-47.252 -131.05)" fill="#065564"/>
        <path id="Path_878534" data-name="Path 878534" d="M3769.632,2504.366a3.848,3.848,0,0,0,.548-2.186q-.061-2.635,0-5.271a4,4,0,0,0-.552-2.32c1.165-.182,1.575.475,1.584,1.488q.031,3.4,0,6.8C3771.2,2503.891,3770.806,2504.561,3769.632,2504.366Z" transform="translate(-50.104 -88.79)" fill="#f1d173"/>
        <path id="Path_878535" data-name="Path 878535" d="M3769.685,2446.407a3.693,3.693,0,0,0,.526-2.312c-.182-2.392.346-4.811-.3-7.192-.1-.366.385-.208.6-.286.736.23.727.9.737,1.448.041,2.263.025,4.529.015,6.793C3771.26,2445.889,3770.8,2446.491,3769.685,2446.407Z" transform="translate(-50.146 -46.634)" fill="#86b9fb"/>
        <path id="Path_878536" data-name="Path 878536" d="M3750.8,2444.6a2.226,2.226,0,0,1-.26.651c-.834,1.062-1.663,2.131-2.56,3.138a1.553,1.553,0,0,1-2.479.072c-.558-.526-1.1-1.072-1.626-1.629a1.592,1.592,0,0,1-.094-2.216,1.35,1.35,0,0,1,1.941-.321c.9.659,1.266.228,1.758-.5a1.823,1.823,0,0,1,2.172-.965A1.706,1.706,0,0,1,3750.8,2444.6Z" transform="translate(-31.004 -51.09)" fill="#ebedef"/>
        <path id="Path_878537" data-name="Path 878537" d="M3743.525,2503.944a1.5,1.5,0,0,1,2.273-1.355c.967.693,1.391.159,1.837-.483a2,2,0,0,1,1.5-1.041,1.524,1.524,0,0,1,1.5.729,1.636,1.636,0,0,1-.062,1.921c-.818,1.083-1.694,2.124-2.563,3.167a1.571,1.571,0,0,1-1.228.493C3745.642,2507.389,3743.5,2505.106,3743.525,2503.944Z" transform="translate(-31.113 -93.521)" fill="#ebedef"/>
        <path id="Path_878538" data-name="Path 878538" d="M3749.914,2559.551c1.175,1.065.952,2.14.021,3.219-.6.728-1.191,1.462-1.8,2.183a1.685,1.685,0,0,1-2.7.241,18.932,18.932,0,0,1-1.628-1.624,1.668,1.668,0,0,1-.108-2.23,1.407,1.407,0,0,1,2.054-.313c.833.637,1.176.179,1.6-.406A2.3,2.3,0,0,1,3749.914,2559.551Z" transform="translate(-30.968 -136.02)" fill="#ebedef"/>
      </g>
    </g>
  </g>
</svg>
