<svg xmlns="http://www.w3.org/2000/svg" xmlns:xlink="http://www.w3.org/1999/xlink" width="99" height="99" viewBox="0 0 99 99">
  <defs>
    <clipPath id="clip-path">
      <rect id="Rectangle_401223" data-name="Rectangle 401223" width="99" height="99" transform="translate(0)" fill="#065564"/>
    </clipPath>
    <clipPath id="clip-path-2">
      <rect id="Rectangle_401223-2" data-name="Rectangle 401223" width="88.539" height="88.539" fill="#f3f9ff"/>
    </clipPath>
  </defs>
  <g id="Group_1104010" data-name="Group 1104010" transform="translate(-619.921 -5755.871)">
    <g id="Group_1100724" data-name="Group 1100724" transform="translate(619.921 5755.871)">
      <g id="Group_1099654" data-name="Group 1099654" transform="translate(0 0)">
        <g id="Group_1099652" data-name="Group 1099652" clip-path="url(#clip-path)">
          <path id="Path_873521" data-name="Path 873521" d="M99,77.066A22,22,0,0,1,77.066,99H21.934A22,22,0,0,1,0,77.066V21.933A22,22,0,0,1,21.934,0H77.066A22,22,0,0,1,99,21.934Z" transform="translate(0)" fill="#bfa9fe"/>
        </g>
      </g>
      <g id="Group_1099659" data-name="Group 1099659" transform="translate(4.77 5.723)">
        <g id="Group_1099652-2" data-name="Group 1099652" transform="translate(0 0)" clip-path="url(#clip-path-2)">
          <path id="Path_873521-2" data-name="Path 873521" d="M88.539,68.922A19.674,19.674,0,0,1,68.923,88.539H19.616A19.674,19.674,0,0,1,0,68.922V19.616A19.674,19.674,0,0,1,19.616,0H68.923A19.674,19.674,0,0,1,88.539,19.616Z" fill="#f3f9ff"/>
        </g>
      </g>
    </g>
    <g id="Group_1100725" data-name="Group 1100725" transform="translate(636.343 5771.293)">
      <rect id="Rectangle_401104" data-name="Rectangle 401104" width="68" height="69" fill="none"/>
      <g id="Group_1104017" data-name="Group 1104017" transform="translate(-3664.499 -2380.933)">
        <path id="Path_878447" data-name="Path 878447" d="M3788.353,2389.475a6.171,6.171,0,0,1,.251,1.969q-.012,26.577-.006,53.153c0,2.141-.5,2.654-2.61,2.654l-45.5,0a1.3,1.3,0,0,1-.353-.854c-.064-2.2-.074-4.4.007-6.594a1.328,1.328,0,0,1,.269-.766.984.984,0,0,1,1.192-.06,12.279,12.279,0,0,0,2.2.712,12.409,12.409,0,0,0,2.762.478,14.294,14.294,0,0,0,15.075-13.695,15.218,15.218,0,0,0-2.175-8.4c-.26-.424-.755-.9-.169-1.456a1.325,1.325,0,0,0,.844-1.394c.014-4.887,0-9.775.007-14.663,0-.893-.384-1.282-1.27-1.248a9.736,9.736,0,0,1-1.407-.018c-1.319.163-1.474.288-1.487,1.589-.036,3.569-.007,7.138-.017,10.707a4.741,4.741,0,0,1-.164,1.745c-.135.283-.407.448-.658.311-1.306-.713-2.823-1.015-3.977-2.023a6.774,6.774,0,0,1-.179-2.319c-.04-1.39-.094-1.5-1.437-1.525-.737-.013-1.441-.431-2.189-.151a.992.992,0,0,0-.514.418c-.368,1.011.139,2.115-.336,3.112-.318.391-.819.309-1.223.479a9.5,9.5,0,0,0-1.1.273,18.187,18.187,0,0,0-2.332.7c-.476.152-.965.352-1.436-.032a3.357,3.357,0,0,1-.327-2.054c-.008-8.823-.022-17.645.014-26.468.005-1.28.007-2.421-1.507-2.829a1.724,1.724,0,0,1,1.577-.189,19.643,19.643,0,0,0,4.332.194q17.362.021,34.723.015c.451,0,.95-.171,1.343.223a38.454,38.454,0,0,1,.143,5.617c.041,1.962.058,2.007,2.066,2.016,1.33.006,2.659,0,3.989,0A2.709,2.709,0,0,1,3788.353,2389.475Z" transform="translate(-59.47)" fill="#ebedef"/>
        <path id="Path_878448" data-name="Path 878448" d="M3734.832,2382.164c2.074.083,1.9-.388,1.9,1.988q.006,13.984.01,27.969c0,.488-.181,1.028.248,1.452a6.544,6.544,0,0,1-3.306,2.324q-.007-15.809-.014-31.617A2.058,2.058,0,0,1,3734.832,2382.164Z" transform="translate(-55.694 -0.941)" fill="#cfcfd4"/>
        <path id="Path_878449" data-name="Path 878449" d="M3673.862,2624l.718.307a1.638,1.638,0,0,1,.966.786c.458.719,1.293,1.131,1.6,1.971a1.5,1.5,0,0,1-.133,2.279q-3.7,3.61-7.391,7.226a2.261,2.261,0,0,1-.97.634,11.279,11.279,0,0,1-3.428-3.471c-.575-.827-.123-1.485.454-2.074,1.779-1.815,3.589-3.6,5.384-5.4.414-.415.813-.848,1.252-1.235A3.825,3.825,0,0,1,3673.862,2624Z" transform="translate(-3.198 -185.727)" fill="#65002f"/>
        <path id="Path_878450" data-name="Path 878450" d="M3718.389,2514.363l3.305-2.325a15.65,15.65,0,0,1,3.505-1.007.306.306,0,0,1,.019.337,10.978,10.978,0,0,1-2.349,1.316,13.728,13.728,0,0,0-7.407,13.126c.223,5.74,3.223,9.962,8.43,12.529.479.236,1.086.274,1.371.833-.093.343-.313.322-.568.2a13.128,13.128,0,0,1-3.025-.98,7.041,7.041,0,0,1-3.18-1.913c-.546-.58-1.118-1.135-1.684-1.7a1.59,1.59,0,0,1-.573-1.119,15.448,15.448,0,0,1-2.58-8.291,14.489,14.489,0,0,1,4.193-10.393C3718.037,2514.781,3718.209,2514.568,3718.389,2514.363Z" transform="translate(-40.403 -99.407)" fill="#065564"/>
        <path id="Path_878451" data-name="Path 878451" d="M3923.441,2391.2c-2.19,0-4.381-.016-6.571.019-1.01.016-1.51-.286-1.463-1.415.077-1.835.015-3.676.026-5.514,0-.376-.123-.794.238-1.1q3.646,3.6,7.285,7.208A3.837,3.837,0,0,1,3923.441,2391.2Z" transform="translate(-194.558 -1.729)" fill="#cfcfd4"/>
        <path id="Path_878452" data-name="Path 878452" d="M3733.084,2618.2l3.032,2.077c-.361.354-.223.81-.226,1.225-.016,2.346-.014,4.693-.019,7.04-.275,0-.549,0-.824,0-1.562,0-2.192-.589-2.217-2.184-.034-2.079,0-4.159-.017-6.238,0-.413.158-.872-.217-1.226C3732.446,2618.446,3732.789,2618.34,3733.084,2618.2Z" transform="translate(-54.849 -181.294)" fill="#cfcfd4"/>
        <path id="Path_878453" data-name="Path 878453" d="M3670.665,2623.4q-3.8,3.74-7.595,7.482c-1.342,1.327-1.377,1.366-.2,2.86.793,1.009,1.722,1.911,2.59,2.86a1.588,1.588,0,0,1-1.667-.576c-.771-.832-1.6-1.612-2.373-2.438-.858-.915-.858-1.562.022-2.423q3.732-3.652,7.495-7.273C3669.412,2623.426,3669.909,2622.928,3670.665,2623.4Z" transform="translate(0 -185.12)" fill="#65002f"/>
        <path id="Path_878454" data-name="Path 878454" d="M3714.892,2612.726l-.487.695-3.8,3.738a8.486,8.486,0,0,1-1.857-1.875,1.982,1.982,0,0,1,.719-1.028,30.75,30.75,0,0,1,3.75-3.22Z" transform="translate(-36.656 -175.818)" fill="#a29aa5"/>
        <path id="Path_878455" data-name="Path 878455" d="M3710.915,2607.922a49.994,49.994,0,0,1-4.468,4.248l-.711-.881,4.448-4.328Z" transform="translate(-34.353 -172.705)" fill="#7f7682"/>
        <path id="Path_878456" data-name="Path 878456" d="M3729.976,2536.719a14.7,14.7,0,0,1-9.916-11.635,14.52,14.52,0,0,1,4.425-12.909,13.92,13.92,0,0,1,5.493-3.282c.324-.352.791-.321,1.2-.446.756-.115,1.483-.35,2.225-.527a5.606,5.606,0,0,1,3.712.741,31.7,31.7,0,0,1,4.188,1.89c.681.095,1.078.636,1.586,1a5.49,5.49,0,0,1,1.947,2.311,17.632,17.632,0,0,1,2.723,6.558,14.621,14.621,0,0,1-8.018,15.592,19.581,19.581,0,0,1-6.687,1.6c-.17.02-.357-.112-.536-.173C3731.563,2537.118,3730.636,2537.35,3729.976,2536.719Z" transform="translate(-45.178 -97.009)" fill="#065564"/>
        <path id="Path_878457" data-name="Path 878457" d="M3891.439,2429.45c1.313-.516,2.61.1,3.92.1.643,0,.563.828.564,1.366q.008,6.534,0,13.069,0,3.885,0,7.77c0,1.879-.127,2-1.993,2-.432,0-.863-.007-1.295-.01-.787-.493-.618-1.3-.62-2.018q-.022-10.223,0-20.447A2.26,2.26,0,0,0,3891.439,2429.45Z" transform="translate(-176.246 -36.914)" fill="#00d5e4"/>
        <path id="Path_878458" data-name="Path 878458" d="M3818.16,2475.1c-.862-.554-1.232-1.6-2.115-2.129a5.93,5.93,0,0,1-.179-1.4c.009-4.162-.005-8.324.014-12.487,0-.685-.133-1.448.612-1.91,3.673-.011,3.068-.418,3.094,2.987.033,4.478-.021,8.957.029,13.435C3819.626,2474.706,3819.322,2475.258,3818.16,2475.1Z" transform="translate(-118.502 -58.245)" fill="#6ceaff"/>
        <path id="Path_878459" data-name="Path 878459" d="M3852.433,2471.475c1.314-.479,2.617.106,3.93.074.482-.012.545.6.546,1.037q.008,6,0,12c0,.9-.422,1.379-1.39,1.3-.624-.05-1.254-.021-1.882-.027-.717-.416-.6-1.133-.608-1.779q-.028-5.395,0-10.789A2.22,2.22,0,0,0,3852.433,2471.475Z" transform="translate(-146.442 -69.037)" fill="#ffb12d"/>
        <path id="Path_878460" data-name="Path 878460" d="M3859.2,2580.6c-2.666,0-5.333-.007-8,0-.768,0-1.481-.1-1.527-1.043-.047-.969.653-1.3,1.465-1.308q8.057-.032,16.115,0c.807,0,1.422.412,1.417,1.25-.005.884-.654,1.119-1.473,1.112C3864.529,2580.58,3861.863,2580.6,3859.2,2580.6Z" transform="translate(-144.33 -150.755)" fill="#a29aa5"/>
        <path id="Path_878461" data-name="Path 878461" d="M3859.177,2600.941c2.593,0,5.187.006,7.78-.005.851,0,1.7.1,1.67,1.163-.032.983-.836,1.2-1.707,1.2q-7.78-.009-15.56,0a2.462,2.462,0,0,1-.586-.039c-.659-.165-1.192-.484-1.143-1.267s.572-1.051,1.294-1.05Q3855.051,2600.945,3859.177,2600.941Z" transform="translate(-144.299 -168.102)" fill="#a29aa5"/>
        <path id="Path_878462" data-name="Path 878462" d="M3889.33,2430.054c.738-.085,1.008.08,1,.978-.06,7.395-.032,14.79-.038,22.185a2.25,2.25,0,0,0,.235,1.133c-1.648.033-1.842-.141-1.843-1.763q-.007-10.405.007-20.81C3888.7,2431.148,3888.523,2430.407,3889.33,2430.054Z" transform="translate(-174.137 -37.519)" fill="#82b6fb"/>
        <path id="Path_878463" data-name="Path 878463" d="M3855.452,2556.125c1.409,0,2.819.008,4.228,0,.811-.007,1.467.306,1.486,1.145.02.916-.661,1.226-1.521,1.223q-4.228-.016-8.456,0c-.8,0-1.453-.253-1.473-1.14-.022-.962.664-1.227,1.509-1.224C3852.633,2556.129,3854.042,2556.125,3855.452,2556.125Z" transform="translate(-144.365 -133.859)" fill="#a29aa5"/>
        <path id="Path_878464" data-name="Path 878464" d="M3812.476,2457.226a2.854,2.854,0,0,0-.223,1.493q0,6.534-.006,13.068c0,.416.138.872-.219,1.231l-1.418-1.186q.01-6.387.018-12.775C3810.631,2457.271,3810.719,2457.184,3812.476,2457.226Z" transform="translate(-114.485 -58.289)" fill="#81e39d"/>
        <path id="Path_878465" data-name="Path 878465" d="M3850.321,2472.033c.717-.071,1.029.051,1.01.97-.083,4.095-.034,8.192-.04,12.289a2.177,2.177,0,0,0,.233,1.128c-1.724.056-1.851-.057-1.852-1.7,0-3.747-.007-7.493.006-11.24C3849.681,2472.921,3849.534,2472.259,3850.321,2472.033Z" transform="translate(-144.331 -69.596)" fill="#f1cf6d"/>
        <path id="Path_878466" data-name="Path 878466" d="M3776.52,2496.827a16.672,16.672,0,0,0-3.842-.439c-.4.079-.795.214-1.163-.083.132-1.149-.3-2.337.238-3.458.545.646.224,1.432.349,2.146.044.252.01.623.41.571.28-.037.307-.354.286-.575-.08-.836.439-1.831-.61-2.422,1.274-.4,2.544.055,3.817.047.47,0,.515.515.516.921Q3776.524,2495.181,3776.52,2496.827Z" transform="translate(-84.583 -85.174)" fill="#a01f4e"/>
        <path id="Path_878467" data-name="Path 878467" d="M3773.05,2493.038c.728-.076,1.163.067.991.981a9.165,9.165,0,0,0-.021,1.871c.01.5-.213.7-.705.7s-.718-.192-.709-.692c.015-.859.008-1.719.011-2.578A.431.431,0,0,1,3773.05,2493.038Z" transform="translate(-85.446 -85.645)" fill="#db4e5a"/>
        <path id="Path_878468" data-name="Path 878468" d="M3760.961,2630.081c.785.174,1.569.347,2.353.526.021,0,.042.064.041.1a.32.32,0,0,1-.051.1,6.727,6.727,0,0,1-2.848-.471C3760.652,2630.308,3760.851,2630.283,3760.961,2630.081Z" transform="translate(-76.163 -190.371)" fill="#8dbefb"/>
        <path id="Path_878469" data-name="Path 878469" d="M3767.731,2508.94l1.163.083c-.657.38-1.45.1-2.115.435-.08-.088-.226-.108-.255-.248C3766.87,2508.866,3767.333,2509.049,3767.731,2508.94Z" transform="translate(-80.8 -97.809)" fill="#91bff9"/>
        <path id="Path_878470" data-name="Path 878470" d="M3763.522,2510.083l.256.248-1.179.235c0-.087,0-.173,0-.26C3762.844,2509.977,3763.2,2510.118,3763.522,2510.083Z" transform="translate(-77.798 -98.681)" fill="#8abbfb"/>
        <path id="Path_878471" data-name="Path 878471" d="M3739.4,2545.824a11.3,11.3,0,1,1-.232-22.6c6.241.566,9.781,5.451,10.169,10.668C3749.731,2539.158,3745.925,2545.246,3739.4,2545.824Z" transform="translate(-51.299 -108.726)" fill="#ebedef"/>
        <path id="Path_878472" data-name="Path 878472" d="M3775.864,2545.82a16.9,16.9,0,0,0,3.916-1.471,11.289,11.289,0,0,0-3.855-20.946c-.1-.012-.2-.118-.294-.179a11.3,11.3,0,0,1,.232,22.6Z" transform="translate(-87.759 -108.722)" fill="#cfcfd4"/>
        <path id="Path_878473" data-name="Path 878473" d="M3761.8,2539.952a1.1,1.1,0,0,1,1.062.5,1.2,1.2,0,0,1-.115,1.424c-.884,1.247-1.779,2.486-2.672,3.727-2.015,2.8-4.037,5.594-6.042,8.4-.516.721-1.07,1.393-2,.715-.862-.629-.466-1.357.029-2.044q4.3-5.962,8.582-11.931C3760.948,2540.317,3761.265,2539.918,3761.8,2539.952Z" transform="translate(-69.341 -121.503)" fill="#a01f4e"/>
        <path id="Path_878474" data-name="Path 878474" d="M3749.111,2545.217a3.378,3.378,0,0,1-3.37-3.368,3.483,3.483,0,0,1,3.4-3.383,3.543,3.543,0,0,1,3.39,3.41A3.43,3.43,0,0,1,3749.111,2545.217Z" transform="translate(-64.92 -120.369)" fill="#a01f4e"/>
        <path id="Path_878475" data-name="Path 878475" d="M3777.464,2579.623a3.331,3.331,0,1,1,6.661-.055,3.331,3.331,0,1,1-6.661.055Z" transform="translate(-89.159 -149.21)" fill="#a01f4e"/>
        <path id="Path_878476" data-name="Path 878476" d="M3756.9,2550.7a.983.983,0,0,1-1-.96.909.909,0,0,1,.928-1,.926.926,0,0,1,1.054.988A.991.991,0,0,1,3756.9,2550.7Z" transform="translate(-72.688 -128.223)" fill="#eae5e7"/>
        <path id="Path_878477" data-name="Path 878477" d="M3788.455,2586.324c.525.078.946.3.98.924a.916.916,0,0,1-.969,1.057.9.9,0,0,1-.944-.963C3787.511,2586.727,3787.874,2586.439,3788.455,2586.324Z" transform="translate(-96.844 -156.937)" fill="#eae5e7"/>
      </g>
    </g>
  </g>
</svg>
