<svg xmlns="http://www.w3.org/2000/svg" width="70" height="70" viewBox="0 0 70 70">
  <g id="Group_1102527" data-name="Group 1102527" transform="translate(-269 -958)">
    <circle id="Ellipse_5614" data-name="Ellipse 5614" cx="35" cy="35" r="35" transform="translate(269 958)" fill="#fff"/>
    <g id="Group_1103993" data-name="Group 1103993" transform="translate(-3364.349 -1435.866)">
      <path id="Path_878119" data-name="Path 878119" d="M3869.879,2415.1c-1.224,0-2.448.012-3.671,0a3.056,3.056,0,0,1-3.076-2.46,3.1,3.1,0,0,1,1.753-3.4,1.379,1.379,0,0,0,.625-.728,4.625,4.625,0,0,1,8.888,0,1.371,1.371,0,0,0,.623.728,3.1,3.1,0,0,1,1.755,3.4,3.049,3.049,0,0,1-3.074,2.461C3872.428,2415.11,3871.154,2415.1,3869.879,2415.1Z" transform="translate(-184.91)" fill="#065564"/>
      <path id="Path_878120" data-name="Path 878120" d="M3869.185,2654.3c-1.682,0-3.364.005-5.047,0-.817,0-1.058-.236-1.061-1.037-.008-2.37,0-4.741-.008-7.111,0-.7.292-1.031,1.005-1.029q5.123.013,10.247,0c.663,0,.991.291.989.965q-.008,3.632,0,7.265c0,.679-.346.956-1,.952C3872.6,2654.294,3870.892,2654.3,3869.185,2654.3Zm1.52-6.087v2.98h-1.544v-1.439h-1.517v1.424H3866.1v-4.47h-1.437v6.021h9.063V2651.2h-1.508v-2.99Z" transform="translate(-184.912 -203.257)" fill="#065564"/>
      <path id="Path_878121" data-name="Path 878121" d="M3664.413,2424.086l-2.895-2.529a2.9,2.9,0,0,0,.4-2.862,4.059,4.059,0,0,0-1.208-1.518,2.923,2.923,0,0,0-3.726.3c-1.142,1.053-1.255,2.472-.372,4.1l-2.9,2.5c-1.424-2.089-.885-5.456,1.269-7.384a6.087,6.087,0,0,1,8.04-.112A5.946,5.946,0,0,1,3664.413,2424.086Z" transform="translate(-6.902 -8.436)" fill="#065564"/>
      <path id="Path_878122" data-name="Path 878122" d="M3670.074,2469.813a6.2,6.2,0,0,1-3.764-1.375.538.538,0,0,1-.156-.83,4.577,4.577,0,0,1,8-.029.568.568,0,0,1-.171.887A6.243,6.243,0,0,1,3670.074,2469.813Z" transform="translate(-18.006 -50.887)" fill="#065564"/>
      <path id="Path_878123" data-name="Path 878123" d="M3645.836,2648.912l-1.069-.962c2.535-3.272,9.182-3.267,11.754.029l-1.058.955a6.932,6.932,0,0,0-4.833-1.949A6.839,6.839,0,0,0,3645.836,2648.912Z" transform="translate(0 -203.579)" fill="#065564"/>
      <path id="Path_878124" data-name="Path 878124" d="M3778.3,2568.5c-.118-.981-.231-1.93-.354-2.951h6.151c-.111.985-.22,1.95-.333,2.951Z" transform="translate(-112.806 -135.86)" fill="#065564"/>
      <path id="Path_878125" data-name="Path 878125" d="M3778.353,2535.376h5.471c.117.991.231,1.958.352,2.979h-6.148Z" transform="translate(-112.877 -110.298)" fill="#065564"/>
      <path id="Path_878126" data-name="Path 878126" d="M3670.38,2689.743a2.291,2.291,0,1,1,2.32-2.241A2.29,2.29,0,0,1,3670.38,2689.743Z" transform="translate(-19.782 -237.173)" fill="#065564"/>
      <path id="Path_878127" data-name="Path 878127" d="M3841.734,2484.773l-.961-1,3.307-3.27a2.6,2.6,0,0,0,.318-.329,2.152,2.152,0,0,1,2.893-.914Z" transform="translate(-166.026 -62.557)" fill="#065564"/>
      <path id="Path_878128" data-name="Path 878128" d="M3715.981,2609.416l-.949-.923,5.217-5.17.966.913Z" transform="translate(-59.518 -167.852)" fill="#065564"/>
      <path id="Path_878129" data-name="Path 878129" d="M3781.054,2435.481v1.438h-7.547v-1.438Z" transform="translate(-109.048 -25.682)" fill="#065564"/>
      <path id="Path_878130" data-name="Path 878130" d="M3893.34,2556.836V2555.4h7.547v1.438Z" transform="translate(-210.552 -127.257)" fill="#065564"/>
      <path id="Path_878131" data-name="Path 878131" d="M3780.916,2675.5v1.433h-7.575V2675.5Z" transform="translate(-108.908 -228.987)" fill="#065564"/>
      <path id="Path_878132" data-name="Path 878132" d="M3661.046,2555.45v1.422h-7.574v-1.422Z" transform="translate(-7.374 -127.301)" fill="#065564"/>
      <path id="Path_878133" data-name="Path 878133" d="M3780.79,2416.639h-7.5c-.256-1.191-.016-1.5,1.156-1.5q2.517,0,5.032,0C3780.712,2415.139,3780.875,2415.317,3780.79,2416.639Z" transform="translate(-108.784 -8.451)" fill="#065564"/>
      <path id="Path_878134" data-name="Path 878134" d="M3773.25,2455.321h7.5c.231,1.212,0,1.5-1.175,1.5q-2.515,0-5.031,0C3773.318,2456.821,3773.146,2456.631,3773.25,2455.321Z" transform="translate(-108.809 -42.488)" fill="#065564"/>
      <path id="Path_878135" data-name="Path 878135" d="M3660.8,2536.637h-7.5c-.213-1.229,0-1.5,1.192-1.5q2.515,0,5.031,0C3660.741,2535.14,3660.921,2535.343,3660.8,2536.637Z" transform="translate(-7.163 -110.096)" fill="#065564"/>
      <path id="Path_878136" data-name="Path 878136" d="M3900.783,2536.631h-7.5c-.169-1.26.026-1.49,1.235-1.491q2.515,0,5.031,0C3900.756,2535.141,3900.952,2535.373,3900.783,2536.631Z" transform="translate(-210.458 -110.097)" fill="#065564"/>
      <path id="Path_878137" data-name="Path 878137" d="M3653.264,2575.339h7.5c.214,1.226-.005,1.5-1.192,1.5q-2.515,0-5.031,0C3653.32,2576.836,3653.14,2576.634,3653.264,2575.339Z" transform="translate(-7.169 -144.148)" fill="#065564"/>
      <path id="Path_878138" data-name="Path 878138" d="M3893.281,2575.389h7.5c.174,1.253-.025,1.49-1.23,1.491q-2.516,0-5.031,0C3893.311,2576.878,3893.117,2576.65,3893.281,2575.389Z" transform="translate(-210.459 -144.19)" fill="#065564"/>
      <path id="Path_878139" data-name="Path 878139" d="M3773.283,2695.392h7.5c.161,1.261-.034,1.489-1.243,1.49q-2.516,0-5.031,0C3773.3,2696.881,3773.106,2696.644,3773.283,2695.392Z" transform="translate(-108.811 -245.839)" fill="#065564"/>
      <path id="Path_878140" data-name="Path 878140" d="M3780.788,2656.645c-.2.009-.347.021-.5.021h-7c-.285-1.194-.03-1.526,1.134-1.528q2.515,0,5.031,0C3780.706,2655.14,3780.866,2655.312,3780.788,2656.645Z" transform="translate(-108.78 -211.741)" fill="#065564"/>
      <path id="Path_878141" data-name="Path 878141" d="M3666.748,2666.692l-.93,1.037c-2.149-1.439-3.446-1.44-5.484-.007l-.9-1.1C3660.995,2664.607,3664.943,2664.589,3666.748,2666.692Z" transform="translate(-12.427 -220.191)" fill="#065564"/>
      <path id="Path_878142" data-name="Path 878142" d="M3826.189,2568.456c.107-1.051.205-2.009.308-3.012h3.737c-.028.27-.044.5-.077.722-.3,2.071-.553,2.29-2.6,2.29Z" transform="translate(-153.672 -135.767)" fill="#065564"/>
      <path id="Path_878143" data-name="Path 878143" d="M3743.517,2538.158c.025-.229.042-.4.064-.58.287-2.217.529-2.435,2.7-2.435h1.278c-.1,1.031-.2,2-.3,3.015Z" transform="translate(-83.646 -110.101)" fill="#065564"/>
      <path id="Path_878144" data-name="Path 878144" d="M3742.617,2565.372h3.875l.316,3.015c-1.01,0-2.012.016-3.012-.019-.132,0-.317-.246-.374-.414C3743.148,2567.143,3742.908,2566.319,3742.617,2565.372Z" transform="translate(-82.883 -135.706)" fill="#065564"/>
      <path id="Path_878145" data-name="Path 878145" d="M3830.381,2538.18h-3.869c-.1-.979-.2-1.953-.31-3.026.992,0,1.977-.02,2.958.02.154.006.372.258.433.439C3829.87,2536.424,3830.1,2537.25,3830.381,2538.18Z" transform="translate(-153.684 -110.106)" fill="#065564"/>
      <path id="Path_878146" data-name="Path 878146" d="M3840.4,2604.658l1.093-.926c1.52,1.547,3.109,3.166,4.684,4.768-.866.009-1.824.287-2.655-.71C3842.592,2606.669,3841.467,2605.709,3840.4,2604.658Z" transform="translate(-165.713 -168.198)" fill="#065564"/>
      <path id="Path_878147" data-name="Path 878147" d="M3787.974,2508.1h-4.758a5.564,5.564,0,0,1,1.55-2.737,1.025,1.025,0,0,1,1.607.156C3786.938,2506.276,3787.377,2507.124,3787.974,2508.1Z" transform="translate(-117.272 -84.61)" fill="#065564"/>
      <path id="Path_878148" data-name="Path 878148" d="M3781.85,2595.27h4.765a5.457,5.457,0,0,1-1.615,2.78,1.01,1.01,0,0,1-1.545-.2C3782.893,2597.094,3782.449,2596.25,3781.85,2595.27Z" transform="translate(-116.115 -161.031)" fill="#065564"/>
      <path id="Path_878149" data-name="Path 878149" d="M3728.977,2492.243l-3.512-3.523.9-.848,3.606,3.6Z" transform="translate(-68.354 -70.059)" fill="#065564"/>
      <path id="Path_878150" data-name="Path 878150" d="M3686.173,2436.722a1.525,1.525,0,1,1-1.456-1.555A1.533,1.533,0,0,1,3686.173,2436.722Z" transform="translate(-32.49 -25.415)" fill="#065564"/>
      <path id="Path_878151" data-name="Path 878151" d="M3863.26,2556.923v-1.436h2.983v1.436Z" transform="translate(-185.073 -127.333)" fill="#065564"/>
      <path id="Path_878152" data-name="Path 878152" d="M3716.4,2555.416v1.437h-2.987v-1.437Z" transform="translate(-58.144 -127.273)" fill="#065564"/>
      <path id="Path_878153" data-name="Path 878153" d="M3794.822,2625.309v2.982h-1.459v-2.982Z" transform="translate(-125.867 -186.475)" fill="#065564"/>
      <path id="Path_878154" data-name="Path 878154" d="M3793.445,2475.371h1.435v3h-1.435Z" transform="translate(-125.937 -59.471)" fill="#065564"/>
      <path id="Path_878155" data-name="Path 878155" d="M3759.322,2597.729l-3.235-2.291.114-.286c.719,0,1.438-.015,2.156.015.122,0,.287.181.344.315.283.671.537,1.356.8,2.035Z" transform="translate(-94.293 -160.928)" fill="#065564"/>
      <path id="Path_878156" data-name="Path 878156" d="M3816.981,2597.47c.2-.436.326-.685.438-.937.234-.525.343-1.367.719-1.509a7.445,7.445,0,0,1,2.383-.069A8.327,8.327,0,0,1,3816.981,2597.47Z" transform="translate(-145.873 -160.711)" fill="#065564"/>
      <path id="Path_878157" data-name="Path 878157" d="M3817.374,2508.7a8.362,8.362,0,0,1,3.506,2.512c-.844,0-1.523.024-2.2-.017a.684.684,0,0,1-.46-.366C3817.933,2510.18,3817.691,2509.51,3817.374,2508.7Z" transform="translate(-146.206 -87.702)" fill="#065564"/>
      <path id="Path_878158" data-name="Path 878158" d="M3759.4,2508.846c-.31.8-.555,1.483-.852,2.145a.676.676,0,0,1-.485.33c-.656.039-1.316.015-2.154.015A8.058,8.058,0,0,1,3759.4,2508.846Z" transform="translate(-94.138 -87.826)" fill="#065564"/>
    </g>
  </g>
</svg>
