<svg xmlns="http://www.w3.org/2000/svg" xmlns:xlink="http://www.w3.org/1999/xlink" width="85" height="85" viewBox="0 0 85 85">
  <defs>
    <clipPath id="clip-path">
      <rect id="Rectangle_404062" data-name="Rectangle 404062" width="69.19" height="69.19" transform="translate(0 0)" fill="#fff" stroke="#707070" stroke-width="1"/>
    </clipPath>
    <clipPath id="clip-path-2">
      <rect id="Rectangle_404063" data-name="Rectangle 404063" width="63.051" height="65.867" transform="translate(0 0)" fill="#fff" stroke="#707070" stroke-width="1"/>
    </clipPath>
  </defs>
  <g id="Group_1107500" data-name="Group 1107500" transform="translate(-1002.34 -3655)">
    <rect id="Rectangle_404060" data-name="Rectangle 404060" width="85" height="85" transform="translate(1002.34 3655)" fill="#4b0d6b"/>
    <g id="Mask_Group_1098869" data-name="Mask Group 1098869" transform="translate(1010.34 3663)" clip-path="url(#clip-path)">
      <g id="Mask_Group_1098870" data-name="Mask Group 1098870" transform="translate(3 2)" clip-path="url(#clip-path-2)">
        <g id="Group_1107098" data-name="Group 1107098" transform="translate(3.499 8.705)">
          <path id="Path_881636" data-name="Path 881636" d="M1816.682,1910.592c-.637,0-1.055.013-1.473,0a1.845,1.845,0,0,1-1.851-1.772,1.807,1.807,0,0,1,1.718-1.9q3.07-.179,6.146-.235a1.775,1.775,0,0,1,1.839,1.947c-.036,2.141-.111,4.282-.205,6.421a1.744,1.744,0,1,1-3.486-.072c-.016-.535,0-1.072,0-1.816-.927.759-1.734,1.411-2.532,2.076q-4.978,4.145-9.951,8.3c-1.542,1.284-1.95,1.285-3.569.056q-6.06-4.6-12.121-9.2c-.208-.158-.422-.309-.647-.473l-15.654,10.388c-1,.663-1.99,1.339-3,1.984a1.771,1.771,0,0,1-2.655-.446,1.919,1.919,0,0,1,.8-2.683q9.641-6.409,19.29-12.8a1.937,1.937,0,0,1,2.7.093c4.113,3.115,8.229,6.225,12.32,9.37a.92.92,0,0,0,1.4-.03c3.3-2.793,6.623-5.545,9.939-8.313C1815.964,1911.241,1816.234,1910.989,1816.682,1910.592Z" transform="translate(-1768.961 -1906.682)" fill="#fff"/>
          <path id="Path_881637" data-name="Path 881637" d="M1866.015,2030.155q0-7.1,0-14.208c0-1.844.548-2.414,2.338-2.419,2.108-.006,4.216-.01,6.324,0,1.63.009,2.235.652,2.235,2.365q0,14.253,0,28.506c0,1.673-.658,2.345-2.272,2.348q-3.248.006-6.5,0c-1.451-.005-2.125-.7-2.126-2.2Q1866.009,2037.349,1866.015,2030.155Zm7.278-12.848h-3.663c-.048.106-.071.133-.071.159q-.017,12.488-.031,24.976c0,.06-.019.141.011.177.116.141.246.378.375.382,1.114.031,2.228.017,3.378.017Z" transform="translate(-1849.193 -1994.177)" fill="#fff"/>
          <path id="Path_881638" data-name="Path 881638" d="M2026.092,2033.362q0-6.788,0-13.575c0-2.051.54-2.6,2.536-2.6,2.079,0,4.158-.007,6.238,0,1.453.007,2.129.7,2.13,2.213q.008,14.073,0,28.146c0,1.489-.7,2.193-2.146,2.2q-3.335.011-6.671,0c-1.384-.006-2.08-.725-2.083-2.17Q2026.082,2040.466,2026.092,2033.362Zm7.313,12.612v-25.029h-3.719v25.029Z" transform="translate(-1981.525 -1997.172)" fill="#fff"/>
          <path id="Path_881639" data-name="Path 881639" d="M1785.955,2081.49c0-3.078,0-6.155,0-9.233,0-1.585.588-2.2,2.087-2.205q3.379-.009,6.759,0c1.376,0,2.04.662,2.043,2.095q.019,9.369,0,18.738a1.9,1.9,0,0,1-2.111,2.152q-3.336.013-6.672,0c-1.443-.006-2.1-.7-2.1-2.223C1785.95,2087.705,1785.955,2084.6,1785.955,2081.49Zm7.28-7.7h-3.72v15.457h3.72Z" transform="translate(-1783.008 -2040.468)" fill="#fff"/>
          <path id="Path_881640" data-name="Path 881640" d="M1946.052,2088.96c0-2.835,0-5.669,0-8.5,0-1.53.64-2.2,2.117-2.212q3.334-.022,6.667,0c1.469.01,2.111.691,2.113,2.227q.01,8.5,0,17.006c0,1.555-.682,2.259-2.173,2.263q-3.29.01-6.581,0c-1.484,0-2.143-.706-2.146-2.279Q1946.047,2093.212,1946.052,2088.96Zm7.289,7.008v-13.948h-3.7v13.948Z" transform="translate(-1915.357 -2047.173)" fill="#fff"/>
        </g>
      </g>
    </g>
  </g>
</svg>
