<svg xmlns="http://www.w3.org/2000/svg" width="107" height="107" viewBox="0 0 107 107">
  <g id="Group_1107491" data-name="Group 1107491" transform="translate(-285 -6178.999)">
    <g id="Grupo_156312" data-name="Grupo 156312" transform="translate(-3.668 1730.563)">
      <path id="Elipse_5845" data-name="Elipse 5845" d="M53.5,0A53.5,53.5,0,1,1,0,53.5,53.5,53.5,0,0,1,53.5,0Z" transform="translate(288.668 4448.437)" fill="#065564"/>
    </g>
    <g id="Group_1102614" data-name="Group 1102614" transform="translate(-101.527 160.787)">
      <path id="Path_873216" data-name="Path 873216" d="M0,0H63.184V63.186H0Z" transform="translate(408.527 6040.213)" fill="none"/>
      <g id="Group_1102858" data-name="Group 1102858" transform="translate(-554.108 5971.554)">
        <path id="Path_877283" data-name="Path 877283" d="M991.695,70.959a47.353,47.353,0,0,1,4.673,1.152c9.894,3.493,15.667,10.5,17.09,20.856a23.641,23.641,0,0,1-3.93,16.524c-.168.257-.331.517-.733,1.062a6.526,6.526,0,0,1,1.1.725q6.254,6.217,12.474,12.468a3.95,3.95,0,0,1-.451,6.165,4.081,4.081,0,0,1-5.265-.64q-6.248-6.227-12.473-12.477a5.717,5.717,0,0,1-.551-.7c-2.331,1.116-4.381,2.322-6.58,3.116A24.866,24.866,0,1,1,985.29,71.141a4.231,4.231,0,0,0,.615-.182Zm-2.97,47.685A22.9,22.9,0,1,0,965.893,95.6,22.861,22.861,0,0,0,988.725,118.644Zm23.171,3.069c2.067,2.062,4.106,4.108,6.159,6.139a2,2,0,1,0,2.821-2.786c-1.771-1.791-3.569-3.554-5.332-5.353a5.407,5.407,0,0,1-.64-1.049Zm-1.751-6.986-2.391-2.472-2.594,2.507,2.4,2.522Zm-.9,4.147,1.107,1.263,2.768-2.657-1.227-1.305Z" transform="translate(0 0)" fill="#eed"/>
        <path id="Path_877284" data-name="Path 877284" d="M1025.124,112.778a18.932,18.932,0,0,0-16.053-18.646c-.857-.134-1.729-.188-2.6-.238-.7-.04-1.292-.241-1.282-1.031s.6-.957,1.311-.962a20.915,20.915,0,0,1,3.845,41.408c-10.727,2.431-22.246-4.952-24.568-15.75A20.925,20.925,0,0,1,999.131,93.1a1.713,1.713,0,0,1,.981-.162,1.168,1.168,0,0,1,.729.707,1.531,1.531,0,0,1-.395,1.033c-.174.213-.543.278-.833.385a18.9,18.9,0,1,0,25.156,20.956C1024.949,114.948,1025.008,113.858,1025.124,112.778Z" transform="translate(-17.396 -17.031)" fill="#eed"/>
        <path id="Path_877285" data-name="Path 877285" d="M1051.946,156.409c1.082,0,2.224-.007,3.365,0,1.709.012,2.424.732,2.436,2.453.008,1.12.025,2.24-.006,3.359a1.98,1.98,0,0,1-2.16,2.148q-1.819.029-3.639,0a1.975,1.975,0,0,1-2.164-2.223c-.012-1.208,0-2.417,0-3.761-1.266,0-2.467.007-3.667,0-1.627-.012-2.307-.7-2.315-2.35-.005-1.151-.015-2.3,0-3.452a1.94,1.94,0,0,1,2.072-2.121q1.912-.049,3.825,0a1.957,1.957,0,0,1,2.072,2.133c.03,1.181.024,2.362.039,3.544C1051.8,156.192,1051.857,156.245,1051.946,156.409Zm-6.095-.082h3.854v-3.843h-3.854Zm5.982,2.106V162.3h3.852v-3.871Z" transform="translate(-64.98 -64.635)" fill="#eed"/>
        <path id="Path_877286" data-name="Path 877286" d="M1104.984,129.841c1.332,0,2.537-.007,3.742,0a1.985,1.985,0,0,1,2.229,2.244c.01,1.181.014,2.363,0,3.545a1.939,1.939,0,0,1-1.95,2.157,38.069,38.069,0,0,1-4.009,0,1.962,1.962,0,0,1-2-2.128c-.035-1.238-.008-2.478-.008-3.851-1.2,0-2.305.005-3.415,0-1.91-.011-2.565-.672-2.571-2.6,0-1.057-.025-2.115.007-3.171a1.991,1.991,0,0,1,2.227-2.167c1.244-.008,2.488-.017,3.731,0a1.91,1.91,0,0,1,2.01,1.981C1105.006,127.135,1104.984,128.408,1104.984,129.841Zm-2.054-.055V125.9h-3.853v3.884Zm5.961,5.979v-3.879h-3.834v3.879Z" transform="translate(-108.251 -43.029)" fill="#eed"/>
        <path id="Path_877287" data-name="Path 877287" d="M1028.566,211.809c-1.293,0-2.439.01-3.584,0-1.722-.018-2.374-.668-2.384-2.367-.007-1.182-.019-2.365.006-3.546a1.893,1.893,0,0,1,2.054-2.018q1.913-.022,3.827,0a1.867,1.867,0,0,1,2.014,1.959c.032,1.273.007,2.548.007,4,1.181,0,2.316,0,3.45,0,1.9,0,2.535.627,2.544,2.495.005,1.12.022,2.241-.008,3.36a1.92,1.92,0,0,1-2.009,2.1c-1.3.062-2.615.065-3.918,0a1.943,1.943,0,0,1-2-2.2C1028.557,214.381,1028.566,213.171,1028.566,211.809Zm-.042-5.912H1024.6v3.863h3.927Zm5.953,6h-3.883v3.829h3.883Z" transform="translate(-47.744 -108.085)" fill="#eed"/>
      </g>
    </g>
  </g>
</svg>
