<svg xmlns="http://www.w3.org/2000/svg" width="107" height="107" viewBox="0 0 107 107">
  <g id="Group_1107492" data-name="Group 1107492" transform="translate(-285 -6362)">
    <g id="Grupo_156312" data-name="Grupo 156312" transform="translate(-3.668 1913.563)">
      <path id="Elipse_5845" data-name="Elipse 5845" d="M53.5,0A53.5,53.5,0,1,1,0,53.5,53.5,53.5,0,0,1,53.5,0Z" transform="translate(288.668 4448.437)" fill="#065564"/>
    </g>
    <g id="Group_1102615" data-name="Group 1102615" transform="translate(-101.527 343.787)">
      <path id="Path_873216" data-name="Path 873216" d="M0,0H63.184V63.186H0Z" transform="translate(408.527 6040.213)" fill="none"/>
      <g id="Group_1102859" data-name="Group 1102859" transform="translate(-565.474 5644.41)">
        <path id="Path_877288" data-name="Path 877288" d="M1005.042,544.52c.567,0,1.134,0,1.7,0,1.119.012,1.387.276,1.388,1.413q.007,7.936,0,15.873v1.323c1.3-1.3,2.44-2.409,3.518-3.574.126-.136-.026-.627-.164-.894a11.2,11.2,0,0,1,.416-11.817,11.382,11.382,0,0,1,20.817,7.746,11.4,11.4,0,0,1-19.13,6.737l-.525-.473c-1.581,1.6-3.165,3.187-4.719,4.8a1.292,1.292,0,0,0-.2.786c-.027.728-.007,1.457-.01,2.186,0,1.327-.226,1.556-1.532,1.557q-6.556,0-13.112,0-7.126,0-14.253,0c-1.271,0-1.515-.236-1.515-1.476q0-11.358,0-22.716c0-1.239.244-1.475,1.516-1.475q10.927,0,21.854.012a1.978,1.978,0,0,0,1.579-.638c1.741-1.8,3.5-3.577,5.319-5.295a2.705,2.705,0,0,1,1.634-.7c2.849-.07,5.7-.027,8.551-.036.7,0,1.343.12,1.332.966s-.668.944-1.359.941c-2.629-.009-5.258-.029-7.886.021a2.153,2.153,0,0,0-1.3.543c-1.384,1.285-2.706,2.637-4.051,3.965Zm-25.352,1.943v21.747h26.489V546.462Zm32.25,6.571a9.5,9.5,0,1,0,9.519-9.462A9.521,9.521,0,0,0,1011.939,553.033Z" transform="translate(-0.004 -113.436)" fill="#eed"/>
        <path id="Path_877289" data-name="Path 877289" d="M991.294,449.96a8.553,8.553,0,1,1,8.544-8.512A8.562,8.562,0,0,1,991.294,449.96Zm-5.342-4.566c1.473-1.478,2.852-2.857,4.22-4.247a.664.664,0,0,0,.156-.426c.01-1.922.007-3.844.007-5.878a6.444,6.444,0,0,0-4.995,3.645A6.585,6.585,0,0,0,985.953,445.394Zm11.908-3.033c-2.05,0-3.943,0-5.836.006a.675.675,0,0,0-.437.129c-1.4,1.39-2.8,2.793-4.253,4.256a6.654,6.654,0,0,0,10.526-4.39Zm-5.548-7.386V440.4h5.433C997.67,437.749,994.792,434.9,992.313,434.975Z" transform="translate(-4.071 -28.391)" fill="#eed"/>
        <path id="Path_877290" data-name="Path 877290" d="M1084.553,421.873h35.172c.285,0,.628-.1.842.025.387.223.912.531.994.89.139.617-.355.952-.987.98-.19.008-.38,0-.57,0h-35.712c-1.441,0-1.638-.2-1.639-1.639q0-11.211,0-22.422c0-.284-.08-.635.054-.838.2-.307.576-.724.848-.7a1.559,1.559,0,0,1,.939.717c.149.222.056.614.056.93q0,10.4,0,20.806Z" transform="translate(-84.979 -0.298)" fill="#eed"/>
        <path id="Path_877291" data-name="Path 877291" d="M1167.766,418.216q0-4.468,0-8.936c0-1.2.253-1.454,1.435-1.461.919-.006,1.837,0,2.756,0,1.266,0,1.507.237,1.508,1.484q.005,7.367,0,14.735c0,1.141-.015,2.282,0,3.422.015.871-.367,1.292-1.251,1.277-1.014-.017-2.028,0-3.042-.005-1.137-.008-1.409-.269-1.411-1.389Q1167.759,422.779,1167.766,418.216Zm3.739,8.568V409.795h-1.792v16.989Z" transform="translate(-153.934 -8.109)" fill="#eed"/>
        <path id="Path_877292" data-name="Path 877292" d="M1138.446,445.539c0,2.028,0,4.056,0,6.084,0,1.146-.266,1.415-1.377,1.424-1.014.009-2.028-.014-3.041.006-.865.018-1.288-.352-1.286-1.242q.015-6.369,0-12.738c0-.82.349-1.243,1.192-1.237q1.663.013,3.326,0c.843-.007,1.195.42,1.191,1.238C1138.439,441.229,1138.446,443.384,1138.446,445.539Zm-1.956,5.589V439.808h-1.773v11.319Z" transform="translate(-125.566 -32.425)" fill="#eed"/>
        <path id="Path_877293" data-name="Path 877293" d="M1243.492,445.448c0,2.091.007,4.183,0,6.274-.005,1.008-.3,1.3-1.3,1.313-1.077.013-2.154,0-3.231,0a1.022,1.022,0,0,1-1.171-1.158q0-6.464,0-12.928a.991.991,0,0,1,1.106-1.122c1.109,0,2.218-.013,3.326,0,.983.013,1.26.307,1.265,1.343C1243.5,441.266,1243.492,443.357,1243.492,445.448Zm-1.965,5.643V439.806h-1.788v11.285Z" transform="translate(-210.652 -32.415)" fill="#eed"/>
        <path id="Path_877294" data-name="Path 877294" d="M1097.739,463.537c0-1.458-.008-2.915,0-4.373.007-1.023.289-1.315,1.279-1.328,1.045-.013,2.091.013,3.136-.008.866-.018,1.291.35,1.288,1.24q-.017,4.468,0,8.935c0,.819-.349,1.245-1.191,1.239q-1.663-.013-3.326,0c-.841.006-1.2-.417-1.191-1.237C1097.749,466.516,1097.739,465.026,1097.739,463.537Zm3.735,3.759v-7.517h-1.784V467.3Z" transform="translate(-97.214 -48.617)" fill="#eed"/>
        <path id="Path_877295" data-name="Path 877295" d="M1202.762,463.539c0-1.458-.008-2.915,0-4.373.008-1.012.3-1.3,1.291-1.316,1.077-.013,2.154,0,3.231,0a1.022,1.022,0,0,1,1.176,1.153q0,4.563,0,9.125c0,.8-.428,1.137-1.2,1.131-1.077-.009-2.154-.017-3.231,0-.871.016-1.285-.368-1.275-1.253C1202.775,466.518,1202.762,465.028,1202.762,463.539Zm1.965-3.746v7.517h1.785v-7.517Z" transform="translate(-182.276 -48.632)" fill="#eed"/>
        <path id="Path_877296" data-name="Path 877296" d="M998.582,527.831c1.425,0,2.852-.047,4.273.026a2.391,2.391,0,0,1,1.411.563c1.433,1.339,2.79,2.76,4.185,4.141.5.491.862,1.034.259,1.629s-1.14.212-1.627-.282c-1.2-1.217-2.391-2.446-3.642-3.61a2.15,2.15,0,0,0-1.3-.543c-2.627-.05-5.255-.03-7.883-.021-.688,0-1.349-.085-1.365-.934s.622-.98,1.324-.974C995.669,527.84,997.125,527.832,998.582,527.831Z" transform="translate(-12.292 -105.305)" fill="#eed"/>
        <path id="Path_877297" data-name="Path 877297" d="M981.008,402.571c-.728,0-1.457,0-2.185,0a.993.993,0,0,1-1.107-1.122c0-.855-.009-1.711,0-2.566a.962.962,0,0,1,1.071-1.056c1.489-.008,2.977-.006,4.466,0a.992.992,0,0,1,1.107,1.121c0,.855.009,1.711,0,2.566a.966.966,0,0,1-1.071,1.057C982.528,402.578,981.768,402.571,981.008,402.571Zm-1.354-1.946h2.753v-.842h-2.753Z" transform="translate(0 -0.014)" fill="#eed"/>
        <path id="Path_877298" data-name="Path 877298" d="M1256.12,682.984h2.185a.993.993,0,0,1,1.131,1.1c.007.855.009,1.711,0,2.566a1,1,0,0,1-1.143,1.087q-2.186,0-4.371,0a.993.993,0,0,1-1.131-1.1c-.006-.855-.008-1.711,0-2.566a.993.993,0,0,1,1.142-1.086Q1255.027,682.986,1256.12,682.984Zm1.366,1.957h-2.805c.029.325.051.586.074.85h2.731Z" transform="translate(-222.798 -230.984)" fill="#eed"/>
        <path id="Path_877299" data-name="Path 877299" d="M1023.1,397.807c1.3,0,2.6.009,3.9,0,.671-.006,1.26.146,1.279.928s-.542.98-1.228.978q-3.992-.01-7.983,0c-.65,0-1.174-.208-1.184-.926-.012-.779.542-.983,1.228-.978C1020.44,397.814,1021.771,397.807,1023.1,397.807Z" transform="translate(-32.535 0)" fill="#eed"/>
        <path id="Path_877300" data-name="Path 877300" d="M1198.205,699.878c-1.331,0-2.661-.008-3.992,0-.669.006-1.261-.142-1.282-.925s.537-.982,1.224-.981q3.992.011,7.984,0c.65,0,1.175.205,1.188.923.014.778-.538.986-1.225.981C1200.8,699.872,1199.5,699.878,1198.205,699.878Z" transform="translate(-174.318 -243.126)" fill="#eed"/>
        <path id="Path_877301" data-name="Path 877301" d="M1020.388,414.563a4.193,4.193,0,0,1-1.411-.037c-.362-.138-.836-.592-.835-.905a1.244,1.244,0,0,1,.833-.893,11.884,11.884,0,0,1,2.935,0,1.243,1.243,0,0,1,.827.9c0,.314-.479.773-.841.9A4.8,4.8,0,0,1,1020.388,414.563Z" transform="translate(-32.747 -12.015)" fill="#eed"/>
        <path id="Path_877302" data-name="Path 877302" d="M1225.233,684.853c-.443,0-.887.012-1.33,0a.9.9,0,0,1-.994-.923.882.882,0,0,1,.954-.957c.918-.027,1.837-.019,2.756,0a.891.891,0,0,1,.992.922c.007.657-.418.952-1.048.966C1226.12,684.861,1225.677,684.854,1225.233,684.853Z" transform="translate(-198.599 -230.956)" fill="#eed"/>
        <path id="Path_877303" data-name="Path 877303" d="M1204.491,539.794a5.408,5.408,0,0,1-1.285-.783c-.148-.161-.069-.689.086-.941a1.829,1.829,0,0,1,2.385,0c.156.251.239.778.091.941A5.382,5.382,0,0,1,1204.491,539.794Z" transform="translate(-182.575 -113.249)" fill="#eed"/>
        <path id="Path_877304" data-name="Path 877304" d="M1005.052,592.926q5.417,0,10.834,0c1.274,0,1.516.236,1.521,1.472.005,1.267.008,2.535,0,3.8-.007,1.079-.283,1.375-1.329,1.376q-11.024.008-22.049,0c-1.023,0-1.318-.289-1.327-1.28q-.02-2.044,0-4.088c.01-.991.3-1.278,1.327-1.28Q999.54,592.918,1005.052,592.926Zm10.41,1.967H994.678v2.736h20.785Z" transform="translate(-12.132 -158.04)" fill="#eed"/>
        <path id="Path_877305" data-name="Path 877305" d="M1005.116,664.723h-10.55c-.253,0-.509.014-.76-.01-.589-.058-1.032-.408-.9-.976a1.447,1.447,0,0,1,.9-.869,7.276,7.276,0,0,1,1.8-.045q10.122,0,20.245,0c.316,0,.709-.095.93.055a1.559,1.559,0,0,1,.714.943c.019.273-.4.644-.709.846-.2.134-.554.053-.838.053Q1010.534,664.725,1005.116,664.723Z" transform="translate(-12.29 -214.626)" fill="#eed"/>
        <path id="Path_877306" data-name="Path 877306" d="M1005.21,649.725H994.565c-.254,0-.509.014-.76-.011-.589-.058-1.032-.408-.9-.976a1.42,1.42,0,0,1,.9-.867,9.206,9.206,0,0,1,1.987-.046q10.027,0,20.055,0c.316,0,.709-.094.93.056a1.556,1.556,0,0,1,.714.943c.019.273-.4.644-.71.846-.2.133-.553.053-.838.053Q1010.58,649.727,1005.21,649.725Z" transform="translate(-12.289 -202.481)" fill="#eed"/>
        <path id="Path_877307" data-name="Path 877307" d="M1005.305,634.773q-5.37,0-10.74,0c-.284,0-.64.075-.835-.065-.3-.213-.667-.583-.667-.885s.371-.671.669-.884c.2-.139.552-.063.835-.063q10.787,0,21.575,0c.284,0,.641-.076.835.063.3.213.668.583.667.885s-.371.671-.67.884c-.2.139-.551.064-.835.064Q1010.723,634.775,1005.305,634.773Z" transform="translate(-12.434 -190.38)" fill="#eed"/>
        <path id="Path_877308" data-name="Path 877308" d="M998.463,679.868c-1.457,0-2.915-.005-4.372,0-.688,0-1.237-.21-1.218-.988.018-.718.547-.918,1.194-.916q4.467.009,8.934,0c.689,0,1.237.21,1.218.987-.017.718-.547.921-1.194.917C1001.5,679.862,999.984,679.868,998.463,679.868Z" transform="translate(-12.279 -226.919)" fill="#eed"/>
        <path id="Path_877309" data-name="Path 877309" d="M1059.491,677.622c.719.037,1.359.187,1.346,1.033s-.672.945-1.362.94c-.591,0-1.224.009-1.377-.7a1.2,1.2,0,0,1,.337-.977C1058.685,677.7,1059.131,677.712,1059.491,677.622Z" transform="translate(-65.098 -226.641)" fill="#eed"/>
        <path id="Path_877310" data-name="Path 877310" d="M1179.888,581.434a8.551,8.551,0,1,1-8.556-8.5A8.55,8.55,0,0,1,1179.888,581.434Zm-8.525,6.7a6.652,6.652,0,1,0-6.677-6.624A6.676,6.676,0,0,0,1171.364,588.138Z" transform="translate(-149.902 -141.847)" fill="#eed"/>
        <path id="Path_877311" data-name="Path 877311" d="M1196.505,599.585v-.953c-.4,0-.773,0-1.144,0-2.751.036-2.653.091-2.623-2.651,0-.317,0-.633,0-.95,0-.725.332-1.157,1.078-1.141a1,1,0,0,0,1.047-.554c.349-.594,1.025-.5,1.517.018a1.722,1.722,0,0,0,.941.5c.612.081,1.078.286,1.09.943.013.714-.47.979-1.131.978h-2.588v.953c.866,0,1.684.014,2.5,0,.885-.019,1.273.405,1.25,1.275-.019.728,0,1.457,0,2.185,0,.126.043.289-.019.373a4.32,4.32,0,0,1-.706.848c-1.108-.653-1.858,2.387-3.078.3-.1-.163-.48-.207-.734-.217-.66-.025-1.152-.266-1.137-.98s.528-.937,1.18-.93C1194.766,599.591,1195.585,599.585,1196.505,599.585Z" transform="translate(-174.155 -158.043)" fill="#eed"/>
      </g>
    </g>
  </g>
</svg>
