<svg xmlns="http://www.w3.org/2000/svg" width="70" height="70" viewBox="0 0 70 70">
  <g id="Group_1102528" data-name="Group 1102528" transform="translate(-269 -958)">
    <circle id="Ellipse_5614" data-name="Ellipse 5614" cx="35" cy="35" r="35" transform="translate(269 958)" fill="#fff"/>
    <g id="Group_1103991" data-name="Group 1103991" transform="translate(-3365.384 -1422.019)">
      <path id="Path_878106" data-name="Path 878106" d="M3686.061,2425.487v-4.165H3670.2v4.165c1.6,0,3.188,0,4.775,0,1.066,0,1.247.163,1.249,1.123q0,3.114,0,6.228c0,.84-.215,1.046-1.1,1.047q-5.735.006-11.47,0c-.861,0-1.094-.209-1.1-.982q-.01-3.219,0-6.437c0-.771.235-.974,1.1-.978,1.619-.005,3.238,0,4.917,0v-4.155h-15.858v4.155c1.313,0,2.619.008,3.924,0,2.193-.017,2.134-.089,2.119,1.937-.014,1.819,0,3.639-.005,5.458,0,.79-.228,1-1.072,1q-5.773.007-11.546,0c-.807,0-1.051-.222-1.054-.952q-.012-3.253,0-6.508c0-.726.246-.933,1.068-.936,1.64-.007,3.281,0,5.01,0,0-1.147,0-2.235,0-3.323,0-2.505-.237-2.274,2.505-2.276q1.671,0,3.342-.012a1.2,1.2,0,0,0,.231-.072v-4.116h-1.962c-1.038,0-2.076-.01-3.114,0-.7.009-1.009-.291-1.005-.935.011-2.169,0-4.339.006-6.508,0-.736.242-.952,1.046-.956,1.642-.008,3.284,0,5.029,0v-3.935c0-1.664,0-1.664,1.8-1.664h9.54v-4.2c-1.6,0-3.186,0-4.772,0-1.068,0-1.249-.163-1.25-1.122q0-3.078,0-6.157c0-.936.19-1.118,1.178-1.119q5.659,0,11.318,0c.965,0,1.175.187,1.177,1.05q.007,3.149,0,6.3c0,.864-.21,1.049-1.175,1.051-1.593,0-3.187,0-4.841,0v4.2h.8q4.671,0,9.343,0c1,0,1.189.176,1.191,1.105,0,1.466,0,2.932,0,4.493h4.272c1.806,0,1.806,0,1.806,1.66,0,1.913,0,3.825,0,5.738,0,.788-.226.994-1.079,1-1.639.006-3.278,0-4.957,0v4.2h2.473c.785,0,1.57,0,2.354,0,1.015,0,1.207.175,1.209,1.089,0,1.467,0,2.935,0,4.509h.76c1.443,0,2.887.007,4.33,0,.655,0,.994.257.992.875q0,3.324,0,6.647c0,.617-.333.883-.987.882q-5.849-.007-11.7,0c-.707,0-1-.3-1-.945.012-2.169,0-4.338.007-6.507,0-.732.242-.945,1.053-.948C3682.72,2425.482,3684.362,2425.487,3686.061,2425.487Zm-27.292-5.651h21.213v-4.149c-1.652,0-3.266,0-4.88,0-.952,0-1.155-.188-1.157-1.066q-.006-2.973,0-5.946c0-1.312.078-1.384,1.5-1.384h4.52v-4.161H3658.8v4.161c1.7,0,3.337-.005,4.979,0,.8,0,1.04.221,1.042.959.007,2.169,0,4.337.006,6.506,0,.644-.305.941-1.008.933-1.164-.013-2.329,0-3.493,0h-1.56Z" fill="#065564"/>
    </g>
  </g>
</svg>
