<svg xmlns="http://www.w3.org/2000/svg" xmlns:xlink="http://www.w3.org/1999/xlink" width="99" height="99" viewBox="0 0 99 99">
  <defs>
    <clipPath id="clip-path">
      <rect id="Rectangle_401223" data-name="Rectangle 401223" width="99" height="99" transform="translate(0)" fill="#a01f4e"/>
    </clipPath>
    <clipPath id="clip-path-2">
      <rect id="Rectangle_401223-2" data-name="Rectangle 401223" width="88.539" height="88.539" fill="#f3f9ff"/>
    </clipPath>
  </defs>
  <g id="Group_1104011" data-name="Group 1104011" transform="translate(-619.921 -5755.871)">
    <g id="Group_1100724" data-name="Group 1100724" transform="translate(619.921 5755.871)">
      <g id="Group_1099654" data-name="Group 1099654" transform="translate(0 0)">
        <g id="Group_1099652" data-name="Group 1099652" clip-path="url(#clip-path)">
          <path id="Path_873521" data-name="Path 873521" d="M99,77.066A22,22,0,0,1,77.066,99H21.934A22,22,0,0,1,0,77.066V21.933A22,22,0,0,1,21.934,0H77.066A22,22,0,0,1,99,21.934Z" transform="translate(0)" fill="#bfa9fe"/>
        </g>
      </g>
      <g id="Group_1099659" data-name="Group 1099659" transform="translate(4.77 5.723)">
        <g id="Group_1099652-2" data-name="Group 1099652" transform="translate(0 0)" clip-path="url(#clip-path-2)">
          <path id="Path_873521-2" data-name="Path 873521" d="M88.539,68.922A19.674,19.674,0,0,1,68.923,88.539H19.616A19.674,19.674,0,0,1,0,68.922V19.616A19.674,19.674,0,0,1,19.616,0H68.923A19.674,19.674,0,0,1,88.539,19.616Z" fill="#f3f9ff"/>
        </g>
      </g>
    </g>
    <g id="Group_1100725" data-name="Group 1100725" transform="translate(636.343 5771.293)">
      <rect id="Rectangle_401104" data-name="Rectangle 401104" width="68" height="69" fill="none"/>
      <g id="Group_1104018" data-name="Group 1104018" transform="translate(-3664.116 -2416.917)">
        <path id="Path_878478" data-name="Path 878478" d="M3755.044,2482.948a24.962,24.962,0,1,1,24.452,25.059A25.04,25.04,0,0,1,3755.044,2482.948Z" transform="translate(-71.733 -27.436)" fill="#065564"/>
        <path id="Path_878479" data-name="Path 878479" d="M3691.39,2605.987c-2.387,0-4.774-.006-7.162,0-.745,0-1.415-.133-1.435-1.03-.02-.85.674-1.01,1.323-1.013q7.229-.032,14.458-.011c.727,0,1.436.25,1.375,1.122-.053.758-.682.943-1.4.937C3696.165,2605.974,3693.777,2605.987,3691.39,2605.987Z" transform="translate(-19.046 -133.799)" fill="#065564"/>
        <path id="Path_878480" data-name="Path 878480" d="M3685.49,2567.737c-2.025,0-4.05.007-6.074,0-.736,0-1.585-.017-1.6-1.006-.017-1.088.867-1.067,1.658-1.067q6.075,0,12.149,0c.749,0,1.579,0,1.6.99.025,1.095-.887,1.076-1.66,1.082C3689.54,2567.747,3687.515,2567.737,3685.49,2567.737Z" transform="translate(-15.416 -105.891)" fill="#065564"/>
        <path id="Path_878481" data-name="Path 878481" d="M3702.655,2490.97h-5.809c-.755,0-1.562-.037-1.543-1.045.016-.872.72-1.034,1.457-1.034q5.877,0,11.754,0c.709,0,1.463.113,1.48,1,.019.979-.752,1.076-1.529,1.073C3706.528,2490.965,3704.591,2490.97,3702.655,2490.97Z" transform="translate(-28.169 -49.907)" fill="#065564"/>
        <path id="Path_878482" data-name="Path 878482" d="M3926.858,2451.577a1.229,1.229,0,0,1-1.971,1.058c-2.16-1.976-4.25-4.031-6.328-6.094a1.067,1.067,0,0,1,.059-1.58,1.1,1.1,0,0,1,1.684-.1q3.151,2.965,6.232,6A1.933,1.933,0,0,1,3926.858,2451.577Z" transform="translate(-190.742 -17.546)" fill="#365272"/>
        <path id="Path_878483" data-name="Path 878483" d="M3832.568,2422.942c-1.351,0-2.7,0-4.053,0-.9.005-1.541-.4-1.518-1.323.022-.87.688-1.171,1.517-1.168,2.656.011,5.313.006,7.969.005.832,0,1.463.329,1.447,1.225-.015.856-.6,1.257-1.446,1.257Q3834.526,2422.944,3832.568,2422.942Z" transform="translate(-124.206)" fill="#365273"/>
        <path id="Path_878484" data-name="Path 878484" d="M3723.312,2452.7c-1.4,0-2.793-.005-4.189,0-.679,0-1.194-.263-1.186-.983s.518-.991,1.2-.99q4.257,0,8.513,0c.723,0,1.283.26,1.249,1.068-.032.751-.617.907-1.259.907Z" transform="translate(-44.675 -22.073)" fill="#065564"/>
        <path id="Path_878485" data-name="Path 878485" d="M3661.627,2529.482c-1.256,0-2.513,0-3.769,0-.661,0-1.174-.186-1.183-.955s.471-.985,1.149-.984q3.836.009,7.671,0c.662,0,1.176.182,1.185.951s-.476.99-1.15.988C3664.229,2529.479,3662.928,2529.482,3661.627,2529.482Z" transform="translate(0 -78.095)" fill="#065564"/>
        <path id="Path_878486" data-name="Path 878486" d="M3916.122,2466.468a13.476,13.476,0,0,1-2.442,2.569,1,1,0,0,1-.437-.253c-.845-.808-1.68-1.628-2.521-2.441-.194-.188-.474-.387-.221-.663.7-.762,1.425-1.5,2.16-2.226.205-.2.42-.033.585.124q1.322,1.256,2.632,2.524A1.8,1.8,0,0,1,3916.122,2466.468Z" transform="translate(-185.027 -31.29)" fill="#365273"/>
        <path id="Path_878487" data-name="Path 878487" d="M3840.6,2440.605c-2.2,0-2.135-.007-2.223-2.266-.045-1.155.239-1.694,1.459-1.48a4.7,4.7,0,0,0,.8.007c2.52,0,2.478,0,2.5,2.588.008.932-.232,1.321-1.2,1.163A8.345,8.345,0,0,0,3840.6,2440.605Z" transform="translate(-132.5 -11.93)" fill="#375373"/>
        <path id="Path_878488" data-name="Path 878488" d="M3720.592,2644.447q-1.752,0-3.5,0c-.688,0-1.177-.317-1.15-1.016.022-.606.466-.93,1.109-.929q3.5.007,7.006,0c.7,0,1.15.329,1.142,1.025-.007.65-.479.917-1.1.918Q3722.344,2644.449,3720.592,2644.447Z" transform="translate(-43.216 -161.927)" fill="#065564"/>
        <path id="Path_878489" data-name="Path 878489" d="M3714.717,2529.489c-.716,0-1.432-.007-2.148,0-.687.009-1.142-.25-1.131-1,.01-.667.41-.941,1.05-.939q2.216.007,4.431,0c.628,0,1.049.248,1.065.924.017.747-.428,1.019-1.117,1.013C3716.149,2529.483,3715.433,2529.489,3714.717,2529.489Z" transform="translate(-39.935 -78.101)" fill="#065564"/>
        <path id="Path_878490" data-name="Path 878490" d="M3785.318,2511.489a22.945,22.945,0,1,1,23.011-22.887A22.949,22.949,0,0,1,3785.318,2511.489Z" transform="translate(-77.13 -32.922)" fill="#f6f6f6"/>
        <path id="Path_878491" data-name="Path 878491" d="M3790.629,2514.72a20.959,20.959,0,1,1,21.068-20.862A21,21,0,0,1,3790.629,2514.72Z" transform="translate(-82.48 -38.174)" fill="#34054d"/>
        <path id="Path_878492" data-name="Path 878492" d="M3837.318,2510.2c0,.405.018.811,0,1.215-.073,1.4-.214,2.823,1.587,3.357a1,1,0,0,1,.558.562c.547,1.573,1.783,1.6,3.135,1.508.986-.066,1.981.005,2.971-.018.742-.017,1.315.279,1.313,1.024,0,.781-.641.981-1.349.975-1.4-.012-2.792.022-4.187-.012a1.325,1.325,0,0,0-1.4.756,3.8,3.8,0,0,1-4.334,2.188,3.911,3.911,0,0,1-3.2-3.073,3.958,3.958,0,0,1,2.247-4.464,1.213,1.213,0,0,0,.7-1.28c-.02-1.891,0-3.782-.011-5.673,0-.731.077-1.437.983-1.468.964-.032.984.729.986,1.431C3837.32,2508.219,3837.318,2509.21,3837.318,2510.2Z" transform="translate(-128.088 -62.235)" fill="#f6f6f6"/>
        <path id="Path_878493" data-name="Path 878493" d="M3811.382,2490.911a.973.973,0,0,1-1.062-.455c-.487-.805-.947-1.627-1.408-2.447-.316-.561-.018-.962.416-1.254a.861.861,0,0,1,1.288.291,20.349,20.349,0,0,1,1.473,2.562C3812.433,2490.366,3811.907,2490.746,3811.382,2490.911Z" transform="translate(-110.922 -48.22)" fill="#f2f3f5"/>
        <path id="Path_878494" data-name="Path 878494" d="M3784.712,2511.971a12.062,12.062,0,0,1,2.995,1.849.793.793,0,0,1-.041,1.1c-.276.329-.641.576-1.055.354-.94-.506-1.866-1.045-2.763-1.625a.806.806,0,0,1-.206-1.09A1.159,1.159,0,0,1,3784.712,2511.971Z" transform="translate(-92.503 -66.738)" fill="#f2f3f5"/>
        <path id="Path_878495" data-name="Path 878495" d="M3876.54,2487.816a9.7,9.7,0,0,1-1.884,3,.793.793,0,0,1-1.006-.025.924.924,0,0,1-.322-1.2,26.726,26.726,0,0,1,1.457-2.574.832.832,0,0,1,1.073-.325A1.109,1.109,0,0,1,3876.54,2487.816Z" transform="translate(-157.917 -48.247)" fill="#f2f4f5"/>
        <path id="Path_878496" data-name="Path 878496" d="M3897.886,2511.964c.565.045.912.234,1.058.662a.881.881,0,0,1-.285,1.1q-1.309.827-2.683,1.549a.833.833,0,0,1-1.064-.35.813.813,0,0,1-.012-1.119A11.6,11.6,0,0,1,3897.886,2511.964Z" transform="translate(-173.566 -66.733)" fill="#f2f3f5"/>
        <path id="Path_878497" data-name="Path 878497" d="M3811.274,2597.781c.628.212,1.2.578.821,1.412a20.572,20.572,0,0,1-1.4,2.433,1,1,0,1,1-1.666-1.091c.418-.685.789-1.4,1.2-2.091A1.278,1.278,0,0,1,3811.274,2597.781Z" transform="translate(-110.956 -129.315)" fill="#f2f3f5"/>
        <path id="Path_878498" data-name="Path 878498" d="M3787.868,2577.045a1,1,0,0,1-.474,1.025c-.8.5-1.618.973-2.454,1.41a.9.9,0,0,1-1.26-.444.833.833,0,0,1,.241-1.2,19.067,19.067,0,0,1,2.571-1.469A.917.917,0,0,1,3787.868,2577.045Z" transform="translate(-92.506 -113.617)" fill="#f3f4f5"/>
        <path id="Path_878499" data-name="Path 878499" d="M3897.922,2579.585a11.5,11.5,0,0,1-3.042-1.882.781.781,0,0,1,.012-1,.89.89,0,0,1,1.177-.374,24.573,24.573,0,0,1,2.573,1.449.938.938,0,0,1,.294,1.211C3898.793,2579.35,3898.475,2579.515,3897.922,2579.585Z" transform="translate(-173.58 -113.6)" fill="#f2f3f5"/>
        <path id="Path_878500" data-name="Path 878500" d="M3876.514,2600.856c.011.644-.158,1-.576,1.171a.924.924,0,0,1-1.2-.318,20.971,20.971,0,0,1-1.4-2.446.957.957,0,0,1,.471-1.368.91.91,0,0,1,1.256.444C3875.6,2599.215,3876.091,2600.116,3876.514,2600.856Z" transform="translate(-157.911 -129.319)" fill="#f2f3f5"/>
        <path id="Path_878501" data-name="Path 878501" d="M3845.462,2479.961c0,.492.037.987-.01,1.475a.825.825,0,0,1-.912.791c-.512,0-.926-.236-.956-.746a30.435,30.435,0,0,1-.013-3.084c.022-.52.414-.769.924-.783a.851.851,0,0,1,.974.872c.032.49.007.984.007,1.476Z" transform="translate(-136.268 -41.682)" fill="#f3f4f5"/>
        <path id="Path_878502" data-name="Path 878502" d="M3905.06,2548.509c-.448,0-.9.018-1.345,0a.968.968,0,0,1-.059-1.932c.938-.06,1.883-.043,2.824-.017a.906.906,0,0,1,.941.947.933.933,0,0,1-1.015,1.01c-.448.016-.9,0-1.345,0Z" transform="translate(-179.458 -91.941)" fill="#f4f4f5"/>
        <path id="Path_878503" data-name="Path 878503" d="M3776.819,2548.5c-.447,0-.9.018-1.341,0a.872.872,0,0,1-.933-.925.928.928,0,0,1,.991-1.025c.848-.036,1.7-.038,2.548-.007a.974.974,0,0,1,1.071,1.095c-.036.689-.544.859-1.129.878-.4.013-.805,0-1.207,0Z" transform="translate(-85.956 -91.926)" fill="#f4f5f5"/>
        <path id="Path_878504" data-name="Path 878504" d="M3845.468,2608.218c0,.447.017.895,0,1.34a.89.89,0,0,1-.934.938.924.924,0,0,1-1.007-1.006c-.009-.849-.007-1.7,0-2.548a.965.965,0,0,1,.947-1.084c.638-.031.967.4,1,1.019.024.446,0,.894,0,1.341Z" transform="translate(-136.253 -135.204)" fill="#f3f4f5"/>
        <path id="Path_878505" data-name="Path 878505" d="M3843.8,2544.813a2.009,2.009,0,0,1-4.016.06,2.122,2.122,0,0,1,2.053-2.093A2.1,2.1,0,0,1,3843.8,2544.813Z" transform="translate(-133.53 -89.205)" fill="#34054d"/>
      </g>
    </g>
  </g>
</svg>
