<svg xmlns="http://www.w3.org/2000/svg" xmlns:xlink="http://www.w3.org/1999/xlink" width="85" height="85" viewBox="0 0 85 85">
  <defs>
    <clipPath id="clip-path">
      <rect id="Rectangle_404061" data-name="Rectangle 404061" width="68.541" height="68.541" transform="translate(0 0)" fill="#fff" stroke="#707070" stroke-width="1"/>
    </clipPath>
  </defs>
  <g id="Group_1107497" data-name="Group 1107497" transform="translate(-1002.34 -3549)">
    <rect id="Rectangle_404059" data-name="Rectangle 404059" width="85" height="85" transform="translate(1002.34 3549)" fill="#4b0d6b"/>
    <g id="Mask_Group_1098868" data-name="Mask Group 1098868" transform="translate(1010.34 3557)" clip-path="url(#clip-path)">
      <g id="Group_1107099" data-name="Group 1107099" transform="translate(-2512.122 -2096.208)">
        <path id="Path_878038" data-name="Path 878038" d="M2520.682,2196.5h-1.9v-1.01c0-5.526.009-11.052-.006-16.578a11.36,11.36,0,0,1,1.05-4.887c1.362-2.934,2.705-5.875,4.076-8.805a2.593,2.593,0,0,1,.773-1.167c.834-.481.783-1.186.781-1.953q-.016-6.526,0-13.053v-1.072h1.861v31.869c.307-.413.46-.583.573-.776.9-1.534,1.771-3.08,2.679-4.607a3.811,3.811,0,1,1,6.6,3.805c-1.159,2.042-2.323,4.081-3.535,6.091a1.205,1.205,0,0,0,.025,1.452c.972,1.588,2.163,3.1,2.253,5.07.054,1.2.01,2.4.01,3.671h10.106c-.549-.967-1.1-1.87-1.587-2.8a3.809,3.809,0,0,1,6.032-4.535c.194.2.368.41.715.8,0-.54,0-.873,0-1.205,0-3.748-.016-7.5.01-11.242a3.757,3.757,0,0,1,3.054-3.738,3.712,3.712,0,0,1,4.2,2.2,5.217,5.217,0,0,1,.342,1.846c.043,1.9.015,3.806.015,5.823,2.062-.786,3.79-.446,5.031,1.175a11.474,11.474,0,0,1,2.8-.574,10.2,10.2,0,0,1,2.594.835v-3.676h1.937v3.563a15.262,15.262,0,0,1,2.752.651,3.268,3.268,0,0,1,2,3.02c.065,3.234.021,6.469.021,9.771h-1.891v-1.036c0-2.763.013-5.526-.008-8.289a1.9,1.9,0,1,0-3.8-.038,8.487,8.487,0,0,1-.051,1.8,1.451,1.451,0,0,1-.873.9c-.568.134-.947-.309-.972-.9-.034-.824-.008-1.651-.016-2.477-.012-1.382-.744-2.263-1.885-2.277s-1.911.86-1.925,2.232c-.008.794,0,1.588-.005,2.382-.005.628-.29,1.069-.949,1.069s-.945-.44-.948-1.069c-.006-1.016,0-2.033,0-3.049,0-1.615-.708-2.534-1.93-2.518s-1.881.906-1.882,2.562c0,.953-.007,1.906,0,2.858.006.693-.221,1.238-1,1.213-.719-.024-.911-.558-.911-1.206q.008-6.145,0-12.29a7.93,7.93,0,0,0-.02-.952,1.9,1.9,0,0,0-3.777.035,7.886,7.886,0,0,0-.015.857q0,7.479,0,14.958c0,.624.016,1.266-.751,1.45-.711.171-1.006-.372-1.3-.879-.52-.909-1.032-1.822-1.574-2.718a1.9,1.9,0,1,0-3.272,1.9c.947,1.685,1.926,3.352,2.934,5.1-.715.368-1.225,1.248-2.191.474-.156-.125-.494-.027-.748-.027h-12.159a19.958,19.958,0,0,1,.012-2.179,10.29,10.29,0,0,0-2.195-7.838,2.158,2.158,0,0,1-.045-2.833c1.269-2.01,2.409-4.1,3.592-6.167.693-1.209.489-2.335-.5-2.907a1.964,1.964,0,0,0-2.777,1q-2.581,4.444-5.148,8.9c-.11.19-.233.372-.411.653l-1.359-.758c.1-1.02.244-1.878.248-2.736.022-4.921.011-9.843.011-15.007-.233.385-.369.569-.463.773-1.133,2.446-2.355,4.856-3.348,7.357a12.354,12.354,0,0,0-.913,4.221c-.1,5.46-.042,10.924-.042,16.386Z" transform="translate(0 -36.654)" fill="#fff"/>
        <path id="Path_878039" data-name="Path 878039" d="M2555.749,2109.333h-1.862c0-1.453-.093-2.878.028-4.285a2.707,2.707,0,0,1,2.53-2.33c.315-.029.635-.016.952-.016h38.674c2.494,0,3.511,1.021,3.512,3.525q0,16.717,0,33.434v1.093h-1.9V2139.6q0-16.67,0-33.339c0-1.443-.213-1.659-1.637-1.659q-19.337,0-38.674,0c-1.389,0-1.613.221-1.617,1.582C2555.747,2107.2,2555.749,2108.215,2555.749,2109.333Z" transform="translate(-28.397)" fill="#fff"/>
        <path id="Path_878040" data-name="Path 878040" d="M2578.813,2132.841h1.855v22.813h33.342v1.937h-33.538c-1.463,0-1.658-.191-1.658-1.628q0-11.047,0-22.1Z" transform="translate(-48.601 -24.399)" fill="#fff"/>
        <path id="Path_878041" data-name="Path 878041" d="M2635.086,2168.371h-1.877v-2.351c-.4.359-.645.567-.873.794-1.933,1.927-3.875,3.846-5.785,5.8a1.22,1.22,0,0,1-1.9.144c-.885-.716-1.819-1.373-2.875-2.163-.956.992-1.917,1.95-2.83,2.95a1.239,1.239,0,0,1-1.971.126c-.8-.662-1.662-1.254-2.556-1.922l-3.275,5.7-1.655-.929c.857-1.5,1.685-2.946,2.51-4.393.393-.689.766-1.389,1.177-2.067.478-.789.976-.893,1.723-.353.974.705,1.928,1.438,3.042,2.272.957-1.01,1.908-1.984,2.822-2.99a1.2,1.2,0,0,1,1.9-.147c.887.714,1.82,1.373,2.679,2.015l6.166-6.22h-2.06v-1.927c1.575,0,3.155-.057,4.725.047a1.361,1.361,0,0,1,.875.982C2635.143,2165.252,2635.086,2166.774,2635.086,2168.371Z" transform="translate(-73.433 -48.565)" fill="#fff"/>
        <path id="Path_878042" data-name="Path 878042" d="M2620.526,2153.016v1.776h-11.344v-1.776Z" transform="translate(-73.184 -40.73)" fill="#fff"/>
        <path id="Path_878043" data-name="Path 878043" d="M2638.637,2283.085v1.792h-9.4v-1.792Z" transform="translate(-89.415 -146.015)" fill="#fff"/>
        <path id="Path_878044" data-name="Path 878044" d="M2638.58,2324.844h-9.416v-1.816h9.416Z" transform="translate(-89.358 -178.347)" fill="#fff"/>
        <path id="Path_878045" data-name="Path 878045" d="M2629.055,2134.771v-1.787h7.533v1.787Z" transform="translate(-89.27 -24.514)" fill="#fff"/>
        <path id="Path_878046" data-name="Path 878046" d="M2634.7,2303.115v1.782h-5.628v-1.782Z" transform="translate(-89.285 -162.229)" fill="#fff"/>
        <path id="Path_878047" data-name="Path 878047" d="M2610.981,2133.135v1.751h-1.819v-1.751Z" transform="translate(-73.167 -24.637)" fill="#fff"/>
        <path id="Path_878048" data-name="Path 878048" d="M2670.97,2304.911h-1.752v-1.819h1.752Z" transform="translate(-121.78 -162.21)" fill="#fff"/>
      </g>
    </g>
  </g>
</svg>
