<svg xmlns="http://www.w3.org/2000/svg" xmlns:xlink="http://www.w3.org/1999/xlink" width="85" height="85" viewBox="0 0 85 85">
  <defs>
    <clipPath id="clip-path">
      <rect id="Rectangle_404055" data-name="Rectangle 404055" width="68.541" height="68.541" transform="translate(0 0)" fill="#fff" stroke="#707070" stroke-width="1"/>
    </clipPath>
  </defs>
  <g id="Group_1107496" data-name="Group 1107496" transform="translate(-582.34 -3549)">
    <rect id="Rectangle_404053" data-name="Rectangle 404053" width="85" height="85" transform="translate(582.34 3549)" fill="#4b0d6b"/>
    <g id="Mask_Group_1098866" data-name="Mask Group 1098866" transform="translate(590.34 3557)" clip-path="url(#clip-path)">
      <g id="Group_1107097" data-name="Group 1107097" transform="translate(-2694.375 -2612.346)">
        <path id="Path_878052" data-name="Path 878052" d="M2757.391,2636.063h1.906v.95q0,18.608,0,37.213c0,2.174-.872,3.043-3.054,3.043q-27.409,0-54.819,0c-2.181,0-3.049-.868-3.049-3.048q0-27.409,0-54.819c0-2.188.863-3.055,3.041-3.055h54.819c2.194,0,3.06.859,3.062,3.034,0,2.627,0,5.255,0,7.93h-1.869v-1.885h-43.243v-1.937h43.2c0-1.6.023-3.116-.027-4.628-.007-.207-.347-.479-.591-.58a2.355,2.355,0,0,0-.847-.028h-54.153c-1.484,0-1.485,0-1.485,1.452v3.755h5.127v1.944h-5.127v1.135q0,23.745,0,47.49c0,1.332,0,1.334,1.318,1.334h54.438c1.353,0,1.354,0,1.354-1.394v-37.906Z" transform="translate(0 0)" fill="#fff"/>
        <path id="Path_878053" data-name="Path 878053" d="M2767.985,2705.025c-.436.079-.771.242-1.032.163-.376-.115-.941-.367-.984-.631a1.286,1.286,0,0,1,.52-1.114,13.654,13.654,0,0,1,3.014-.82,1.4,1.4,0,0,1,1.1.637,26.2,26.2,0,0,1,1.273,2.862c.223.546.221,1.1-.395,1.387-.654.3-1.087-.034-1.363-.634-.115-.249-.238-.494-.445-.923l-1.888,4.185c-.7,1.559-1.394,3.124-2.116,4.674a1.073,1.073,0,0,0,.12,1.28,3.3,3.3,0,1,1-5.5,3.642,1.082,1.082,0,0,0-1.1-.659q-2.473.06-4.948.024a1.035,1.035,0,0,0-1.028.614,4.459,4.459,0,0,1-1.308,1.329,2.287,2.287,0,0,0-.01,3.433,3.279,3.279,0,0,1,1.424,3.632,3.213,3.213,0,0,1-2.815,2.456,3.29,3.29,0,0,1-3.457-1.986c-.511-1.142-2.525-1.337-3.425-.482a6.109,6.109,0,0,1-2.251,1.259c-.473.157-.784.277-.932.75a4.479,4.479,0,0,1-.33.788,1.928,1.928,0,0,0,.1,2.463,2.991,2.991,0,0,1-.249,3.711,3.268,3.268,0,0,1-3.4,1.13,3.114,3.114,0,0,1-2.461-2.8,1.2,1.2,0,0,0-.96-1.282,3.522,3.522,0,0,1-.777-.354,1.612,1.612,0,0,0-2.112.085c-.483.384-1.306.338-1.974.492-.257.059-.633.053-.743.218-.907,1.359-1.764,2.752-2.759,4.332h46.341a2.584,2.584,0,0,1,1.033.051c.321.152.758.515.754.78a1.54,1.54,0,0,1-.652.975c-.212.161-.609.1-.923.1q-23.034.005-46.068,0c-2,0-2.781-.784-2.782-2.754q0-8.186,0-16.371c0-.311.027-.621.043-.972h1.833v14.786l.226.083c.446-.7.916-1.38,1.318-2.1.084-.152-.027-.467-.131-.663a3.338,3.338,0,0,1,.221-3.837,3.242,3.242,0,0,1,3.392-1.174,3.46,3.46,0,0,1,2.59,3.068,1.769,1.769,0,0,0,.62.883,4.364,4.364,0,0,0,.854.406c.8.433,1.585.814,2.365-.07a.943.943,0,0,1,.687-.288c1.249.115,1.512-.763,1.885-1.666a2.064,2.064,0,0,0-.179-2.378,3.28,3.28,0,1,1,5.741-3.163,1.752,1.752,0,0,0,1.753,1.18c.784.079,1.562.273,1.971-.7a.878.878,0,0,1,.482-.442c1.588-.516,1.063-1.845,1.118-2.928.009-.184-.285-.438-.5-.567a3.39,3.39,0,0,1-1.739-3.6,3.356,3.356,0,0,1,6.273-.844,1.215,1.215,0,0,0,.857.5q2.569.056,5.138-.032a1.2,1.2,0,0,0,.844-.535,3.438,3.438,0,0,1,2.9-1.864.919.919,0,0,0,.677-.34C2765.146,2711.328,2766.533,2708.239,2767.985,2705.025Zm-25.524,21.02a1.4,1.4,0,0,0-1.4-1.369,1.435,1.435,0,0,0-1.432,1.453,1.475,1.475,0,0,0,1.419,1.381A1.43,1.43,0,0,0,2742.461,2726.044Zm-12.416,4.983a1.514,1.514,0,0,0-1.479-1.428,1.4,1.4,0,0,0-1.354,1.417,1.372,1.372,0,0,0,1.341,1.417A1.458,1.458,0,0,0,2730.045,2731.027Zm8.779,3.928a1.419,1.419,0,0,0-2.838.056,1.419,1.419,0,1,0,2.838-.056Zm12.742-7.662a1.479,1.479,0,0,0-1.371-1.427,1.4,1.4,0,0,0-1.459,1.4,1.338,1.338,0,0,0,1.338,1.4A1.425,1.425,0,0,0,2751.566,2727.294Zm.173-9.1a1.414,1.414,0,0,0-2.827-.073,1.423,1.423,0,0,0,1.429,1.44A1.4,1.4,0,0,0,2751.739,2718.194Zm12.837-.066a1.4,1.4,0,1,0-1.4,1.374A1.409,1.409,0,0,0,2764.576,2718.127Z" transform="translate(-19.516 -69.848)" fill="#fff"/>
        <path id="Path_878054" data-name="Path 878054" d="M2753.432,2684.366h2.844v-4.184c0-.444,0-.888,0-1.332.006-.623.266-1.081.931-1.082s.936.479.965,1.077c.033.665.013,1.332.013,2,0,1.138,0,2.276,0,3.486h2.8c.016-.323.046-.658.047-.993q.005-4.043,0-8.086c0-.285-.083-.624.041-.843.191-.34.543-.848.8-.832a1.336,1.336,0,0,1,.985.737,6.069,6.069,0,0,1,.088,1.79c.005,2.722,0,5.443,0,8.3.83,0,1.579,0,2.328,0,.685,0,1.233.213,1.214,1-.018.727-.537.915-1.188.914q-10.465-.009-20.931,0c-.649,0-1.18-.168-1.205-.9-.027-.773.5-1.021,1.2-1.017.755,0,1.51,0,2.392,0,0-.843,0-1.6,0-2.347,0-.7.036-1.453.966-1.421.89.03.952.772.95,1.475,0,.723,0,1.445,0,2.229h2.844c0-1.623,0-3.231,0-4.839a6.813,6.813,0,0,1,.047-1.7c.1-.375.528-.663.809-.99.344.3.8.55,1,.93a2.85,2.85,0,0,1,.058,1.218C2753.435,2680.726,2753.432,2682.5,2753.432,2684.366Z" transform="translate(-36.266 -46.333)" fill="#fff"/>
        <path id="Path_878055" data-name="Path 878055" d="M2924.422,2820.5a6.025,6.025,0,0,1-.841-11.995,1.943,1.943,0,0,1,1.112.042c.294.167.674.738.585.91a1.7,1.7,0,0,1-1.02.867c-2.174.339-3.53,1.47-3.917,3.422a4.114,4.114,0,1,0,8.111,1.377c.026-.188.022-.381.053-.568.1-.589.347-1.038,1.04-.988s.853.53.854,1.134A5.991,5.991,0,0,1,2924.422,2820.5Z" transform="translate(-178.115 -155.528)" fill="#fff"/>
        <path id="Path_878056" data-name="Path 878056" d="M2937.69,2825.133a2.808,2.808,0,0,1,2.7,1.729,2.9,2.9,0,0,1-.677,3.223c-.458.426-.966.689-1.5.169a.906.906,0,0,1,.109-1.474c.428-.386.656-.9.2-1.31-.281-.256-1-.44-1.2-.271a1.543,1.543,0,0,0-.374,1.271c.123.648.266,1.225-.486,1.5-.8.292-1.156-.286-1.407-.9A2.846,2.846,0,0,1,2937.69,2825.133Z" transform="translate(-191.453 -169.041)" fill="#fff"/>
        <path id="Path_878057" data-name="Path 878057" d="M2748.193,2653.739a4.785,4.785,0,0,1,1.505.038c.359.125.831.589.831.9a1.237,1.237,0,0,1-.823.9,14.92,14.92,0,0,1-3.217-.007,1.274,1.274,0,0,1-.772-.943c-.024-.269.446-.754.777-.843a6.709,6.709,0,0,1,1.7-.039Z" transform="translate(-38.33 -30.239)" fill="#fff"/>
        <path id="Path_878058" data-name="Path 878058" d="M2724.295,2764.18a6.165,6.165,0,0,1-.036,1.607c-.094.337-.547.82-.811.8-.357-.024-.949-.436-.981-.731a15.56,15.56,0,0,1,0-3.317,1.24,1.24,0,0,1,.957-.769c.306.014.726.525.845.9a5.156,5.156,0,0,1,.035,1.51Z" transform="translate(-19.433 -117.742)" fill="#fff"/>
        <path id="Path_878059" data-name="Path 878059" d="M3010.148,2686.746a5.34,5.34,0,0,1-.039,1.592c-.118.362-.6.841-.91.838a1.252,1.252,0,0,1-.888-.851,14.8,14.8,0,0,1,0-3.2,1.231,1.231,0,0,1,.906-.806c.314,0,.78.477.894.835a5.446,5.446,0,0,1,.039,1.593Z" transform="translate(-250.866 -55.032)" fill="#fff"/>
        <path id="Path_878060" data-name="Path 878060" d="M2978.706,2637.165a3.228,3.228,0,0,1-1.216-.033c-.365-.161-.846-.575-.852-.886a1.241,1.241,0,0,1,.8-.921,9.276,9.276,0,0,1,2.636,0c.311.044.8.6.766.863a1.472,1.472,0,0,1-.823.934,3.539,3.539,0,0,1-1.309.036Z" transform="translate(-225.291 -15.291)" fill="#fff"/>
        <path id="Path_878061" data-name="Path 878061" d="M2945.929,2637.1a2.848,2.848,0,0,1-1.119-.028,4.729,4.729,0,0,1-1.019-.887c.314-.327.588-.871.948-.937a7.307,7.307,0,0,1,2.441,0,1.368,1.368,0,0,1,.865.884c.133.568-.293.926-.888.962C2946.749,2637.114,2946.338,2637.094,2945.929,2637.1Z" transform="translate(-198.697 -15.217)" fill="#fff"/>
        <path id="Path_878062" data-name="Path 878062" d="M2724.37,2735.356c-.356-.022-.63-.053-.905-.053s-.563.032-.978.059a25.8,25.8,0,0,1,.046-3.087,1.238,1.238,0,0,1,.957-.759,1.251,1.251,0,0,1,.84.876A25.205,25.205,0,0,1,2724.37,2735.356Z" transform="translate(-19.503 -93.245)" fill="#fff"/>
      </g>
    </g>
  </g>
</svg>
