<svg xmlns="http://www.w3.org/2000/svg" width="62.504" height="62.504" viewBox="0 0 62.504 62.504">
  <g id="Group_1102694" data-name="Group 1102694" transform="translate(-279.527 -1198.717)">
    <g id="Group_1072053" data-name="Group 1072053" transform="translate(279.527 1198.717)">
      <circle id="Ellipse_4742" data-name="Ellipse 4742" cx="31.252" cy="31.252" r="31.252" transform="translate(0)" fill="#ffb12d"/>
    </g>
    <g id="Group_1102674" data-name="Group 1102674" transform="translate(-4989.667 -2096.113)">
      <rect id="Rectangle_403513" data-name="Rectangle 403513" width="4.222" height="13.228" rx="2.111" transform="translate(5284.425 3329.371)" fill="#34054d"/>
      <rect id="Rectangle_403514" data-name="Rectangle 403514" width="4.222" height="21.952" rx="2.111" transform="translate(5293.882 3320.647)" fill="#34054d"/>
      <rect id="Rectangle_403515" data-name="Rectangle 403515" width="4.222" height="13.228" rx="2.111" transform="translate(5303.327 3329.371)" fill="#34054d"/>
      <rect id="Rectangle_403516" data-name="Rectangle 403516" width="4.222" height="21.952" rx="2.111" transform="translate(5312.744 3320.647)" fill="#34054d"/>
      <circle id="Ellipse_11581" data-name="Ellipse 11581" cx="2.34" cy="2.34" r="2.34" transform="translate(5284.195 3309.83)" fill="#34054d"/>
      <circle id="Ellipse_11582" data-name="Ellipse 11582" cx="2.34" cy="2.34" r="2.34" transform="translate(5293.647 3309.83)" fill="#34054d"/>
      <circle id="Ellipse_11583" data-name="Ellipse 11583" cx="2.34" cy="2.34" r="2.34" transform="translate(5312.514 3309.83)" fill="#34054d"/>
      <circle id="Ellipse_11584" data-name="Ellipse 11584" cx="2.34" cy="2.34" r="2.34" transform="translate(5284.195 3319.581)" fill="#34054d"/>
      <circle id="Ellipse_11585" data-name="Ellipse 11585" cx="2.34" cy="2.34" r="2.34" transform="translate(5303.103 3309.83)" fill="#34054d"/>
      <circle id="Ellipse_11586" data-name="Ellipse 11586" cx="2.34" cy="2.34" r="2.34" transform="translate(5303.103 3319.581)" fill="#34054d"/>
    </g>
  </g>
</svg>
