<svg xmlns="http://www.w3.org/2000/svg" xmlns:xlink="http://www.w3.org/1999/xlink" width="99" height="99" viewBox="0 0 99 99">
  <defs>
    <clipPath id="clip-path">
      <rect id="Rectangle_401223" data-name="Rectangle 401223" width="99" height="99" transform="translate(0)" fill="#065564"/>
    </clipPath>
    <clipPath id="clip-path-2">
      <rect id="Rectangle_401223-2" data-name="Rectangle 401223" width="88.539" height="88.539" fill="#f3f9ff"/>
    </clipPath>
  </defs>
  <g id="Group_1102427" data-name="Group 1102427" transform="translate(-619.921 -5755.871)">
    <g id="Group_1100724" data-name="Group 1100724" transform="translate(619.921 5755.871)">
      <g id="Group_1099654" data-name="Group 1099654" transform="translate(0 0)">
        <g id="Group_1099652" data-name="Group 1099652" clip-path="url(#clip-path)">
          <path id="Path_873521" data-name="Path 873521" d="M99,77.066A22,22,0,0,1,77.066,99H21.934A22,22,0,0,1,0,77.066V21.933A22,22,0,0,1,21.934,0H77.066A22,22,0,0,1,99,21.934Z" transform="translate(0)" fill="#bfa9fe"/>
        </g>
      </g>
      <g id="Group_1099659" data-name="Group 1099659" transform="translate(4.77 5.723)">
        <g id="Group_1099652-2" data-name="Group 1099652" transform="translate(0 0)" clip-path="url(#clip-path-2)">
          <path id="Path_873521-2" data-name="Path 873521" d="M88.539,68.922A19.674,19.674,0,0,1,68.923,88.539H19.616A19.674,19.674,0,0,1,0,68.922V19.616A19.674,19.674,0,0,1,19.616,0H68.923A19.674,19.674,0,0,1,88.539,19.616Z" fill="#f3f9ff"/>
        </g>
      </g>
    </g>
    <g id="Group_1100725" data-name="Group 1100725" transform="translate(636.343 5771.293)">
      <rect id="Rectangle_401104" data-name="Rectangle 401104" width="68" height="69" fill="none"/>
      <g id="Group_1104014" data-name="Group 1104014" transform="translate(-3647.25 -2362.552)">
        <path id="Path_878373" data-name="Path 878373" d="M3693.468,2413.562q.006-13.144.012-26.288c0-1.429.088-1.474,1.543-1.529.778-.03,1.6.262,2.335-.21a2.193,2.193,0,0,1,.946-.115c8.717.016,17.435,0,26.153.011a3.326,3.326,0,0,1,1.786.232,1.905,1.905,0,0,1,.334,1.459c.014,2.249-.008,4.5.01,6.747.015,1.878.491,2.352,2.336,2.365,1.349.01,2.7-.007,4.047.006,2.049.018,2.662.616,2.67,2.642.013,3.052,0,6.1,0,9.157q0,12.867,0,25.735a17.2,17.2,0,0,1-.2,2.687,6.19,6.19,0,0,1-4.869,5.115,13.094,13.094,0,0,1-2.682.244c-9.637-.006-19.275.019-28.913-.027-1.506-.007-2.818.109-3.569,1.621-1.826.02-1.935-.089-1.935-1.939q0-1.053,0-2.1a2.3,2.3,0,0,1,1.66-.318q15.36-.01,30.719,0c2.766,0,3.16-.4,3.161-3.179,0-3.6-.029-7.191.014-10.786.017-1.434-.151-2.7-1.628-3.382a.69.69,0,0,1-.242-.292c-.479-.89-.977-1.755-2.219-1.587-10.045.046-20.088.019-30.13.015-1.421,0-1.6-.211-1.613-1.622q-.01-1.781,0-3.562A1.407,1.407,0,0,1,3693.468,2413.562Z" transform="translate(-32.134 -15.513)" fill="#eae8ea"/>
        <path id="Path_878374" data-name="Path 878374" d="M3661.447,2531.078c0,1.639.061,3.28-.012,4.916-.04.89.278,1.052,1.095,1.05q14.75-.04,29.5-.016c.417,0,.834.023,1.251.035a1.62,1.62,0,0,1,.311,1.271c.009,3.4.025,6.807,0,10.21a4.475,4.475,0,0,1-4.665,4.791c-1.764.061-3.531.016-5.3.016-7.865,0-15.731.03-23.6-.025-1.51-.011-2.8.14-3.583,1.6a2.773,2.773,0,0,1-2.92-2.787c-.016-5.684,0-11.368.01-17.052.448-.053.589.333.8.588a2.71,2.71,0,0,0,2.092,1.021c1.217.041,2.436.01,3.654.015.6,0,.878-.252.875-.863q-.007-1.731,0-3.463c0-.627-.313-.842-.895-.843-1.026,0-2.052.013-3.078-.01-.407-.009-.847.051-1.156-.324a19.07,19.07,0,0,1,3.989-.156C3660.359,2531.028,3660.9,2531.068,3661.447,2531.078Z" transform="translate(-0.113 -133.029)" fill="#acd981"/>
        <path id="Path_878375" data-name="Path 878375" d="M3743.659,2370.251q-13.8-.011-27.6-.025c-.438,0-.906.114-1.3-.2q.007-1.059.012-2.118c.008-1.425.278-1.7,1.667-1.7q10.928,0,21.855,0,9.146.007,18.292.031c.459.519.318,1.156.319,1.751q.013,18.062.006,36.125c0,3.95-.008,7.9,0,11.849a5.962,5.962,0,0,1-1.261,3.76,1.572,1.572,0,0,1-.873.715c-.537-.246-.414-.753-.421-1.173-.031-1.605-.013-3.211-.013-4.817,0-10.727-.016-21.454.02-32.181a4.2,4.2,0,0,0-1.362-3.325c-2.117-2.014-4.15-4.115-6.214-6.185A9.866,9.866,0,0,0,3743.659,2370.251Z" transform="translate(-49.534)" fill="#acd981"/>
        <path id="Path_878376" data-name="Path 878376" d="M3735.532,2387.113a2.071,2.071,0,0,1,1.862.782c2.711,2.734,5.424,5.467,8.173,8.162a3.092,3.092,0,0,1,.965,2.393q-.025,18.771-.01,37.542c0,.417.013.834.02,1.251.493.652.281,1.412.279,2.121,0,.787.3,1.065,1.075,1.057.643-.006,1.347-.2,1.911.321a5.9,5.9,0,0,1-2.46.152c-.619.009-.878.188-.833.828.043.607.014,1.22.008,1.83a1.1,1.1,0,0,1-1.178,1.216c-.1,0-.192,0-.289,0l-40.365-.007c.241-1.43.814-1.923,2.247-1.923,10.34,0,20.679.016,31.02-.011,2.733-.007,4.905-1.063,6.083-3.7a7.29,7.29,0,0,0,.539-3q.037-18.161.015-36.322c0-1.406-.5-1.9-1.916-1.9-1.67,0-3.339,0-5.009,0a1.878,1.878,0,0,1-2.129-2.126C3735.524,2392.894,3735.532,2390,3735.532,2387.113Z" transform="translate(-41.407 -16.862)" fill="#d8d6d9"/>
        <path id="Path_878377" data-name="Path 878377" d="M3924.78,2423.943c-.89-.008-1.781-.029-2.671-.017-.448.006-.628-.17-.618-.619.022-.954.018-1.909.024-2.864a6.352,6.352,0,0,0,1.932-4.724q-.051-24.713-.016-49.427c1.827-.1,2.06.118,2.064,2.066q.016,7.7,0,15.407,0,19.114,0,38.227C3925.494,2422.721,3925.592,2423.5,3924.78,2423.943Z" transform="translate(-216.382 -0.062)" fill="#94ca80"/>
        <path id="Path_878378" data-name="Path 878378" d="M3668.69,2580.182c.269-1.437.82-1.9,2.271-1.9h29.872c3.047,0,4.681-1.639,4.682-4.69q0-5.637.006-11.275a2.011,2.011,0,0,1,1.945,1.507,8.231,8.231,0,0,1,.315,2.845c-.009,3.625,0,7.25-.007,10.875-.006,2.161-.8,2.99-2.95,2.993q-14.964.025-29.928.009a2.678,2.678,0,0,1-1.389-.308Z" transform="translate(-12.354 -158.281)" fill="#93ca80"/>
        <path id="Path_878379" data-name="Path 878379" d="M3693.653,2586.544c10.147-.008,20.295-.047,30.442,0,2.91.013,3.61-.381,3.538-3.5-.1-4.3-.022-8.606-.02-12.91.218.162.19.494.56.592a2.035,2.035,0,0,1,1.526,2.174q.034,6.69,0,13.379a2.042,2.042,0,0,1-2.262,2.171q-16.794,0-33.589,0C3693.78,2587.811,3694.006,2587.148,3693.653,2586.544Z" transform="translate(-32.501 -164.588)" fill="#d8d6d9"/>
        <path id="Path_878380" data-name="Path 878380" d="M3655.717,2531.989c1.541.008,3.083.031,4.625.018.538-.006.838.1.824.735-.034,1.445-.026,2.892,0,4.337.008.541-.19.739-.73.729-1.413-.023-2.827,0-4.24-.01a3.241,3.241,0,0,1-2.767-1.93C3653.191,2533.588,3653.91,2532.371,3655.717,2531.989Z" transform="translate(0 -133.806)" fill="#94ca80"/>
        <path id="Path_878381" data-name="Path 878381" d="M3800.863,2471.847c-1.637,0-3.275.008-4.912,0-1.141-.008-1.365-.241-1.365-1.342s.224-1.348,1.356-1.351q4.816-.014,9.632,0c1.123,0,1.551.4,1.549,1.357,0,1-.384,1.336-1.539,1.338C3804.009,2471.85,3802.436,2471.847,3800.863,2471.847Z" transform="translate(-113.96 -83.085)" fill="#fefefe"/>
        <path id="Path_878382" data-name="Path 878382" d="M3800.784,2495.824c-1.7,0-3.406-.013-5.11.006-.756.009-1.125-.289-1.131-1.077-.009-1.059.276-1.6,1.069-1.611,3.438-.028,6.877-.034,10.315.008.865.01,1.189.651,1.159,1.471a1.121,1.121,0,0,1-1.289,1.205C3804.126,2495.819,3802.455,2495.824,3800.784,2495.824Z" transform="translate(-113.926 -102.435)" fill="#fefefe"/>
        <path id="Path_878383" data-name="Path 878383" d="M3800.72,2519.8c-1.633,0-3.267-.013-4.9.006-.728.009-1.259-.122-1.283-1.016-.029-1.112.282-1.6,1.222-1.678.478-.04.96-.01,1.441-.01,2.786,0,5.573-.006,8.36,0,1.037,0,1.475.4,1.521,1.313.049.974-.293,1.368-1.268,1.377C3804.116,2519.813,3802.418,2519.8,3800.72,2519.8Z" transform="translate(-113.92 -121.783)" fill="#fefefe"/>
        <path id="Path_878384" data-name="Path 878384" d="M3759.137,2471.869c-.352,0-.7,0-1.054,0-1.257-.008-1.518-.23-1.521-1.289,0-1.124.294-1.4,1.527-1.408.83,0,1.661-.012,2.49,0,.882.016,1.219.505,1.219,1.361s-.323,1.341-1.225,1.334C3760.1,2471.865,3759.616,2471.869,3759.137,2471.869Z" transform="translate(-83.274 -83.102)" fill="#add981"/>
        <path id="Path_878385" data-name="Path 878385" d="M3759.15,2495.873c-.385,0-.771,0-1.156,0-1.214-.007-1.426-.2-1.431-1.267,0-1.042.353-1.395,1.471-1.413.835-.014,1.672-.03,2.505.007.967.042,1.253.461,1.259,1.531.006.926-.524,1.149-1.3,1.143C3760.05,2495.87,3759.6,2495.873,3759.15,2495.873Z" transform="translate(-83.274 -102.482)" fill="#add981"/>
        <path id="Path_878386" data-name="Path 878386" d="M3759.1,2519.876c-.354,0-.707,0-1.06,0-1.249-.006-1.469-.187-1.484-1.218-.017-1.1.34-1.455,1.514-1.47.835-.011,1.673-.034,2.506.01.911.047,1.192.469,1.217,1.48.022.9-.445,1.2-1.246,1.2Q3759.827,2519.874,3759.1,2519.876Z" transform="translate(-83.271 -121.847)" fill="#add981"/>
        <path id="Path_878387" data-name="Path 878387" d="M3771.266,2594.7a4.482,4.482,0,0,1-2.786-1.206c-.449-.474-.676-.961-.178-1.513.471-.521.988-.376,1.441.029a2.318,2.318,0,0,0,1.951.6.786.786,0,0,0,.726-.545c.107-.4-.229-.593-.5-.722-.635-.3-1.3-.535-1.949-.815a2.378,2.378,0,0,1-1.584-2.38,2.629,2.629,0,0,1,2.074-2.256,4.1,4.1,0,0,1,3.129.607c.523.347.888.806.512,1.449-.366.626-.915.614-1.489.272a2.376,2.376,0,0,0-1.448-.433c-.3.027-.6.064-.693.4-.1.382.212.492.477.6.533.22,1.081.4,1.6.643,1.434.657,2.171,1.838,1.893,2.987A3.254,3.254,0,0,1,3771.266,2594.7Z" transform="translate(-92.521 -177.239)" fill="#fefefe"/>
        <path id="Path_878388" data-name="Path 878388" d="M3694.56,2593.6a2.455,2.455,0,0,1,.647-1.264c.515-.773,1.37-1.485,1.493-2.31.129-.862-.913-1.525-1.395-2.307-.383-.622-.74-1.247.029-1.748s1.231.063,1.645.653c1.117,1.593,1.122,1.589,2.22.03.111-.157.218-.318.344-.463a.979.979,0,0,1,1.377-.219.893.893,0,0,1,.226,1.351c-.453.7-.914,1.4-1.424,2.054a.8.8,0,0,0,.005,1.175c.616.778,1.142,1.627,1.723,2.433a.952.952,0,0,1-.18,1.439.875.875,0,0,1-1.344-.22c-.5-.625-.951-1.29-1.4-1.952-.29-.426-.518-.5-.833-.01-.435.672-.9,1.328-1.39,1.962a.871.871,0,0,1-1.094.361A.942.942,0,0,1,3694.56,2593.6Z" transform="translate(-33.232 -177.223)" fill="#fefefe"/>
        <path id="Path_878389" data-name="Path 878389" d="M3806.5,2593.642a1.8,1.8,0,0,1,.469-1.073c.583-.844,1.518-1.64,1.646-2.549.133-.939-.985-1.7-1.522-2.553-.326-.521-.428-1.02.086-1.46a.919.919,0,0,1,1.237-.017,3.426,3.426,0,0,1,.59.753c1,1.434,1,1.435,2.016.071.768-1.033,1.372-1.316,1.9-.816.817.778.114,1.408-.3,2.013-1.331,1.93-1.343,1.923-.015,3.839.255.369.506.742.774,1.1a.954.954,0,0,1-.156,1.445c-.542.45-1.035.2-1.413-.268-.4-.5-.758-1.034-1.127-1.558-.644-.914-.64-.914-1.256-.04-.406.576-.8,1.167-1.24,1.713a.841.841,0,0,1-1.113.273A.9.9,0,0,1,3806.5,2593.642Z" transform="translate(-123.579 -177.2)" fill="#fefefe"/>
        <path id="Path_878390" data-name="Path 878390" d="M3738.517,2590.342c0-1.092.007-2.183,0-3.274-.007-.692.269-1.126,1.007-1.106.686.018.94.446.939,1.086,0,1.637.024,3.275-.012,4.912-.014.632.193.886.826.812a2.589,2.589,0,0,1,.765.039.942.942,0,0,1,.817.938.861.861,0,0,1-.669.94,6.471,6.471,0,0,1-2.948.029c-.538-.11-.737-.548-.728-1.1C3738.529,2592.526,3738.517,2591.434,3738.517,2590.342Z" transform="translate(-68.705 -177.365)" fill="#fefefd"/>
        <path id="Path_878391" data-name="Path 878391" d="M3678.73,2621.4c.564.137.975.4.944,1.035a.965.965,0,1,1-1.929-.073C3677.767,2621.743,3678.191,2621.491,3678.73,2621.4Z" transform="translate(-19.661 -205.965)" fill="#fbfdfa"/>
      </g>
    </g>
  </g>
</svg>
