<svg xmlns="http://www.w3.org/2000/svg" width="70" height="70" viewBox="0 0 70 70">
  <g id="Group_1102530" data-name="Group 1102530" transform="translate(-269 -958)">
    <circle id="Ellipse_5614" data-name="Ellipse 5614" cx="35" cy="35" r="35" transform="translate(269 958)" fill="#fff"/>
    <g id="Group_1103994" data-name="Group 1103994" transform="translate(-3392.89 -1383.27)">
      <path id="Path_878159" data-name="Path 878159" d="M3715.342,2374.266h-3.178v-.9c0-5.145-.011-10.29.014-15.435,0-.646-.141-.861-.83-.859q-14.906.034-29.811.015h-.848v7.323h-3.228v-10.526h37.881Z" fill="#065564"/>
      <path id="Path_878160" data-name="Path 878160" d="M3790.971,2551.612a1.829,1.829,0,0,1,1.93,1.9c.02.356-.007.709.468.822.457.109.9.577,1.358.006a2.048,2.048,0,0,1,2.081-.526,1.084,1.084,0,0,1,.592.391c.557.651,1.109,1.309,1.608,2a2.314,2.314,0,0,1,.319.956,1.681,1.681,0,0,1-.85,1.765c-.968.68-.906,1.317.128,1.933.661.393,1.336.757,1.289,1.67a2.943,2.943,0,0,1-.182,1.113,19.612,19.612,0,0,1-1.06,1.743,1.936,1.936,0,0,1-2.91.687,1.407,1.407,0,0,0-.919-.122c-.507.108-.526.549-.443.968a1.715,1.715,0,0,1-.821,1.992,1.928,1.928,0,0,1-.736.311c-.927.095-1.859.155-2.79.2-.61.028-1.552-1.035-1.53-1.769.017-.6-.116-1.074-.775-1.112a1.577,1.577,0,0,0-.973.3c-.535.412-1.043.837-1.761.566a2.644,2.644,0,0,1-.983-.576c-.484-.509-.857-1.123-1.332-1.642a2.038,2.038,0,0,1-.528-1.576,1.448,1.448,0,0,1,.627-1.2c1.163-.9,1.088-1.586-.271-2.2a1.559,1.559,0,0,1-1.063-1.315,2.364,2.364,0,0,1,.116-1.078c.3-.719.681-1.4,1.031-2.1a1.852,1.852,0,0,1,2.5-.844c.446.206.839.637,1.434.179.367-.283.572-.531.47-.982a1.824,1.824,0,0,1,.891-2.045,1.368,1.368,0,0,1,.595-.257C3789.26,2551.7,3790.042,2551.668,3790.971,2551.612Zm-.495,5.288a3.607,3.607,0,1,0,3.605,3.593A3.616,3.616,0,0,0,3790.477,2556.9Z" transform="translate(-88.234 -167.798)" fill="#065564"/>
      <path id="Path_878161" data-name="Path 878161" d="M3813.537,2489.161c.2-.013.4-.023.6-.039,1.6-.127,2.374.563,2.509,2.167a.88.88,0,0,0,.418.65c.441.158.844.694,1.428.173a2.953,2.953,0,0,1,1.279-.673,1.9,1.9,0,0,1,2.2,1.017,5.916,5.916,0,0,0,.944,1.178,1.908,1.908,0,0,1,.6,1.907,1.855,1.855,0,0,1-.536,1.057c-1.5.968-1.389,1.976.221,2.705a1.631,1.631,0,0,1,.929,1.267,1.859,1.859,0,0,1-.284,1.69,7.484,7.484,0,0,0-.994,1.6,2.142,2.142,0,0,1-2.067,1.217.853.853,0,0,1-1.019-.964,1.951,1.951,0,0,0-.611-1.691c-.194-.2-.338-.44-.528-.642a2.588,2.588,0,0,1-.815-2.695,3.626,3.626,0,0,0-2.627-4.135,3.8,3.8,0,0,0-4.589,1.947.907.907,0,0,1-.952.633,16.615,16.615,0,0,0-2.261.145,1.613,1.613,0,0,0-.766.4,1.459,1.459,0,0,1-2.063-.358,2.136,2.136,0,0,1-.044-2.22,14.6,14.6,0,0,0,.893-1.747,2.038,2.038,0,0,1,3.112-1.009c1.054.522,1.826.04,1.775-1.109-.072-1.621.679-2.41,2.334-2.447.3-.007.6,0,.907,0Z" transform="translate(-107.571 -114.755)" fill="#065564"/>
      <path id="Path_878162" data-name="Path 878162" d="M3693.111,2421.563c1.125-.058,1.433.181,1.628,1.1a.7.7,0,0,0,1.134.436c.851-.576,1.293-.514,1.97.275.213.249.438.488.637.747a1.129,1.129,0,0,1-.149,1.6c-.639.6-.618.876.1,1.311.876.531,1,1.031.492,1.919-.139.24-.282.477-.422.716a1.155,1.155,0,0,1-1.733.547c-.588-.284-.839-.132-.846.514-.012,1.057-.251,1.325-1.33,1.481-.3.043-.6.082-.9.1a1.132,1.132,0,0,1-1.329-1.008c-.169-.775-.52-.909-1.122-.429-.725.577-1.2.535-1.79-.163-.244-.288-.494-.571-.726-.869a1.166,1.166,0,0,1,.146-1.66c.539-.5.5-.871-.127-1.2-.939-.493-1.069-.884-.625-1.866q.155-.344.311-.687c.4-.885.862-1.07,1.784-.722.6.225.973.011.991-.562.037-1.167.269-1.419,1.422-1.544C3692.852,2421.574,3693.079,2421.566,3693.111,2421.563Zm.279,7.542a2.177,2.177,0,1,0-2.156-2.177A2.217,2.217,0,0,0,3693.39,2429.1Z" transform="translate(-8.837 -57.426)" fill="#065564"/>
      <path id="Path_878163" data-name="Path 878163" d="M3746.232,2397.583q5.067,0,10.134,0c1.044,0,1.565.43,1.59,1.291.026.9-.521,1.42-1.563,1.421q-10.172.011-20.344,0c-1.007,0-1.548-.5-1.555-1.357-.007-.9.527-1.354,1.6-1.355Q3741.165,2397.581,3746.232,2397.583Z" transform="translate(-48.401 -37.082)" fill="#065564"/>
      <path id="Path_878164" data-name="Path 878164" d="M3744.864,2492.651c-.331-.028-.612-.314-.7-.824-.089-.526-.37-.64-.784-.31a.9.9,0,0,1-1.427-.107c-.788-.912-1.015-1.3-.346-1.967.389-.387.214-.681-.219-.861-.683-.284-.7-.753-.44-1.347.524-1.187.516-1.185,1.777-1.044.429.048.589-.194.557-.6-.057-.716.368-.986.992-1.058,1.169-.134,1.534.006,1.691.725.135.621.461.636.916.377.742-.422.949-.347,1.72.564.449.53.615,1.016,0,1.547-.4.343-.274.657.149.887a.9.9,0,0,1,.442,1.367c-.631,1.2-.837,1.317-1.711,1.055-.167-.05-.532.057-.575.175C3746.413,2492.6,3746.394,2492.629,3744.864,2492.651Zm.117-5.715a1.59,1.59,0,0,0-1.626,1.618,1.634,1.634,0,1,0,3.266-.005A1.616,1.616,0,0,0,3744.981,2486.936Z" transform="translate(-53.748 -110.836)" fill="#065564"/>
      <path id="Path_878165" data-name="Path 878165" d="M3812.412,2442.42c-1.586,0-3.172.005-4.757,0-1.012-.005-1.524-.475-1.517-1.362.008-.858.556-1.359,1.547-1.362q4.757-.013,9.515,0c1,0,1.543.492,1.556,1.354.014.894-.527,1.368-1.587,1.372C3815.584,2442.425,3814,2442.421,3812.412,2442.42Z" transform="translate(-109.203 -72.814)" fill="#065564"/>
      <path id="Path_878166" data-name="Path 878166" d="M3679.742,2506.865a10.447,10.447,0,0,1,.274-1.329,1.21,1.21,0,0,1,1.177-.89,1.2,1.2,0,0,1,1.221.827,3.852,3.852,0,0,1-.006,2.793,1.194,1.194,0,0,1-1.23.81,1.17,1.17,0,0,1-1.174-.884A11.42,11.42,0,0,1,3679.742,2506.865Zm2.351-.01a3.1,3.1,0,0,0-.13-1.03c-.144-.29-.486-.662-.743-.664a1,1,0,0,0-.717.666,6.944,6.944,0,0,0-.005,2.083,1.006,1.006,0,0,0,.734.656c.254,0,.593-.381.736-.673A3.166,3.166,0,0,0,3682.093,2506.855Z" transform="translate(-1.936 -127.941)" fill="#065564"/>
      <path id="Path_878167" data-name="Path 878167" d="M3705.768,2598.455a4.659,4.659,0,0,1-.4,1.489,1.68,1.68,0,0,1-1.178.7,1.483,1.483,0,0,1-1.073-.747,3.119,3.119,0,0,1,0-2.831,1.573,1.573,0,0,1,1.141-.755,1.7,1.7,0,0,1,1.144.748A4.217,4.217,0,0,1,3705.768,2598.455Zm-.622.056a3.978,3.978,0,0,0-.165-1.169,1.1,1.1,0,0,0-.75-.577.87.87,0,0,0-.647.567,10.635,10.635,0,0,0-.005,2.295.883.883,0,0,0,.649.583,1.128,1.128,0,0,0,.749-.586A3.636,3.636,0,0,0,3705.145,2598.511Z" transform="translate(-21.491 -205.736)" fill="#065564"/>
      <path id="Path_878168" data-name="Path 878168" d="M3744.6,2549.859a4.053,4.053,0,0,1,.309-1.36,2.16,2.16,0,0,1,1.126-.828,1,1,0,0,1,1.194.708,3.84,3.84,0,0,1,0,2.944,1.162,1.162,0,0,1-1.211.729,1.139,1.139,0,0,1-1.14-.83A10.939,10.939,0,0,1,3744.6,2549.859Zm.619-.051a3.277,3.277,0,0,0,.123,1.079,1.254,1.254,0,0,0,.759.667c.211.03.666-.365.7-.608a8.86,8.86,0,0,0-.018-2.242c-.031-.229-.477-.538-.749-.555-.214-.013-.549.324-.657.58A3.955,3.955,0,0,0,3745.223,2549.809Z" transform="translate(-56.981 -164.423)" fill="#065564"/>
      <path id="Path_878169" data-name="Path 878169" d="M3744.56,2646.5a4.306,4.306,0,0,1,.336-1.36,2.043,2.043,0,0,1,1.074-.766.993.993,0,0,1,1.211.659,3.463,3.463,0,0,1-.025,2.98,1.516,1.516,0,0,1-1.175.688,1.725,1.725,0,0,1-1.112-.8A4.241,4.241,0,0,1,3744.56,2646.5Zm.628.056a3.418,3.418,0,0,0,.125,1.042c.126.282.467.676.682.657a1.041,1.041,0,0,0,.767-.634,7.794,7.794,0,0,0,0-2.167.928.928,0,0,0-.7-.6,1.227,1.227,0,0,0-.751.656A3.146,3.146,0,0,0,3745.188,2646.553Z" transform="translate(-56.944 -246.485)" fill="#065564"/>
      <path id="Path_878170" data-name="Path 878170" d="M3684.493,2549.926a13.038,13.038,0,0,1-.28,1.315,1.162,1.162,0,0,1-1.2.846,1.053,1.053,0,0,1-1.178-.854,10.425,10.425,0,0,1-.026-2.6,1.124,1.124,0,0,1,1.262-.961,1.2,1.2,0,0,1,1.188.977C3684.368,2549.059,3684.414,2549.485,3684.493,2549.926Zm-2.353-.107a4.1,4.1,0,0,0,.153,1.181,1.115,1.115,0,0,0,.736.594.862.862,0,0,0,.674-.526,11.3,11.3,0,0,0,0-2.362c-.022-.211-.448-.525-.688-.525a.994.994,0,0,0-.692.536A3.952,3.952,0,0,0,3682.141,2549.819Z" transform="translate(-3.628 -164.458)" fill="#065564"/>
      <path id="Path_878171" data-name="Path 878171" d="M3680.635,2598.368a3.781,3.781,0,0,1,.333-1.346,1.709,1.709,0,0,1,1.179-.717,1.339,1.339,0,0,1,1.06.735,9.45,9.45,0,0,1,.107,2.658,1.134,1.134,0,0,1-1.249.989,1.205,1.205,0,0,1-1.238-1.018C3680.733,2599.281,3680.707,2598.878,3680.635,2598.368Zm.566-.022a4.5,4.5,0,0,0,.16,1.237,1.218,1.218,0,0,0,.735.624.816.816,0,0,0,.647-.478,14.464,14.464,0,0,0,0-2.508c-.016-.187-.429-.469-.661-.47a.909.909,0,0,0-.658.478A4.633,4.633,0,0,0,3681.2,2598.347Z" transform="translate(-2.693 -205.729)" fill="#065564"/>
      <path id="Path_878172" data-name="Path 878172" d="M3680.578,2646.8a4.291,4.291,0,0,1,.365-1.391,1.548,1.548,0,0,1,1.123-.657c.382.008,1.024.385,1.081.689a9.641,9.641,0,0,1,.1,2.727,1.112,1.112,0,0,1-1.274.944,1.191,1.191,0,0,1-1.179-.989C3680.691,2647.734,3680.66,2647.33,3680.578,2646.8Zm2.379.105a3.962,3.962,0,0,0-.2-1.1c-.132-.265-.469-.591-.715-.592a.938.938,0,0,0-.716.575,8.787,8.787,0,0,0,0,2.229.956.956,0,0,0,.717.6c.243,0,.578-.341.713-.612A4,4,0,0,0,3682.958,2646.9Z" transform="translate(-2.645 -246.84)" fill="#065564"/>
      <path id="Path_878173" data-name="Path 878173" d="M3725.274,2598.365a4.359,4.359,0,0,1,.381-1.416,1.582,1.582,0,0,1,1.136-.66,1.512,1.512,0,0,1,1.09.729,3.211,3.211,0,0,1,0,2.85,1.556,1.556,0,0,1-1.152.755,1.655,1.655,0,0,1-1.139-.765A4.556,4.556,0,0,1,3725.274,2598.365Zm.582.095a4.476,4.476,0,0,0,.18,1.158c.11.256.464.59.68.57a.98.98,0,0,0,.727-.591,9.908,9.908,0,0,0,0-2.3.875.875,0,0,0-.671-.551,1.115,1.115,0,0,0-.738.583A3.833,3.833,0,0,0,3725.856,2598.459Z" transform="translate(-40.577 -205.715)" fill="#065564"/>
      <path id="Path_878174" data-name="Path 878174" d="M3704.65,2504.819l1.717-1.512c0,1.586.007,2.931-.014,4.276,0,.1-.2.2-.312.3-.08-.13-.227-.26-.229-.392-.02-.929-.011-1.859-.011-2.87l-.974.423Z" transform="translate(-23.074 -126.805)" fill="#065564"/>
      <path id="Path_878175" data-name="Path 878175" d="M3775.792,2643.609l-.971.486-.179-.2,1.513-1.4.2.076c0,1.342.007,2.684-.014,4.025,0,.1-.2.2-.309.3-.081-.129-.227-.256-.233-.388-.026-.628-.012-1.257-.013-1.885C3775.792,2644.314,3775.792,2644.014,3775.792,2643.609Z" transform="translate(-82.473 -244.922)" fill="#065564"/>
      <path id="Path_878176" data-name="Path 878176" d="M3724.733,2645.458l1.5-1.341.216.069q0,1.256,0,2.513c0,.453.022.908-.014,1.359-.011.148-.173.285-.266.427-.094-.145-.266-.287-.27-.435-.025-.9-.013-1.809-.013-2.816l-.971.438Z" transform="translate(-40.118 -246.304)" fill="#065564"/>
      <path id="Path_878177" data-name="Path 878177" d="M3726.311,2551.028c-.1-.192-.274-.381-.28-.576-.03-.891-.013-1.785-.013-2.757l-.957.46-.17-.193,1.612-1.522v4.488Z" transform="translate(-40.251 -163.41)" fill="#065564"/>
      <path id="Path_878178" data-name="Path 878178" d="M3752.406,2595.761c0,1.3.007,2.6-.011,3.9,0,.122-.164.241-.252.362-.08-.129-.226-.257-.229-.388-.02-.925-.011-1.85-.011-2.875l-.92.435-.148-.144c.242-.655,1-.846,1.348-1.408Z" transform="translate(-62.268 -205.171)" fill="#065564"/>
      <path id="Path_878179" data-name="Path 878179" d="M3705.606,2548.872l1.41-1.366.228.052q0,.872,0,1.744c0,.679.017,1.359-.012,2.037a1.66,1.66,0,0,1-.241.541c-.088-.174-.247-.345-.252-.521-.026-.894-.012-1.789-.012-2.769l-.952.463Z" transform="translate(-23.885 -164.315)" fill="#065564"/>
      <path id="Path_878180" data-name="Path 878180" d="M3705.506,2645.587l1.438-1.306.215.055q0,.95,0,1.9c0,.655.015,1.311-.016,1.965-.007.142-.182.276-.28.414-.073-.137-.208-.272-.211-.41-.019-.921-.01-1.842-.01-2.849l-.965.451Z" transform="translate(-23.801 -246.443)" fill="#065564"/>
    </g>
  </g>
</svg>
