<svg xmlns="http://www.w3.org/2000/svg" width="108" height="108" viewBox="0 0 108 108">
  <g id="Group_1107079" data-name="Group 1107079" transform="translate(-1218.711 -8270.913)">
    <circle id="Ellipse_11576" data-name="Ellipse 11576" cx="54" cy="54" r="54" transform="translate(1218.711 8270.913)" fill="#fff"/>
    <g id="Group_1102641" data-name="Group 1102641" transform="translate(1235.836 8288.765)">
      <rect id="Rectangle_401104" data-name="Rectangle 401104" width="72" height="73" transform="translate(-0.125 -0.765)" fill="none"/>
      <g id="Group_1102956" data-name="Group 1102956" transform="translate(-135.807 -241.667)">
        <g id="Group_1102902" data-name="Group 1102902" transform="translate(140.682 243.543)">
          <path id="Rectangle_403670" data-name="Rectangle 403670" d="M2.246,0H61.033a2.245,2.245,0,0,1,2.245,2.245V43.756A2.246,2.246,0,0,1,61.032,46H2.246A2.246,2.246,0,0,1,0,43.756V2.246A2.246,2.246,0,0,1,2.246,0Z" fill="#8b8186"/>
        </g>
        <g id="Group_1102903" data-name="Group 1102903" transform="translate(141.512 244.373)">
          <path id="Path_877561" data-name="Path 877561" d="M142.928,244.373h58.787a1.42,1.42,0,0,1,1.415,1.416v38.856H141.512V245.789A1.42,1.42,0,0,1,142.928,244.373Z" transform="translate(-141.512 -244.373)" fill="#f4f4f6" fill-rule="evenodd"/>
        </g>
        <g id="Group_1102904" data-name="Group 1102904" transform="translate(143.895 247.207)">
          <rect id="Rectangle_403671" data-name="Rectangle 403671" width="56.853" height="34.725" fill="#a4dae4"/>
        </g>
        <g id="Group_1102905" data-name="Group 1102905" transform="translate(143.895 247.207)">
          <rect id="Rectangle_403672" data-name="Rectangle 403672" width="56.853" height="6.115" fill="#14afbe"/>
        </g>
        <g id="Group_1102906" data-name="Group 1102906" transform="translate(146.118 255.352)">
          <rect id="Rectangle_403673" data-name="Rectangle 403673" width="52.405" height="23.451" fill="#f4f4f6"/>
        </g>
        <g id="Group_1102907" data-name="Group 1102907" transform="translate(141.512 284.645)">
          <path id="Path_877562" data-name="Path 877562" d="M141.512,284.645H203.13V287.3a1.42,1.42,0,0,1-1.415,1.416H142.928a1.42,1.42,0,0,1-1.416-1.416Z" transform="translate(-141.512 -284.645)" fill="#8b8186" fill-rule="evenodd"/>
        </g>
        <g id="Group_1102908" data-name="Group 1102908" transform="translate(159.982 257.379)">
          <rect id="Rectangle_403674" data-name="Rectangle 403674" width="11.51" height="8.041" fill="#01899c"/>
        </g>
        <g id="Group_1102909" data-name="Group 1102909" transform="translate(159.982 266.348)">
          <rect id="Rectangle_403675" data-name="Rectangle 403675" width="11.51" height="1.625" fill="#01899c"/>
        </g>
        <g id="Group_1102910" data-name="Group 1102910" transform="translate(185.887 257.379)">
          <rect id="Rectangle_403676" data-name="Rectangle 403676" width="10.98" height="8.041" fill="#a01f4e"/>
        </g>
        <g id="Group_1102911" data-name="Group 1102911" transform="translate(185.887 266.348)">
          <rect id="Rectangle_403677" data-name="Rectangle 403677" width="10.98" height="1.625" fill="#a01f4e"/>
        </g>
        <g id="Group_1102915" data-name="Group 1102915" transform="translate(147.707 257.379)">
          <g id="Group_1102912" data-name="Group 1102912">
            <rect id="Rectangle_403678" data-name="Rectangle 403678" width="10.98" height="8.041" fill="#00d5e4"/>
          </g>
          <g id="Group_1102913" data-name="Group 1102913" transform="translate(0 8.969)">
            <rect id="Rectangle_403679" data-name="Rectangle 403679" width="10.98" height="1.625" fill="#00d5e4"/>
          </g>
          <g id="Group_1102914" data-name="Group 1102914" transform="translate(2.62 1.224)">
            <path id="Path_877563" data-name="Path 877563" d="M156.227,258.6v1.483l-4.064,1.686,4.064,1.706v1.486l-5.9-2.551v-1.289Z" transform="translate(-150.327 -258.603)" fill="#f4f4f6"/>
          </g>
        </g>
        <g id="Group_1102916" data-name="Group 1102916" transform="translate(187.861 258.71)">
          <path id="Path_877564" data-name="Path 877564" d="M191.55,261.081h2.371V262.4H191.55v2.373h-1.318V262.4h-2.371v-1.317h2.371V258.71h1.318Z" transform="translate(-187.861 -258.71)" fill="#f4f4f6"/>
        </g>
        <g id="Group_1102917" data-name="Group 1102917" transform="translate(172.95 257.379)">
          <rect id="Rectangle_403680" data-name="Rectangle 403680" width="11.643" height="8.041" fill="#01899c"/>
        </g>
        <g id="Group_1102918" data-name="Group 1102918" transform="translate(172.95 266.348)">
          <rect id="Rectangle_403681" data-name="Rectangle 403681" width="11.643" height="1.625" fill="#01899c"/>
        </g>
        <g id="Group_1102925" data-name="Group 1102925" transform="translate(147.707 269.316)">
          <g id="Group_1102919" data-name="Group 1102919">
            <rect id="Rectangle_403682" data-name="Rectangle 403682" width="10.842" height="1.17" fill="#a4dae4"/>
          </g>
          <g id="Group_1102920" data-name="Group 1102920" transform="translate(0 2.074)">
            <rect id="Rectangle_403683" data-name="Rectangle 403683" width="3.6" height="1.17" fill="#a4dae4"/>
          </g>
          <g id="Group_1102921" data-name="Group 1102921" transform="translate(0 4.123)">
            <rect id="Rectangle_403684" data-name="Rectangle 403684" width="10.842" height="1.17" fill="#a4dae4"/>
          </g>
          <g id="Group_1102922" data-name="Group 1102922" transform="translate(0 6.197)">
            <rect id="Rectangle_403685" data-name="Rectangle 403685" width="10.842" height="1.17" fill="#a4dae4"/>
          </g>
          <g id="Group_1102923" data-name="Group 1102923" transform="translate(7.199 2.074)">
            <rect id="Rectangle_403686" data-name="Rectangle 403686" width="3.642" height="1.17" fill="#a4dae4"/>
          </g>
          <g id="Group_1102924" data-name="Group 1102924" transform="translate(3.948 2.074)">
            <rect id="Rectangle_403687" data-name="Rectangle 403687" width="2.86" height="1.17" fill="#c2c2c8"/>
          </g>
        </g>
        <g id="Group_1102932" data-name="Group 1102932" transform="translate(159.982 269.316)">
          <g id="Group_1102926" data-name="Group 1102926">
            <rect id="Rectangle_403688" data-name="Rectangle 403688" width="11.51" height="1.17" fill="#a4dae4"/>
          </g>
          <g id="Group_1102927" data-name="Group 1102927" transform="translate(0 2.074)">
            <rect id="Rectangle_403689" data-name="Rectangle 403689" width="11.51" height="1.17" fill="#a4dae4"/>
          </g>
          <g id="Group_1102928" data-name="Group 1102928" transform="translate(0 6.197)">
            <rect id="Rectangle_403690" data-name="Rectangle 403690" width="11.51" height="1.17" fill="#a4dae4"/>
          </g>
          <g id="Group_1102929" data-name="Group 1102929" transform="translate(0 4.123)">
            <rect id="Rectangle_403691" data-name="Rectangle 403691" width="3.123" height="1.17" fill="#a4dae4"/>
          </g>
          <g id="Group_1102930" data-name="Group 1102930" transform="translate(6.246 4.123)">
            <rect id="Rectangle_403692" data-name="Rectangle 403692" width="5.264" height="1.17" fill="#a4dae4"/>
          </g>
          <g id="Group_1102931" data-name="Group 1102931" transform="translate(3.425 4.123)">
            <rect id="Rectangle_403693" data-name="Rectangle 403693" width="2.481" height="1.17" fill="#c2c2c8"/>
          </g>
        </g>
        <g id="Group_1102939" data-name="Group 1102939" transform="translate(172.95 269.316)">
          <g id="Group_1102933" data-name="Group 1102933">
            <rect id="Rectangle_403694" data-name="Rectangle 403694" width="11.511" height="1.17" fill="#a4dae4"/>
          </g>
          <g id="Group_1102934" data-name="Group 1102934" transform="translate(0 2.074)">
            <rect id="Rectangle_403695" data-name="Rectangle 403695" width="11.511" height="1.17" fill="#a4dae4"/>
          </g>
          <g id="Group_1102935" data-name="Group 1102935" transform="translate(0 6.197)">
            <rect id="Rectangle_403696" data-name="Rectangle 403696" width="11.511" height="1.17" fill="#a4dae4"/>
          </g>
          <g id="Group_1102936" data-name="Group 1102936" transform="translate(0 4.123)">
            <rect id="Rectangle_403697" data-name="Rectangle 403697" width="3.123" height="1.17" fill="#a4dae4"/>
          </g>
          <g id="Group_1102937" data-name="Group 1102937" transform="translate(6.247 4.123)">
            <rect id="Rectangle_403698" data-name="Rectangle 403698" width="5.264" height="1.17" fill="#a4dae4"/>
          </g>
          <g id="Group_1102938" data-name="Group 1102938" transform="translate(3.425 4.123)">
            <rect id="Rectangle_403699" data-name="Rectangle 403699" width="2.482" height="1.17" fill="#c2c2c8"/>
          </g>
        </g>
        <g id="Group_1102946" data-name="Group 1102946" transform="translate(185.887 269.316)">
          <g id="Group_1102940" data-name="Group 1102940">
            <rect id="Rectangle_403700" data-name="Rectangle 403700" width="10.843" height="1.17" fill="#a4dae4"/>
          </g>
          <g id="Group_1102941" data-name="Group 1102941" transform="translate(0 2.074)">
            <rect id="Rectangle_403701" data-name="Rectangle 403701" width="3.6" height="1.17" fill="#a4dae4"/>
          </g>
          <g id="Group_1102942" data-name="Group 1102942" transform="translate(0 4.123)">
            <rect id="Rectangle_403702" data-name="Rectangle 403702" width="10.843" height="1.17" fill="#a4dae4"/>
          </g>
          <g id="Group_1102943" data-name="Group 1102943" transform="translate(0 6.197)">
            <rect id="Rectangle_403703" data-name="Rectangle 403703" width="10.843" height="1.17" fill="#a4dae4"/>
          </g>
          <g id="Group_1102944" data-name="Group 1102944" transform="translate(7.199 2.074)">
            <rect id="Rectangle_403704" data-name="Rectangle 403704" width="3.644" height="1.17" fill="#a4dae4"/>
          </g>
          <g id="Group_1102945" data-name="Group 1102945" transform="translate(3.947 2.074)">
            <rect id="Rectangle_403705" data-name="Rectangle 403705" width="2.861" height="1.17" fill="#c2c2c8"/>
          </g>
        </g>
        <g id="Group_1102955" data-name="Group 1102955" transform="translate(143.584 240.903)">
          <g id="Group_1102947" data-name="Group 1102947" transform="translate(0 34.999)">
            <path id="Path_877565" data-name="Path 877565" d="M183.433,279.572c10.042,4.332,16.491,7.67,17.625,20.389-4.564,8.141-15.456,14.8-28.738,14.793-13.281.01-24.174-6.652-28.736-14.793,1.134-12.719,7.583-16.057,17.625-20.389l.305-.134,1.213-.532a36.463,36.463,0,0,1,9.593-3,36.459,36.459,0,0,1,9.594,3l1.213.532Z" transform="translate(-143.584 -275.902)" fill="#34054d" fill-rule="evenodd"/>
          </g>
          <g id="Group_1102948" data-name="Group 1102948" transform="translate(39.73 19.642)">
            <path id="Path_877566" data-name="Path 877566" d="M184.273,260.545l-.008.012s0,0,0,0l-.947,7.133c1.637.682,2.883-3.48,2.934-4.912a1.918,1.918,0,0,0-1.809-2.236Z" transform="translate(-183.314 -260.545)" fill="#eab587" fill-rule="evenodd"/>
          </g>
          <g id="Group_1102949" data-name="Group 1102949" transform="translate(14.92 19.058)">
            <path id="Path_877567" data-name="Path 877567" d="M160.48,259.961l.009.012c-.005,0-.005,0,0,0l.946,7.13c-1.637.684-2.882-3.478-2.933-4.91a1.917,1.917,0,0,1,1.809-2.236Z" transform="translate(-158.504 -259.961)" fill="#eab587" fill-rule="evenodd"/>
          </g>
          <g id="Group_1102950" data-name="Group 1102950" transform="translate(21.021 28.585)">
            <path id="Path_877568" data-name="Path 877568" d="M164.6,269.488h15.431V278.8c-5.143,4.088-10.287,4.25-15.431,0Z" transform="translate(-164.605 -269.488)" fill="#dfab7e" fill-rule="evenodd"/>
          </g>
          <g id="Group_1102951" data-name="Group 1102951" transform="translate(15.966)">
            <path id="Path_877569" data-name="Path 877569" d="M160.252,260.514h0l1.285,7.134c2.371,6.352,5.562,9.938,10.783,11.207,5.351-1.224,8.593-4.769,11-11.207l1.721-6.724c.025-.09.049-.182.069-.274.848-3.867,1.363-7.138.431-10.687-2.917-6.807-16.693-10.016-23.314-8.811-3.5,5.881-2.821,12.038-2.068,18.864h0Z" transform="translate(-159.55 -240.903)" fill="#5e3b29" fill-rule="evenodd"/>
          </g>
          <g id="Group_1102952" data-name="Group 1102952" transform="translate(18.537 36.351)">
            <path id="Path_877570" data-name="Path 877570" d="M162.121,279.172l2.484-1.752c5.641,3.672,10.343,3.228,15.431-.166l2.484,1.918C177.361,286,166.218,284.988,162.121,279.172Z" transform="translate(-162.121 -277.254)" fill="#eff9fb" fill-rule="evenodd"/>
          </g>
          <g id="Group_1102953" data-name="Group 1102953" transform="translate(9.08 63.837)">
            <path id="Path_877571" data-name="Path 877571" d="M152.664,309.227c.4.283.859.511,1.281.775l-.03-5.262Z" transform="translate(-152.664 -304.74)" fill="#08426a" fill-rule="evenodd"/>
          </g>
          <g id="Group_1102954" data-name="Group 1102954" transform="translate(47.113 63.837)">
            <path id="Path_877572" data-name="Path 877572" d="M191.978,309.227c-.4.283-.859.511-1.281.775l.03-5.262Z" transform="translate(-190.697 -304.74)" fill="#08426a" fill-rule="evenodd"/>
          </g>
        </g>
      </g>
    </g>
  </g>
</svg>
