<svg xmlns="http://www.w3.org/2000/svg" xmlns:xlink="http://www.w3.org/1999/xlink" width="98.579" height="98.578" viewBox="0 0 98.579 98.578">
  <defs>
    <clipPath id="clip-path">
      <rect id="Rectangle_401223" data-name="Rectangle 401223" width="98.579" height="98.578" transform="translate(0)" fill="#bfa9fe"/>
    </clipPath>
    <clipPath id="clip-path-2">
      <rect id="Rectangle_401223-2" data-name="Rectangle 401223" width="88.117" height="88.116" fill="#d7c9fe"/>
    </clipPath>
  </defs>
  <g id="Group_1107084" data-name="Group 1107084" transform="translate(-396.711 -8829)">
    <g id="Group_1102648" data-name="Group 1102648" transform="translate(-524.623 8417.994)">
      <g id="Group_1099654" data-name="Group 1099654" transform="translate(921.333 411.006)">
        <g id="Group_1099652" data-name="Group 1099652" transform="translate(0 0)" clip-path="url(#clip-path)">
          <path id="Path_873521" data-name="Path 873521" d="M98.579,76.737a21.9,21.9,0,0,1-21.84,21.84H21.84A21.9,21.9,0,0,1,0,76.737V21.84A21.9,21.9,0,0,1,21.84,0h54.9a21.9,21.9,0,0,1,21.84,21.841Z" transform="translate(0)" fill="#bfa9fe"/>
        </g>
      </g>
      <g id="Group_1099659" data-name="Group 1099659" transform="translate(926.103 416.728)">
        <g id="Group_1099652-2" data-name="Group 1099652" transform="translate(0 0)" clip-path="url(#clip-path-2)">
          <path id="Path_873521-2" data-name="Path 873521" d="M88.117,68.594A19.58,19.58,0,0,1,68.595,88.116H19.523A19.58,19.58,0,0,1,0,68.594V19.522A19.58,19.58,0,0,1,19.523,0H68.595A19.58,19.58,0,0,1,88.117,19.523Z" fill="#d7c9fe"/>
        </g>
      </g>
    </g>
    <g id="Group_1102651" data-name="Group 1102651" transform="translate(411.652 8844.805)">
      <rect id="Rectangle_401104" data-name="Rectangle 401104" width="68" height="69" transform="translate(0.059 -0.804)" fill="none"/>
      <g id="Group_1102998" data-name="Group 1102998" transform="translate(-533.873 -413.167)">
        <g id="Group_1102996" data-name="Group 1102996" transform="translate(534.981 414.363)">
          <g id="Group_1102995" data-name="Group 1102995">
            <g id="Group_1102994" data-name="Group 1102994">
              <g id="Group_1102976" data-name="Group 1102976" transform="translate(20.961 61.82)">
                <path id="Path_877582" data-name="Path 877582" d="M555.663,464.52h21.771l.826,1.245v.623H554.837v-.623Z" transform="translate(-554.837 -464.52)" fill="#785b68" fill-rule="evenodd"/>
              </g>
              <g id="Group_1102993" data-name="Group 1102993">
                <g id="Group_1102977" data-name="Group 1102977" transform="translate(23.787 53.127)">
                  <rect id="Rectangle_403710" data-name="Rectangle 403710" width="17.77" height="8.692" fill="#785b68"/>
                </g>
                <g id="Group_1102978" data-name="Group 1102978" transform="translate(23.788 53.127)">
                  <path id="Path_877583" data-name="Path 877583" d="M562.956,464.978l-5.441-5.443v-3.249h17.77v8.692Z" transform="translate(-557.515 -456.285)" fill="#5a3445" fill-rule="evenodd"/>
                </g>
                <g id="Group_1102979" data-name="Group 1102979">
                  <rect id="Rectangle_403711" data-name="Rectangle 403711" width="65.345" height="56.377" rx="2.197" fill="#8b8186"/>
                </g>
                <g id="Group_1102980" data-name="Group 1102980" transform="translate(0.856 0.858)">
                  <path id="Path_877584" data-name="Path 877584" d="M537.255,415.176h60.706a1.6,1.6,0,0,1,1.463,1.692V463.34H535.792V416.868A1.6,1.6,0,0,1,537.255,415.176Z" transform="translate(-535.792 -415.176)" fill="#f4f4f6" fill-rule="evenodd"/>
                </g>
                <g id="Group_1102981" data-name="Group 1102981" transform="translate(3.317 3.783)">
                  <rect id="Rectangle_403712" data-name="Rectangle 403712" width="58.71" height="43.371" fill="#a4dae4"/>
                </g>
                <g id="Group_1102982" data-name="Group 1102982" transform="translate(3.318 3.783)">
                  <rect id="Rectangle_403713" data-name="Rectangle 403713" width="58.709" height="6.315" fill="#14afbe"/>
                </g>
                <g id="Group_1102983" data-name="Group 1102983" transform="translate(12.021 15.759)">
                  <rect id="Rectangle_403714" data-name="Rectangle 403714" width="41.303" height="22.605" fill="#f4f4f6"/>
                </g>
                <g id="Group_1102984" data-name="Group 1102984" transform="translate(0.856 51.317)">
                  <path id="Path_877585" data-name="Path 877585" d="M535.792,454.57h63.632v2.74a1.469,1.469,0,0,1-1.463,1.464H537.255a1.468,1.468,0,0,1-1.463-1.464Z" transform="translate(-535.792 -454.57)" fill="#8b8186" fill-rule="evenodd"/>
                </g>
                <g id="Group_1102985" data-name="Group 1102985" transform="translate(51.942 35.982)">
                  <path id="Path_877586" data-name="Path 877586" d="M590.224,448.779l.456-.475-1.922-1.846,1.259-1.31-2.916-1.056-2.823-1.024-.065-.061.018.045-.047-.017.065.063,1.136,2.78,1.173,2.872,1.286-1.341,1.922,1.846.456-.475Z" transform="translate(-584.186 -443.007)" fill="#5a3445" fill-rule="evenodd"/>
                </g>
                <g id="Group_1102989" data-name="Group 1102989" transform="translate(26.905 18.188)">
                  <rect id="Rectangle_403718" data-name="Rectangle 403718" width="25.335" height="2.699" transform="translate(0 0)" fill="#5a3577"/>
                </g>
                <g id="Group_1102990" data-name="Group 1102990" transform="translate(26.905 23.383)">
                  <rect id="Rectangle_403719" data-name="Rectangle 403719" width="25.335" height="3.113" transform="translate(0 0)" fill="#5a3577"/>
                </g>
                <g id="Group_1102991" data-name="Group 1102991" transform="translate(26.905 28.99)">
                  <rect id="Rectangle_403720" data-name="Rectangle 403720" width="25.335" height="3.061" transform="translate(0 0)" fill="#5a3577"/>
                </g>
                <g id="Group_1102992" data-name="Group 1102992" transform="translate(26.905 34.088)">
                  <rect id="Rectangle_403721" data-name="Rectangle 403721" width="13.189" height="2.361" transform="translate(0 0)" fill="#5a3577"/>
                </g>
              </g>
            </g>
          </g>
        </g>
        <g id="Group_1102997" data-name="Group 1102997" transform="translate(549.519 432.495)">
          <path id="Path_877587" data-name="Path 877587" d="M553.132,430.123h-4.379v-1.816h10.66v1.816h-4.4v14.722h-1.88Z" transform="translate(-548.753 -428.307)"/>
        </g>
      </g>
    </g>
  </g>
</svg>
