<svg xmlns="http://www.w3.org/2000/svg" width="70" height="70" viewBox="0 0 70 70">
  <g id="Group_1102529" data-name="Group 1102529" transform="translate(-269 -958)">
    <circle id="Ellipse_5614" data-name="Ellipse 5614" cx="35" cy="35" r="35" transform="translate(269 958)" fill="#fff"/>
    <g id="Group_1103992" data-name="Group 1103992" transform="translate(-3787.752 -1451.212)">
      <path id="Path_878107" data-name="Path 878107" d="M4135.664,2437.21c0,4.378.009,8.755-.01,13.133a1.557,1.557,0,0,0,.588,1.3,10.127,10.127,0,0,1,3.289,11.085c-1.286,4.33-4.408,6.791-8.851,7.456a10.573,10.573,0,0,1-7.932-18.649,1.713,1.713,0,0,0,.465-1.153c.026-8.584.014-17.169.023-25.754a6.242,6.242,0,0,1,4.732-6.3,6.171,6.171,0,0,1,7.685,5.83c.04,4.349.009,8.7.009,13.048Zm-3.729,1.312c0-4.662.007-9.325,0-13.987a2.429,2.429,0,0,0-2.482-2.648c-1.5.005-2.484,1.113-2.484,2.846q-.007,13.774.011,27.548a1.433,1.433,0,0,1-.849,1.513,6.4,6.4,0,0,0-3.43,5.1,6.812,6.812,0,1,0,9.921-5.2,1.12,1.12,0,0,1-.695-1.175C4131.945,2447.846,4131.936,2443.184,4131.935,2438.522Z" transform="translate(-38.977 0)" fill="#065564"/>
      <path id="Path_878108" data-name="Path 878108" d="M4244.418,2538.375c-1.533,0-3.067-.019-4.6.009-.7.012-.957-.264-.952-.959q.031-4.6,0-9.2c-.006-.747.294-1,1.013-1,3.038.019,6.077.025,9.116,0,.79-.007,1.037.3,1.031,1.063q-.04,4.558,0,9.118c.006.743-.272,1-1.005.986C4247.487,2538.349,4245.952,2538.375,4244.418,2538.375Zm.056-8.66c-.737,0-1.475-.016-2.212,0-.839.024-1.072.393-.7,1.154q1.1,2.254,2.245,4.482c.383.74.915.747,1.293.016q1.172-2.265,2.282-4.561c.35-.721.123-1.064-.693-1.091C4245.95,2529.7,4245.212,2529.715,4244.475,2529.714Z" transform="translate(-138.463 -90.482)" fill="#065564"/>
      <path id="Path_878109" data-name="Path 878109" d="M4250,2452.8c0,1.506-.022,3.011.01,4.516.015.713-.21,1.025-.974,1.018q-4.6-.044-9.2,0c-.75.006-.989-.293-.984-1.016q.037-4.559,0-9.118c-.008-.8.321-1.036,1.069-1.03,3.01.023,6.021.031,9.031,0,.845-.01,1.083.335,1.062,1.12C4249.976,2449.787,4250,2451.293,4250,2452.8Zm-5.537,3.082v0c.768,0,1.537.031,2.3-.009.673-.036.918-.436.629-1.034-.752-1.56-1.522-3.112-2.322-4.648-.349-.668-.923-.655-1.273.02q-1.176,2.267-2.29,4.566c-.329.683-.052,1.076.738,1.1C4242.988,2455.9,4243.728,2455.881,4244.467,2455.881Z" transform="translate(-138.453 -24.077)" fill="#065564"/>
      <path id="Path_878110" data-name="Path 878110" d="M4076.256,2532.018c-1.135,0-2.271,0-3.407,0-.459,0-.952-.108-.841-.668a1.065,1.065,0,0,1,.816-.6q3.448-.073,6.9,0a1.057,1.057,0,0,1,.8.613c.09.555-.4.654-.863.655Q4077.96,2532.02,4076.256,2532.018Z" transform="translate(-0.043 -93.38)" fill="#065564"/>
      <path id="Path_878111" data-name="Path 878111" d="M4076.121,2466.661c-1.134,0-2.27.035-3.4-.025a1,1,0,0,1-.759-.537c-.118-.5.288-.654.746-.653,2.353,0,4.707-.016,7.059.029.258.005.509.377.763.58-.25.2-.492.565-.752.578C4078.561,2466.695,4077.34,2466.661,4076.121,2466.661Z" transform="translate(0 -39.242)" fill="#065564"/>
      <path id="Path_878112" data-name="Path 878112" d="M4076.214,2597.736c-1.162,0-2.325,0-3.487,0-.455,0-.867-.139-.757-.645a.98.98,0,0,1,.75-.545q3.528-.063,7.058,0c.257,0,.508.371.761.569-.251.206-.493.574-.754.588C4078.6,2597.771,4077.4,2597.736,4076.214,2597.736Z" transform="translate(-0.01 -147.964)" fill="#065564"/>
      <path id="Path_878113" data-name="Path 878113" d="M4096.061,2498.249a12.383,12.383,0,0,1,1.774.026c.248.036.454.365.678.562-.216.208-.425.586-.653.6a34.837,34.837,0,0,1-3.553,0c-.235-.011-.453-.375-.679-.576.218-.2.415-.546.658-.582A12.334,12.334,0,0,1,4096.061,2498.249Z" transform="translate(-17.991 -66.435)" fill="#065564"/>
      <path id="Path_878114" data-name="Path 878114" d="M4096.071,2564.8a12.379,12.379,0,0,1-1.774-.028c-.245-.036-.444-.375-.664-.577.223-.2.438-.57.671-.582a35.069,35.069,0,0,1,3.554,0c.23.012.441.385.661.591-.224.2-.426.532-.674.568A12.3,12.3,0,0,1,4096.071,2564.8Z" transform="translate(-17.993 -120.632)" fill="#065564"/>
      <path id="Path_878115" data-name="Path 878115" d="M4152.362,2603.817h2.483c0,1.144.042,2.269-.015,3.389a1.244,1.244,0,0,0,.925,1.389,5.516,5.516,0,0,1,3.193,6.727,5.593,5.593,0,0,1-6.112,3.933,5.537,5.537,0,0,1-4.794-5.786,5.275,5.275,0,0,1,3.415-4.868,1.256,1.256,0,0,0,.918-1.4C4152.327,2606.105,4152.362,2605,4152.362,2603.817Z" transform="translate(-63.118 -154.02)" fill="#065564"/>
      <path id="Path_878116" data-name="Path 878116" d="M4175.868,2472.877h-2.4c-.016-.327-.043-.63-.043-.933q0-11.328,0-22.657a4.854,4.854,0,0,1,.056-.847c.11-.614.541-1.042,1.112-.938a2.91,2.91,0,0,1,1.228.829c.124.113.082.431.082.656q.006,11.626,0,23.253C4175.9,2472.432,4175.882,2472.624,4175.868,2472.877Z" transform="translate(-84.178 -24.346)" fill="#065564"/>
      <path id="Path_878117" data-name="Path 878117" d="M4266.063,2549.465l-1.451,2.886-1.445-2.886Z" transform="translate(-158.621 -108.936)" fill="#065564"/>
      <path id="Path_878118" data-name="Path 878118" d="M4263.166,2476.486l1.448-2.89,1.44,2.89Z" transform="translate(-158.62 -46.003)" fill="#065564"/>
    </g>
  </g>
</svg>
