<svg xmlns="http://www.w3.org/2000/svg" xmlns:xlink="http://www.w3.org/1999/xlink" width="124.605" height="125.948" viewBox="0 0 124.605 125.948">
  <defs>
    <clipPath id="clip-path">
      <rect id="Rectangle_400938" data-name="Rectangle 400938" width="117.278" height="117.278" fill="none"/>
    </clipPath>
    <clipPath id="clip-path-2">
      <path id="Path_873460" data-name="Path 873460" d="M0,1.307A1.349,1.349,0,0,0,1.389,2.613,1.349,1.349,0,0,0,2.778,1.307,1.349,1.349,0,0,0,1.389,0,1.349,1.349,0,0,0,0,1.307" transform="translate(0)" fill="#34054d"/>
    </clipPath>
    <clipPath id="clip-path-3">
      <path id="Path_873466" data-name="Path 873466" d="M0,1.307A1.349,1.349,0,0,0,1.39,2.613,1.349,1.349,0,0,0,2.778,1.307,1.349,1.349,0,0,0,1.39,0,1.349,1.349,0,0,0,0,1.307" fill="#34054d"/>
    </clipPath>
    <clipPath id="clip-path-4">
      <path id="Path_873467" data-name="Path 873467" d="M0,1.306A1.349,1.349,0,0,0,1.389,2.612,1.349,1.349,0,0,0,2.778,1.306,1.349,1.349,0,0,0,1.389,0,1.349,1.349,0,0,0,0,1.306" transform="translate(0 0)" fill="#34054d"/>
    </clipPath>
    <clipPath id="clip-path-5">
      <path id="Path_873468" data-name="Path 873468" d="M0,1.306A1.349,1.349,0,0,0,1.39,2.612,1.349,1.349,0,0,0,2.778,1.306,1.349,1.349,0,0,0,1.39,0,1.349,1.349,0,0,0,0,1.306" transform="translate(0 0)" fill="#34054d"/>
    </clipPath>
    <clipPath id="clip-path-6">
      <path id="Path_873469" data-name="Path 873469" d="M0,1.306A1.349,1.349,0,0,0,1.389,2.612,1.349,1.349,0,0,0,2.777,1.306,1.349,1.349,0,0,0,1.389,0,1.349,1.349,0,0,0,0,1.306" transform="translate(0 0)" fill="#34054d"/>
    </clipPath>
    <clipPath id="clip-path-9">
      <path id="Path_873473" data-name="Path 873473" d="M0,1.306A1.349,1.349,0,0,0,1.39,2.612,1.348,1.348,0,0,0,2.778,1.306,1.349,1.349,0,0,0,1.39,0,1.349,1.349,0,0,0,0,1.306" transform="translate(0 0)" fill="#34054d"/>
    </clipPath>
    <clipPath id="clip-path-22">
      <rect id="Rectangle_401492" data-name="Rectangle 401492" width="63.051" height="63.052" transform="translate(0 0)" fill="#fff" stroke="#707070" stroke-width="1"/>
    </clipPath>
  </defs>
  <g id="Group_1102533" data-name="Group 1102533" transform="translate(23060.281 3818.28)">
    <g id="Group_1100237" data-name="Group 1100237" transform="translate(-23054.037 -3797.84)">
      <g id="Group_1099505" data-name="Group 1099505" transform="translate(1.808 8.418)">
        <g id="Group_1099504" data-name="Group 1099504" transform="translate(0)" clip-path="url(#clip-path-2)">
          <rect id="Rectangle_401140" data-name="Rectangle 401140" width="2.777" height="2.613" transform="translate(0)" fill="#34054d"/>
        </g>
      </g>
      <g id="Group_1099517" data-name="Group 1099517" transform="translate(37.056 8.418)">
        <g id="Group_1099516" data-name="Group 1099516" transform="translate(0)" clip-path="url(#clip-path-3)">
          <rect id="Rectangle_401146" data-name="Rectangle 401146" width="2.778" height="2.613" transform="translate(0 0)" fill="#34054d"/>
        </g>
      </g>
      <g id="Group_1099519" data-name="Group 1099519" transform="translate(30.194 8.418)">
        <g id="Group_1099518" data-name="Group 1099518" transform="translate(0 0)" clip-path="url(#clip-path-4)">
          <rect id="Rectangle_401147" data-name="Rectangle 401147" width="2.778" height="2.612" transform="translate(0 0)" fill="#34054d"/>
        </g>
      </g>
      <g id="Group_1099521" data-name="Group 1099521" transform="translate(23.332 8.418)">
        <g id="Group_1099520" data-name="Group 1099520" transform="translate(0 0)" clip-path="url(#clip-path-5)">
          <rect id="Rectangle_401148" data-name="Rectangle 401148" width="2.778" height="2.612" transform="translate(0 0)" fill="#34054d"/>
        </g>
      </g>
      <g id="Group_1099523" data-name="Group 1099523" transform="translate(16.47 8.418)">
        <g id="Group_1099522" data-name="Group 1099522" transform="translate(0 0)" clip-path="url(#clip-path-6)">
          <rect id="Rectangle_401149" data-name="Rectangle 401149" width="2.777" height="2.612" transform="translate(0 0)" fill="#34054d"/>
        </g>
      </g>
      <g id="Group_1099525" data-name="Group 1099525" transform="translate(34.311 0)">
        <g id="Group_1099524" data-name="Group 1099524" clip-path="url(#clip-path-4)">
          <rect id="Rectangle_401150" data-name="Rectangle 401150" width="2.778" height="2.612" transform="translate(0 0)" fill="#34054d"/>
        </g>
      </g>
      <g id="Group_1099529" data-name="Group 1099529" transform="translate(27.448 0)">
        <g id="Group_1099528" data-name="Group 1099528" transform="translate(0)" clip-path="url(#clip-path-5)">
          <rect id="Rectangle_401152" data-name="Rectangle 401152" width="2.778" height="2.612" transform="translate(0 0)" fill="#34054d"/>
        </g>
      </g>
      <g id="Group_1099531" data-name="Group 1099531" transform="translate(13.724 0)">
        <g id="Group_1099530" data-name="Group 1099530" transform="translate(0)" clip-path="url(#clip-path-9)">
          <rect id="Rectangle_401153" data-name="Rectangle 401153" width="2.777" height="2.612" transform="translate(0 0)" fill="#34054d"/>
        </g>
      </g>
      <g id="Group_1099533" data-name="Group 1099533" transform="translate(6.862 0)">
        <g id="Group_1099532" data-name="Group 1099532" clip-path="url(#clip-path-4)">
          <rect id="Rectangle_401154" data-name="Rectangle 401154" width="2.778" height="2.612" transform="translate(0 0)" fill="#34054d"/>
        </g>
      </g>
      <g id="Group_1099535" data-name="Group 1099535" transform="translate(0 0)">
        <g id="Group_1099534" data-name="Group 1099534" transform="translate(0)" clip-path="url(#clip-path-5)">
          <rect id="Rectangle_401155" data-name="Rectangle 401155" width="2.778" height="2.612" transform="translate(0 0)" fill="#34054d"/>
        </g>
      </g>
    </g>
    <g id="Group_1100238" data-name="Group 1100238" transform="translate(-22980.652 -3724.455)">
      <g id="Group_1099505-2" data-name="Group 1099505" transform="translate(1.808 8.418)">
        <g id="Group_1099504-2" data-name="Group 1099504" transform="translate(0)" clip-path="url(#clip-path-2)">
          <rect id="Rectangle_401140-2" data-name="Rectangle 401140" width="2.777" height="2.613" transform="translate(0)" fill="#34054d"/>
        </g>
      </g>
      <g id="Group_1099517-2" data-name="Group 1099517" transform="translate(37.056 8.418)">
        <g id="Group_1099516-2" data-name="Group 1099516" transform="translate(0)" clip-path="url(#clip-path-3)">
          <rect id="Rectangle_401146-2" data-name="Rectangle 401146" width="2.778" height="2.613" transform="translate(0 0)" fill="#34054d"/>
        </g>
      </g>
      <g id="Group_1099519-2" data-name="Group 1099519" transform="translate(30.194 8.418)">
        <g id="Group_1099518-2" data-name="Group 1099518" transform="translate(0 0)" clip-path="url(#clip-path-4)">
          <rect id="Rectangle_401147-2" data-name="Rectangle 401147" width="2.778" height="2.612" transform="translate(0 0)" fill="#34054d"/>
        </g>
      </g>
      <g id="Group_1099521-2" data-name="Group 1099521" transform="translate(23.332 8.418)">
        <g id="Group_1099520-2" data-name="Group 1099520" transform="translate(0 0)" clip-path="url(#clip-path-5)">
          <rect id="Rectangle_401148-2" data-name="Rectangle 401148" width="2.778" height="2.612" transform="translate(0 0)" fill="#34054d"/>
        </g>
      </g>
      <g id="Group_1099523-2" data-name="Group 1099523" transform="translate(16.47 8.418)">
        <g id="Group_1099522-2" data-name="Group 1099522" transform="translate(0 0)" clip-path="url(#clip-path-6)">
          <rect id="Rectangle_401149-2" data-name="Rectangle 401149" width="2.777" height="2.612" transform="translate(0 0)" fill="#34054d"/>
        </g>
      </g>
      <g id="Group_1099525-2" data-name="Group 1099525" transform="translate(34.311 0)">
        <g id="Group_1099524-2" data-name="Group 1099524" clip-path="url(#clip-path-4)">
          <rect id="Rectangle_401150-2" data-name="Rectangle 401150" width="2.778" height="2.612" transform="translate(0 0)" fill="#34054d"/>
        </g>
      </g>
      <g id="Group_1099529-2" data-name="Group 1099529" transform="translate(27.448 0)">
        <g id="Group_1099528-2" data-name="Group 1099528" transform="translate(0)" clip-path="url(#clip-path-5)">
          <rect id="Rectangle_401152-2" data-name="Rectangle 401152" width="2.778" height="2.612" transform="translate(0 0)" fill="#34054d"/>
        </g>
      </g>
      <g id="Group_1099531-2" data-name="Group 1099531" transform="translate(13.724 0)">
        <g id="Group_1099530-2" data-name="Group 1099530" transform="translate(0)" clip-path="url(#clip-path-9)">
          <rect id="Rectangle_401153-2" data-name="Rectangle 401153" width="2.777" height="2.612" transform="translate(0 0)" fill="#34054d"/>
        </g>
      </g>
      <g id="Group_1099533-2" data-name="Group 1099533" transform="translate(6.862 0)">
        <g id="Group_1099532-2" data-name="Group 1099532" clip-path="url(#clip-path-4)">
          <rect id="Rectangle_401154-2" data-name="Rectangle 401154" width="2.778" height="2.612" transform="translate(0 0)" fill="#34054d"/>
        </g>
      </g>
      <g id="Group_1099535-2" data-name="Group 1099535" transform="translate(0 0)">
        <g id="Group_1099534-2" data-name="Group 1099534" transform="translate(0)" clip-path="url(#clip-path-5)">
          <rect id="Rectangle_401155-2" data-name="Rectangle 401155" width="2.778" height="2.612" transform="translate(0 0)" fill="#34054d"/>
        </g>
      </g>
    </g>
    <path id="Path_873784" data-name="Path 873784" d="M83.8,18.565A18.62,18.62,0,0,0,65.231,0H18.566A18.62,18.62,0,0,0,0,18.566V65.231A18.62,18.62,0,0,0,18.565,83.8H65.231A18.62,18.62,0,0,0,83.8,65.23Z" transform="translate(-22994.928 -3692.332) rotate(-135)" fill="#bfa9fe"/>
    <path id="Path_873785" data-name="Path 873785" d="M86.438,19.15A19.206,19.206,0,0,0,67.287,0H19.151A19.207,19.207,0,0,0,0,19.151V67.287a19.206,19.206,0,0,0,19.15,19.15H67.287A19.207,19.207,0,0,0,86.437,67.286Z" transform="translate(-22999.16 -3696.04) rotate(-135)" fill="#34054d"/>
    <g id="Mask_Group_1098697" data-name="Mask Group 1098697" transform="translate(-23031.146 -3787.541)" clip-path="url(#clip-path-22)">
      <g id="Group_1103996" data-name="Group 1103996" transform="translate(-3646.386 -2363.884)">
        <path id="Path_878195" data-name="Path 878195" d="M3692.665,2372.79c-.032-.437-.06-.823-.1-1.337-.276.221-.476.365-.659.529-1.827,1.643-3.667,3.272-5.466,4.945a6.84,6.84,0,0,0-1.266,1.589q-3.4,5.95-6.718,11.942a1.662,1.662,0,0,1-1.676,1.007c-2.827-.048-5.655-.042-8.481,0a2.582,2.582,0,0,0-1.418.5c-4.341,3.281-8.656,6.6-12.978,9.9-.146.112-.3.213-.52.366l-1.025-1.288c.511-.4.993-.8,1.485-1.174,4.133-3.161,8.258-6.334,12.418-9.46a3.023,3.023,0,0,1,1.653-.555c2.747-.056,5.5-.04,8.244-.013a1.091,1.091,0,0,0,1.114-.641q3.291-5.918,6.638-11.805a5.711,5.711,0,0,1,1.072-1.349c1.748-1.613,3.529-3.188,5.3-4.779.25-.225.5-.453.86-.786l-1-.123v-1.646c1.141,0,2.273-.05,3.395.036a1.08,1.08,0,0,1,.706.766c.083,1.1.034,2.209.034,3.372Z" transform="translate(0)" fill="#f3f9ff"/>
        <path id="Path_878196" data-name="Path 878196" d="M3655.634,2443.783a5.913,5.913,0,1,1,5.857,5.932A5.941,5.941,0,0,1,3655.634,2443.783Zm5.025-4.016a3.99,3.99,0,0,0-3.269,3.239,4.285,4.285,0,0,0,2.074,4.447,3.8,3.8,0,0,0,4.27-.209c-.518-.674-1-1.215-2.058-.969a2.474,2.474,0,0,1-1.758-4.364C3660.886,2441.338,3660.719,2440.588,3660.659,2439.768Zm4.4,6.238a3.715,3.715,0,0,0-.025-4.427A2.65,2.65,0,0,0,3665.054,2446.006Zm-2.608-1.935.036-.355c-.3-.253-.588-.691-.9-.7a1.152,1.152,0,0,0-.829.7.684.684,0,0,0,.726.881C3661.808,2444.583,3662.125,2444.256,3662.446,2444.071Zm0-2.638,1.446-1.2-1.446-.587Z" transform="translate(-2.754 -58.272)" fill="#f3f9ff"/>
        <path id="Path_878197" data-name="Path 878197" d="M3851.8,2485.736c-1,0-2,.01-3.006,0-.911-.012-1.195-.29-1.2-1.174-.008-1.767-.039-3.536.025-5.3a1.825,1.825,0,0,1,.6-1.177c.9-.771,1.886-1.436,2.825-2.161a1.094,1.094,0,0,1,1.5-.03c.959.741,1.971,1.418,2.89,2.205a1.828,1.828,0,0,1,.58,1.188c.062,1.765.035,3.533.022,5.3-.005.836-.305,1.134-1.151,1.148C3853.86,2485.749,3852.832,2485.736,3851.8,2485.736Zm2.553-1.757c0-1.463.011-2.883-.013-4.3a.79.79,0,0,0-.292-.518c-.723-.57-1.468-1.111-2.229-1.679-.776.575-1.522,1.117-2.251,1.68a.687.687,0,0,0-.266.448c-.021,1.445-.012,2.89-.012,4.36h1.636c.025-.57.049-1.085.072-1.589h1.706v1.6Z" transform="translate(-164.275 -90.042)" fill="#f3f9ff"/>
        <path id="Path_878198" data-name="Path 878198" d="M3915.724,2485.716c-.978,0-1.955.008-2.933,0-.95-.01-1.248-.3-1.252-1.219-.009-1.745-.04-3.491.025-5.233a1.84,1.84,0,0,1,.591-1.187c.922-.788,1.933-1.47,2.9-2.209a1.061,1.061,0,0,1,1.441,0c.987.754,2.008,1.465,2.964,2.255a1.5,1.5,0,0,1,.5.99c.048,1.849.015,3.7.026,5.551,0,.747-.39,1.051-1.083,1.054C3917.839,2485.72,3916.781,2485.716,3915.724,2485.716Zm-.857-1.741c.028-.584.052-1.1.077-1.636h1.684v1.618h1.7v-2.08c0-2.623-.007-2.613-2.128-4.121a.613.613,0,0,0-.888.024c-.529.434-1.1.818-1.632,1.247-.17.137-.391.35-.4.532-.032,1.463-.018,2.928-.018,4.416Z" transform="translate(-218.08 -90.022)" fill="#f3f9ff"/>
        <path id="Path_878199" data-name="Path 878199" d="M3723.708,2635.021c-1.029,0-2.058.011-3.087,0-.8-.012-1.1-.3-1.1-1.1-.01-1.795-.036-3.59.022-5.383a1.714,1.714,0,0,1,.562-1.115c.946-.8,1.972-1.5,2.954-2.257a.99.99,0,0,1,1.36-.01c1,.772,2.048,1.493,3.017,2.3a1.6,1.6,0,0,1,.5,1.064c.051,1.793.03,3.589.02,5.383-.005.855-.272,1.1-1.159,1.114C3725.765,2635.029,3724.736,2635.021,3723.708,2635.021Zm.032-8.242c-.764.577-1.5,1.124-2.227,1.693a.686.686,0,0,0-.27.439c-.021,1.44-.012,2.88-.012,4.348h1.616l.086-1.55h1.619c.025.533.049,1.022.074,1.548h1.672c0-1.463.008-2.88-.011-4.3a.678.678,0,0,0-.25-.45C3725.289,2627.927,3724.525,2627.368,3723.739,2626.779Z" transform="translate(-56.499 -215.66)" fill="#f3f9ff"/>
        <path id="Path_878200" data-name="Path 878200" d="M3659.767,2634.965c-1.029,0-2.057.011-3.085,0-.825-.011-1.1-.28-1.109-1.087-.012-1.794-.035-3.589.021-5.381a1.714,1.714,0,0,1,.545-1.126c.966-.814,2.01-1.535,3.018-2.3a.913.913,0,0,1,1.226-.021c1.051.8,2.128,1.559,3.149,2.391a1.4,1.4,0,0,1,.454.937c.043,1.845.02,3.693.022,5.54a.929.929,0,0,1-1.076,1.052C3661.877,2634.958,3660.822,2634.965,3659.767,2634.965Zm.87-1.757h1.676c0-1.481.009-2.925-.013-4.368a.7.7,0,0,0-.284-.436c-.727-.565-1.469-1.11-2.231-1.68-.758.569-1.5,1.114-2.222,1.678a.693.693,0,0,0-.284.432c-.021,1.441-.013,2.882-.013,4.348h1.689v-1.52h1.682Z" transform="translate(-2.689 -215.604)" fill="#f3f9ff"/>
        <path id="Path_878201" data-name="Path 878201" d="M3915.776,2410.914c-1.031,0-2.061.008-3.092,0-.844-.009-1.133-.3-1.138-1.15-.01-1.771-.036-3.543.023-5.313a1.722,1.722,0,0,1,.556-1.129c.948-.8,1.98-1.5,2.965-2.252a1,1,0,0,1,1.365-.008c.987.753,2.011,1.46,2.965,2.253a1.6,1.6,0,0,1,.537,1.052c.054,1.822.034,3.647.021,5.471-.005.823-.266,1.067-1.111,1.076C3917.838,2410.922,3916.807,2410.914,3915.776,2410.914Zm2.557-1.737c0-1.492.007-2.885-.01-4.278a.68.68,0,0,0-.22-.47c-.761-.6-1.544-1.168-2.328-1.755-.771.579-1.492,1.11-2.2,1.66a.7.7,0,0,0-.289.43c-.021,1.465-.013,2.93-.013,4.387h1.6c.025-.547.047-1.038.072-1.569h1.642c.027.554.052,1.067.078,1.593Z" transform="translate(-218.088 -27.089)" fill="#f3f9ff"/>
        <path id="Path_878202" data-name="Path 878202" d="M3851.841,2634.995c-1,0-2,.006-3.007,0-.976-.007-1.231-.253-1.234-1.2-.006-1.742-.038-3.485.025-5.225a1.827,1.827,0,0,1,.577-1.187c.941-.8,1.971-1.5,2.955-2.254a.952.952,0,0,1,1.293-.026c1.029.782,2.088,1.526,3.084,2.347a1.5,1.5,0,0,1,.489,1c.047,1.846.023,3.694.021,5.542a.906.906,0,0,1-1.036,1.011Zm2.519-1.762c0-1.46.01-2.877-.014-4.294a.781.781,0,0,0-.3-.506c-.723-.569-1.468-1.111-2.231-1.681-.762.574-1.5,1.121-2.226,1.688a.692.692,0,0,0-.279.434c-.021,1.44-.013,2.881-.013,4.337H3851V2631.7h1.7v1.531Z" transform="translate(-164.277 -215.634)" fill="#f3f9ff"/>
        <path id="Path_878203" data-name="Path 878203" d="M3787.761,2634.963c-1.028,0-2.057.011-3.085,0-.811-.011-1.1-.291-1.1-1.1-.012-1.794-.032-3.588.019-5.38a1.609,1.609,0,0,1,.5-1.072c.99-.827,2.052-1.568,3.081-2.348a.912.912,0,0,1,1.225-.013c1.029.781,2.091,1.521,3.082,2.347a1.607,1.607,0,0,1,.5,1.069c.051,1.792.032,3.587.019,5.38-.007.866-.265,1.106-1.156,1.115C3789.818,2634.972,3788.79,2634.963,3787.761,2634.963Zm2.565-1.756c0-1.473.006-2.916-.01-4.358a.583.583,0,0,0-.216-.392c-.764-.589-1.542-1.16-2.308-1.731a12.906,12.906,0,0,1-1.4,1.024,2.074,2.074,0,0,0-1.128,2.258c.091,1.061.02,2.134.02,3.169h1.678v-1.522h1.707v1.552Z" transform="translate(-110.402 -215.602)" fill="#f3f9ff"/>
        <path id="Path_878204" data-name="Path 878204" d="M3915.817,2635.018c-1.055,0-2.11.012-3.165,0-.8-.012-1.092-.305-1.1-1.108-.012-1.794-.032-3.589.02-5.381a1.61,1.61,0,0,1,.513-1.066c.97-.811,2.014-1.531,3.017-2.3a.987.987,0,0,1,1.358,0c.981.757,2.008,1.457,2.953,2.255a1.709,1.709,0,0,1,.549,1.12c.057,1.792.033,3.588.022,5.381,0,.832-.262,1.092-1.083,1.1C3917.874,2635.03,3916.846,2635.018,3915.817,2635.018Zm-.854-3.317h1.693v1.556h1.68c0-1.485.009-2.929-.013-4.372a.709.709,0,0,0-.3-.427c-.729-.563-1.473-1.108-2.244-1.683-.756.57-1.5,1.116-2.218,1.684a.685.685,0,0,0-.269.438c-.021,1.442-.012,2.884-.012,4.355h1.6C3914.906,2632.719,3914.933,2632.23,3914.963,2631.7Z" transform="translate(-218.094 -215.657)" fill="#f3f9ff"/>
        <path id="Path_878205" data-name="Path 878205" d="M3787.78,2560.313c-1,0-2.009.009-3.013,0-.941-.01-1.2-.252-1.2-1.16-.009-1.771-.035-3.543.023-5.312a1.719,1.719,0,0,1,.559-1.123c.948-.8,1.976-1.5,2.961-2.257a.994.994,0,0,1,1.361,0c.984.757,2.01,1.462,2.962,2.256a1.611,1.611,0,0,1,.539,1.052c.054,1.823.036,3.647.02,5.471-.007.832-.25,1.054-1.122,1.067C3789.841,2560.325,3788.81,2560.313,3787.78,2560.313Zm.01-8.235c-.779.584-1.518,1.13-2.246,1.692a.6.6,0,0,0-.244.375c-.017,1.467-.011,2.935-.011,4.436h1.587c.029-.563.055-1.076.081-1.592h1.654c.027.559.052,1.071.077,1.6.234.019.389.039.544.043,1.093.027,1.093.026,1.094-1.035,0-1.029.014-2.058-.011-3.086a1.019,1.019,0,0,0-.241-.694C3789.345,2553.214,3788.573,2552.666,3787.79,2552.078Z" transform="translate(-110.395 -152.804)" fill="#f3f9ff"/>
        <path id="Path_878206" data-name="Path 878206" d="M3851.8,2560.364c-1.029,0-2.058.013-3.086,0-.832-.014-1.1-.277-1.1-1.089-.011-1.794-.036-3.589.022-5.381a1.709,1.709,0,0,1,.552-1.118c.924-.783,1.933-1.463,2.889-2.208a1.068,1.068,0,0,1,1.491-.015c.955.747,1.965,1.427,2.89,2.207a1.717,1.717,0,0,1,.573,1.111c.06,1.792.035,3.587.023,5.381-.006.841-.256,1.1-1.085,1.111C3853.906,2560.378,3852.851,2560.364,3851.8,2560.364Zm.879-1.729c.326.02.562.015.79.052.74.119.973-.2.916-.917a10.806,10.806,0,0,1,0-2.212,2.33,2.33,0,0,0-1.225-2.461c-1.363-.9-1.323-.964-2.608-.015-.318.235-.641.464-.941.721-.13.111-.292.282-.294.428-.022,1.462-.013,2.925-.013,4.4h1.62c.032-.566.061-1.081.089-1.571h1.662Z" transform="translate(-164.282 -152.855)" fill="#f3f9ff"/>
        <path id="Path_878207" data-name="Path 878207" d="M3723.735,2560.414c-1.029,0-2.057.012-3.085,0-.855-.014-1.118-.289-1.122-1.158-.008-1.741.012-3.482-.011-5.223a1.4,1.4,0,0,1,.626-1.272c.943-.676,1.879-1.363,2.783-2.088a1.13,1.13,0,0,1,1.619-.03c.927.74,1.926,1.391,2.823,2.163a1.823,1.823,0,0,1,.573,1.183c.062,1.765.033,3.534.023,5.3-.005.882-.241,1.112-1.144,1.125C3725.792,2560.426,3724.763,2560.415,3723.735,2560.414Zm.848-1.747h1.729c0-1.249-.048-2.435.018-3.615a1.54,1.54,0,0,0-.8-1.555c-.6-.375-1.169-1.145-1.739-1.133-.611.012-1.217.72-1.806,1.15-.269.2-.691.447-.7.688-.065,1.487-.033,2.977-.033,4.472h1.6c.036-.57.069-1.082.1-1.635.319,0,.555-.005.791,0,.256.007.512.026.833.043Z" transform="translate(-56.51 -152.905)" fill="#f3f9ff"/>
        <path id="Path_878208" data-name="Path 878208" d="M3915.74,2560.314c-1.028,0-2.057.013-3.085,0-.818-.014-1.1-.291-1.109-1.093-.013-1.793-.037-3.588.022-5.38a1.718,1.718,0,0,1,.564-1.119c.946-.8,1.972-1.5,2.955-2.252a1,1,0,0,1,1.36-.011c1,.769,2.044,1.494,3.02,2.3a1.488,1.488,0,0,1,.491.99c.048,1.845.015,3.692.027,5.538,0,.749-.377,1.04-1.081,1.034C3917.85,2560.308,3916.795,2560.314,3915.74,2560.314Zm.89-1.681a8.481,8.481,0,0,1,.907.005c.613.075.875-.145.807-.788a13.6,13.6,0,0,1-.01-1.425c0-2.528-.006-2.52-2.072-3.995-.354-.253-.6-.315-.958-.011-.521.443-1.1.813-1.639,1.243a.92.92,0,0,0-.375.55c-.031,1.444-.017,2.888-.017,4.371h1.6c.029-.559.057-1.073.083-1.588h1.677Z" transform="translate(-218.086 -152.805)" fill="#f3f9ff"/>
        <path id="Path_878209" data-name="Path 878209" d="M3666.512,2402.585v-1.577h10.894v1.577Z" transform="translate(-11.907 -27.269)" fill="#f3f9ff"/>
        <path id="Path_878210" data-name="Path 878210" d="M3666.518,2381.221v-1.541h10.906v1.541Z" transform="translate(-11.913 -9.323)" fill="#f3f9ff"/>
        <path id="Path_878211" data-name="Path 878211" d="M3666.521,2423.785v-1.616h5.83v1.616Z" transform="translate(-11.915 -45.076)" fill="#f3f9ff"/>
      </g>
    </g>
  </g>
</svg>
