<svg xmlns="http://www.w3.org/2000/svg" width="108" height="108" viewBox="0 0 108 108">
  <g id="Group_1107077" data-name="Group 1107077" transform="translate(-589.711 -8270.913)">
    <circle id="Ellipse_11574" data-name="Ellipse 11574" cx="54" cy="54" r="54" transform="translate(589.711 8270.913)" fill="#fff"/>
    <g id="Group_1102639" data-name="Group 1102639" transform="translate(609.836 8288.765)">
      <rect id="Rectangle_401104" data-name="Rectangle 401104" width="72" height="73" transform="translate(-0.125 0.235)" fill="none"/>
      <g id="Group_1102971" data-name="Group 1102971" transform="translate(-241.782 -30.512)">
        <g id="Group_1102957" data-name="Group 1102957">
          <path id="Path_877573" data-name="Path 877573" d="M257.7,89.521c3.389-1.873,5.431-6.108,3.536-13.468-5.8-7.642-10.493-18.367-6.65-26.516,6.06-14.533,28.635-17.126,40.13-4.174,4.227,6.817,2.393,9.52,3.642,14.285,2.64,3.588,7.79,4.67,8.547,7.954.234,3.016-3.446,2.731-5.8,5.067a8.017,8.017,0,0,0,1.507,3.81c.031.689-.5,1.179-1.594,1.58,1.1.085,1.99.708,2.06,1.354.12.781-1.694,1.448-1.591,2.722.079,1.478.385,1.66,1.054,3.2.738,1.628-.112,3.011-1.942,3.408a49.421,49.421,0,0,1-13.1,1.175c-3.824,1.966-6.983,8.434-7.266,12.142l-4.528,0A36.549,36.549,0,0,1,257.7,89.521Z" fill="#4b0d6b" fill-rule="evenodd"/>
        </g>
        <g id="Group_1102958" data-name="Group 1102958">
          <path id="Path_877574" data-name="Path 877574" d="M253.169,89.516c3.388-1.872,5.432-6.108,3.535-13.468-5.8-7.643-10.493-18.367-6.649-26.516,6.059-14.534,28.633-17.126,40.129-4.174,4.228,6.816,2.394,9.52,3.643,14.285,2.64,3.588,7.79,4.67,8.547,7.955.233,3.015-3.446,2.73-5.8,5.066a8.016,8.016,0,0,0,1.508,3.809c.03.69-.5,1.179-1.6,1.581,1.1.084,1.991.707,2.061,1.354.121.781-1.694,1.447-1.59,2.722.079,1.478.384,1.66,1.053,3.195.739,1.63-.113,3.012-1.942,3.409a49.368,49.368,0,0,1-13.1,1.174c-3.825,1.967-6.984,8.435-7.267,12.143C265.324,100.105,258.049,95.742,253.169,89.516Z" fill="#bfa9fe" fill-rule="evenodd"/>
        </g>
        <g id="Group_1102970" data-name="Group 1102970">
          <g id="Group_1102959" data-name="Group 1102959">
            <path id="Path_877575" data-name="Path 877575" d="M264.34,31.748a14.092,14.092,0,0,1,10.587,23.393h0l-.022.024c-.123.138-.248.276-.376.41a14.183,14.183,0,0,0-3.743,9.522,1.272,1.272,0,0,1-1.268,1.269H259.161a1.272,1.272,0,0,1-1.268-1.269,14.184,14.184,0,0,0-3.744-9.522c-.128-.134-.253-.272-.376-.41l-.021-.024h0A14.092,14.092,0,0,1,264.34,31.748Z" fill="#e0ad15" fill-rule="evenodd"/>
          </g>
          <g id="Group_1102960" data-name="Group 1102960">
            <path id="Path_877576" data-name="Path 877576" d="M256.149,54.923l.018.021.029.038c.095.121.191.24.29.356l.039.047.038.049a21,21,0,0,1,4.448,10.932h6.656a21.012,21.012,0,0,1,4.447-10.932l.039-.049.039-.047c.1-.118.2-.24.3-.363l.022-.026A13.007,13.007,0,0,0,275.2,46.89c0-6.756-4.861-12.231-10.86-12.231s-10.862,5.475-10.862,12.231A13.106,13.106,0,0,0,256.149,54.923Z" fill="#edc54a" fill-rule="evenodd"/>
          </g>
          <g id="Group_1102961" data-name="Group 1102961">
            <rect id="Rectangle_403706" data-name="Rectangle 403706" width="10.489" height="5.552" transform="translate(259.161 66.366)" fill="#785b68"/>
          </g>
          <g id="Group_1102962" data-name="Group 1102962">
            <path id="Path_877577" data-name="Path 877577" d="M263.094,66.358a108.816,108.816,0,0,0-.011-11.815,37.1,37.1,0,0,0-.786-5.661,6.65,6.65,0,0,1-1.847.443c-3.07.24-4.716-2.927-3.521-5.585,1.067-2.378,3-1.027,4.087.684a13.631,13.631,0,0,1,1.565,3.9,10.736,10.736,0,0,0,1.358-.73c.08-.05.148-.095.207-.134l.349.222c-.079.051-.276.218-.338.258a11.345,11.345,0,0,1-1.477.787,37.1,37.1,0,0,1,.811,5.789,108.875,108.875,0,0,1,.011,11.859l-.408-.016ZM262.2,48.481a13.256,13.256,0,0,0-1.531-3.837c-.874-1.378-2.44-2.8-3.367-.737-1.068,2.375.355,5.226,3.118,5.01A6.317,6.317,0,0,0,262.2,48.481Z" fill="#fff" fill-rule="evenodd"/>
          </g>
          <g id="Group_1102963" data-name="Group 1102963">
            <path id="Path_877578" data-name="Path 877578" d="M265.2,66.358a109.072,109.072,0,0,1,.011-11.815A36.973,36.973,0,0,1,266,48.882a6.643,6.643,0,0,0,1.846.443c3.07.24,4.716-2.927,3.522-5.585-1.068-2.378-3-1.027-4.088.684a13.573,13.573,0,0,0-1.564,3.9,10.83,10.83,0,0,1-1.36-.73c-.079-.05-.147-.095-.207-.134l-.223.342.213.138a11.217,11.217,0,0,0,1.477.787,37.213,37.213,0,0,0-.811,5.789,108.875,108.875,0,0,0-.011,11.859l.408-.016Zm.895-17.877a13.255,13.255,0,0,1,1.53-3.837c.875-1.378,2.44-2.8,3.367-.737,1.068,2.375-.354,5.226-3.118,5.01A6.3,6.3,0,0,1,266.094,48.481Z" fill="#fff" fill-rule="evenodd"/>
          </g>
          <g id="Group_1102964" data-name="Group 1102964">
            <path id="Path_877579" data-name="Path 877579" d="M269.65,71.918a4.926,4.926,0,0,1-4.911,4.912h-.666a4.927,4.927,0,0,1-4.912-4.912Z" fill="#5a3445" fill-rule="evenodd"/>
          </g>
          <g id="Group_1102965" data-name="Group 1102965">
            <rect id="Rectangle_403707" data-name="Rectangle 403707" width="11.137" height="1.142" transform="translate(258.838 66.286)" fill="#785b68"/>
          </g>
          <g id="Group_1102966" data-name="Group 1102966">
            <rect id="Rectangle_403708" data-name="Rectangle 403708" width="11.137" height="1.142" transform="translate(258.838 68.569)" fill="#785b68"/>
          </g>
          <g id="Group_1102967" data-name="Group 1102967">
            <rect id="Rectangle_403709" data-name="Rectangle 403709" width="11.137" height="1.142" transform="translate(258.838 70.852)" fill="#785b68"/>
          </g>
          <g id="Group_1102968" data-name="Group 1102968">
            <path id="Path_877580" data-name="Path 877580" d="M259.138,67.427H269.65v1.142H260.3Z" fill="#5a3445" fill-rule="evenodd"/>
          </g>
          <g id="Group_1102969" data-name="Group 1102969">
            <path id="Path_877581" data-name="Path 877581" d="M259.138,69.71H269.65v1.142H260.3Z" fill="#5a3445" fill-rule="evenodd"/>
          </g>
        </g>
      </g>
    </g>
  </g>
</svg>
